ply
format ascii 1.0
element vertex 300
property float x
property float y
property float z
end_header
53.668476769284155 56.8635044389435 38.848770636188235
53.683623576815265 56.873295831617085 38.8494455428672
53.77387490703735 56.90778493837749 38.799088905583375
53.69785280406109 56.88317132820246 38.85021613858843
53.774752668147386 56.90893345709094 38.799602019051086
53.77907005961383 56.91501155696362 38.80180749614284
53.80496286462098 56.97045707600911 38.77135202165595
53.78362393154135 56.92126564254086 38.80425024534254
53.85976090496403 57.00766824735139 38.76548108997336
53.80538508142827 56.97067928117233 38.77177339075737
53.92379879622198 56.920795546825794 38.81733042207564
53.923985753939334 56.91979685585536 38.817354457118235
53.92410444951752 56.91979899079502 38.81700308218499
53.924583440466826 56.91928258638333 38.81588769416768
53.924637924645154 56.92320754100851 38.813465005878655
53.92557059240149 56.917497186876076 38.814004588657355
53.98503375714354 56.926365929836145 38.804090414954885
53.92675288275091 56.915070154287115 38.81191561208837
53.991196069939306 56.91839752243484 38.802680408825935
53.99145185650636 56.91803011343219 38.802725875535295
53.99220476674843 56.91708169147221 38.80248222912171
53.55197588380878 56.553015482224396 38.931496493522346
53.55175029259701 56.55280106258572 38.93182760541968
53.552230223638105 56.55322077528194 38.931149117884615
53.60037552611574 56.608378556907624 38.87694421791868
53.63110672871552 56.63057294791146 38.83775386127611
53.600360124682155 56.60835805706837 38.87695042594757
53.63139272756353 56.63091415594741 38.83758165104486
53.69448785005126 56.61531162319666 38.845801956790574
53.695438354467036 56.615138049553615 38.845870837905395
53.57120098347377 56.71283659411496 38.843928560291346
53.57484252164312 56.70969798694355 38.843237213664004
53.71976014228524 56.77375938868657 38.8436723082995
53.78675947779878 56.764960770581425 38.8499056505779
53.69629834074824 56.61496651184825 38.84594057898205
53.78926531190291 56.7686905601217 38.85061646186405
53.788020716578735 56.763683220425364 38.850499267424155
53.936900441340384 56.73597052420418 38.89029570757242
53.9370492609401 56.73512172595636 38.8903605350679
53.93697006986184 56.735573409325525 38.89032607811469
53.662989030160674 56.85554469300065 38.84763634246788
53.673772082782534 56.86053234834449 38.84771695061246
53.79067695773701 56.77919315629933 38.850388813173694
53.79332099798828 56.78365791403607 38.851099261928695
53.933629276815225 56.75462903475087 38.888874412957406
53.93409834518493 56.7519534311446 38.889078027712564
53.93651560486429 56.73816564178914 38.890128598581185
53.934697337431665 56.748536942649494 38.88933863581805
53.93628628495938 56.739473824895754 38.89002940402076
53.93536722200058 56.74471629427833 38.8896306247471
53.93619122137214 56.74001639039285 38.88998902671508
53.93587902734018 56.74179750973154 38.88985446537972
53.66799499194596 56.86285851971359 38.84868171830384
53.67981185144477 56.86862373740047 38.8488304267819
53.69042285299012 56.87458328023968 38.84912178563393
53.79805629807901 56.799665121654215 38.85177272830436
53.84609751784076 56.807540042926036 38.85926020433573
53.93052593556451 56.77233163514859 38.88752982086591
53.93116129676608 56.76870739306547 38.88780536460252
53.931992284904894 56.76396743364252 38.88816626186522
53.932929137435615 56.75862383825149 38.88857374159518
53.93576026865278 56.742475076726464 38.88980335925316
53.93387441808639 56.753232398772724 38.888985529666456
53.93558521662102 56.74347416104356 38.88972898828522
54.0082963816118 56.762251537995475 38.87554763453826
54.009756456876545 56.758775190042456 38.87566363334174
54.01164962619515 56.757814835508455 38.875523719149754
53.777564545830586 56.91261991895704 38.801240401093565
53.780670076525205 56.916729209714596 38.803021801244284
53.926843765117695 56.793336956201706 38.88593687844061
53.92757354539736 56.7891739712402 38.88625293197756
53.928580496123836 56.78342997307863 38.88668927031782
53.92976964868102 56.77664679684192 38.88720502573119
53.93099746301263 56.76964327165234 38.88773807341532
54.002587991993984 56.7756222197324 38.87511217757851
54.00794660320129 56.76767608129583 38.87514402992735
54.01262993973617 56.7572402726004 38.87545759404965
54.01284469796185 56.76067225090807 38.87515191235212
54.01562976547865 56.75476821400748 38.87531367312009
54.15408153778168 56.75538068089498 38.880636917961
54.15661822088786 56.75266303974543 38.880762981560366
54.16360796431368 56.74668434117983 38.88137475313445
54.16423292838702 56.74602958498673 38.88140840196658
54.16639773242243 56.74420510042998 38.881602636319315
53.925009386548155 56.9168727221911 38.81601999187006
53.92641945563582 56.912328584083134 38.81447917660081
53.92787435903246 56.90762651105685 38.812897121289765
53.9971844561654 56.90982742672904 38.80365533108105
54.00284450010646 56.90231596056413 38.80290649683744
54.00804518250489 56.89535452826934 38.802387491005405
54.14516057364155 56.76498727101638 38.880202202930505
54.15511317389401 56.75563099088269 38.880925599414944
54.164024928677264 56.74751767849184 38.88161966566805
54.2852359519738 56.568440675854674 38.923943852888236
54.37618825986182 56.692600945891456 38.82582634854282
54.37384725809983 56.68931968789123 38.828199298451615
54.379531476259245 56.694895819733816 38.82440757661638
54.37748261243166 56.69185967295215 38.82661982136484
54.38095113113105 56.694396544545015 38.82501935600159
53.997093799902835 56.91066475845126 38.80163305303888
54.0024418413941 56.90358113939199 38.80088638071821
54.00721954150157 56.897194560458296 38.80038500132891
53.57211820100633 56.511037645422654 38.95907528626991
53.782686527253915 56.49946419258497 38.93238064421554
53.78276491454116 56.49909430889464 38.932782259959794
53.866834853240974 56.491905319896986 38.945460679749736
53.569719734934054 56.51207983129278 38.959523028735575
53.66209911310859 56.52524109671147 38.92562105891473
53.78249145705857 56.50042775697999 38.93133567377613
53.88250445727029 56.528078127563944 38.921869424015725
53.86696058106858 56.49178806937177 38.945578782776735
53.935998351390694 56.53467067493611 38.929602985746
53.920062644557575 56.49308787243849 38.95753714542936
53.936667483139665 56.535458814303006 38.929014607596315
53.93643990539911 56.535180701125455 38.92922328279771
53.93699695929845 56.53584660588166 38.928725135004825
53.552491552299685 56.553431774523304 38.93079215065165
53.69513541471413 56.6144858051058 38.84621109986243
53.785946906873455 56.56912033171237 38.88806015186191
53.88140285415261 56.53449199004015 38.916166011039195
53.93700618178041 56.53590188614791 38.92867921942993
53.93762343934704 56.53663112625487 38.92813458173276
53.938224799010676 56.53734077636271 38.92760465921497
53.93751943542166 56.53647180210682 38.92825737579789
53.938745684668845 56.537954359431794 38.927146588603684
53.9383928926128 56.53751721937888 38.92747519135317
53.99464567723247 56.535838065678924 38.92304137319991
53.99472584549531 56.53573958363983 38.92309963398169
53.99484382645414 56.53559883602476 38.92318124073453
53.696530970411004 56.614713181998795 38.84606537454848
53.91106548763919 56.56663476769769 38.89244780621436
53.91303025502111 56.56676790894801 38.8928228096173
53.91498663099371 56.56689953233165 38.893196993099146
53.938824227969974 56.53808500711331 38.92704506539381
53.939280503369176 56.538622905877546 38.92664345256266
53.99406641270933 56.536552475524786 38.92261762104642
54.03884250472804 56.58390264254095 38.89123362755389
53.99520337283816 56.53516961886065 38.923430222858606
54.04251498879189 56.584578364241096 38.89065089308154
54.04218949582488 56.58451088229589 38.89070920799475
54.14023317288431 56.55626635344895 38.925289496066256
53.93742999498687 56.73295035422333 38.89052683629136
53.937974677883446 56.72984401378616 38.89076489309406
53.93850735715032 56.726806416254355 38.89099850936242
53.93898962927186 56.724056584125286 38.89121091828642
54.03996988942487 56.58413078201996 38.89103655747335
54.0433645438506 56.5847538826679 38.89049922636807
54.04671540996854 56.58536974230863 38.88996812700593
54.140712883234116 56.55624410531529 38.92533804575753
54.236393969201046 56.52682402861116 38.95812230964317
54.2368163030504 56.52589510597933 38.95911334932921
54.23668425825599 56.526188550237976 38.95879532141237
54.23693056593484 56.5256469333756 38.959372931382795
54.28313102373609 56.56618233822759 38.92609464736278
54.28310537163078 56.56602870193795 38.92625486251336
54.28425118918963 56.56620944716204 38.9261982553174
53.93608494334963 56.740623223187534 38.8899446247822
53.93674208477525 56.736875797773536 38.89023258999045
54.01375977114977 56.74912408714857 38.875991462679636
54.01851138830642 56.74394617216349 38.87586680814711
54.14135197792518 56.56257699268751 38.91961070096969
54.28136437599973 56.567099196614485 38.924911600033205
54.28331080777647 56.56713032593471 38.92510860756712
54.28538781022986 56.567195263556364 38.925285126353444
54.28539476761168 56.56639468704313 38.926136607604164
54.28749486014142 56.567311775999414 38.92541039576677
54.28763793867335 56.56668414163981 38.92609420661943
54.289517501088994 56.56744412918749 38.925508855639244
54.289747082599405 56.566964510492 38.92604561665433
54.291351065319326 56.56758488808556 38.925576033536615
54.291625285630644 56.567216425420284 38.925999961516304
54.29293468802296 56.56773036020341 38.9256086582224
54.31375173843074 56.522926053604735 38.97153433359643
54.39637940047958 56.65093234262615 38.87151638879928
54.31456959449905 56.52353299674441 38.971013657387914
54.51052976837105 56.73608899794922 38.77497740787784
54.39646161262062 56.650670863629315 38.87169384760603
54.01335496340221 56.75560726211949 38.875507564968565
54.106778658323364 56.722348641316046 38.90834470647304
54.163100090744905 56.74571644159011 38.8810846972126
54.28345715300614 56.567817095364134 38.92439617455165
54.28533080146441 56.56786868328594 38.92456284005201
54.287228074881675 56.56794219786404 38.9247089998767
54.28905741520637 56.568026163387266 38.92483602471804
54.29073521404274 56.568115099924206 38.9249398541202
54.380572952913425 56.690753435796196 38.82796754384667
54.383669807826124 56.69320987372059 38.82638087758396
54.285249465964235 56.56837197439084 38.924018449630324
54.28694839571213 56.56842128546101 38.92416688122938
54.37657629364198 56.69049515933064 38.82761609991029
54.37994279625965 56.69280225724911 38.826190543993796
54.38319091572714 56.695232285550276 38.82464699196196
53.918121149344074 56.49003432599346 38.959599197887286
53.91880179371145 56.49072158739018 38.95908387316703
53.91858657162379 56.49038842867097 38.959309567897904
53.947567990886995 56.45912627320864 38.976680955859024
53.81918762541824 56.46472950898932 38.96769440823971
53.8683801106254 56.49023622092511 38.94728003998199
53.91858535832664 56.4909944256799 38.95898158351585
53.91914729140696 56.49156047243226 38.95855686749814
53.91979901467383 56.49224263176504 38.958050385402075
53.9204584021586 56.492957699055445 38.95752446766609
53.94904651539244 56.45909894215363 38.9765705550164
53.98140734289383 56.49090141744291 38.95290667153392
53.95206456275845 56.45905035360167 38.97634418958657
53.98260909004017 56.49069492693531 38.95296177805734
53.86709972841735 56.491635752562374 38.945745867208416
53.919597123218736 56.49243141138473 38.95799056921963
53.92015130003588 56.49302400940232 38.95755310199023
53.920757896005824 56.49368104672844 38.957069712825266
53.93693403992129 56.53572359025642 38.92882208731141
53.99649850002771 56.533570687596544 38.924379277652356
53.99739076772241 56.53249793711544 38.92500465495541
53.982914211655874 56.49077748669572 38.952893152379566
54.09412218419273 56.50327789864966 38.9605547172414
54.19016829356663 56.472603790870224 38.99456274509604
54.193986269492946 56.47302304192626 38.99532790560349
54.19399773118058 56.47302131501654 38.99533147649999
54.19474588911902 56.473102042377306 38.9954820239899
53.937320642086235 56.53622776651241 38.92844059251735
53.93793414073602 56.53695118908613 38.927900443264626
53.99548126984122 56.53481340079628 38.92364683477988
53.996313812347594 56.533810741925635 38.92423204495831
54.092624184464626 56.50416400425041 38.95988992950036
54.19383295332233 56.47303310710673 38.995285701478444
54.2388026609124 56.521532702058664 38.963756617511535
54.19742974824804 56.47338830106174 38.99602350385862
54.23920163888184 56.52066064492213 38.96467793935884
54.23967854575608 56.51961626999699 38.96578460617983
54.239560166686196 56.519880135517724 38.96549734595637
54.23977263255256 56.519415046142676 38.965989864483056
54.303410615279866 56.51499138893182 38.97828962784419
54.30337667289996 56.5149641027523 38.97831262023299
54.303701641981725 56.51520796949732 38.97810395056555
53.99544275179426 56.53487624232546 38.92360350889938
54.059274259877895 56.54458933513302 38.93518486811071
54.23752204024114 56.52434250580039 38.96077031929528
54.23787873706959 56.52356031182043 38.961600931162
54.238238579036775 56.522773203958266 38.962433484921554
54.23857381035995 56.522042110104834 38.96320317758744
54.30535737664269 56.51653205511508 38.976986952781004
54.30706014380348 56.517804267321914 38.97589726127447
54.305390077625965 56.516477124336696 38.97701838344733
54.308808382563754 56.5191130605293 38.97477675005393
54.30749432936382 56.518064011718934 38.97566205706572
54.31044833369488 56.52034194207462 38.97372488157708
54.309403770213876 56.51950413331825 38.97443120146724
54.31188774638164 56.521421702024625 38.972800880274804
54.31104331375719 56.52074150095496 38.97337379444424
54.31305490197151 56.52229710951397 38.97205172910972
54.31232389712566 56.52170591918637 38.9725492418223
54.31390480160995 56.52293270510627 38.971507438358316
54.140752056159606 56.556199223557954 38.92538905571623
54.237081074899294 56.5253130844402 38.95973372449379
54.23740417343893 56.52460602141804 38.96048215284003
54.23772075215278 56.523914857127835 38.961211052453095
54.30699170575926 56.51781258015781 38.97590184052612
54.30854726189558 56.5189766011856 38.97490517191115
54.31011347259826 56.520149178241915 38.973901291983154
54.311557921954595 56.521229807699676 38.9729759764316
54.31281983654626 56.52217365291593 38.97216774146399
54.31382903171681 56.52292678611654 38.97152248479661
54.31456958806207 56.5234768924847 38.9710506716709
54.28539035566834 56.566251373299934 38.92628836521408
54.287675081521414 56.56641466541589 38.9263849312772
54.31111245893091 56.520938519291114 38.97323364927506
54.31238481682455 56.521889768235376 38.97241899426015
54.3134813372161 56.5227079259567 38.97171799866067
54.314356154418725 56.523358210397674 38.97116035333267
54.3149929630062 56.52382818864534 38.970756658190865
53.949015445708845 56.45909590148494 38.976573381510875
53.95208300800839 56.45904017281641 38.97634419104023
53.95484605878126 56.45899868783322 38.976136531238176
54.18972546358519 56.47249153429544 38.99450114699312
54.19408184369112 56.47293889704418 38.99538744057283
54.19833153662021 56.47336484342814 38.99625649223043
54.202110634070124 56.47373043929778 38.997034933104615
54.20520831154331 56.47401705174292 38.997678584256676
53.982949884752884 56.49063215142269 38.95297998711219
54.19003457138973 56.47256886672116 38.99454458190434
54.19408385576125 56.47299198045718 38.995365288448966
54.19803389472741 56.47339455643948 38.996170218265085
54.2015754206675 56.4737443655622 38.99689665223599
54.29766118889796 56.51046301356965 38.98212252743756
54.299197233798154 56.5115931506612 38.98115108189231
54.301104995427536 56.513015253256754 38.97993236078621
54.30323205024527 56.51461663317603 38.97856312026258
54.19757911284645 56.473393109146826 38.99605838477724
54.240249900145976 56.518366396232516 38.96710682675516
54.299725122369814 56.51213646892336 38.98071501864716
54.30130316360964 56.51330301665482 38.97971337679642
54.30317805195625 56.514700648597 38.97851563340373
54.30520729065973 56.516223612169526 38.97721250935058
54.30720843364419 56.51773357990943 38.975922090280264
54.309027276952875 56.51911204583992 38.97474523227722
54.30522858940931 56.51634821944661 38.97712717105586
54.307116221900785 56.51776106559822 38.97591751652641
54.30895204860373 56.519140927385244 38.97473724033023
54.310564010773035 56.52035494993962 38.97369929030872
54.31190488748403 56.521367069617774 38.97283440209141
