ply
format ascii 1.0
element vertex 1284
property float x
property float y
property float z
end_header
68.29289287769285 49.78069040416514 49.64102031879119
68.29290694001168 49.780700620060855 49.64103777737298
68.34801731076757 49.83664487279877 49.71136917316275
68.34804314060031 49.8366569099639 49.7113979553673
68.40516708251536 49.87087644373323 49.78424342559664
68.34802795630078 49.836649805247035 49.71138101010229
68.40517364427583 49.87087914780144 49.784250479664266
68.40520988551405 49.87089366982728 49.78428919189683
68.4051901653884 49.870885822777055 49.7842681602029
68.40517897303783 49.87088127145882 49.784256164779514
68.40521478479201 49.87089563827273 49.78429442839122
68.4052767827802 49.87092049316871 49.784360660742834
68.40527380549558 49.870919307598086 49.784357484932734
68.40527913146497 49.870921432729745 49.78436316862333
68.40533195208778 49.870942655176805 49.784419624899
68.40535328696238 49.8709512142817 49.78444242050929
68.40538637880506 49.87096452715393 49.78447780035768
68.4052099183549 49.870893669371696 49.78428921879515
68.40525654773032 49.87091241379275 49.784339063396104
68.40528023817194 49.87092183987357 49.78436432896277
68.40523042295415 49.870901913691874 49.7843111382832
68.40526862975419 49.87091728535932 49.78435198737008
68.40529490353333 49.87092777417955 49.784380028987286
68.40535047166003 49.87094998935754 49.78443935507265
68.40532790889881 49.87094100994818 49.78441529095182
68.40535256402059 49.87095082686217 49.784441589545196
68.40542051737452 49.87097806597172 49.78451418203154
68.40542181054263 49.870978585031864 49.78451556390019
68.40548255343721 49.871002969541465 49.78458047513492
68.40549773811301 49.87100906593592 49.784596702237096
68.40553927432713 49.87102575796129 49.784641099478975
68.40557495035142 49.87104018798807 49.78467928877589
68.40558591111173 49.871044512563685 49.78469095632843
68.52275350624816 49.912414908832275 49.90297119076433
68.52275350359005 49.91241491762456 49.90297118548488
68.52275321762745 49.912414978619026 49.902971029663334
68.52275352102818 49.91241492148801 49.90297119145512
68.52275352635206 49.91241492184285 49.90297119366194
68.52275353433859 49.91241492981225 49.90297119350856
68.52275359268893 49.912414925299686 49.90297122160875
68.52275361943488 49.912414922685855 49.90297123474302
68.40531611337916 49.87093629140075 49.78440269598127
68.40533069008393 49.870942098366356 49.78441824613005
68.40535046370658 49.87095004837384 49.78443938395661
68.40536611627454 49.87095627760419 49.78445607801164
68.40542235201269 49.870978759656836 49.784516116842696
68.40539948680401 49.870969658810736 49.78449172950593
68.40542268187198 49.87097893040057 49.784516492368766
68.40542704465433 49.87098065954132 49.784521141168625
68.4054926738213 49.87100694256979 49.78459123611625
68.40549460080717 49.87100771621357 49.78459329538414
68.40556096391438 49.87103429035261 49.78466417252111
68.40557487798483 49.87103987450799 49.78467904052176
68.52275445314079 49.91241474023636 49.902971691184604
68.52275445566438 49.91241473987124 49.902971692479056
68.52275457096853 49.91241472457939 49.90297175097601
68.5227546315298 49.91241471644041 49.90297178175034
68.52275469488698 49.912414708272316 49.902971813783964
68.5227547901155 49.9124146986251 49.90297186070702
68.52275480502504 49.91241469652036 49.90297186833038
68.55651480679613 49.98448839007929 49.9559289121478
68.55652776313192 49.98450898158873 49.95594571463858
68.55652806384114 49.984509021297114 49.95594595055891
68.55653644337427 49.98452205456182 49.95595671764085
68.55655848682474 49.98455636275821 49.95598504975882
68.55656343675466 49.9845640636545 49.95599141073198
68.55658123532822 49.984591756059416 49.95601428377056
68.5566011549306 49.98462292182731 49.95603994347974
68.55660038192764 49.98462154165384 49.956038887696714
68.55660467890004 49.984628224494244 49.95604440880064
68.55662858105534 49.984665407829 49.95607512365092
68.40538332955703 49.87096311455349 49.78447442857741
68.40541727575318 49.870976717084744 49.78451068937123
68.40545956139749 49.87099373206537 49.78455590075499
68.40548579516698 49.87100417176072 49.78458387974821
68.40543789002677 49.87098501087614 49.78453272933109
68.40549857266195 49.87100929207482 49.784597528625525
68.40548740831751 49.87100490524801 49.78458565522153
68.40550391626701 49.871011475910706 49.78460326218466
68.40556219308246 49.871034752011916 49.78466546694318
68.52275461815421 49.912414711873 49.902971777918076
68.40556853373178 49.87103729596569 49.78467224184904
68.52275493654848 49.91241466295757 49.90297194256384
68.52275450857493 49.912414730645736 49.90297172035062
68.52275504579566 49.912414644402844 49.90297199988177
68.52275532191108 49.91241458991252 49.90297214828647
68.52275552222017 49.91241455506109 49.90297225376807
68.52275564912983 49.91241453212915 49.90297232099441
68.52275581930914 49.912414503565856 49.902972410122686
68.5227550001527 49.912414659948666 49.90297197230459
68.52275595128276 49.91241448227062 49.90297247884299
68.52275605601199 49.91241446533873 49.90297253339207
68.55653086985959 49.984512598284454 49.95594927926642
68.5565313895448 49.98451328419811 49.95594990399688
68.5565334545394 49.984516493164264 49.95595255635642
68.55655565031515 49.984550986997334 49.955981066171375
68.55656349322858 49.98456390124679 49.955991395320936
68.55656391857578 49.98456383588657 49.95599168630175
68.55657852465558 49.98458653292775 49.95601044672438
68.55659824907299 49.98461736429836 49.9560358448028
68.5565979121537 49.98461665688511 49.95603534741779
68.55660203907505 49.98462306832829 49.9560406475911
68.55662625222736 49.98466068582307 49.95607174462813
68.55663640970269 49.984677185328465 49.95608504263649
68.55663300747516 49.984671170881136 49.95608041694384
68.55665192507028 49.98470052547189 49.95610470031366
68.55666980833674 49.984728682350664 49.95612779915567
68.55666745967304 49.98472462889359 49.956124640525545
68.55667844888995 49.98474167847607 49.95613874584602
68.55670424043153 49.98478176022256 49.956171874257244
68.55670385063918 49.98478110116427 49.95617135484496
68.55670533959919 49.98478341311213 49.95617326666567
68.60409496481238 50.0683879952731 50.01070233131659
68.6041112351423 50.06841027676221 50.010720569180634
68.60412888124927 50.06843444284546 50.0107403442792
68.40552055886441 49.87101808309697 49.784621002501794
68.40557173428796 49.87103853447458 49.78467563420326
68.52275495085014 49.9124146690537 49.902971946096706
68.4055493134205 49.871029585633856 49.78465170585308
68.52275506893325 49.91241466104313 49.90297200244051
68.52275526305526 49.91241462101142 49.90297210757818
68.522755640662 49.912414545126666 49.90297231116775
68.52275541628669 49.91241459335791 49.90297218873148
68.52275570227985 49.91241453500765 49.90297234333508
68.52275613238548 49.91241445238517 49.90297257345409
68.52275629128603 49.91241442236633 49.90297265823499
68.52275662535233 49.91241435638072 49.90297283781417
68.52275692778267 49.91241430188122 49.90297299794794
68.52275701860039 49.91241428549387 49.90297304604502
68.55652874539675 49.98450840284268 49.95594623620832
68.55653787938513 49.984522575021316 49.95595796056598
68.55655097470768 49.98454290481995 49.95597477363954
68.5565669708741 49.984568044875445 49.95599541897958
68.55656882620104 49.984570626702805 49.95599769610267
68.55657341559682 49.98457775593897 49.956003589985265
68.55659612784436 49.984613048407596 49.9560327617871
68.55660245035963 49.98462286392039 49.95604087930862
68.5566201801669 49.984650379861776 49.95606363955196
68.55663356201643 49.98467168543268 49.95608100715861
68.55663495103731 49.9846732845369 49.9560825946058
68.55664576090604 49.984690041030966 49.956096464507525
68.55666673878963 49.98472280849023 49.95612346844673
68.55666686590959 49.98472274245728 49.95612353906252
68.55667268721291 49.98473175570867 49.9561310045861
68.55669936552495 49.98477313369639 49.956165243247725
68.556699202871 49.98477282539205 49.956165014802096
68.55670061198174 49.98477500808235 49.95616682224261
68.60409183731856 50.06838371430234 50.01069880712426
68.60410707241881 50.06840457628546 50.010715901333114
68.6041013277091 50.068396710364354 50.01070945076869
68.60412587731514 50.068430329453264 50.01073697373188
68.65509703334573 50.13070855398856 50.06086307976
68.6550969776674 50.1307083867683 50.06086294693492
68.65509710955037 50.13070874884385 50.060863204377824
68.69473823431534 50.253742724115796 50.11969182995871
68.69475748572617 50.25380143347532 50.11971687108896
68.69474952450138 50.25377713120892 50.11970649366404
68.69476421960238 50.253821912367215 50.11972557736553
68.73449648073807 50.35313422574491 50.17219093590026
68.73450127866774 50.353146810578565 50.172196412283995
68.7345297216606 50.35322141681018 50.172228877429426
68.73455588535077 50.353290043250425 50.172258740785864
68.7345637929163 50.35331078557504 50.17226776667067
68.52275556458048 49.91241456712094 49.902972267025
68.52275577160107 49.91241453254351 49.90297237536935
68.52275628139516 49.91241444401906 49.90297264374304
68.52275648538094 49.91241440222815 49.902972754094954
68.52275593213578 49.91241450128447 49.902972461456
68.52275698457854 49.912414304076634 49.90297302223121
68.52275705035117 49.912414291098926 49.90297305758119
68.52275757361028 49.91241418595558 49.90297333969475
68.5565206596388 49.9844953020185 49.955935662217655
68.55652140505379 49.98449641439831 49.95593660349223
68.55652178007736 49.984496993413444 49.9559370838635
68.55654296897866 49.98452984982612 49.95596427483213
68.55654421852753 49.98453165960932 49.9559658333977
68.55654603560316 49.984534473777735 49.95596816396804
68.55656860191775 49.984569471338915 49.95599712437617
68.55657307207107 49.984576405349856 49.956002861610074
68.55659144480134 49.98460491549563 49.95602644593074
68.55660344424449 49.984624065291726 49.95604203527036
68.55660469011448 49.98462547668885 49.956043451064545
68.55661467650698 49.984640977494216 49.95605627169141
68.5566367898717 49.98467537960778 49.9560846884321
68.55663699764321 49.984675594205314 49.95608491723665
68.55663915764671 49.98467894320929 49.956087688955954
68.55666457348833 49.98471834672084 49.95612030161512
68.55666930979547 49.984725681189175 49.9561263760875
68.55669171443019 49.98476037311788 49.95615510970832
68.55670093507099 49.984774644875216 49.9561669330339
68.60408357666039 50.068372411766184 50.01068945405872
68.6041006726146 50.068395815620626 50.01070869436613
68.60410058036886 50.06839569529105 50.01070853528201
68.60411899259272 50.06842090781651 50.010729194404114
68.65509682268693 50.13070787900686 50.06086250610351
68.65962640048272 50.11100355363881 50.06198860926885
68.6550969397276 50.13070817072284 50.06086268479738
68.65509753952423 50.13070982622963 50.060863870437956
68.69474341370555 50.253758475923206 50.11969852678068
68.65509764526072 50.13071011717365 50.06086407793716
68.6947541000159 50.25379097409561 50.11971234248092
68.69477684864219 50.25386032301965 50.11974190882793
68.69477247863848 50.253846983892636 50.119736213152535
68.73448615552982 50.3531058331138 50.17217896108994
68.7344987069908 50.35313993199092 50.172193457688756
68.73451866275798 50.3531910813812 50.17221606252245
68.73454154441066 50.35325171584769 50.17224226899002
68.73452901375259 50.353218226999516 50.172227876518555
68.73455204498944 50.35327862558897 50.17225416280897
68.73458530322925 50.35336590093026 50.172292129726756
68.73458406959386 50.35336260799434 50.17229071337877
68.73458625504809 50.35336833959986 50.1722932077557
68.73460540489312 50.35341952125751 50.17231520328528
68.73462076974036 50.353458881502675 50.172332604587424
68.73465114906193 50.35353888141297 50.172367325416715
68.7346436691216 50.35351893931329 50.17235874111149
68.73465641024555 50.353552355409 50.17237328339341
68.73469209403612 50.35364598192548 50.17241401726005
68.73470665943142 50.35368418311691 50.1724306417876
68.73472917664844 50.35374323814984 50.17245634205347
68.52275678561841 49.91241434863013 49.9029729128318
68.52275779419811 49.912414157988266 49.90297345100534
68.5227580059886 49.912414114821196 49.90297356547567
68.52275721062756 49.91241426559917 49.90297314087029
68.52275819381163 49.912414081100565 49.90297366486733
68.52275848855528 49.912414022350056 49.90297382355621
68.55653475612338 49.98451660080518 49.95595355492813
68.55653523736896 49.98451734298929 49.95595417106773
68.55655502487078 49.984547824599474 49.95597949274909
68.55656097149313 49.98455702046906 49.95598711497452
68.55657531540368 49.98457959066011 49.956005637288655
68.55657923728451 49.98458524181496 49.95601051883109
68.55658567160712 49.984595199126574 49.95601876873078
68.55660581804477 49.98462656174012 49.9560446650751
68.55660648078535 49.98462740972127 49.95604545237424
68.55661001869217 49.98463288721605 49.95604998944485
68.55663468343563 49.98467109013677 49.95608162562321
68.55663591233127 49.98467299217252 49.9560832013763
68.55666041070324 49.98471091943239 49.95611461784112
68.55666870242456 49.984724557564334 49.95612553275318
68.55666590938377 49.98471943149822 49.95612166903332
68.55668700450448 49.98475208640015 49.956148719937545
68.55669966402479 49.98477232874222 49.95616518058916
68.5566970546909 49.98476764356856 49.95616160746707
68.55671455515325 49.98479472261728 49.95618404483232
68.60409783657273 50.068391940441074 50.01070543502185
68.60409551067754 50.068388758962115 50.010702793222336
68.60411392865288 50.06841397854447 50.01072346640086
68.65962650464596 50.11099981351427 50.06198742702539
68.6596265659085 50.11099797498637 50.06198683998813
68.65962656491578 50.11100038308605 50.06198756253666
68.6596265537668 50.11100675498024 50.06198947940337
68.6596265702606 50.11100612035126 50.06198927948944
68.65962657170778 50.11100691939174 50.061989518201855
68.6550975994565 50.13070998041359 50.06086397002083
68.69474449211958 50.253761586427515 50.11969976402453
68.69476210023014 50.25381530967199 50.11972269114921
68.69475264835563 50.253786447630766 50.11971036189493
68.69477055921762 50.25384103800033 50.11973363068692
68.73450555195596 50.35315555061595 50.17220093258943
68.73450245621964 50.35314727484078 50.17219737656016
68.73450832828036 50.353162666473665 50.172204077426784
68.7345234091943 50.353203247115815 50.172221439028064
68.73454055427808 50.353247193557664 50.17224086024562
68.734566576428 50.353315866550545 50.17227062250958
68.73455784336566 50.35329253197675 50.172260592606435
68.73457389555044 50.35333462414243 50.17227891288563
68.73460747424163 50.353422715300354 50.17231724199135
68.73463093042375 50.353484911277405 50.17234411212213
68.7346168493552 50.3534472986652 50.17232794174306
68.73464231379934 50.35351407181711 50.17235700419974
68.7346769533377 50.35360496638992 50.17239654717858
68.73467565990553 50.35360151419478 50.17239506222889
68.73467796742011 50.353607563213274 50.17239769552853
68.73469822259975 50.353661673101925 50.1724209568855
68.73471412795658 50.35370239320791 50.172438966752246
68.73474516008686 50.353784148471846 50.17247443893165
68.73473587179356 50.35375939016096 50.17246378000503
68.73475178131147 50.35380109457449 50.17248193548391
68.78400081521242 50.471969253011636 50.21764080364337
68.78400127369741 50.47196907324411 50.217640921916995
68.7840010420261 50.47196933492083 50.21764073921493
68.78400127435273 50.471969113442526 50.21764089297395
68.78400128006422 50.47196924549668 50.217640797808265
68.78400128941385 50.47196943120255 50.21764066394625
68.78400129620053 50.471969424150174 50.21764066885707
68.78400129671893 50.47196942844283 50.2176406657555
68.78400132121529 50.4719696294994 50.217640520480614
68.78400134940134 50.471969773514786 50.21764041616393
68.8215992347159 50.5059930610732 50.24997992560046
68.52275829848217 49.912414062747004 49.90297372005242
68.52275852619728 49.91241402467361 49.90297383924563
68.55652943208989 49.98450832478068 49.95594671562928
68.55653228912361 49.984512589546824 49.95595032378667
68.52275870570642 49.91241399030181 49.90297393523629
68.55654157323472 49.98452692784296 49.955962217353445
68.5565435721156 49.984530032745724 49.95596478432854
68.55655509682342 49.984547849631 49.95597955465905
68.55657075983152 49.98457185061844 49.95599955363832
68.55656683429821 49.984565992695394 49.95599459670882
68.55657192911478 49.984573643822685 49.95600104712952
68.55659570280682 49.984610364606 49.95603150454426
68.55659613261088 49.98461102883021 49.956032055306224
68.55661765390465 49.98464417861628 49.95605959475939
68.55662425925756 49.98465436129742 49.95606805013106
68.55663633644187 49.98467357911602 49.956083720767126
68.55664122784029 49.98468051984641 49.956089771294174
68.55665290445421 49.98469852029125 49.95610471828204
68.55666559469084 49.984718718818016 49.95612118620247
68.55666578234715 49.98471837720781 49.9561212046201
68.556681857718 49.98474318312362 49.95614179095322
68.55669509901387 49.98476426041175 49.956158974559216
68.55669250581418 49.984759620866 49.956155429387024
68.55671040992416 49.98478728622493 49.956178370816275
68.6040923853335 50.068384481493204 50.01069926626002
68.60408899313154 50.06837983980745 50.0106954287191
68.60411017007463 50.06840883631406 50.01071920711709
68.65962665904765 50.11099488058416 50.0619858577853
68.65962673370676 50.110992464561235 50.06198508977487
68.65962672940611 50.11099561231373 50.0619860360121
68.65962667658346 50.11100153099025 50.06198784137482
68.65962672708102 50.11099963683192 50.06198724395539
68.65962672806953 50.111002050594294 50.06198796704287
68.65962672572965 50.11100842448539 50.061989879355934
68.65962673935462 50.1110077548068 50.061989670611766
68.6596267417975 50.11100857581576 50.061989915328155
68.69474821605432 50.253772915868495 50.119704582724395
68.69476117293499 50.253812330411286 50.11972134443248
68.73448804223783 50.353108796844424 50.17218082732628
68.69476940189296 50.25383741192519 50.11973203553693
68.73449872574736 50.35313617594183 50.17219292842883
68.73452838738149 50.35321406727246 50.17222679736521
68.73452513852382 50.35320539865165 50.172223067834
68.73453106641902 50.3532209317286 50.17222983170569
68.73454782311538 50.35326581924095 50.17224909322419
68.73456336799242 50.35330564670129 50.17226669929008
68.73459057435171 50.353377354103884 50.17229780283582
68.73458141941258 50.35335297665226 50.172287300617356
68.73459670403648 50.353393057321796 50.172304745057936
68.73461136846694 50.3534326909766 50.17232165232929
68.73463032907686 50.353481257739176 50.172343125285025
68.73465577849747 50.353548556500435 50.17237225235887
68.73464156767763 50.3535107245403 50.172355951389214
68.73466490609815 50.353571932645735 50.17238258884807
68.73469974912217 50.35366333736671 50.17242236067297
68.73472333789337 50.35372597007392 50.17244939501426
68.73470504433354 50.35367721798493 50.172428403416454
68.7347360994846 50.35375863636888 50.172463844382804
68.78400171150898 50.47196878325747 50.21764112000547
68.78400178018569 50.47196873578379 50.217641152507014
68.78400178082498 50.471968762790176 50.21764113305747
68.78400135907687 50.47196904746408 50.21764093840359
68.7840017879463 50.4719689189802 50.21764102048925
68.78400161751715 50.471969139126145 50.21764086619194
68.78400179587182 50.471968995110075 50.21764096551372
68.78400180659887 50.4719690820682 50.2176409026783
68.78400183192659 50.47196926614017 50.21764076960561
68.78400157429262 50.471969543132616 50.21764057651011
68.78400183892754 50.471969296576724 50.21764074753382
68.82160306920451 50.505995676446354 50.249982401304386
68.82161708563808 50.50600855621158 50.249991483046784
68.82161639371938 50.50600782046381 50.24999103376017
68.82161958447584 50.506010725269846 50.24999310090057
68.82162121139511 50.506012867262 50.24999416130616
68.82163657257615 50.506026198466785 50.250004106761416
68.82164643477604 50.50603550484993 50.250010499192186
68.82164396581953 50.50603292661573 50.25000889647015
68.8216545156616 50.50604251679796 50.25001573107698
68.82167092920452 50.506057523083406 50.250026365253156
68.82167012096541 50.506056670261856 50.250025840499774
68.82167401688116 50.50606020205143 50.250028364334455
68.82169473596845 50.506078965540496 50.2500417862956
68.82169456810935 50.506078783131116 50.25004167726097
68.82169563802579 50.506079748211405 50.250042370322575
68.55653548348853 49.98451742070714 49.955954380056724
68.55654694052676 49.98453514177024 49.955969066751635
68.55656594294418 49.98456478732969 49.95599351502324
68.55656847142009 49.984568538363796 49.95599670005767
68.55655600415015 49.984549269722706 49.955980723623185
68.55657857473801 49.984584321956575 49.95600970640617
68.5565816729225 49.98458895931611 49.95601362355091
68.55659803936774 49.984614037119414 49.956034520317154
68.55659354722778 49.984607314333736 49.95602884111237
68.55659675258474 49.98461196740995 49.956032842888945
68.55660018750932 49.98461740325823 49.95603728930476
68.55661675425407 49.98464274564071 49.95605842693176
68.55663319809722 49.98466786844321 49.95607939664707
68.55663366281732 49.98466858081021 49.95607999010639
68.55665238034928 49.98469728175354 49.95610389600972
68.55666839169179 49.984721846054626 49.95612435014036
68.5566725139986 49.98472816831868 49.95612961555592
68.55669352803892 49.98476074100746 49.95615657771007
68.55669465356236 49.9847621870142 49.95615791684095
68.5567016111386 49.98477290076504 49.95616681889888
68.60408819230136 50.06837874779991 50.01069448746433
68.60164513306765 50.03115728736712 50.000965482817605
68.60410334895104 50.06839950526757 50.01071146663111
68.65962681853337 50.11099012332454 50.061984338239114
68.65962691202546 50.11098795712127 50.06198363411147
68.6596269035135 50.1109909457567 50.06198453510727
68.65962682072038 50.11099652552969 50.061986256393254
68.65962689765779 50.11099426326359 50.06198553314782
68.65962689617149 50.110997237643446 50.06198642576045
68.65962684506746 50.11100316404729 50.06198823243467
68.65962689821481 50.111001335170016 50.06198765303721
68.65962690098908 50.11100368131167 50.06198835480697
68.69475044751198 50.25377954867998 50.119707325324214
68.69474837218269 50.253773209185056 50.11970461606592
68.69475237969446 50.25378542590764 50.11970982450015
68.69476485957705 50.25382354476854 50.11972611336557
68.73448949063823 50.353110695005896 50.17218220544613
68.7345103575194 50.35316598247273 50.17220610322502
68.73449744303039 50.35313152079362 50.17219127755931
68.73452153364607 50.35319461813244 50.172218761457756
68.73455021951992 50.353269996996104 50.17225152344649
68.7345449099204 50.35325584461048 50.17224543041343
68.73455444033132 50.35328081033596 50.172256303807494
68.73457040080508 50.35332366126875 50.17227466402218
68.73458676583026 50.35336558254916 50.172293197902455
68.73461297848597 50.35343473939464 50.17232317531872
68.73460139630036 50.3534039327403 50.17230989356797
68.7346204348542 50.353453835937785 50.17233161930305
68.73463460745906 50.353492214233725 50.17234797022138
68.73465375395865 50.35354124827892 50.17236965241486
68.73467930396325 50.35360880088422 50.17239889285088
68.7346637654585 50.35356750585315 50.172381079262976
68.73468801204041 50.3536310981806 50.17240875361207
68.73470184896604 50.35366871343925 50.172424738379334
68.73472233713935 50.35372116569193 50.172447937355784
68.73474797573353 50.353789033882364 50.17247729095105
68.73473115282317 50.35374428696052 50.1724579993342
68.7840022898996 50.47196846185345 50.21764133730217
68.78400229253924 50.47196861947204 50.217641223814354
68.78400196914362 50.47196886807321 50.21764105274001
68.78400229328915 50.47196862940481 50.21764121664849
68.7840023104032 50.471968771584514 50.21764111392056
68.7840022249611 50.47196896223675 50.217640978791735
68.78400233043718 50.47196887792133 50.217641036914934
68.78400234055806 50.47196892964406 50.21764099944994
68.78400189992942 50.47196924497803 50.217640783189395
68.82160642157095 50.50599790147747 50.24998456513462
68.82161353424412 50.50600476359878 50.249989176846995
68.82161134931431 50.50600238443051 50.24998775755604
68.8216231298916 50.50601309518022 50.24999538949935
68.82163744150276 50.50602622461834 50.25000466228882
68.82163657282737 50.506025298082584 50.25000409820054
68.82164090618896 50.50602923211543 50.250006905474486
68.8216420133052 50.50603092005634 50.250007629309906
68.8216588083339 50.50604549515262 50.250018503092036
68.82166630448651 50.50605274592408 50.250023363625616
68.82166255363629 50.50604888970755 50.2500209293503
68.8216782493354 50.50606311081351 50.250031097194025
68.82169002195184 50.50607408957458 50.25003872664609
68.82168731596397 50.506071308945366 50.25003697049236
68.8216993747642 50.50608220532723 50.250044782027814
68.82171365327221 50.506095380872296 50.250054034109866
68.8217114798222 50.50609313640456 50.250052623459645
68.82172178767274 50.50610243943266 50.250059300644054
68.82173730993108 50.50611671818682 50.25006935821153
68.82173544925544 50.506114755343006 50.250068150162846
68.86255331328681 50.550413268828535 50.27656525534364
68.8625682394968 50.55042491895117 50.27657490395531
68.86258089949379 50.550434800273194 50.27658308763988
68.55658230353302 49.984589911718416 49.956014423844216
68.55659439898035 49.984608603210276 49.956029922926135
68.55661587905968 49.98464151187387 49.95605734718932
68.5566285443107 49.98466101203449 49.95607355115091
68.55663375925982 49.984668831310515 49.95608014935833
68.55661901948096 49.98464629401603 49.956061346409555
68.55663636994528 49.98467266844865 49.956083425344126
68.55663441882315 49.98467020780551 49.956081120115684
68.55664199444189 49.98468175696546 49.95609077206025
68.55664792491906 49.984690294584766 49.95609815095522
68.55666768335782 49.984720617440885 49.956123395373126
68.5566814032935 49.984741453529104 49.95614084747857
68.55668239039389 49.984742947955624 49.956142101458525
68.55670120934008 49.9847717341741 49.95616611219726
68.60164864562813 50.03115899854261 50.00096824090666
68.60165109630736 50.03116183698124 50.00097097754509
68.65962703350493 50.11098580750103 50.06198291858614
68.65962710037283 50.11098478310767 50.061982572354566
68.65962709270434 50.11098634589398 50.06198304537581
68.65962699573119 50.11099180907357 50.061984739999865
68.65962707858375 50.11099002231725 50.061984155856436
68.65962707266767 50.11099252224386 50.06198490881505
68.65962699415041 50.110998152582106 50.061986642760004
68.65962706898262 50.11099595350231 50.061985939689635
68.65962706865385 50.110998856139275 50.06198681011615
68.65962701518627 50.11100474078988 50.06198860565482
68.65962707296158 50.11100257538458 50.061987922656684
68.70175392116818 50.24739097192196 50.124117696864175
68.70178005902208 50.24745401065046 50.124148868954
68.70177606202103 50.24744436312239 50.12414409094029
68.70178483907563 50.24746552679416 50.12415455169335
68.73449308537052 50.35311990309181 50.17218627654174
68.73451284486806 50.3531705186043 50.17220865459278
68.73453170512371 50.353220671681754 50.172230280656294
68.73451469201365 50.35317535483031 50.172210761663834
68.73454497508177 50.35325466517756 50.17224530937587
68.73457214348772 50.35332616400087 50.17227635382356
68.73456451151144 50.353305856137695 50.172267600762424
68.73457745772733 50.353339777997064 50.1722823724796
68.73459255417058 50.35338040994051 50.17229975333551
68.73460990074102 50.35342484320788 50.17231939850111
68.73463552081576 50.35349247775025 50.17234870417586
68.73462270821457 50.35345842287703 50.1723340150012
68.7346431565679 50.35351203538406 50.17235735154561
68.73465746634797 50.35355075666719 50.172373856602476
68.73467616799495 50.35359865131332 50.17239503500914
68.73470256827012 50.353668369813356 50.17242523663779
68.73468826393764 50.353630372373175 50.172408840480514
68.73471021181233 50.35368794030381 50.17243389180273
68.734725521063 50.35372931644257 50.17245154247591
68.73474446790476 50.35377781606226 50.17247299522624
68.7840026103982 50.471968360470434 50.21764140250684
68.78400280604416 50.471968202110205 50.21764151173261
68.78400280902147 50.47196830003681 50.21764144119159
68.7840023137071 50.47196861271179 50.21764122816711
68.7840028176714 50.47196846501608 50.21764132226158
68.7840025505507 50.47196869559493 50.21764116279522
68.78400282235788 50.47196849072638 50.21764130364683
68.78400284760482 50.4719686119239 50.2176412158212
68.8216074365611 50.50599811795677 50.24998521584524
68.82160687452394 50.50599750699538 50.24998485076614
68.8216098837264 50.50600024394782 50.249986800261375
68.82161042753877 50.50600138065229 50.24998715878674
68.82162618660226 50.5060150687674 50.249997361959764
68.82163432878949 50.506022819614074 50.25000264017562
68.82163235324076 50.50602067065947 50.25000135691634
68.82164331271171 50.50603062136426 50.25000845678231
68.82165803092856 50.506044099425296 50.25001799278374
68.82165727416356 50.50604327840789 50.25001750123214
68.82166159209731 50.50604719124452 50.25002029844185
68.8216618400071 50.50604812644266 50.250020465923384
68.82168049424756 50.50606431778674 50.250032543461515
68.82168561517214 50.50606950284474 50.25003586613322
68.82168213529546 50.50606580093884 50.25003360651405
68.82170142052732 50.506083219133544 50.25004609916112
68.8217092293618 50.5060907564793 50.25005116228505
68.82170589173575 50.50608725698906 50.25004899552961
68.82172320535778 50.506102884421516 50.25006021090405
68.82173315363156 50.506112301200275 50.25006665940833
68.82173002649569 50.50610904184189 50.25006462948937
68.82174566772409 50.50612315936232 50.25007476152105
68.86256642895802 50.55042350240838 50.27657373359825
68.86256421979019 50.55042177436654 50.27657230556045
68.86258059934447 50.55043455893944 50.276582893643656
68.86259352709985 50.550444653029956 50.276591250398596
68.86259134156793 50.55044294341889 50.2765898376396
68.90584380224743 50.59529909698051 50.302247603186956
68.90584359596424 50.59529948599868 50.30224735794086
68.90584379072695 50.59529912615433 50.30224758870054
68.90584377087336 50.59529917883579 50.302247563480506
68.90584376589655 50.59529919402382 50.30224755694826
68.90584375536551 50.59529923369041 50.30224754232736
68.90584375374607 50.595299238533826 50.302247540212235
68.55664580601594 49.98468750454363 49.95609560608108
68.55666028079347 49.98470927610873 49.956113944227646
68.55666381605208 49.9847145790379 49.95611841797354
68.55665198641898 49.98469671753976 49.956103406886506
68.5566817460371 49.984742019369776 49.95614129939163
68.55668769128145 49.9847509686227 49.9561488338998
68.55669356869441 49.98475980485795 49.956156278607736
68.60164049754604 50.03114807838482 50.000958409598695
68.60165276171949 50.03116338312681 50.00097264821153
68.60165985541855 50.03117006729781 50.000979812935356
68.65962731869422 50.11098167164141 50.06198151181846
68.65962730009839 50.11098329406492 50.06198200911069
68.6596272440932 50.11098762043402 50.06198333894807
68.65962727113661 50.11098725384467 50.0619832132243
68.65962726849794 50.110987832022566 50.06198338811006
68.65962718219501 50.11099346524479 50.06198512747339
68.659627253826 50.11099206056278 50.06198466444229
68.65962725122125 50.110994052516475 50.06198526316974
68.65962717479385 50.11099974471544 50.06198701443873
68.65962725090365 50.110997855718715 50.06198640358653
68.65962725390456 50.111000385718704 50.061987160345964
68.7017675960574 50.24742390821797 50.12413394049612
68.70176361019452 50.24741427045547 50.12412915076812
68.70177542970441 50.247442773928256 50.12414324299134
68.73449788052679 50.353130436799496 50.17219145398802
68.73449426911132 50.3531207439612 50.17218730003272
68.73450290046377 50.35314330565055 50.17219714060403
68.73451373846987 50.35317280898298 50.172209666810765
68.73453494615089 50.35322716590895 50.17223368955895
68.73455314251635 50.35327559408334 50.172254560236766
68.73453673649132 50.3532318528634 50.17223573175275
68.73456764412069 50.35331274934103 50.172270984806396
68.73459375030941 50.353381513157686 50.172300824236785
68.73458410140111 50.353355846540396 50.17228975914003
68.7346006296855 50.35339913512243 50.17230861526199
68.73461452181351 50.35343667895725 50.172324631747955
68.73463293882527 50.35348385238278 50.172345488941694
68.73465758170434 50.35354897576741 50.17237368676475
68.73464237503755 50.35350858592244 50.172356256972336
68.73466639546332 50.35357154703655 50.172383667684684
68.73468032290907 50.35360929008025 50.172399739904805
68.73469929756345 50.353657873268915 50.172421225937086
68.73472518812717 50.353726280075 50.17245084943435
68.73470854138121 50.35368211839709 50.17243177671678
68.73473303606245 50.35374636987157 50.17245973546191
68.73474866622216 50.353788561696575 50.17247774865281
68.7840033328815 50.47196798298933 50.217641656672164
68.78400314147652 50.47196819288547 50.217641510258034
68.7840033357665 50.471968024907525 50.2176416264376
68.78400334500935 50.471968130680054 50.21764155009904
68.7840028786393 50.47196844598594 50.2176413344813
68.78927671284717 50.47197895228619 50.22153752168629
68.82160397839375 50.50599446573703 50.249982970580376
68.78927674895206 50.471978979323545 50.221537516677564
68.82161425859165 50.50600339646158 50.24998962648755
68.82162730125756 50.506015372665196 50.24999807720663
68.82162644679231 50.5060144816083 50.24999752254277
68.82163013598606 50.506017835121156 50.24999991254813
68.8216310582134 50.506019299499656 50.250000516067665
68.8216466137109 50.50603280984839 50.250010587433096
68.82165456392495 50.50604039079439 50.25001574132577
68.821652056164 50.506037746510756 50.25001411316658
68.82166434428886 50.50604888326038 50.25002207357667
68.82167756492701 50.5060610569918 50.25003063993947
68.82167613589235 50.50605954686695 50.25002971210942
68.82168358717368 50.5060662852125 50.250034539005185
68.82168185547883 50.50606549930564 50.25003342477986
68.82170076284847 50.506081909491975 50.25004566619602
68.82170006596326 50.50608117676328 50.25004521376488
68.82170374234414 50.50608449575084 50.250047595247935
68.82170510308984 50.506086415171325 50.25004848340354
68.82172393832346 50.506102762755 50.250060678115915
68.82172876436643 50.50610770840645 50.25006381002913
68.82172496711786 50.50610369150304 50.250061344547206
68.82174538366196 50.50612213055566 50.25007457003021
68.86256301016817 50.55042082797014 50.27657152364422
68.82174988056413 50.50612618966723 50.250077483023766
68.8625804692069 50.55043445051393 50.27658280954577
68.8625900424229 50.55044192696133 50.27658899785453
68.86258728530083 50.55043977061948 50.27658721561007
68.86260709582396 50.55045523298997 50.276600021543146
68.90584388794599 50.59529894651755 50.302247703889606
68.90584410124279 50.59529855244983 50.30224795660678
68.90584408814928 50.595298595036226 50.30224793914227
68.90584383541753 50.59529906549506 50.30224763932708
68.905844086358 50.59529860146041 50.30224793668958
68.90584406463252 50.595298663026256 50.30224790867621
68.90584409267375 50.595298611134986 50.302247941908874
68.90584409311055 50.595298613025555 50.30224794214029
68.90584377491624 50.59529919935606 50.30224756530194
68.90584400347984 50.59529879804484 50.30224783388418
68.90584410138831 50.59529861667332 50.30224794993897
68.9058441017431 50.59529862551375 50.302247949352164
68.9058439390929 50.59529893973405 50.30224775518637
68.90584410182854 50.59529863800221 50.302247948112104
68.94979428148733 50.60460812955142 50.328602174427566
68.94979773222278 50.60460961745857 50.32860402570982
68.94981200673843 50.60461577209118 50.32861168382156
68.94981507450133 50.60461709478733 50.32861332964045
68.55666749793464 49.9847201310626 49.95612308751762
68.55668382282848 49.98474521237881 49.956143954848784
68.55668754082144 49.98475078003385 49.95614865654177
68.5566768377141 49.98473447295835 49.95613502343995
68.55669653050543 49.98476486320547 49.956160243093834
68.55670024880601 49.98477044587416 49.95616495029205
68.60164138578992 50.03114905536071 50.00095937589569
68.60165610679422 50.03116518764815 50.00097536120144
68.65962755224322 50.110981467119856 50.061981313901654
68.65962751922729 50.11098289367919 50.061981760906335
68.65962750839952 50.110983344849984 50.06198190250402
68.65962747566277 50.11098631581883 50.06198281237198
68.65962746056283 50.110989169448104 50.061983676745044
68.65962745568945 50.11099039909092 50.06198404825236
68.65962743262122 50.11099532026764 50.06198553715355
68.65962744616898 50.11099514913799 50.06198547792357
68.65962744633318 50.11099541106755 50.06198555635616
68.70176109966798 50.24740813297437 50.1241260358702
68.70176087105696 50.247407571180986 50.1241257479723
68.7017631455657 50.247413056988194 50.12412846084346
68.7344884705131 50.35310479022371 50.17218057378797
68.7344881469224 50.35310389455649 50.172180197653
68.7344896259108 50.35310775808426 50.1721818834897
68.73452199756227 50.35319234303168 50.17221878564515
68.7345359378918 50.35322971072082 50.172234813361804
68.73452465467119 50.35319928625783 50.17222181467886
68.73455506539135 50.353278781504855 50.1722564863971
68.73457552086464 50.35333294610234 50.172279908260364
68.7345647615237 50.353304138196705 50.17226754262022
68.7345885195331 50.35336627285234 50.17229463381729
68.73461591851486 50.35343831149605 50.17232593204301
68.7346085540803 50.35341868057736 50.172317480765166
68.73462251366178 50.353455211173234 50.172333402010196
68.73463645013018 50.35349284665612 50.172349465538574
68.73465590572295 50.35354267418154 50.172371498034636
68.73467928408999 50.35360455058348 50.172398262637046
68.73466105804822 50.35355617319853 50.172377376700894
68.73468963423117 50.35363105137205 50.17240998266772
68.7347022071125 50.35366532188682 50.17242452042336
68.73472309732483 50.353718795608806 50.172448173504065
68.73472252403647 50.353717275700006 50.172447516806685
68.73472335224268 50.353719448268414 50.17244846215583
68.73474666512422 50.35378125210005 50.17247516636773
68.78927723248785 50.47197834287202 50.22153791263834
68.78400341057532 50.471967954947836 50.217641674972
68.78927748039565 50.47197857599285 50.221537856232594
68.78927748902905 50.47197857145371 50.221537860137744
68.78927749613126 50.47197857737939 50.221537858870946
68.78927716312175 50.47197876984998 50.221537700178516
68.8216049489573 50.50599405707539 50.24998358684556
68.78927679376821 50.471978959668185 50.22153753513736
68.82161887722673 50.5060067761356 50.24999261069139
68.82161858015209 50.50600647497589 50.24999241793332
68.82161958958122 50.506007395318505 50.249993071908115
68.82162339460488 50.50601133318012 50.249995541592966
68.82163447318027 50.50602095868902 50.250002714420816
68.82164654671033 50.50603208924596 50.25001053763743
68.82164518678482 50.50603068808231 50.25000965502596
68.82165081548102 50.50603579751456 50.25001330144873
68.821650840757 50.50603648076951 50.25001332421918
68.82166767203103 50.506051098396284 50.25002422157529
68.82167387981055 50.5060571626383 50.250028247300875
68.82167054827127 50.50605370241686 50.25002608481547
68.82168599311655 50.50606768117974 50.25003609000751
68.82169687603312 50.50607782265264 50.25004314280042
68.82169467588386 50.506075528732616 50.25004171460945
68.82170573237288 50.50608551158348 50.25004887678468
68.82171995078494 50.50609856603927 50.25005808929042
68.82171832017175 50.50609687617994 50.250057030903804
68.82172612519871 50.5061039264767 50.25006208687688
68.8217247642627 50.50610347963334 50.25006121286352
68.8217437331514 50.50611994391419 50.25007349411647
68.82174279198821 50.50611897208394 50.25007288326725
68.82174725891846 50.50612300443809 50.25007577684856
68.8217489639018 50.5061252375997 50.25007688802286
68.86960184204189 50.54405055928963 50.281007872722924
68.86960154960138 50.54405024534566 50.28100768286477
68.86960256807272 50.544051338102065 50.28100834407981
68.86258616424573 50.55043889411035 50.276586490942464
68.8696239185374 50.54407424587099 50.28102220529262
68.90584416723952 50.59529843043839 50.302248034809374
68.86962495947415 50.544075362723035 50.28102288109277
68.90584438958928 50.59529804011257 50.302248296081814
68.90584440877774 50.59529800458578 50.30224831882464
68.90584440757362 50.59529800854757 50.302248317213724
68.90584412134102 50.59529853676641 50.30224797814461
68.9058443448705 50.595298144340134 50.302248240806406
68.90584440138426 50.59529803972464 50.302248307786584
68.9058444026819 50.5952980428592 50.302248308737305
68.90584429201967 50.595298263804835 50.30224817587343
68.90584440469421 50.59529805513446 50.302248309425266
68.90584440507247 50.5952980653327 50.30224830871765
68.94978435059372 50.60460384225763 50.328596846428475
68.9497852804275 50.60460423646893 50.328597345040606
68.94979637617142 50.6046090208643 50.32860329778969
68.94979799419112 50.604609728355044 50.328604166181364
68.94979923434951 50.604610253262635 50.328604831171106
68.94981314648945 50.604616253398994 50.328612294933215
68.94981333737717 50.60461633400885 50.328612397283365
68.94981635186767 50.6046176337248 50.32861401452183
68.94982716864195 50.604622302862424 50.32861981778163
68.94982765245999 50.60462250587388 50.32862007714993
68.94983835169134 50.604627118597804 50.32862581714994
68.94984215177207 50.60462875691117 50.32862785584429
68.9498564219012 50.60463491181122 50.328635511677774
68.94985654067365 50.6046349595824 50.328635575278234
68.94986419626868 50.60463825970801 50.32863968239241
68.9498712751461 50.60464131120701 50.32864348010541
68.55670051038281 49.984770839914 49.95616528189598
68.60164557600325 50.03115347745802 50.00096384209516
68.6596278223532 50.11098057000487 50.06198088695568
68.65962780394653 50.11098069862804 50.06198093628376
68.60165471933321 50.031163367696706 50.000973706650896
68.65962776735691 50.11098341950343 50.06198177342513
68.65962774339606 50.11098385993901 50.06198191948569
68.65962771952582 50.11098422494675 50.061982042879364
68.65962768974072 50.11098705638258 50.06198290918779
68.65962766858677 50.11099029805939 50.06198389344159
68.65962766776916 50.11099039865623 50.061983924079556
68.6596276596938 50.11099488464548 50.061985273738856
68.65962766078056 50.11099646833868 50.06198574790737
68.70176606204534 50.247419974155804 50.124131768366524
68.70177897859953 50.247451127329384 50.12414717459009
68.73449116011113 50.353111174438254 50.17218354667652
68.73450608148926 50.35315011372847 50.172200549214054
68.73452438728053 50.35319848732841 50.17222149535783
68.73452358411859 50.35319579856242 50.172220494387574
68.73453922927162 50.35323664351485 50.17223832409083
68.73456158093651 50.35329551205206 50.1722638712462
68.73455781464261 50.35328515545208 50.17225950324531
68.73457358446363 50.353326328134855 50.172277475350896
68.73459971595298 50.35339499236167 50.17230731964406
68.73459462165529 50.353381277788905 50.17230145399107
68.7346083091448 50.35341702978739 50.1723170552758
68.73463886412979 50.35349711892527 50.172351922842694
68.73463463156668 50.3534858194908 50.1723470631847
68.7346434028583 50.35350874941351 50.17235706365368
68.73465787694715 50.35354772331263 50.172373730442324
68.73467811794819 50.353599566915605 50.17239665303662
68.73470055890901 50.35365902371365 50.17242235334906
68.73468154494593 50.35360853852474 50.17240056212617
68.73471262634169 50.353689919153325 50.17243601762276
68.73474379216582 50.35377176528416 50.17247160480342
68.73473730846185 50.3537545755263 50.17246417775809
68.73474713440476 50.353780319302594 50.1724753888906
68.78927781740487 50.47197839624771 50.22153800985811
68.78927857799503 50.471978468282785 50.22153813505779
68.82160919415485 50.50599713616198 50.249986329498356
68.82160786894126 50.50599582068459 50.24998546989899
68.8216116702178 50.50599928762567 50.24998793262782
68.82161438786557 50.506002258151426 50.249989698072014
68.82162519750841 50.50601165168918 50.24999669679575
68.82163747479885 50.50602293495035 50.2500046517014
68.82163628848764 50.50602174938176 50.25000388212379
68.8216399738404 50.50602510697449 50.25000626971415
68.82164248684725 50.50602792100816 50.250007902869896
68.82165464589092 50.506038487747105 50.250015775271336
68.82166559614257 50.5060486384439 50.25002287118301
68.8216638298878 50.5060468215268 50.25002172488602
68.82167127113817 50.50605356967788 50.25002654546661
68.82167000902142 50.50605312864734 50.25002573465848
68.82168805115982 50.506068803048 50.250037416034985
68.82169313803188 50.50607388711246 50.25004071596769
68.82168969285871 50.50607028717869 50.25003847951301
68.82170676475154 50.506085723193934 50.250049538560006
68.82171602517346 50.506094449872606 50.25005554081868
68.82171365846332 50.506091947265595 50.25005400416815
68.8217266439965 50.50610367246731 50.25006241594615
68.82173936328742 50.50611542026982 50.25007065780508
68.8217374303477 50.50611339848642 50.250069403006236
68.8217476895787 50.50612264995492 50.25007604862168
68.86959559176083 50.54404384963673 50.28100381491576
68.86959344713405 50.54404154735208 50.28100242258147
68.86960096608058 50.54404961466715 50.28100730405489
68.86961781675754 50.544067695341305 50.28101824389702
68.86961588974397 50.54406562674755 50.2810169928411
68.8696222426671 50.544072443009995 50.281021117305194
68.86962464397175 50.5440750240424 50.28102267626227
68.90584464762995 50.59529756234852 50.302248601921605
68.90584471150751 50.59529744398213 50.30224867764202
68.90584470421861 50.59529746307324 50.30224866840945
68.90584461311651 50.59529764787613 50.302248558721274
68.90584468536322 50.59529751405532 50.30224864435675
68.90584467912677 50.59529753206748 50.302248636279344
68.90584457134182 50.59529774686374 50.30224850691293
68.9058446677799 50.595297568373766 50.30224862120811
68.94977936088875 50.60460167318569 50.32859416889433
68.94978635476976 50.604604694952755 50.32859792124819
68.94978763910082 50.60460524308742 50.32859861008146
68.94979580339582 50.604608763721586 50.32860299014815
68.94979967836564 50.604610442845726 50.32860506931591
68.94980166771882 50.60461129248512 50.32860613629933
68.94981394716268 50.60461658717264 50.328612724087094
68.9498157131615 50.60461734862287 50.32861367152556
68.94982907193622 50.60462311111941 50.32862083844671
68.94982971518962 50.60462338537699 50.32862118343728
68.94983508368998 50.604625699847 50.3286240635675
68.94984250149432 50.60462890553572 50.32862804339102
68.94984387631007 50.60462949044653 50.328628780690465
68.94985772427638 50.60463546076359 50.328636209949416
68.94985787138148 50.604635523095595 50.32863628883153
68.94986023287838 50.604636541018415 50.32863755573795
68.94987151628354 50.604641411838465 50.32864360935679
68.94987212784885 50.60464166829942 50.32864393720332
68.99237812066173 50.653236625100085 50.34571950303012
68.992377513993 50.65323551005904 50.34571934539114
68.99238245221474 50.65324001104217 50.34572151495229
68.99239459311119 50.65325105253669 50.3457268536728
69.03557799701427 50.690952166136206 50.362563088309145
68.65962780708179 50.11098071526291 50.061980939437255
68.65962786481262 50.110983722352245 50.06198180722119
68.65962785579704 50.11098430809106 50.06198198810355
68.65962793759252 50.11098769669485 50.061982956193546
68.65962793270093 50.11098877112529 50.061983281177575
68.65962790406411 50.11098815708799 50.06198311383346
68.65962783666835 50.110987183197565 50.06198286127204
68.65962790439592 50.11099101571607 50.06198397067939
68.65962788979473 50.110991935159376 50.06198425487604
68.65962789180816 50.110997038901246 50.061985783841834
68.65962789190299 50.11099718041696 50.06198582621393
68.70177867237899 50.24745024967076 50.124146605980755
68.70179171229638 50.24748170220708 50.124162162015
68.73450019569336 50.35313436497884 50.17219378620413
68.73452029993074 50.353186794232855 50.172216689359445
68.73452979421302 50.353211541277034 50.172227503583684
68.73455435420964 50.35327559280549 50.172255483153066
68.73456085531271 50.353292544399665 50.17226288898813
68.73458931194054 50.353366780243306 50.17229531092109
68.73459378305559 50.353378441727955 50.17230040470787
68.7346256383056 50.353461526392394 50.17233669634403
68.7346272310987 50.35346568361706 50.17233851138205
68.73466227808026 50.35355715678062 50.172378448491926
68.73467967905214 50.35360356786357 50.172398421317695
68.7346640210261 50.35356170875028 50.17238043504517
68.73469814892738 50.3536508974493 50.17241934138269
68.73472227628761 50.35371463704679 50.17244694621732
68.73470823651016 50.35367729242641 50.172430846076864
68.73473298299834 50.35374206066855 50.17245907143847
68.78927947591845 50.47197838716632 50.22153835991344
68.78927952921869 50.471978374669646 50.22153837682283
68.78927956091977 50.471978398505726 50.22153837238024
68.78927906754134 50.47197853050662 50.22153820828722
68.82161600008982 50.50600248744587 50.24999073055998
68.82162906025324 50.50601442385934 50.249999192075144
68.82162879137705 50.50601414813298 50.24999901758321
68.82162980997981 50.506015076666884 50.24999967749961
68.82163345658034 50.50601883711968 50.25000204422818
68.82164354517359 50.506027616890364 50.25000857623117
68.82165758056657 50.50604042508522 50.25001766939605
68.82165729088396 50.506040131358894 50.250017481433744
68.82165833594841 50.50604108216778 50.25001815847585
68.82166198050149 50.50604486626479 50.25002052412504
68.82167329584564 50.50605470776709 50.250027850348474
68.82168558649039 50.506066016998275 50.25003581403957
68.82168445308625 50.50606482731635 50.250035078231555
68.82168997243127 50.50606983104504 50.25003865375126
68.82168943339673 50.50607000432374 50.25003831096801
68.82170684712497 50.50608514252534 50.25004958557494
68.82171270144624 50.506090882095236 50.25005338228363
68.82171032937953 50.506088290674185 50.25005184134977
68.82172568376413 50.50610216523466 50.250061787724995
68.82173625631351 50.50611202440746 50.2500686394481
68.82173463224906 50.506110251272105 50.250067584439705
68.82174518239357 50.50611978058289 50.25007441865017
68.86959072789858 50.54403862744093 50.28100065720407
68.86958927338607 50.54403706564517 50.280999712907644
68.86959590884395 50.54404418508744 50.28100402079957
68.86961300443303 50.5440625282948 50.28101511964564
68.86961224813155 50.54406171616922 50.281014628640925
68.8696157750365 50.54406550034801 50.281016918388644
68.90584490611752 50.59529708551166 50.302248908104986
68.90584491006636 50.59529707824144 50.302248912780954
68.9058449096855 50.59529707927279 50.30224891229494
68.90584486696663 50.59529717832304 50.3022488595463
68.90584486486745 50.59529718378327 50.30224885689137
68.94977729100852 50.60460077209014 50.328593058127176
68.94977737096536 50.60460080637472 50.3285931010165
68.94977758590572 50.60460089907765 50.32859321633049
68.94978996867235 50.60460624104287 50.32859985964461
68.94979080715053 50.60460660036989 50.32860030940215
68.9497937435573 50.604607866561075 50.32860188475454
68.94980303848666 50.60461187920649 50.328606871550754
68.94980450150365 50.60461250544444 50.32860765628381
68.94981111112727 50.60461535536428 50.32861120227352
68.94981605102166 50.60461749310228 50.32861385274212
68.94981823488499 50.60461842688271 50.32861502408754
68.94983033421607 50.60462364351828 50.328621515233195
68.94983215968671 50.60462443055088 50.32862249457553
68.94984499225798 50.60462996651563 50.32862937920672
68.94984584072222 50.604630328265614 50.328629834256205
68.94985369622312 50.60463371454201 50.328634048616124
68.94985967394855 50.60463629125752 50.328637255573604
68.9498728758252 50.604641985237876 50.3286443382906
68.94987340229588 50.604642208360474 50.32864462060137
68.94988299817304 50.60464634414542 50.328649768622455
68.99237517575844 50.65323030359876 50.34571891388991
68.99239320579778 50.65324842522011 50.34572650819706
68.99239112718314 50.653244512417146 50.3457259859764
69.03557764923144 50.690948540977836 50.36256362247608
69.03557757090655 50.69094772189683 50.362563743008124
69.03557766459258 50.69094861269054 50.362563606591834
69.03557820949443 50.69095417531251 50.362562779888606
69.03557777181045 50.69094962964604 50.362563450690075
69.0355782442571 50.69095435266584 50.3625627426284
69.0355779629547 50.69095143367448 50.36256317353558
69.0355782800077 50.690954544257096 50.36256270350721
69.03557813366817 50.69095302965018 50.36256292733296
69.03557831494942 50.69095472924796 50.362562665468744
69.0355783387361 50.69095495162925 50.36256263116337
68.65962791259459 50.110988196450876 50.06198312064542
68.65962791628156 50.110991067786784 50.06198397933888
68.65962798833142 50.11099273595712 50.061984437328995
68.70176433837185 50.24741551074126 50.12412926487646
68.70176411135719 50.2474150386772 50.12412910444577
68.65962797193963 50.11099536883998 50.06198523627607
68.701778177612 50.24744884588931 50.12414570813095
68.70178081572035 50.24745522886549 50.124148884235225
68.70179602992935 50.24749196137954 50.124167086069626
68.73449686477333 50.35312568395632 50.172189992360885
68.73452282340004 50.35319343305625 50.17221957253177
68.7345277648246 50.353206357313816 50.17222520735294
68.73454064761691 50.35323955699707 50.172239826243995
68.73456686086743 50.3533078870491 50.17226968446563
68.73456935281125 50.35331435266339 50.17227251855537
68.73460073604552 50.35339624238354 50.172308277673
68.73460145817276 50.35339808842323 50.17230909495532
68.73460200505932 50.353399514304485 50.172309717932094
68.73462772787259 50.35346690410393 50.17233906645838
68.73463084411489 50.353474625046616 50.1723425578182
68.73463964683721 50.35349757080705 50.172352584523864
68.73466387879145 50.35356127005713 50.17238026320229
68.73466375202678 50.35356042086601 50.17238004374048
68.73467696251997 50.35359489022194 50.17239509602123
68.73470504462051 50.35366860348816 50.17242715700528
68.73470269567488 50.35366210968165 50.1724244277757
68.73471275413529 50.35368839838499 50.17243589490447
68.7892802589608 50.47197840254875 50.221538516065564
68.78928032814244 50.47197845169813 50.22153850770058
68.82161564482769 50.5060016984679 50.249990495892916
68.82162860433026 50.506013532111936 50.24999889208688
68.82163243333909 50.506017027788275 50.25000137281593
68.82164188134138 50.506025655356396 50.250007493984924
68.82165558670029 50.50603816046727 50.25001637331086
68.82166106609654 50.50604314337729 50.25001992310027
68.82167049186073 50.50605171466981 50.250026029513236
68.8216859227293 50.5060657365088 50.25003602619093
68.82168750345107 50.50606716785229 50.25003705019116
68.82170289390831 50.50608110478935 50.25004702022221
68.82171074667328 50.50608853940726 50.25005211042421
68.82171178104602 50.506089141557325 50.25005277725671
68.82172102713977 50.506097494378665 50.25005876673788
68.8217350162931 50.50611028795714 50.250067830212444
68.82173531893568 50.50611039560429 50.250068024654205
68.82174012648835 50.50611473608576 50.250071138889595
68.86958824161056 50.54403595611115 50.280999043068974
68.86958916860394 50.54403695072437 50.28099964489437
68.86960701398428 50.544056097843 50.281011230525294
68.86961242906644 50.54406190793705 50.28101474612101
68.86962620831747 50.544076692352014 50.281023691927196
68.90584504564777 50.595296830186626 50.30224907316173
68.90584502644771 50.595296875829035 50.30224904933456
68.90584488571716 50.595297145573085 50.302248881561546
68.9058450068268 50.59529692346518 50.30224902487974
68.90584499516346 50.595296954412454 50.30224901006396
68.94978159164494 50.604602619357074 50.328595365125054
68.94978887850884 50.6046057617624 50.328599274463166
68.94979490764793 50.60460836161939 50.328602509037324
68.94980533295623 50.60461285690553 50.32860810210403
68.94980825578692 50.60461411719287 50.32860967017126
68.94982058927697 50.604619436592245 50.32861628700317
68.94982147218812 50.6046198152722 50.32861676060527
68.94982421423258 50.604620997477184 50.32861823167812
68.94983264208463 50.60462463725673 50.328622753331686
68.94983505659862 50.60462567200081 50.32862404847121
68.94984488059535 50.6046299070682 50.328629318908014
68.94984856136966 50.60463149380037 50.32863129359095
68.9498606218838 50.60463669669563 50.32863776401594
68.94986191569464 50.604637249966785 50.32863845797148
68.94987102137294 50.60464117471788 50.32864334301776
68.94987544889533 50.604643083026446 50.32864571830869
68.99237494090677 50.65322953570455 50.345718918006725
68.99237420353873 50.65322697522301 50.34571895989749
68.99238968574346 50.65324108939966 50.34572576131705
68.99238936559794 50.653240287930345 50.34572571940426
68.99239475122798 50.65324506387008 50.34572811126506
69.03557729175125 50.690944715471375 50.3625641801937
69.03557768585821 50.69094871208705 50.362563584591676
69.03557747482958 50.69094644857282 50.36256391428117
69.03557772740913 50.690948911206604 50.362563541177465
69.0355776654968 50.69094824747548 50.362563637872725
69.03557774456198 50.690948994203296 50.36256352318591
69.03557788246154 50.69095029422722 50.36256332336387
69.03557832070278 50.69095475636907 50.362562659496625
69.03557808528986 50.69095219429268 50.36256303050932
69.0355783709951 50.69095499648834 50.36256260702669
69.0355782955667 50.69095415829692 50.362562727409276
69.03557839971526 50.69095512729922 50.36256257761348
69.03557851110519 50.69095616444518 50.36256241733537
69.03557873276938 50.69095822141689 50.36256209898899
69.03557894450938 50.69096017233334 50.362561796112885
68.70178095274707 50.24745555782421 50.124149045432205
68.70179469985328 50.24748875359483 50.12416549991147
68.73449809349069 50.353128824620704 50.1721913829265
68.73452593351209 50.35320137785021 50.1722230916156
68.73453401225824 50.353222496979726 50.17223230243908
68.73455559742231 50.3532786953461 50.172256879244614
68.73455847285834 50.35328598284214 50.17226012442624
68.73454332885927 50.3532466952994 50.17224290189327
68.73457465803925 50.35332822003477 50.17227856701281
68.73459108869503 50.35337109954729 50.17229728956094
68.73460730231771 50.353413211889375 50.17231573574774
68.73460782950144 50.35341479040479 50.17231636580252
68.73461437419104 50.35343158016384 50.172323781423344
68.73464664513861 50.35351573472182 50.17236054457684
68.7346473780351 50.35351764330554 50.17236137911442
68.73467796767889 50.353597359007665 50.172396219044316
68.73468474358178 50.353615043362694 50.172403940269476
68.7347153964916 50.353695063307256 50.17243887242503
68.73472068186106 50.3537088787411 50.17244489823765
68.78928106577479 50.47197865266418 50.221538568326
68.82161554863298 50.50600138541524 50.24999043138885
68.82162359223639 50.50600875762905 50.249995642938714
68.82163742023833 50.506021322987934 50.25000460122136
68.821647077813 50.506030253685935 50.25001085925055
68.82164811303201 50.50603121379723 50.25001153009117
68.8216630701633 50.50604478010536 50.25002121962197
68.821672489376 50.50605335088153 50.250027321843305
68.82167715281216 50.506057611949316 50.25003034321405
68.82169447229214 50.50607324736315 50.25004156240925
68.82169569525412 50.50607435119072 50.25004235461619
68.82171121450358 50.5060884050732 50.2500524080827
68.82171928784676 50.506095691239864 50.250057637803835
68.82172947144477 50.50610488836756 50.250064234560796
68.82174212579645 50.50611629901496 50.250072431655525
68.8217485256895 50.506122077846214 50.2500765773837
68.86959101100139 50.54403892701478 50.28100084102388
68.86959395570015 50.54404208568309 50.281002752794556
68.86959558518379 50.54404383403382 50.28100381069275
68.86961392790468 50.54406351480091 50.281015719208426
68.8696170246488 50.54406683744894 50.2810177296858
68.86963284162863 50.54408380821295 50.28102799843246
68.90584509990086 50.595296734362336 50.30224913697398
68.90584507913843 50.59529678528144 50.302249111042165
68.9058450670642 50.59529681606493 50.302249095837446
68.94978201397727 50.604602796368994 50.32859559152473
68.94978686264673 50.604604887256194 50.328598192790814
68.94979690110999 50.6046092161353 50.32860357833306
68.94979990355706 50.60461051075639 50.32860518911377
68.94981158506874 50.60461554885114 50.32861145616005
68.94981283511194 50.604616086377945 50.32861212674347
68.94981403585564 50.604616604083574 50.32861277092816
68.94982591987447 50.60462172780501 50.32861914655852
68.94983259409167 50.60462460532824 50.328622727193356
68.94983928351445 50.6046274893436 50.32862631598357
68.94985137861408 50.60463270463189 50.328632804875696
68.94985243678855 50.60463315941791 50.32863337252327
68.94985399257521 50.604633830032085 50.328634207178396
68.94986556296777 50.604638817247505 50.328640414507326
68.9498773567893 50.60464390231719 50.32864674175615
68.94987863581582 50.604644451529985 50.3286474278606
68.94988192751002 50.60464587019598 50.32864919379582
68.99237665637031 50.65322813961736 50.345720245064655
68.99239139788985 50.653241035787005 50.34572682624969
69.03557721306859 50.69094370542976 50.36256431760235
69.0355772023777 50.69094356697573 50.36256433637862
69.03557722157485 50.69094374953885 50.362564308422904
69.03557742069692 50.69094564303314 50.36256401846504
69.03557763035218 50.69094762627468 50.36256371407713
69.03557780510421 50.69094926899923 50.36256346126591
69.03557783082854 50.69094951140107 50.36256342399989
69.03557810142124 50.69095207196517 50.36256303106304
69.03557839473484 50.690954845190795 50.362562605336606
69.03557842750871 50.6909551417192 50.36256255893087
69.03557860238017 50.690956774121105 50.36256230694493
69.03557904850524 50.69096101784571 50.36256165718147
69.03557910445137 50.69096146508438 50.36256158310552
69.0355790838721 50.69096130757076 50.362561609743366
69.03557914155373 50.69096183080005 50.36256152795271
69.03557939575151 50.69096428805421 50.3625611543036
69.03557944324028 50.69096463104846 50.36256109462039
69.03557973936091 50.69096738567168 50.36256066875626
69.03557981451962 50.69096798068313 50.36256056974872
69.03557990157503 50.69096869241669 50.362560453104045
69.03557987253774 50.690968474017126 50.36256049035406
69.03558020015305 50.69097158881319 50.36256001333622
68.73455860241603 50.35328631790202 50.17226027161435
68.73457484922643 50.35332871435476 50.17227878419898
68.73459142147125 50.35337195971584 50.172297667556585
68.73460835895276 50.35341615854119 50.17231696714019
68.73462056186885 50.35344763984578 50.17233081941115
68.7346508985573 50.353526947937745 50.172365407646254
68.7346521213092 50.35352990427366 50.17236676699249
68.73463684560986 50.353490166284246 50.17234937894115
68.73466888416277 50.35357386757981 50.172385899457055
68.73468643388095 50.35361966634988 50.17240589699219
68.73469117506679 50.35363171331296 50.172411252310056
68.73467066836118 50.35357838140779 50.17238791191803
68.73470085510341 50.353657521260274 50.17242236157353
68.73470449107968 50.35366678133373 50.17242647161322
68.73472702324138 50.35372527157001 50.172452101530936
68.7347224774283 50.35371372217017 50.17244696705728
68.73474075941027 50.353761436436926 50.17246779964839
68.82161782820607 50.50600337224918 50.24999190735986
68.82162604058053 50.50601109147149 50.249997230121465
68.82162058970468 50.506006081253155 50.249993698293075
68.82162995587501 50.5060144365481 50.24999976453128
68.82162029625772 50.50600572261043 50.24999350729641
68.82163446908912 50.50601865830265 50.250002689524166
68.82164259053407 50.50602596870638 50.250007950218745
68.82163361072634 50.50601783274044 50.25000213300405
68.82165190178152 50.50603466004124 50.25001398461433
68.8216523889117 50.506034986680746 50.25001429907125
68.82164626599206 50.50602942937421 50.25001033248441
68.82166066845852 50.506042535582964 50.25001966310855
68.82166872137333 50.50604980722119 50.250024879634516
68.82165857975045 50.50604065324376 50.25001831011906
68.82167900754067 50.506059359856934 50.250031545380395
68.8216832234916 50.50606297987973 50.25003427458327
68.82167333237209 50.50605408258366 50.250027867634415
68.82168220669648 50.506062348609355 50.25003361870141
68.82168858080894 50.50606795677024 50.250037746301736
68.82169809662085 50.50607650630954 50.250043910047594
68.8217077994379 50.506085224275964 50.25005019492764
68.82171372744477 50.506090687401745 50.25005403604624
68.82173112160622 50.506106318984656 50.25006530292835
68.82173281537615 50.506107870950586 50.25006640033864
68.86958104550047 50.54402823357432 50.28099437119724
68.82174724896873 50.50612104547268 50.25007575151516
68.8695863537705 50.544033930079806 50.28099781744248
68.86959989852093 50.54404846139706 50.28100661101369
68.86959609442576 50.54404438100855 50.281004141301125
68.86960594161195 50.54405494624088 50.28101053432208
68.86961593334343 50.544065666562396 50.28101702118514
68.8696260499606 50.544076520895125 50.2810235891268
68.90584510970888 50.59529671182413 50.302249149063236
68.90584510015066 50.595296739503645 50.3022491366757
68.90584509004445 50.59529676831207 50.30224912362655
68.94978026510097 50.604602038674194 50.328594653146176
68.94978676061123 50.604604840080796 50.32859813793932
68.9497933626273 50.60460768739913 50.32860167987126
68.94980004260393 50.60461056834933 50.32860526362877
68.94980679915537 50.60461348230237 50.328608888467315
68.94981761801193 50.60461814602612 50.32861469262478
68.94981364117885 50.60461643310417 50.3286125591605
68.94982058379856 50.60461942726657 50.328616283821944
68.94983243769508 50.60462453647314 50.32862264323893
68.94983306830757 50.604624808324814 50.32862298155365
68.949846756278 50.604630711474826 50.32863032503985
68.94985661158158 50.6046349567792 50.328635612159005
68.94985213763955 50.60463302962576 50.32863321200513
68.94985763702951 50.60463539872127 50.3286361622932
68.94987222891785 50.604641691052386 50.328643990701586
68.9498828458098 50.60464626413207 50.32864968638342
68.94987775309487 50.604644070529375 50.32864695427699
68.94988339959454 50.60464650276765 50.328649983477796
68.99238591179251 50.65323812118433 50.3457240119058
69.03557727063867 50.690944015614434 50.36256425445974
69.03557723681838 50.69094383563946 50.36256429135773
69.03557727906463 50.69094409320968 50.362564242410556
69.03557762216911 50.69094739803939 50.3625637391103
69.03557780919775 50.69094916600064 50.36256346768124
69.03557783736878 50.69094938701457 50.362563430746334
69.03557783113382 50.69094934866716 50.362563437999356
69.03557810750502 50.69095201170718 50.362563032503466
69.03557833181839 50.690954127077916 50.362562707403605
69.03557842604012 50.69095497272592 50.36256257458828
69.03557841341141 50.69095488378413 50.362562590261845
69.03557844678934 50.6909551482382 50.36256254627436
69.03557870028874 50.69095763909452 50.36256217013292
69.03557873178677 50.69095785898248 50.362562131210325
69.03557880886109 50.69095853398076 50.36256202402673
69.03557884119846 50.69095887864738 50.362561973696884
69.03557864343664 50.69095705931588 50.36256225633474
69.0355790521579 50.690960917023716 50.36256166368342
69.03557909036465 50.69096127990297 50.36256160808555
69.03557939651331 50.690964277063955 50.36256115478436
69.0355794436703 50.69096462367931 50.36256109499339
69.03557970433106 50.69096703584046 50.362560721224554
69.03557978941795 50.69096772907071 50.36256060742757
69.03557987252162 50.69096847024373 50.36256049069323
69.03558020005667 50.69097158529894 50.36256001370312
68.73470456008485 50.35366695931582 50.17242654993957
68.73472254426548 50.353713894476286 50.17244704291062
68.73474082399487 50.353761602845935 50.172467872932245
68.82161791559105 50.50600344950507 50.24999196395021
68.8216886750726 50.506068039643864 50.25003780734221
68.82169820464429 50.50607660123224 50.250043979997756
68.82170793562318 50.50608534388015 50.250050283113254
68.82171471018636 50.506091538847826 50.25005467229941
68.82173067201943 50.506105881608526 50.2500650113903
68.8217335015076 50.50610846730187 50.250066844576764
68.8217473604304 50.50612114299555 50.25007582368765
68.8695864473836 50.54403403050669 50.280997878218336
68.86959617424574 50.54404446663802 50.28100419312216
68.8696060191542 50.54405502942649 50.281010584664344
68.86961600852732 50.54406574721766 50.28101706999633
68.86962612270698 50.544076598935064 50.281023636355485
68.90584511005532 50.59529671124942 50.302249149466796
68.90584510050215 50.5952967389172 50.30224913708547
68.90584509040113 50.59529676771347 50.302249124042746
68.94978034434683 50.60460207279726 50.328594695659106
68.94978684948302 50.604604878347246 50.3285981856162
68.94979344986317 50.60460772495961 50.32860172667047
68.94980012814105 50.60461060517674 50.328605309516604
68.94980689330174 50.60461352283451 50.32860893897366
68.94981373327656 50.6046164727523 50.328612608567724
68.94982068368003 50.60461947026329 50.328616337404824
68.94983266791165 50.60462463533858 50.3286227667337
68.94983382620447 50.60462513466216 50.32862338814126
68.94984701109163 50.60463082076018 50.3286304617242
68.94985252877345 50.6046331979624 50.3286334218333
68.94985934526545 50.60463613435684 50.32863707871093
68.94987424766859 50.60464255952678 50.32864507367062
68.94987802025466 50.604644184746135 50.328647097571306
68.99237546061865 50.653228723519376 50.34571939545535
68.99238891066517 50.65324063016871 50.345725372898826
69.03557732614738 50.69094437205198 50.362564188576115
69.03557730970508 50.69094426587995 50.36256420814315
69.03557727565007 50.69094397969381 50.362564254450206
69.03557745984011 50.690945639713476 50.362563994213644
69.03557770657495 50.69094802507536 50.362563631512614
69.03557747466107 50.6909458769708 50.36256396423211
69.03557782639824 50.69094920142513 50.36256345380823
69.03557784790708 50.690949423656754 50.36256342094402
69.03557810901484 50.69095201721758 50.36256303107635
69.035578292658 50.690953735494844 50.36256276610243
69.03557841411522 50.69095488551163 50.362562589669956
69.03557870068815 50.69095763938253 50.362562169857384
69.03557873212391 50.690957859167796 50.362562130982795
