ply
format ascii 1.0
element vertex 930
property float x
property float y
property float z
end_header
73.7188843005436 82.15993942820047 49.76728511249117
73.71888206634372 82.15994291100802 49.76728472225186
73.76808854818893 82.0785286364234 49.776568686492865
73.7680885518042 82.07852869878779 49.776568674785
73.76808855994307 82.07852880009972 49.77656865540949
73.76808856356814 82.07852884198175 49.77656864735882
73.76808857577672 82.07852895641639 49.77656862500007
73.76808857778366 82.07852897602515 49.77656862118216
73.76808859023595 82.07852911341874 49.776568594683994
73.76808859524856 82.0785290982196 49.77656859661174
73.76808859590939 82.07852910472575 49.77656859534577
73.7680885900721 82.07852928120545 49.77656856473819
73.76808859587335 82.07852926195632 49.776568567265514
73.76808859609429 82.07852926944832 49.77656856589253
73.76808858873613 82.07852943850403 49.77656853684995
73.76808854038717 82.07852956892233 49.77656852114704
73.74434180004785 82.12126743813438 49.77155864740756
73.74433756269143 82.12127419673355 49.77155792248897
73.71888747096334 82.15993446625257 49.76728566642824
73.71888603413747 82.15993671476335 49.767285415387434
73.71888525974532 82.15993791330905 49.767285280202444
73.718884002925 82.15993988655389 49.767285060556
73.71888692499134 82.15993533173403 49.76728557093996
73.67491215415531 82.03623518474147 49.78511973574406
73.67492171649192 82.03623690618481 49.785119168002154
73.72166689457868 82.0501101516268 49.781986902785235
73.77376380254378 82.06687087749974 49.77780800345626
73.77376377061232 82.06687094949892 49.77780799502066
73.77376371441267 82.06687107837558 49.77780797977006
73.77376362541833 82.06687127998535 49.777807956082796
73.77376364566817 82.06687124807746 49.777807958857984
73.77376363867916 82.06687126584612 49.77780795663539
73.77376357789089 82.06687143700604 49.77780793419379
73.77376340212393 82.06687173406686 49.77780790634199
73.77376357079473 82.06687146672164 49.777807929751575
73.7737635481324 82.06687157437844 49.777807913176716
73.77376339140845 82.06687185211536 49.77780788593489
73.7737635430434 82.0668716101721 49.77780790727963
73.77376353450592 82.0668716939853 49.77780789293762
73.77013714266513 82.072695174532 49.777337199067226
73.77376353283024 82.06687172496977 49.777807887401764
73.77376352841125 82.06687180448512 49.777807873213895
73.77013696346957 82.07269563330827 49.77733714379936
73.77376352539014 82.06687183433556 49.77780786810284
73.77013719306407 82.07269523551345 49.7773371807995
73.7680885934563 82.07852875758796 49.77656865773983
73.77013715502304 82.07269533424292 49.77733716882891
73.76808867815122 82.07852864949056 49.77656866374722
73.76808859227235 82.07852893416768 49.77656862638357
73.76808867813673 82.07852868757222 49.776568656947006
73.76808867956937 82.07852881543091 49.77656863388276
73.76808867541787 82.0785288595346 49.7765686266566
73.76808866501311 82.07852899459519 49.776568604165035
73.76808863267824 82.07852913399242 49.776568584343096
73.7680886205199 82.07852920128789 49.776568574231725
73.76808859392537 82.07852938658142 49.77656854530983
73.76808854895437 82.07852951151429 49.77656853005623
73.74434258693182 82.12126618294904 49.771558781635534
73.7188871296847 82.15993499286414 49.767285606865414
73.74433861261039 82.12127252199355 49.77155810166729
73.74433867907821 82.12127241602487 49.771558113220394
73.83635130609449 81.67075379094479 49.80300137093708
73.8363434556298 81.67076577140124 49.80300118732064
73.83633562023903 81.67077772794369 49.80300100284707
73.8363277444271 81.67078974683102 49.80300081830397
73.83632961595234 81.67078689055941 49.80300086185184
73.83632817918354 81.67078908300124 49.80300082799988
73.83631798711517 81.67080463818695 49.803000591275435
73.83632096985052 81.67080008413049 49.80300065817269
73.83631396566585 81.67081077170994 49.80300049251029
73.74633213663967 81.8144811066951 49.79796098910634
73.8480034716433 81.74568239039078 49.79863934566321
73.84801290121503 81.74569100927613 49.79863842291263
73.74627307292297 81.81457715344435 49.79795691063213
73.7462991442393 81.81453475260622 49.797958705018765
73.68525638384796 81.92143301784219 49.7941957602717
73.746277515815 81.81456992238604 49.79795720984164
73.7849213102627 81.84935134244529 49.79547063497189
73.6851961745702 81.92153328593093 49.79419008271958
73.68522294973732 81.92148883317684 49.79419259140292
73.68517373886885 81.92157084115517 49.79418794437515
73.68520388291861 81.92152064037724 49.79419078699763
73.73721151127354 81.92926414276175 49.79137488378393
73.67491906795443 82.03623640984215 49.78511932849368
73.72167061817046 82.05011072795267 49.78198668401777
73.77376404633304 82.0668705167389 49.77780803248993
73.77376417111958 82.06687032132163 49.77780804936505
73.77376411241949 82.06687044942007 49.77780803465504
73.773763843801 82.06687083471813 49.77780800494925
73.77376401438393 82.06687065793686 49.77780801110267
73.77376383124795 82.06687095548403 49.77780798432365
73.77376400451716 82.06687068256433 49.77780800805056
73.7737639421065 82.06687083903135 49.777807988615805
73.77376381827524 82.06687107466438 49.777807964061175
73.77376389905257 82.06687094677562 49.777807975245125
73.77376387291883 82.06687101657604 49.7778079663055
73.77376361432175 82.06687139774857 49.7778079357893
73.77376380538584 82.06687119231788 49.77780794407135
73.77376384095452 82.0668711356995 49.77780794905313
73.77376383461944 82.06687116088835 49.77780794533813
73.77376360292345 82.06687151472464 49.7778079156908
73.77376379279909 82.0668713084327 49.77780792432179
73.77376380817529 82.0668712838039 49.77780792650401
73.77376380672762 82.06687129328957 49.77780792495686
73.77376359074191 82.06687163207975 49.77780789564506
73.77376377958723 82.06687142475397 49.77780790463234
73.7737637944702 82.06687140077109 49.777807906771514
73.77376379347457 82.0668714094822 49.77780790529798
73.77376357849532 82.06687174868432 49.77780787575009
73.77376376648462 82.06687153986016 49.77780788515305
73.77376378129031 82.0668715158519 49.77780788730919
73.77376378030175 82.06687152446318 49.77780788585323
73.77376356651395 82.06687186378538 49.7778078560947
73.77376375350974 82.06687165347316 49.777807865933156
73.77376376821752 82.06687162949703 49.777807868098755
73.77376376723817 82.06687163799073 49.77780786666334
73.77013708889736 82.07269555777292 49.77733713878341
73.77376373794877 82.06687176728919 49.77780784708368
73.7680887009736 82.07852878667505 49.7765686356577
73.7737637369795 82.06687177018983 49.77780784669375
73.77338462774152 82.07236272045091 49.776886544834824
73.76808870152038 82.07852893527092 49.776568609028324
73.76808875634003 82.07852877864613 49.77656862839622
73.76808873268372 82.0785288880391 49.77656861257088
73.76808869768189 82.0785290804277 49.776568583702
73.76808855707864 82.07852938084665 49.77656855212125
73.76808853705187 82.07852952584444 49.77656852936583
73.76808852494483 82.07852949059276 49.77656853756427
73.76808855216521 82.07852945910307 49.776568538914105
73.74434322262216 82.12126516896915 49.77155889019215
73.96399540407586 81.29596763326475 49.79786893139415
73.96399085570954 81.29597139568656 49.79786868860411
73.91996566533977 81.34441709801555 49.796840681160205
73.9199562590892 81.34443156924526 49.79684035865034
73.9199468960014 81.34444597882114 49.796840038080404
73.91993770293733 81.34446013654811 49.796839724281924
73.8682396554575 81.51965751130459 49.798952000167844
73.86823966193865 81.51968039913524 49.79895289130076
73.84688074439768 81.61702206059113 49.80232571427964
73.8466439549931 81.62088408889049 49.802447485924915
73.84664843324047 81.62086988592336 49.80244680848331
73.8466449391772 81.6208828491405 49.802447486176966
73.84663820962021 81.62090229185704 49.80244835356356
73.84664044194547 81.62089935353715 49.80244834412348
73.8363685373474 81.6707274881693 49.803001765371626
73.8363733491133 81.67072014106084 49.8030018726549
73.83635916572503 81.67074179397859 49.80300155141529
73.83636545885645 81.67073218574434 49.80300169276184
73.83636863715842 81.6707273338478 49.80300176504513
73.83636611903242 81.67073117755571 49.803001707264784
73.83635619865694 81.67074632016642 49.80300147962127
73.83635855351281 81.67074272405442 49.803001531498744
73.8363468323885 81.67076061523233 49.80300126236988
73.83635099112593 81.67075426488572 49.803001354627256
73.83633735777315 81.6707750750861 49.80300104184194
73.83634357105495 81.67076558805061 49.803001180445655
73.83633476266718 81.67077903137448 49.80300097575053
73.83634180144861 81.67076828860121 49.803001139036496
73.83633646695283 81.67077642903593 49.80300101367409
73.83632529413156 81.67079348168114 49.80300075500724
73.83632934418598 81.67078729742958 49.80300084503615
73.83631569541316 81.67080813070622 49.80300053128394
73.83632252342805 81.67079770477231 49.80300068324874
73.8480225556736 81.7456998400301 49.798637464067426
73.84801281417423 81.7456909389041 49.79863841094142
73.84802744680744 81.74570431393323 49.79863697813333
73.84803410607198 81.74571039442222 49.79863634044037
73.84804413403842 81.7457195677639 49.79863534238743
73.84805802930947 81.7457322666551 49.798633986573144
73.84805071142581 81.74572558009677 49.798634697802775
73.84806167963657 81.74573560625734 49.79863362243946
73.78492044803377 81.8493829351302 49.79546793431136
73.83907123089283 81.86026113868752 49.792061130442846
73.83905854696232 81.86034837721033 49.79205449874304
73.83906903822509 81.86028814244756 49.79205898259943
73.83906453500613 81.86034075475214 49.79205481056444
73.72167533857002 82.05011195764348 49.78198636174491
73.82350744388276 81.98121295628559 49.782665283587285
73.77376422628352 82.06687033330306 49.77780803840966
73.82350424931818 81.98121821053061 49.782665014375766
73.77376431702659 82.06687024087702 49.777808041380815
73.77376403129452 82.06687064040594 49.77780801171377
73.77376420919971 82.06687045613367 49.77780801811312
73.77376425852914 82.06687037816144 49.77780802491911
73.77376423974899 82.06687042453957 49.777808019202894
73.77376401638307 82.0668707610768 49.77780799147846
73.77376417220941 82.06687059775003 49.7778079974437
73.7737640019935 82.06687087952969 49.777807971575925
73.7737641625852 82.06687062431753 49.777807993990095
73.77376411748538 82.06687075707643 49.77780797625964
73.77376398782147 82.0668709964577 49.777807951924494
73.77376410175546 82.06687081437073 49.77780796801809
73.7737640782423 82.06687089948974 49.77780795579682
73.77376397403233 82.06687111182445 49.777807932504885
73.77376406294675 82.06687096878628 49.77780794523978
73.77376405162966 82.06687102761755 49.77780793601356
73.77376395984989 82.06687122678414 49.77780791322358
73.77376403695116 82.06687110198119 49.77780792441045
73.7737640310254 82.06687114866637 49.77780791660658
73.77376394567511 82.06687134077333 49.777807894122766
73.77376402238676 82.06687121596099 49.777807905372924
73.77376401640534 82.06687126222899 49.77780789765594
73.77376393113697 82.06687145333487 49.77780787534661
73.77376400014104 82.06687134059808 49.777807885553436
73.77376398955825 82.06687138745829 49.777807878452315
73.77376374068669 82.06687176415002 49.77780784723893
73.77376391709188 82.06687156136158 49.777807857341514
73.7737639421623 82.06687152031498 49.77780786106619
73.77376393545536 82.06687154027387 49.77780785838902
73.7733846801874 82.07236261429787 49.776886555975715
73.77338485737059 82.07236225637126 49.77688659347568
73.77338451364554 82.07236296510821 49.77688651788654
73.77338454353037 82.07236290366009 49.77688652442452
73.77338451874995 82.07236295475525 49.77688651897509
73.76808870458167 82.07852905376984 49.77656858738022
73.76808871454107 82.07852902433036 49.77656859107476
73.76808857690163 82.07852933871999 49.776568556532965
73.7680886573105 82.07852917255404 49.776568573586204
73.76808863859769 82.07852920555389 49.77656857063046
73.76808867081934 82.0785291452086 49.776568576349234
74.17021418548754 81.06988603348839 49.801545950419516
74.17021438829616 81.06988895498064 49.80154587299229
74.17021449754645 81.06989190892705 49.801545782684045
74.1702128456096 81.06989445611475 49.80154548573246
74.17021468553739 81.06989492753866 49.801545699977936
74.12978900287159 81.07640065180664 49.7980284977245
74.17021492337118 81.06989799915206 49.80154562165901
74.12978577600838 81.0764046433892 49.79802817662598
74.12978478837745 81.0764058641149 49.79802807782548
74.12978029311665 81.07641142124609 49.79802762863419
74.12977562125374 81.07641719521337 49.798027160986734
74.12976925137124 81.07642505509368 49.79802651645521
74.12977085575939 81.07642308405657 49.79802668350679
74.12976498485588 81.07643033118505 49.79802609107067
74.1297660463876 81.0764290268369 49.79802620147592
74.12976072133358 81.0764356033504 49.79802566586193
74.1297612444062 81.07643496052088 49.798025720205246
74.12975725616138 81.07643988791472 49.7980253200661
74.12975633322887 81.07644102812357 49.79802522743853
74.0793291720506 81.14091886386346 49.7995169569442
74.07935241904738 81.14089005431171 49.79951724212297
74.04893975152419 81.1931724373741 49.80042357753118
74.07931396192389 81.14093771229597 49.79951677954854
73.96400754034988 81.29595800318033 49.79786954531728
74.04891860139185 81.19320205771129 49.80042314052554
73.96400310594412 81.2959616720827 49.79786930854834
73.96400650340536 81.29595929617639 49.79786945389117
73.96399863950747 81.2959653650845 49.797869070268234
73.96400194250079 81.29596305100168 49.79786921192115
73.96399415596358 81.29596907597644 49.79786883076504
73.96399745407119 81.29596675787684 49.79786897282507
73.96398965597763 81.29597280115661 49.79786859032722
73.96399294886824 81.29597048053276 49.79786873267569
73.91995939770001 81.34442692647747 49.7968404842625
73.91996246724511 81.34442238597057 49.79684060711983
73.91995008743342 81.34444125046426 49.79684016508482
73.9199534280141 81.34443630081047 49.79684029799354
73.91994075409995 81.34445560904905 49.79683984503011
73.91994481966566 81.34444957619051 49.79684000591047
73.89301089515737 81.44909789595803 49.79846377710312
73.89301169806028 81.44909631914916 49.798463764744696
73.86824013980359 81.51968047641012 49.79895295325395
73.86824184684215 81.51968074121312 49.79895317412712
73.84688098654082 81.61702177631255 49.80232571560107
73.84688507275703 81.61701694854968 49.80232573560801
73.86824193083055 81.51968783966092 49.798953460616175
73.84688578130377 81.61701611325245 49.80232573921497
73.84664819951118 81.62087873545595 49.802447486478556
73.84664995968271 81.62087650953544 49.802447486241405
73.84664261585671 81.62089648946409 49.80244833472109
73.84664559727273 81.62089254959795 49.80244832088093
73.83637457182778 81.67071827417533 49.80300190002701
73.8466413139392 81.62090849642053 49.802449156045626
73.8466415282071 81.62090781347733 49.8024491233644
73.84664136862723 81.62090842096266 49.802449155538994
73.8363714701243 81.67072300657577 49.8030018260783
73.83637325109584 81.67072028695452 49.80300186545813
73.83636246281847 81.67073675468474 49.80300161835219
73.83636592647203 81.67073146565099 49.803001695093336
73.83635334673566 81.67075066815467 49.80300140722882
73.83635861697799 81.67074262043577 49.80300152398904
73.83634412484852 81.67076474249092 49.80300119283342
73.8363505480722 81.67075493597841 49.8030013375594
73.83635568112845 81.67074710112855 49.80300145577952
73.83635181953322 81.67075299441174 49.803001365686264
73.8363414611072 81.67076880360095 49.80300112524098
73.83634468939277 81.67076387417606 49.80300119703263
73.83633226049625 81.67078284466774 49.80300091027938
73.8363377152548 81.67077451535869 49.80300103135107
73.83632294898258 81.6707970549895 49.80300069273484
73.84802383684482 81.74570102094305 49.79863731664125
73.83633489811342 81.67077881412251 49.803000964893656
73.84802669362313 81.74570363390973 49.798637033084695
73.84803501858548 81.74571123926137 49.798636227106215
73.8480424959269 81.74571807876204 49.798635484226935
73.84804639195406 81.74572163304703 49.79863511811814
73.84805817287734 81.7457324087102 49.79863394836708
73.84805661396547 81.74573098418111 49.798634100117354
73.8480588873918 81.74573306236678 49.79863387717332
73.84806959880312 81.74574285033533 49.79863283468034
73.84807532500784 81.74574808870449 49.79863226437766
73.83907435924368 81.86025759961429 49.79206125612764
73.8390900856752 81.86023989942265 49.792061880312914
73.83909115494416 81.8602337086794 49.79206234164293
73.83909064619831 81.86023926176522 49.79206190313011
73.83907483732776 81.86032793338642 49.79205532244322
73.83908322874807 81.86031748230293 49.7920557400374
73.8235095980348 81.98120941596407 49.78266546498469
73.82353224713285 81.98117219238962 49.782667372229376
73.83907820594567 81.86037919344797 49.7920508322694
73.8235348623598 81.98116789424158 49.782667592455894
73.77376439669354 82.06687015989291 49.77780804395928
73.82351307470294 81.98120372819183 49.782665756432465
73.77376437885077 82.06687028092585 49.77780802411914
73.82350545787264 81.98121625685017 49.78266511450285
73.77376445198044 82.06687020558178 49.77780802667423
73.77376419298177 82.06687057602228 49.77780799823058
73.7737643612119 82.06687040015267 49.777808004584905
73.77376440476442 82.06687033068962 49.77780801071033
73.77376439069735 82.0668703693828 49.777808005688414
73.77376417713718 82.0668706938919 49.777807978667035
73.7737643324187 82.0668705296471 49.777807984890174
73.77376416154902 82.06687081015397 49.77780795936393
73.7737643285372 82.06687054200013 49.777807983190634
73.77376428826187 82.06687067443075 49.77780796475968
73.773764146515 82.06687092449418 49.7778079403331
73.7737642777808 82.06687071219518 49.77780795934527
73.77376425259806 82.06687080931098 49.7778079451418
73.77376413120018 82.06687103832931 49.77780792144118
73.77376424063975 82.06687085983336 49.777807937572355
73.77376422240037 82.06687093769133 49.77780792587747
73.77376411538243 82.06687115128432 49.77780790279345
73.77376420757038 82.06687099965296 49.77780791662004
73.7737641922237 82.0668710649442 49.77780790682088
73.77376409924373 82.06687126122627 49.77780788476048
73.77376415499722 82.06687116907027 49.77780789320718
73.77376414082566 82.06687121348821 49.77780788713005
73.77376407927127 82.0668713715255 49.7778078672661
73.77338494099358 82.0723620851806 49.77688661162151
73.77376399336606 82.06687150872614 49.777807855148765
73.77338495003727 82.07236206678414 49.776886613560734
73.7733846557449 82.07236267587024 49.77688654839271
73.76808875649263 82.07852894408751 49.776568598819665
73.76808874611416 82.07852897132099 49.77656859558498
74.06374403611372 80.91032630685702 49.74335060741873
74.11344112321848 80.97027918758583 49.764514494316614
74.13737340508436 80.98958147389264 49.77315179823164
74.13737864633869 80.98958697808628 49.773155269769326
74.14922814461193 81.03711961106947 49.78969048389528
74.14922569034903 81.03712471604209 49.78969168819485
74.14922415264898 81.03712859997505 49.78969290944247
74.1492223439152 81.03713286434851 49.78969413886752
74.17021529035854 81.06987431465203 49.80154650168873
74.17021627142027 81.06987698933735 49.801546530595196
74.17021735156021 81.06987974213723 49.80154656918185
74.17021494093832 81.06988077242424 49.80154623045589
74.1702183030845 81.06988253723615 49.80154659014238
74.17021608889571 81.06988400456403 49.80154626067255
74.1702190416813 81.06988536078653 49.80154658338624
74.17021719507343 81.0698871909157 49.801546287259654
74.17021985973491 81.06988824934547 49.80154658431
74.17021822518791 81.06989028321354 49.801546307615396
74.17022082672294 81.06989121046394 49.80154660136474
74.17021924761592 81.06989338764137 49.80154632657962
74.17022180481491 81.06989421741415 49.8015466181988
74.17022030168636 81.06989656791701 49.80154634684307
74.17022260307836 81.06989725335218 49.801546611450036
74.17022133700192 81.06989974703785 49.80154636479411
74.17022341203463 81.06990033638655 49.801546604384484
74.12978488530734 81.07640574509281 49.798028087950215
74.17022242708934 81.06990302515484 49.80154638613119
74.17022386549837 81.0699034121383 49.80154655297372
74.12978076356801 81.07641084347307 49.79802767772204
74.17022355349371 81.06990636937583 49.801546409697096
74.17022398925005 81.06990648022834 49.801546460465616
74.12977659386542 81.07641600045811 49.79802726232557
74.1702239613552 81.0699075740612 49.80154641844942
74.17022391666225 81.06990955553397 49.80154634306984
74.12977241432071 81.07642116914099 49.798026845689634
74.17022385768738 81.06991265755124 49.801546226441396
74.1297682325606 81.07642634047812 49.798026428786244
74.12977006451915 81.07642408920034 49.798026619170635
74.12976404751518 81.0764315156124 49.798026011410414
74.1297654721804 81.07642976460681 49.798026159332494
74.12975646024051 81.07644087204068 49.79802524063841
74.12975986536775 81.07643668705694 49.79802559426568
74.12976093496744 81.07643537228563 49.79802570523196
74.07935737564613 81.1408839117068 49.79951730283658
74.12975568326671 81.07644185829609 49.79802517704482
74.1629842690579 81.1060312215089 49.8041169897697
74.07932288992936 81.14092664804473 49.799516888662254
74.07935067195173 81.14089221853556 49.79951722782754
74.07935360316536 81.140888585957 49.79951726364869
74.04893102402883 81.19318567932322 49.8004233745223
74.07932887071745 81.14091923566833 49.799516965932355
74.04896014006363 81.19314728983156 49.800423923006036
73.96400924419027 81.29595737205948 49.79786957175786
74.0662182191449 81.24058706389103 49.803889213960275
73.96400488680595 81.29596098084988 49.79786933880185
73.96400943736818 81.29595777963863 49.7978695350424
73.96400051582721 81.29596460097046 49.797869105113165
73.9640049167697 81.29596149753425 49.79786929552132
73.96399613124477 81.29596823266306 49.79786887067188
73.96400039112203 81.29596522258929 49.79786905548349
73.96399173407667 81.29597187535006 49.797868635510405
73.9639960608353 81.29596881016828 49.79786882387419
73.91995637801651 81.34443192830854 49.796840415211804
73.91996087706136 81.34442525914943 49.79684059391711
73.91994727101502 81.34444593814656 49.796840102864806
73.91995254268323 81.34443811417893 49.796840311338414
73.89301198279296 81.44909573290072 49.79846375919671
73.91163605611513 81.42852414515426 49.799885033862665
73.91163913787454 81.42851166604582 49.79988482745934
73.91163633079145 81.42852353195775 49.7998850358375
73.86824199945772 81.5196807605447 49.79895319370506
73.86824378008743 81.51968096115041 49.79895342115883
73.86824426851692 81.51968101483403 49.79895348349751
73.85897637443747 81.57336301816733 49.802118810940854
73.85897863966282 81.57335738642007 49.80211866348076
73.84665227965404 81.62087356472131 49.802447485059474
73.84665550170638 81.6208694675094 49.802447482834864
73.84664683254819 81.6208909194201 49.80244831532157
73.84665090217592 81.62088554645854 49.802448296822014
73.84665316176545 81.6208783206982 49.80244795029989
73.8466514316348 81.62088484538772 49.80244829425289
73.84664550915545 81.62090275031598 49.80244912054247
73.84664706907381 81.62090060123371 49.80244910635108
73.83637722111091 81.67071422573196 49.80300195478798
73.83638071969972 81.67070888335809 49.8030020323116
73.83636843734325 81.67072763201284 49.80300175137248
73.83637342062372 81.67072002227096 49.80300186148675
73.83635955997406 81.67074118051293 49.803001544937544
73.83636549220513 81.6707321226246 49.80300167728751
73.83637020021753 81.67072493691595 49.8030017862165
73.83636641472219 81.67073071377706 49.80300169752117
73.83635672383237 81.67074550528143 49.80300147405903
73.83635956495006 81.6707411665795 49.80300153662603
73.83634785722472 81.67075903709582 49.803001267526525
73.83635273254815 81.6707515920162 49.80300137499739
73.83633890152042 81.67077270410451 49.80300105788051
73.83634521900603 81.67076305841424 49.80300119941184
73.83634934416222 81.67075676251983 49.80300129514373
73.83634635317347 81.67076132638607 49.80300122435031
73.8480359384348 81.74571208938002 49.798636116234036
73.8480423704591 81.74571797247586 49.79863547778005
73.84804695592837 81.74572215821365 49.798635041340546
73.84805741918447 81.74573172889806 49.79863400185992
73.84806946855261 81.74574274101083 49.79863282572768
73.84806055979703 81.74573459975537 49.798633693966835
73.84807333312477 81.74574627625132 49.79863244104697
73.84808069353609 81.74575299955053 49.79863173040795
73.84808910213901 81.74576069175646 49.79863089303706
73.89667370508192 81.7604732042344 49.79560897183282
73.89666927421624 81.76046870839622 49.79560957092667
73.89667788118706 81.76047506127671 49.79560847094195
73.83909030161219 81.86030877681308 49.79205608332968
73.83910193339759 81.86029455163954 49.79205664020495
73.8390905529673 81.86037604239192 49.79205041978307
73.83909976957473 81.86032193266031 49.792054459092746
73.8390960573022 81.86036868440672 49.792050735918984
73.82351921355303 81.98119363887193 49.782666273384315
73.82354003466374 81.98115941866689 49.782668026743025
73.82350631513592 81.98121486361102 49.78266518590118
73.82353894676433 81.98116120807525 49.78266793505925
73.82352101235341 81.98119070759964 49.782666423594975
73.77376452076628 82.06687023389102 49.77780801051078
73.82351278954674 81.98120423324355 49.782665730583105
73.77376458685825 82.06687016516824 49.77780801293783
73.77376434359594 82.06687051783815 49.7778079853356
73.77376450219455 82.06687035047533 49.77780799161857
73.77376455249582 82.06687026941344 49.777807998849504
73.77376453738032 82.06687031340144 49.77780799300194
73.77376432642801 82.06687063356652 49.77780796638193
73.7737644758869 82.06687047373276 49.777807972698895
73.77376430959862 82.06687074729868 49.77780794774848
73.77376447321745 82.06687048166759 49.77780797163505
73.77376442198272 82.06687062515338 49.77780795286538
73.77376429166912 82.06687086060667 49.77780792936818
73.7737644004986 82.0668706822517 49.77780794556932
73.77376436373035 82.06687078051098 49.77780793298157
73.77376427252673 82.06687097169569 49.77780791159487
73.77376430559184 82.0668709167112 49.77780791666616
73.77376429230343 82.06687094884552 49.77780791274912
73.77376421633085 82.06687112094096 49.77780789253052
73.77376408081726 82.06687136248837 49.77780786871374
73.7737640935309 82.06687133422773 49.77780787199639
73.77376408260177 82.0668713533939 49.777807870134446
73.77376398462134 82.06687154669555 49.77780784942175
73.77338464442616 82.07236269637377 49.77688654646375
73.7733848514937 82.07236226996488 49.77688659189166
73.77338483485858 82.07236230527673 49.77688658803356
73.76808875673714 82.0785289406069 49.77656859940299
74.13737341760047 80.98958148552072 49.77315180459286
74.13737866070156 80.98958699126361 49.77315527685731
74.14922812748016 81.03711963647086 49.78969048533416
74.149225758483 81.03712462790533 49.789691691246034
74.14922356886774 81.03712941476608 49.789692923895245
74.17021483469884 81.06987334807667 49.801546478555025
74.17021569577922 81.06987593542748 49.80154649548335
74.17021663372772 81.06987743428505 49.80154656038424
74.17021806490489 81.06987887564502 49.80154668919238
74.17021639082398 81.06987671317883 49.80154655530029
74.17021670393865 81.06988125461508 49.80154643467057
74.17021722216711 81.06988393351133 49.80154640535967
74.17021802601731 81.06988670337597 49.80154640868091
74.170221450785 81.06988987705414 49.80154672661473
74.17022342922373 81.0698929117897 49.80154686797829
74.1702252694586 81.06989597231731 49.80154699109397
74.17022705222668 81.069899078454 49.80154710539363
74.17022841823746 81.06990217171212 49.80154716785856
74.17022978654339 81.0699052936664 49.80154722960101
74.17022962751676 81.06990479484179 49.8015472272136
74.20368672014334 81.07568805778516 49.80545707224875
74.2036874340655 81.07568900537633 49.80545712660854
74.2036895897679 81.07569186665539 49.80545729074765
74.1702247102219 81.06990976489986 49.801546435261045
74.20369238869965 81.07569558179254 49.8054575038477
74.1702258607358 81.06991315753775 49.80154646014694
74.20369519458653 81.07569930618753 49.80545771747299
74.17022698635526 81.06991653402736 49.8015464824781
74.20369800698168 81.0757030392551 49.80545793158821
74.16292542588755 81.08115216596134 49.80202008877633
74.20370087613799 81.07570684764852 49.805458150027576
74.16292332639745 81.08115768097196 49.802019879412114
74.20345610588174 81.09951579170172 49.80763814195169
74.16299274689064 81.10603497502407 49.804118162577936
74.20346074632485 81.09952880340404 49.80763909699425
74.16299631445995 81.10604857206596 49.80411898077426
74.20346548580815 81.099542030224 49.8076400671347
74.04896197205896 81.19314487413948 49.80042395752149
74.11990400835042 81.15926466331803 49.80513821058736
74.11992588970922 81.15925090017467 49.805139200223124
74.066226444896 81.24058346920197 49.803889698130476
74.119874179692 81.15930510717908 49.80513786018351
74.11989629022298 81.15929103389117 49.805138852538285
74.06620518568454 81.24059288988578 49.80388842230613
74.06625600816758 81.24057067743787 49.803891414259596
74.0662792600112 81.24056051515163 49.803892783082475
73.96400659381285 81.29596030966786 49.79786936851484
74.06623485059592 81.2405800524223 49.803890144658865
74.06625823202607 81.24056983271343 49.80389152125831
73.96400229791332 81.29596386989158 49.79786913865077
74.06621372183689 81.24058941538657 49.80388887664671
74.06623604074464 81.24057965942441 49.80389019081484
73.96399799123506 81.29596743846096 49.79786890825861
73.96400401027739 81.29596315640836 49.79786917178855
73.96400646921869 81.29596140945202 49.79786927925058
73.96399366451791 81.29597102072495 49.79786867703562
73.96399975660628 81.29596668178365 49.797868944171725
73.96400229598254 81.29596487439305 49.797869055421586
73.91995348710523 81.34443671226774 49.796840348663
73.96399549480564 81.29597021141711 49.7978687163254
73.96399844222468 81.29596811064107 49.79786884569713
73.91164303042842 81.4285084703505 49.799885079714784
73.91164714775213 81.4284992329525 49.799885107449484
73.91162677340427 81.4285744043269 49.799886172773924
73.91163236508788 81.42856145833613 49.799886194079576
73.85898055967272 81.57335260572309 49.802118538169935
73.85898459714537 81.57334253649924 49.80211827393616
73.85898522215287 81.57333937935503 49.80211816141181
73.85898464858782 81.57334240804283 49.80211827056225
73.84665620675011 81.6208685702023 49.80244748228765
73.8466599890354 81.62086374425381 49.802447478381524
73.84666081545424 81.62086268926596 49.80244747748591
73.84665479013775 81.62088038188462 49.80244827665497
73.84665644739374 81.62087817230548 49.802448267411705
73.84664952432566 81.62089719752564 49.80244908233928
73.84665205668676 81.62089368275477 49.80244905724315
73.8363827237657 81.67070582243758 49.80300207579453
73.83638729928813 81.67069883334746 49.8030021742172
73.83637415549157 81.67071889972064 49.80300187723719
73.83637962789135 81.67071054166712 49.80300199629866
73.8363838042505 81.6707041671788 49.80300209262477
73.83638032688788 81.67070947384556 49.80300201119172
73.83637118360289 81.67072342979873 49.80300180072224
73.83637340093617 81.67072004277686 49.8030018483453
73.83636263747054 81.67073647391743 49.80300160351479
73.83636676770695 81.67073016492374 49.80300169225804
73.83635399132238 81.67074966956649 49.803001402503014
73.83635986378744 81.67074070109906 49.8030015310795
73.83636225274459 81.67073705472495 49.803001586119905
73.83636049467574 81.67073973742811 49.80300154466117
73.83635132476293 81.67075373340286 49.80300133275176
73.83635413848297 81.67074943571231 49.80300139361486
73.8480475551092 81.74572271498577 49.79863496239861
73.87501612402176 81.70552868968583 49.80051462692515
73.84805840966786 81.7457326349026 49.79863390342681
73.84806941272268 81.74574269917716 49.79863281067824
73.84806214760532 81.7457360600568 49.79863351851057
73.84807235084702 81.74574538711018 49.79863251779222
73.84808026429485 81.74575261673185 49.7986317511788
73.89691575365856 81.76029568036746 49.795621124801826
73.89691336629446 81.7602988419693 49.79562129194328
73.89692787484968 81.76030532388467 49.79561955886972
73.89692571160181 81.76030312865203 49.79561985157578
73.89692982132308 81.76030618957209 49.79561932646958
73.89693537159238 81.76031292308302 49.79561854473003
73.89694339860792 81.76031643940576 49.795617587838706
73.83910508742856 81.86029071024923 49.792056789873534
73.89695682260766 81.76032665216101 49.79561586664134
73.89695516603265 81.76032498821638 49.79561609031217
73.89695837536235 81.76032731910647 49.79561568190928
73.83910513441327 81.86035659559568 49.79205125346353
73.83911419097466 81.86034463273909 49.792051761555946
73.82354085444783 81.98115807130155 49.782668095778675
73.84817905331673 81.94000286191249 49.78288863034868
73.84818891750314 81.939986397799 49.78288950636625
73.84818281125479 81.93999659585816 49.782888968274484
73.82352805733404 81.9811791284292 49.782667016882655
73.82354580189124 81.9811499632241 49.78266851123455
73.82351552713986 81.98119974609192 49.78266596050311
73.82354155934769 81.98115694115866 49.78266815370645
73.82352665835732 81.9811814496939 49.782666897963864
73.77376464783461 82.06687019726732 49.7778079972983
73.82351143417236 81.98120648820115 49.782665615065895
73.77376466847302 82.066870175602 49.77780799809463
73.77376448215254 82.06687046699537 49.777807972970606
73.77376458910197 82.0668703521454 49.77780797758011
73.77376445909839 82.06687058358537 49.777807954785274
73.7737645445466 82.06687044266351 49.777807967671414
73.77376449781812 82.06687054045119 49.777807956745036
73.77376443250338 82.06687070075482 49.777807937050696
73.77376434838185 82.06687083517016 49.777807925173086
73.7737642665603 82.06687096681708 49.77780791345049
73.77376416803395 82.06687116064433 49.77780789272561
73.77376407681469 82.0668713525257 49.77780787121095
73.77376399664493 82.06687143107627 49.77780786916749
73.77376399046017 82.06687148605563 49.77780785985178
73.77376393982962 82.06687152071872 49.777807861359015
73.7737639573556 82.0668715676818 49.77780784979923
73.77376401837434 82.0668714612745 49.77780786008232
74.17021807310223 81.06987889069399 49.80154668969095
74.17021717509306 81.0698813431215 49.801546490667164
74.17021755141974 81.06988402221418 49.80154644354572
74.17021835786308 81.06988689052555 49.80154644372577
74.17022220023813 81.06989113260502 49.80154677643357
74.17022322440471 81.06989327562734 49.801546829469224
74.17022353704523 81.0698942242811 49.80154683529019
74.1702227790014 81.06989228923315 49.8015468083202
74.17022448017987 81.06989709480203 49.80154685254233
74.17022798885029 81.06990037284547 49.801547177328004
74.17022936970213 81.0699032206825 49.80154725029682
74.17022899271215 81.06990192793715 49.80154724851856
74.17022961626682 81.06990343374686 49.80154727372942
74.20368788332848 81.07568960193183 49.8054571607757
74.20368999306116 81.07569240196605 49.80545732145238
74.20369101859212 81.07569376311264 49.8054573995461
74.20369306726656 81.07569648233337 49.805457555535796
74.20369421763858 81.07569800894105 49.805457643174975
74.203696120943 81.07570053545763 49.805457788055236
74.20369727433372 81.07570206597455 49.80545787594036
74.20369920149041 81.07570462426278 49.80545802261824
74.20370030594799 81.07570608977787 49.805458106786176
74.20370227958362 81.07570870981837 49.80545825699306
74.20370333725168 81.07571011320185 49.8054583376029
74.20345769914829 81.09951921179959 49.80763838141121
74.20345878223985 81.09952153813248 49.80763854431017
74.20346232782047 81.09953214100187 49.80763932985157
74.20346355699536 81.09953473790567 49.80763951107396
74.2034669804719 81.09954513879573 49.80764028334141
74.20346841579604 81.09954812352932 49.807640490928634
74.20347165740034 81.09955820473415 49.807641241833785
74.20347334987724 81.0995616742107 49.80764148238984
74.1199214470968 81.15927505745685 49.8051399832685
74.20347827528497 81.09957520729996 49.80764247263414
74.06630577923062 81.2405489253239 49.803894344164696
74.11993130965453 81.15928967979424 49.80514138855797
74.06628493667498 81.24055816072726 49.803893093466456
74.06632852872724 81.24053910750195 49.80389565992993
74.06626411498748 81.24056738778 49.803891843851986
74.06630801551653 81.24054819799696 49.80389442880189
74.066243353434 81.24057658893975 49.80389059770448
74.06628423983538 81.24055871521196 49.80389300545468
73.96400566240092 81.29596248400311 49.79786920243623
74.06626126458524 81.2405688827499 49.8038916291995
73.96400148595205 81.29596594570909 49.79786897892417
74.06624078326361 81.24057795989307 49.80389039983871
73.95568692010913 81.38003405406472 49.80091327750668
73.95569440554868 81.38001295227282 49.80091293423132
73.91163382098918 81.42855809823283 49.79988620006089
73.91164037787804 81.42854296128019 49.79988622682812
73.9116249292406 81.42860612733432 49.79988728637978
73.91163800032082 81.42855304002475 49.79988640448447
73.91162620915324 81.4286030553815 49.79988728682066
73.84666354941447 81.620859198896 49.80244747450268
73.84666505384368 81.62085727440882 49.802447472557944
73.84665849364829 81.62087543490847 49.8024482552716
73.84666096835744 81.62087211820604 49.80244824010321
73.84665336797485 81.62089185826446 49.80244904389154
73.84665682562658 81.62088703141423 49.80244900741994
73.83638797372429 81.67069780307929 49.80300218863185
73.83639302219393 81.67069009225544 49.80300229814661
73.84665590692599 81.62089037694668 49.80244918062108
73.84665272501789 81.62090185669358 49.80244977198385
73.8363848542122 81.67070255781879 49.803002107834416
73.83638683479717 81.67069953189305 49.803002149652514
73.83637662285716 81.67071512079873 49.803001916975504
73.83637984034203 81.67071020449944 49.80300198405157
73.83636830292451 81.67072781916256 49.803001724320254
73.83637301286586 81.67072062191231 49.803001821864456
73.83636550818638 81.67073207513462 49.80300164695062
73.83637024042363 81.67072485214175 49.80300175602737
73.83636648851203 81.67073057666121 49.803001666668415
73.87501285867106 81.70549536817771 49.80051638939361
73.87501731762865 81.7054969504552 49.80051590908134
73.87501733690644 81.70552899794538 49.8005145016322
73.87502477413209 81.70553085468997 49.80051373482232
73.89691314289307 81.76029034948324 49.795621552917694
73.87502735241452 81.70554193752292 49.800513011106474
73.89691710121511 81.76029214017407 49.79562107946772
73.89692042457452 81.7602977560993 49.795620567161365
73.89693001891888 81.76030201764279 49.79561942179371
73.89694153080714 81.7603112909287 49.79561793138015
73.89693897862998 81.76030872391327 49.7956182760725
73.89694368913952 81.76031223027084 49.79561767425919
73.8969490740607 81.76031887510516 49.79561691268409
73.89695758545886 81.76032252293624 49.79561590030232
73.89696971677657 81.76033209143685 49.79561433538102
73.89696670659912 81.76032910088787 49.79561474089355
73.8969724234724 81.76033322769872 49.79561401409896
73.89697751932624 81.76033984926708 49.79561328409777
73.94434639156857 81.77508981233223 49.790100889514314
73.84819247806863 81.93998047629506 49.782889836913114
73.94434594326758 81.77509070910074 49.790100913174925
73.84819662622192 81.93997355902066 49.78289020954696
73.82354879032212 81.98114505087804 49.78266876293043
73.84818079846451 81.93999998510066 49.782888809482714
73.82353666702123 81.98116499443147 49.78266774108642
73.82355172101487 81.98114024079206 49.782669009392464
73.82354082347004 81.98115816076722 49.782668091224615
73.82351713424828 81.98119711436675 49.782666095353676
73.77376460583957 82.0668703327042 49.77780797857616
73.77376452373433 82.06687046422276 49.777807966922396
73.77376444446236 82.0668705926605 49.7778079553979
73.77376434562679 82.06687078620465 49.77780793477488
73.77376425744086 82.06687097202695 49.77780791391544
73.77376417627097 82.0668710537904 49.77780791142845
73.77376417082766 82.06687110661125 49.77780790239973
73.77376412006092 82.06687114260515 49.77780790367935
73.77376413882533 82.06687118609715 49.77780789257377
73.77376420019021 82.06687107874109 49.777807902979816
73.77376399653978 82.06687143046344 49.77780786929881
74.17022354229832 81.0698942331489 49.80154683563701
74.17022448701401 81.06989710605416 49.80154685300356
74.17022763718117 81.06990035045723 49.80154713399441
74.1702290075674 81.06990195381655 49.801547249471085
74.17022980064615 81.06990354271315 49.80154729302549
74.20368847819735 81.075690391602 49.805457206054164
74.20369182629138 81.07569483540084 49.805457461008935
74.203693718633 81.07569734691818 49.805457605128474
74.20369515585504 81.07569925452114 49.80545771456647
74.20369318572416 81.07569663955125 49.80545756455731
74.20369763093197 81.0757025399849 49.80545790297768
74.20370047962267 81.07570632108094 49.805458119880754
74.20370340689969 81.07571020645219 49.805458342772965
74.20345942312049 81.09952313991398 49.807638659722
74.20346464189791 81.09953715204219 49.80763968133154
74.20346973566186 81.09955092767126 49.80764068684216
74.20347451646728 81.0995640774035 49.807641649192746
74.20347395179763 81.09956249421445 49.80764153299013
74.20347455166149 81.09956414989324 49.80764165422402
74.20347895306139 81.09957655518943 49.8076425654627
74.20347950748604 81.0995776575947 49.80764264138216
74.2034835189684 81.09958935710529 49.8076435050985
74.20348438416616 81.09959101592506 49.80764361837814
74.06633371230444 81.24053684276794 49.80389596494062
74.1371632752291 81.18182172731974 49.80651039519874
74.06631329085523 81.2405458925194 49.80389473933467
74.06633446072281 81.24053664092662 49.80389598544997
74.06629307339472 81.24055485372091 49.80389352562386
74.06631345963055 81.24054594217279 49.80389472606667
74.06627281885837 81.24056383088262 49.80389230977627
74.06629381979752 81.24055464859264 49.803893546798136
74.06625243102508 81.24057286627232 49.803891086087184
74.06627590535169 81.24056260063317 49.80389246915741
73.95569593706674 81.38000867034998 49.8009128644773
74.06626072645585 81.24056935716008 49.80389155254444
73.9116406214171 81.42854240312789 49.79988622798852
73.95567599522421 81.38007364451997 49.80091389741004
73.91163187129703 81.42858935101967 49.79988728409738
73.91163377873738 81.42858159733012 49.799887155128395
73.91163210448285 81.42858878495642 49.799887283916966
73.85898111740701 81.57337851917534 49.80211972510603
73.85898223236148 81.57337546192022 49.80211963974272
73.84666197993414 81.6208707407076 49.80244823217955
73.84666392021367 81.62086808715594 49.80244821607729
73.84665703425398 81.62088673083323 49.80244900447913
73.8466598732027 81.62088261314433 49.80244896228504
73.84665551627332 81.62089757539395 49.802449712048585
73.84665721549858 81.62089207996519 49.80244944657858
73.84665578427105 81.62089716089882 49.802449706021875
73.83638970740286 81.67069513573955 49.80300220046201
73.83639070178666 81.67069361350838 49.8030022174458
73.83638173268633 81.67070730679353 49.80300201524085
73.83638335596856 81.67070482094634 49.80300204179586
73.83637368810872 81.67071958725008 49.80300183209311
73.83637611541015 81.6707158672776 49.80300186798064
73.83636912221036 81.67072653596202 49.803001699742026
73.8750209002188 81.70549740674569 49.80051555891794
73.87502584720767 81.7055304700583 49.80051365280504
73.8750225321334 81.70550557706702 49.80051505016266
73.8750273707762 81.70553000977796 49.80051353259121
73.89692020862486 81.76029329929483 49.79562071467915
73.89693320424014 81.76030311483649 49.795619050398926
73.8969336630143 81.76030346567157 49.7956189915254
73.89694586962102 81.76031275301179 49.79561742639851
73.89696056571069 81.76032332666391 49.79561555903821
73.89696101698817 81.76032365609427 49.795615501564214
73.89697413510787 81.76033333527934 49.795613827984965
73.94434684541821 81.77508890455151 49.79010086556731
73.94434690230804 81.77508879075693 49.790100862565225
73.94434687014882 81.77508885508638 49.79010086426247
73.94434582293721 81.77509094987676 49.790100919531014
73.84818360983193 81.9399952905398 49.78288905770138
73.823553288036 81.98113765069155 49.78266914209145
73.82353844269981 81.98116205751728 49.78266789155225
73.82350981812004 81.98120911920046 49.78266548024055
73.77376451618703 82.06687042575882 49.7778079753151
73.77376448762185 82.06687051584889 49.777807962961106
73.77376446051264 82.06687051379572 49.777807967627005
73.77376451851126 82.06687045061659 49.777807970294475
73.77376444033911 82.06687059507021 49.77780795559799
73.7737643428959 82.06687078754749 49.77780793495479
73.77376417614266 82.06687105376184 49.77780791145407
74.20369534935446 81.0756995112099 49.8054577293237
74.20369775672486 81.07570270686918 49.80545791256924
74.20370057728384 81.07570645065945 49.805458127324755
74.20370354324307 81.0757103873954 49.805458353158755
74.20345991619523 81.09952438619247 49.80763874969155
74.20346468065239 81.09953741613845 49.807639702433036
74.20346680480895 81.09954340526482 49.807640142392344
74.2034693649911 81.09955028046372 49.8076406436703
74.20346703627638 81.09954381465582 49.80764016979364
74.20347469588619 81.09956445420408 49.80764167545426
74.20347377227695 81.09956257850658 49.80764154566948
74.20347706473493 81.09957094933537 49.807642150563915
74.20347932234331 81.09957721012057 49.80764260932983
74.20348374545986 81.09958955162341 49.80764351450866
74.06633670341185 81.24053554900406 49.803896138485726
74.06631714893145 81.24054421415163 49.803894964988004
74.06629765950092 81.24055285127056 49.80389379524421
74.06627825486262 81.24056145161396 49.80389263043887
74.06625900664578 81.24056998348117 49.803891474862965
74.06625754382772 81.24057074065252 49.803891366592104
73.95567784929298 81.3800685050382 49.8009138135636
73.95566525458779 81.38010824716382 49.80091444844052
73.91163222429728 81.42858811350351 49.79988726828831
73.85898227471075 81.57337469623843 49.80211960739541
73.84666444676438 81.62086720725813 49.802448199043724
73.84666002422509 81.6208820615767 49.80244893368575
73.84666175058679 81.62087634133343 49.80244865311376
73.84666008049803 81.62088190717044 49.80244892708053
73.8466556963744 81.62089660156278 49.80244965289245
73.83639001958055 81.67069462704328 49.80300216484099
73.83638205669997 81.67070677428687 49.803001972255686
73.83637369235501 81.67071953253371 49.80300176806763
73.83636603806723 81.67073120821394 49.8030015818687
73.87501539557398 81.70549322461048 49.80051624962975
73.87502565525205 81.70552717283418 49.80051381511792
73.87502162235336 81.70552496794065 49.80051428347651
73.89691212498082 81.76028916604803 49.79562169485055
73.84807187040273 81.74574499824253 49.79863245267528
73.8969154206026 81.76029250697331 49.79562124902015
73.89692214121348 81.76029747031838 49.79562039149313
73.89693904316391 81.76030904706363 49.795618260147634
73.89693216838923 81.76030577058742 49.795619087076716
73.89694226196838 81.76031231662422 49.79561782452735
73.89695232946428 81.76031884871739 49.795616565157616
73.89696565848288 81.76032868149133 49.79561486472885
73.89695880204314 81.76032541753867 49.79561568934683
73.89696880103618 81.76033188502242 49.79561443910916
73.94434698988655 81.77508861555108 49.79010085794175
73.94434674515114 81.77508910490353 49.790100870842984
73.84819260959613 81.93998024172237 49.78288983849619
73.84818647157675 81.93999047387877 49.782889284875225
73.8481822642174 81.93999750747544 49.782888918732176
73.84817958776024 81.94000196263255 49.78288867294412
73.82355957215415 81.98112729691282 49.782669672573576
73.84818708926377 81.93998946660344 49.78288935563518
73.82354857097084 81.98114539905005 49.78266874508137
73.82353920043707 81.98116080533818 49.78266795570552
73.82351140755831 81.98120650015713 49.78266561442862
73.77376451578917 82.06687042614293 49.77780797530603
74.20346936900798 81.0995502895392 49.80764064431226
74.2034737753136 81.09956258484668 49.80764154611081
74.20347706818076 81.09957095603038 49.807642151022534
74.20347937547666 81.09957731675446 49.80764261668874
74.2034838010627 81.09958965975066 49.80764352191717
74.06633771576438 81.2405351067698 49.80389619804147
74.06631819359693 81.24054375770733 49.803895026462456
74.06629866340121 81.2405524125026 49.803893854345205
74.06627946501442 81.24056092243259 49.80389270173265
74.06626074509097 81.24056922261437 49.803891577406226
74.06625451997786 81.24057205618956 49.80389118971637
73.95567753037172 81.38006948540885 49.80091382928863
73.95566530214785 81.38010812711144 49.80091444644908
73.91163243017762 81.42858743493652 49.79988726083097
73.91162717150394 81.4286119461004 49.79988774435034
73.85898158834897 81.5733757811787 49.80211962422908
73.91162664464801 81.42861354222507 49.79988775770475
73.84666233018622 81.62086976865336 49.802448190195406
73.84665955084006 81.62088227861946 49.802448903504796
73.84665761130401 81.62088470463124 49.802448901647274
73.84665473920381 81.62089725281893 49.802449608701835
73.84665288992154 81.62089961908622 49.802449611143025
73.83638615229756 81.67070049460028 49.80300202887544
73.83638909009672 81.67069601040146 49.80300209642506
73.8363886490898 81.67069669202627 49.803002097558824
73.83639075842366 81.67069346957592 49.80300214233082
73.8363848515558 81.67070248557934 49.80300200634851
73.8363816400039 81.67070738863293 49.80300193383914
73.83638543409405 81.67070160768755 49.80300203474269
73.83637377133209 81.67071939915493 49.803001752827825
73.83636624842961 81.67073087448574 49.80300156990852
73.87501599695925 81.70549344444875 49.800516184567186
73.87502162209444 81.70552490230905 49.80051428637911
73.84807185220785 81.7457449819309 49.79863245374428
73.8969154068255 81.76029249086389 49.795621250943725
73.89692326864926 81.7602979911592 49.795620256340335
73.8969321505215 81.76030575284256 49.79561908948358
73.89694223145678 81.76031228862823 49.795617828573015
73.89695228008718 81.7603188057885 49.79561657163838
73.89695877803408 81.76032539629723 49.7956156925083
73.89696876915063 81.76033185785383 49.795614443278716
73.94434675029729 81.77508909460906 49.79010087057135
73.84818647367187 81.93999047031143 49.782889285014036
73.85898158405327 81.57337578791122 49.80211962433185
73.846662326561 81.62086977211905 49.80244819010723
73.84665760845392 81.6208847056425 49.80244890144213
73.84665288784896 81.62089961764379 49.80244961082125
