ply
format ascii 1.0
element vertex 887
property float x
property float y
property float z
end_header
39.2713239272186 49.97618531187605 42.8193730798678
39.000021484272395 49.366471997829876 42.834580199874964
38.99999934677175 49.36652851688945 42.8345896360675
38.9999979085114 49.36653121573843 42.834589911132
38.99998593792439 49.36656120875271 42.83459481601836
38.99998165005699 49.36657189677275 42.834596553678644
39.01918190716165 49.37672750353799 42.82355190731437
38.999969498711295 49.366601877243994 42.8346013709712
39.066414506386984 49.57504529843892 42.82924472786974
39.065848060667925 49.573521164353664 42.829302734351224
39.24269517468179 49.95297221115499 42.801380515159565
39.24269303608314 49.95297530779759 42.80138256542776
39.270673992167595 49.976097901825 42.81929081752918
39.2708065288168 49.97612890976352 42.81930373176867
39.27128286004856 49.97620657726101 42.819360036389014
39.27093584501584 49.97616610917014 42.8193142982407
39.27139217246335 49.976249154153734 42.819365708148226
39.27106630515531 49.97620822209172 42.81932361552957
39.27151005843934 49.97629675995172 42.81937132993876
39.27119539715676 49.976254014392396 42.81933162817796
39.27162641739779 49.976346607539085 42.81937604175087
39.27130457168805 49.97629953462058 42.81933641503434
39.2717405413535 49.97639679258933 42.8193802838118
39.271410367176905 49.976345188421554 42.81934060199005
39.271514824004946 49.97638946275865 42.8193449707896
39.27158066792434 49.97642528761621 42.819345406061075
39.00009493425768 49.366281046981 42.83454770150593
39.00006975711525 49.366346123154244 42.83455871004385
39.0000668230906 49.366352505066104 42.8345595755312
39.00003968653628 49.36642138174122 42.83457100177651
39.000039639714814 49.366421456966975 42.83457100634324
39.00004802179596 49.36640414408807 42.834568853069065
39.00003857824247 49.36642414938956 42.83457145268237
39.00001817480877 49.366478497008096 42.834580933205956
39.00001542520087 49.366482821605786 42.83458116906647
38.999994958098966 49.366536040439485 42.83459022822074
38.99999437222387 49.36653592900345 42.834589919727726
38.999977961173144 49.36657787242864 42.834596930460506
38.999977994491665 49.36657711313461 42.83459668208445
38.99998116803326 49.36657277955399 42.8345966383207
38.99996943899845 49.366598586493296 42.83460020052685
38.99996794287327 49.366604719601796 42.834601641736135
38.999966883556915 49.366604972672974 42.834601241829795
39.064704552483235 49.57044428484612 42.8294198134749
39.06382450694116 49.56807599388637 42.829509767698916
39.24264363109984 49.95303739829405 42.80142591044535
39.154113010829455 49.78076417179906 42.821982506549105
39.27040728047428 49.97608658327428 42.819249869328694
39.27039228814766 49.97608515353511 42.819247799954226
39.27072680892228 49.976120279426596 42.81929302915307
39.27042085446229 49.97609253324281 42.81925037947015
39.27079278693205 49.976149686625554 42.819295366229035
39.27052967967054 49.97612070989268 42.81926018779793
39.27087131450144 49.976184035638994 42.819298338693706
39.270647712408014 49.97615713075711 42.81926910969612
39.27096134034541 49.97622243576331 42.81930203293924
39.27075755282827 49.97619523121463 42.81927618010387
39.27105372514102 49.97626266961794 42.81930558162513
39.270853929344796 49.97623330328266 42.81928102437621
39.27115108550032 49.976304109352554 42.819309602880104
39.270948464847564 49.976271661109756 42.81928547942584
39.271252399919234 49.97634523749385 42.81931437160195
39.271044893784996 49.976309648453054 42.819290357211365
39.27134613436847 49.97638367866421 42.819318669301
39.27111997964201 49.97634263360791 42.81929315793013
39.271432560434604 49.97641874838978 42.81932274151245
39.271178755207316 49.976370595201445 42.81929472307592
39.334936867725105 50.03786657554762 42.8393044296153
39.33320487742 50.03677638555628 42.83888702905358
39.33458562659472 50.037643569331365 42.83922668516559
39.3358538411063 50.03844011668058 42.83953850985979
39.33512594616978 50.03798283394713 42.83935990533926
39.335621573589194 50.03829399901976 42.83948224116365
38.91790419879021 49.15903205733256 42.84693973068823
38.99749212881104 49.331449756827205 42.82894982944849
38.99748446295052 49.33147018962002 42.8289534783991
39.00010569853187 49.36624998204401 42.83454186882461
39.0001015039484 49.36625969516053 42.83454331083651
39.00012015596842 49.366216380087096 42.83453685564257
39.00007912263071 49.36631676047274 42.83455282447911
39.00007880996539 49.36631745703131 42.83455292242974
39.0000893511331 49.36629373989979 42.834549539058486
39.00007634875873 49.366323730292564 42.83455396790784
39.00006045091524 49.36636627209263 42.83456142279503
39.00005606473891 49.36637544350282 42.83456258843451
39.00003499809609 49.36643008813466 42.83457186671672
39.00003396676101 49.366431716896095 42.83457195750173
39.000013519940296 49.3664838613606 42.83458065284413
39.00001356580995 49.36648358693518 42.83458057865285
39.00001469400915 49.36648378042635 42.83458116537952
39.000009589781016 49.36649368618468 42.8345822554188
38.99999448665091 49.366534092922016 42.834589334710216
38.99999588279813 49.36652849318486 42.83458803271334
38.99997926090936 49.366571813218 42.8345954244826
38.9999811835053 49.366565676475076 42.834594178396
38.99996885699164 49.36659734696208 42.834599502003854
38.99996993941798 49.36659403132688 42.8345988488589
38.99996692761574 49.36660464022395 42.83460114665181
38.999963812974805 49.36660949230874 42.834601397626116
38.999959733053494 49.3666217927541 42.83460379107264
38.99996262952223 49.36661246377301 42.834601884711795
39.06685732648298 49.57623345179666 42.829197814768264
39.06591895302611 49.573708117039956 42.829293694666305
39.242578131789884 49.95322444701335 42.80152793643603
39.24257507667633 49.95322892913099 42.80153089020457
39.27025998043606 49.97609272478451 42.81922362495369
39.270251028465474 49.97609195403132 42.819222365029546
39.270474962595 49.976114831784145 42.81925282856377
39.27027564615172 49.976098909188885 42.81922441357559
39.27054593077327 49.976145091191476 42.81925574421307
39.27037112323343 49.97612523169059 42.81923254969538
39.270622119573055 49.976177360337175 42.81925893767349
39.27047716640397 49.97615874234154 42.819240334141874
39.27070531208983 49.97621153029001 42.81926273676781
39.270575614394545 49.97619267353819 42.81924673493738
39.27079150427661 49.976246310208865 42.819266855041185
39.27066473475358 49.97622577663009 42.81925183026126
39.270882195061326 49.97628128443259 42.81927166298891
39.270749407155776 49.976257908549414 42.81925647183771
39.27096818131456 49.97631471856317 42.81927614122926
39.270817344293874 49.97628633554457 42.81925942112179
39.271054152692415 49.97634658379038 42.81928107648841
39.27088108573361 49.976312345440675 42.81926238199398
39.271133327036225 49.97637586421705 42.819285640736815
39.27092732138293 49.97633347080949 42.819263868170815
39.334369809421574 50.03750776083256 42.839174544156
39.3327482264605 50.03648716739594 42.838783386685144
39.33394709731243 50.03724050917766 42.83907690940788
39.333023634885045 50.03666017721398 42.838850996344924
39.3337131801834 50.03709330729419 42.83902040815004
39.33517458022897 50.03801170755959 42.83937787789637
39.33461950486672 50.037662528718315 42.83924335356825
39.33540569048517 50.03815621374391 42.839437042805955
38.73251957924843 48.80056961544281 42.89277474715912
38.7325067326094 48.800544826872944 42.89278185037196
38.782180351761184 48.92751214345043 42.87191402371859
38.88176542984435 49.10586655425492 42.83330232688526
38.80993322099644 48.95964887445119 42.880560741949495
38.91266133065819 49.17635322074049 42.84966434320129
38.912269825420225 49.17558997067856 42.8497734444598
38.997481247836916 49.331478891421696 42.82895503292491
38.991317829455795 49.34381030443845 42.83034947145724
39.00009498132834 49.366274738990256 42.83454553228297
39.00008797442221 49.36629080411136 42.83454788543719
39.000072051987445 49.36633238262866 42.834554994431926
39.000069070005715 49.36633882891056 42.83455586019265
39.00005066374517 49.36638616829288 42.834563826283585
39.000050061116525 49.36638720637711 42.83456390932844
39.00005444491899 49.366378761637975 42.834562994984026
39.000038183397656 49.366417563521495 42.83456898344963
39.00003262518148 49.366433559629925 42.83457197973978
39.00003212121366 49.36643306355586 42.83457157537123
39.000014169914415 49.36647986819915 42.83457956524059
39.00001515781815 49.36647634897222 42.83457879785732
38.99999927840229 49.366517177429934 42.83458566615024
38.99999998458929 49.36651503157414 42.83458524604038
38.999996383053194 49.36652665901085 42.83458762602781
38.9999929439383 49.36653301500475 42.834588249924906
38.999983259225694 49.36655931840676 42.834592925950524
38.99998743655176 49.366547075218264 42.83459059724433
38.9999736426237 49.36658312023146 42.83459676448967
38.99997711091038 49.36657331117366 42.8345949547038
38.99996768424324 49.36659768760451 42.834599080278664
38.9999694657898 49.366592707912986 42.834598171108816
38.999962919120826 49.36661161205951 42.83460172225061
39.064051160702775 49.568681210246275 42.82948438213662
39.06546251231964 49.572479646233596 42.82934028290481
39.064404397278835 49.56963149143253 42.82944812875458
39.15472763297062 49.782237750500045 42.82191877689604
39.153675175327976 49.77963348613757 42.82203089063823
39.27012310490293 49.97608073625026 42.81920442039268
39.270083493648116 49.97607785927397 42.81919868915162
39.27018108477851 49.976104264370875 42.819207151926044
39.2701635955454 49.97610255642087 42.81920474964872
39.27033425070569 49.97612112131854 42.81922763419628
39.27022782579076 49.97612129147332 42.81920992223873
39.2704059030152 49.97614959925234 42.81923118512632
39.27026580462606 49.976132125861696 42.81921305206444
39.270480825519805 49.976179007217624 42.819235006393214
39.27035693296148 49.97616138319575 42.81921960694306
39.27056014157288 49.97620908296126 42.819239361233585
39.27043597267711 49.97618939274122 42.819224521054
39.27063991459581 49.976238973639 42.81924384611258
39.27050914916059 49.976216420024116 42.81922874978843
39.27071649453719 49.976267888771595 42.819248086782046
39.270573554102384 49.97624134012267 42.819232139945385
39.27079803894843 49.97629638337793 42.81925327450797
39.270632473756876 49.97626420372062 42.81923522206302
39.27068045973087 49.97628408860937 42.819237362022804
39.27066542126733 49.976278999162176 42.8192363568167
39.270675037510394 49.97628294224349 42.81923679789719
39.27087604156645 49.97632316598899 42.81925837583816
39.27075785903486 49.97630767504617 42.81924329929708
39.270733827618514 49.97630243850286 42.81924084471393
39.33265677660644 50.03642961496843 42.83876131148479
39.33255472425406 50.03636433832237 42.83874045850978
39.33220040681408 50.03614133972691 42.838654982839444
39.3336603423688 50.037059128663955 42.83901098325891
39.3330631245045 50.03668337516174 42.83886647661526
39.33469029506368 50.03770627273108 42.839263341967175
39.33384178926913 50.03717253210885 42.83905761312056
39.3356318166438 50.03829775867689 42.839494373900386
39.33448351678534 50.037575606133316 42.839215348151114
39.33512493548321 50.037978532374495 42.839372841200195
39.334775039743846 50.037758691474124 42.839287084628765
39.33500008036589 50.037900016094824 42.839342489439844
38.73201217604673 48.7996413404946 42.89308536432914
38.73196157581091 48.7995320255 42.89310643150174
38.732118003594806 48.79979990675365 42.89299984282057
38.73233363940297 48.80020608700525 42.89287475068244
38.73221029891046 48.799954817663156 42.89293509290002
38.78274978611144 48.92869810806481 42.871515487512
38.78246336466743 48.92811533529128 42.87170386070615
38.80911002398572 48.95818264449032 42.88087035864946
38.80939316462344 48.95866655918016 42.88079035926237
38.91117588620329 49.17345633958187 42.850078062906476
38.91010471346732 49.17136708964057 42.8503763363405
38.991324466173474 49.343898932734824 42.83036491463451
38.91559334185651 49.21169115416329 42.855156796470965
39.000087251195374 49.36629245470003 42.83454812568366
39.00006442523347 49.36634851207744 42.834557084495515
39.00006401106212 49.36634931336644 42.83455717207885
39.000067406938584 49.36634235926036 42.83455632053395
39.00005522135061 49.36637169676109 42.834560898741074
39.00004891841059 49.36638888737207 42.83456396697022
39.00004851468033 49.366388788553415 42.83456374673515
39.00003237522436 49.36643053744383 42.83457081496824
39.00003316260494 49.36642786305523 42.834570248676506
39.00003214491361 49.36643275273293 42.83457147832942
39.00001841201541 49.36646571158893 42.83457660179073
39.00001886658928 49.36646437515574 42.83457634694542
39.0000161040699 49.366473083215425 42.83457809932931
39.000014261666905 49.36647617009172 42.83457832306074
39.00000290988643 49.36650623248381 42.83458353699696
39.00000600826369 49.36649731850598 42.834581867752135
38.99999285236051 49.366531468571175 42.8345876706453
38.99999477461883 49.366526081098854 42.83458668464075
38.99998824888712 49.36654473353691 42.834590158000246
38.99998516726244 49.36655070780698 42.83459081393683
38.99998539901108 49.36655007187844 42.834590699783064
38.999979723552315 49.36656596106586 42.8345936049484
38.99998458853534 49.366552153345964 42.83459104950572
38.99997368261113 49.36658091513569 42.834596017027074
38.99997819086677 49.366568575481864 42.83459380720579
38.999970058068335 49.366589772359546 42.83459742426671
38.999972659067936 49.36658266494216 42.83459615344166
39.06436850144844 49.569534861574155 42.829451783530416
39.06591731907103 49.57369960540795 42.82929193294501
39.065738831757 49.57321916832742 42.82931012563557
39.15326157265872 49.778609905487514 42.822074955000176
39.15403069993302 49.78047384970782 42.82199446979674
39.24255604307432 49.95334103615755 42.80158511034017
39.154727099955906 49.78218437509576 42.82192075320722
39.270070419157165 49.97609277489401 42.819192150964035
39.27001322601292 49.97608770386376 42.81918414443466
39.27011792079882 49.97611330260071 42.81919402228149
39.27006440256076 49.976107140930694 42.8191869450518
39.27025304484373 49.976130495302385 42.819211412014326
39.27017287177809 49.97613535520529 42.81919668328062
39.27011654006044 49.9761276188413 42.81918960031338
39.270319991978276 49.976156136048246 42.81921501301264
39.270231915156145 49.97615813436467 42.81919981066092
39.270178138992264 49.97614986531994 42.81919330781682
39.2703856483148 49.97618164774343 42.81921843758729
39.27029741752478 49.976181790752506 42.819203753050445
39.27024032288341 49.97617219793576 42.8191970871721
39.270457037068056 49.97620786494565 42.81922260688238
39.270370108539254 49.976206033963294 42.81920871659328
39.270308628040006 49.97619497282504 42.81920175287427
39.270532095991626 49.9762340854181 42.81922738431585
39.27044679462098 49.97623019201063 42.81921436809365
39.27038187758361 49.976217740843666 42.81920724115194
39.27060873230408 49.97625980176676 42.819232571174105
39.27052596540615 49.97625375248607 42.819220606963725
39.27045711148557 49.97623976322407 42.819213277127226
39.27060783089852 49.976276494581036 42.81922753272402
39.270537141703905 49.97626136150768 42.81922023329818
39.2706864852599 49.9762977312219 42.8192343664747
39.27060851253995 49.97628035447465 42.81922651539435
39.33250360434024 50.0363313506394 42.83873105344976
39.27067431425623 49.97629718732544 42.81923250588457
39.333460679764606 50.03693278921958 42.83896524996017
39.33257095279083 50.036373060922735 42.83874973542642
39.33330635501395 50.03683519480306 42.838929697069446
39.33285921017875 50.03655418136393 42.838820359181696
39.33320858077843 50.0367736890352 42.83890599884558
39.33433091016843 50.03747962260246 42.83917830573178
39.334052528672494 50.03730411736174 42.83911222340256
39.333726439461095 50.03709902738402 42.83903304524441
39.33474235967932 50.03773758293312 42.83928114438834
39.33418352032096 50.03738615550549 42.839145279193055
38.682254784641295 48.7568482691058 42.91068340343824
38.68308969620216 48.758001218810584 42.910587136919624
38.68283879126653 48.75766738642283 42.91060570291914
38.683695723368395 48.75881251950944 42.91053821816598
38.68329480890895 48.758312525420365 42.910540494329254
38.73205085256775 48.799615999681606 42.89300481791866
38.68355373839067 48.7586809423256 42.91050174519647
38.73217758567999 48.79988618665311 42.892949921050004
38.73219160407127 48.79982259682769 42.8928885305329
38.73216871271971 48.79977220298765 42.89289750486509
38.732316619002276 48.800085684402234 42.8928323443361
38.73223734777306 48.7998859988283 42.89284852352435
38.783411796094555 48.930070963250685 42.87105735790677
38.78288976836535 48.929008231096745 42.87140119260143
38.909980273041015 49.17112431517738 42.85041097263349
38.913876637820394 49.2080003089348 42.85556128896171
38.91358620821275 49.20737588859613 42.85562971664433
38.91500153059853 49.21041879635234 42.855296245844556
38.91554414450228 49.21158638798559 42.85516885068676
39.000062770020605 49.36635162647822 42.83455740398574
38.916129584031694 49.2128453888573 42.85503105976294
39.000048504323345 49.36638755282689 42.83456331277194
39.00004901064027 49.366385779992484 42.83456293018237
39.00004850053727 49.366388630989235 42.83456368549706
39.00003562334607 49.36642002946623 42.83456866104925
39.000036248296254 49.366418229596974 42.83456832369919
39.00003393496781 49.36642532664271 42.8345697233913
39.000028255189406 49.36643863998174 42.83457173192091
39.000021377706375 49.36645699174173 42.83457493887102
39.000024200443235 49.36644900934759 42.83457346625558
39.000010905618126 49.36648341598733 42.83457929429051
39.000013007117914 49.36647765293408 42.83457826037746
39.000007113127836 49.3664941788105 42.83458128604711
39.000002538059924 49.366504539832746 42.834582777881536
39.000003003024105 49.36650327920082 42.834582554148234
38.99999785929433 49.36651747360395 42.83458511553441
39.000001127492524 49.36650810435553 42.83458336636513
38.99999075958904 49.36653532879525 42.83458804768486
38.999994489743365 49.366525201506285 42.83458624795771
38.99998549441887 49.36654854624996 42.83459021383428
38.99998743773385 49.36654331960781 42.834589293385804
38.99998015215195 49.36656320926684 42.83459284655579
38.9999824829251 49.3665560855969 42.83459144564962
38.99997605541439 49.36657337482337 42.83459449076661
38.999981968239894 49.36655741371173 42.834591669925196
39.06502762615244 49.57130474178957 42.829382587051256
39.06448308671977 49.569838784991376 42.82943799120503
39.15350919197493 49.77917161394613 42.82205045834123
39.06654727338135 49.57539195933263 42.829226174787514
39.15464785694403 49.781988407480526 42.82192919034193
39.23579878754787 49.963181173659734 42.799835181790506
39.1551655428633 49.78322588061201 42.82187564826548
39.23579166058572 49.9632013831959 42.79986249651439
39.23581261728776 49.96321322756305 42.799858427546226
39.23581601319344 49.963204715337596 42.79984660785536
39.27003943378142 49.97610443967466 42.81918359239117
39.23582905730852 49.96324428409427 42.799878521076046
39.235831170672824 49.96323553752556 42.79986747520241
39.270080294446046 49.976122738444694 42.819185014374376
39.27006485612055 49.97613268414662 42.81917953943698
39.27005254397691 49.97613083043679 42.81917803903082
39.27013564680543 49.97614336204295 42.8191881605016
39.27011840435269 49.976151695690746 42.81918285827901
39.27010536480691 49.97614932254143 42.819181389283415
39.27019477171951 49.97616450393356 42.81919178092329
39.27018071107948 49.97617171178361 42.81918733646411
39.27016561697719 49.976168651969246 42.81918572760212
39.27026113210759 49.97618636634855 42.819196391112484
39.270249904201265 49.97619227482934 42.81919279731824
39.27023183446469 49.97618841493299 42.81919092894574
39.27033485327774 49.97620871975804 42.81920207908792
39.27032207763527 49.976212641990635 42.819198810149665
39.270301968898984 49.976208080922454 42.81919680874118
39.27041310955924 49.976230882935894 42.81920857541731
39.270398683731464 49.97623282173139 42.81920561350946
39.2703743618643 49.97622728364314 42.819203199037496
39.270493940851146 49.97625242882026 42.81921567987953
39.2704756593334 49.97625223321835 42.81921270319173
39.270447293331365 49.97624568928551 42.819209912144515
39.27057288330008 49.97627278397846 42.8192228196022
39.27054972332934 49.9762704352635 42.81921966387947
39.27051356341581 49.97626206949905 42.819216112929105
39.27064949519581 49.976291791085416 42.81922996735579
39.2706225949033 49.976287594528216 42.819226732075556
39.27057764471537 49.9762771840053 42.81922232115608
39.3324939798517 50.03632464538858 42.83873106101598
39.33244383596366 50.036292733483094 42.8387202320616
39.33190917976609 50.03595644951939 42.838590477025555
39.33316437675197 50.036745572993496 42.8388963962119
39.33248531257855 50.03631850201562 42.83873144537491
39.33305481873447 50.03667641703808 42.83887069580688
39.33265010199492 50.03642205234094 42.83877178906175
39.332942952781025 50.036606066446325 42.838843511245386
39.33382995250671 50.037163837608745 42.839059233225115
39.33365113768125 50.03705116122731 42.83901658046085
39.333407534926195 50.0368979713472 42.8389573546857
38.681250479881534 48.75552482758931 42.91074723060325
38.68118863728846 48.755445677501086 42.91074924018698
38.68165175718469 48.756042311526656 42.91073099246171
38.6813684853823 48.755694788042184 42.91072788569146
38.682073535002445 48.756656722180495 42.91065616766902
38.68184849047348 48.75636197065481 42.91066899097188
38.68254403355001 48.75727676334893 42.91062623888947
38.68237543317599 48.75709973583223 42.91059996037158
38.682890611679014 48.75779206760923 42.91055620198111
38.68246755374083 48.75722909814451 42.91058757644595
38.68340446163856 48.75848017867229 42.910514551874435
38.683179313818094 48.758224323797876 42.910495399376956
38.683003038991416 48.75798759354775 42.9105102409227
38.73208576097584 48.799587472153185 42.89292877194136
38.68332883968471 48.7584508413712 42.91046174379925
38.732205048917805 48.79976029776648 42.89282887593499
38.732133961959846 48.79959944831166 42.892854167003534
38.78266975625455 48.9285605117303 42.87154594919256
38.811485840066304 48.994901020956895 42.887979695662025
38.811127225845944 48.994141165673085 42.888085772351026
38.812685087416774 48.99744424171969 42.88762784880896
38.813151704032144 48.99845583429824 42.88752017511669
38.914975377636125 49.210363647306764 42.85530290366271
38.91422414233922 49.208748338507974 42.85547982688682
38.916023811417276 49.212617961364856 42.85505597261285
39.00005041739851 49.36638125183181 42.8345620052529
38.916334569805 49.213286831974784 42.85498309693568
39.000049440214895 49.36638438735787 42.834562644305244
39.0000403180807 49.366406754370544 42.834566212200734
39.00004049195554 49.36640628307373 42.8345661285768
39.00003801364569 49.36641321057547 42.834567393410616
39.0000388570994 49.36641044943192 42.8345668228081
39.000027888063386 49.36643878266517 42.83457161242046
39.00003027577175 49.36643235015043 42.834570477785135
39.00002470722474 49.36644760702788 42.83457321256751
39.00001937861182 49.36646031643826 42.83457517304772
39.000020607077815 49.3664570460777 42.834574602877225
39.000015370324476 49.36647120805547 42.83457711016509
39.000014712644244 49.36647214579729 42.83457713300826
39.00000757550204 49.36649091841626 42.83458036656145
39.00001178410055 49.366479657535464 42.83457839343208
39.00000127119279 49.36650686770027 42.83458300302099
39.00000394276063 49.36649976600043 42.834581766677644
38.999996353758576 49.36652016585023 42.834585357326084
38.99999644942112 49.36651907629382 42.83458502295165
38.999997254739256 49.36651694034971 42.83458465193311
38.99999131593319 49.36653287381732 42.83458745120941
38.9999949575406 49.36652285791257 42.834585649393475
38.9999874069843 49.36654271752646 42.83458907011041
38.99999177081496 49.36653108150186 42.83458703816833
38.99998219677412 49.366556800038836 42.83459156202109
38.99998451715117 49.36654997732903 42.83459026085744
38.99998748680534 49.36654209496103 42.83458889063697
39.06431505478634 49.56938640055547 42.8294550758955
39.06545899052255 49.57246257823087 42.82933708471905
39.06526806135555 49.57194859548886 42.82935651944593
39.06619322860552 49.574438988717674 42.829262269608236
39.15366574516833 49.77951017202356 42.82203558184
39.153570260346754 49.77927330720056 42.822045775232475
39.15459004888133 49.78180016329714 42.82193701510562
39.1547972115855 49.78228446283358 42.8219159910978
39.23582277353274 49.96319281924589 42.79982848027019
39.23583288211924 49.963176557498294 42.7998030073378
39.235837335341294 49.9632203121968 42.799846261620594
39.23584575641179 49.963203517303924 42.79982156633342
39.235854215260105 49.96324645780931 42.799860749722896
39.23586062360509 49.96322899272255 42.799836945244586
39.27009829022297 49.97614732631325 42.81918079983464
39.235877175120216 49.963252567414266 42.79984894514572
39.27015358674048 49.97616506211096 42.819184782449696
39.27014774251751 49.97616267525841 42.819184511592695
39.270213001975605 49.97618311041308 42.819189357077406
39.27020031745491 49.97617890566079 42.81918848342607
39.27027695012948 49.976201333711856 42.81919463273014
39.270256483875514 49.9761951667437 42.81919304231131
39.27034419128452 49.976219450188594 42.819200486169706
39.27030943533833 49.976210279727184 42.81919740389275
39.270362097948144 49.97622498041248 42.81920183828707
39.270333957283896 49.97621725608768 42.81919943034008
39.270359087610224 49.97622414153663 42.81920158437882
39.27041258654839 49.976237115656815 42.819206663231164
39.27042411035572 49.97624066021277 42.819207537605074
39.270414732894764 49.97623822981849 42.819206693129175
39.27047933406354 49.97625392286945 42.81921281819347
39.27048531067745 49.976255709001435 42.819213286955986
39.27046720777387 49.97625106852546 42.81921164168888
39.27054770472003 49.97627017052429 42.81921940640864
39.2705462834271 49.976270110014845 42.81921918825444
39.27051674295253 49.976262700954265 42.81921645566499
39.27061230981276 49.97628528444551 42.81922570173491
39.33178850081498 50.035880289402755 42.83856211149957
39.27056837940817 49.9762740492007 42.81922170159496
39.33242443201734 50.03628021465341 42.838716652991394
39.33240300860676 50.036266523911195 42.838712230460736
39.331874775031025 50.03593431953229 42.838583890537464
39.33240365576245 50.036266734584814 42.83871309358986
39.3319597408948 50.0359877185057 42.838604662550374
39.332318155335045 50.0362129651714 42.838692314866165
39.33298353518263 50.036631365120705 42.8388541746696
39.33292641600447 50.03659527718042 42.83884089338669
39.332749703791436 50.0364841555985 42.838797915586014
38.68091990511094 48.755105213632106 42.91075512397978
38.58660086039213 48.64720213132478 42.919710461218166
38.68126912392135 48.755604286081066 42.910701070400236
38.68165858237011 48.756114361594086 42.910678892318685
38.68132060134334 48.75567633197511 42.91069434881665
38.68201201446918 48.75662672941181 42.910618226383214
38.6817767041226 48.756317283193084 42.91063265809229
38.68242366894996 48.75717089027566 42.910590675088756
38.682320211257945 48.757075536100295 42.910563673019695
38.68220393177101 48.756920989612524 42.91057214211362
38.68272273242734 48.75761219396269 42.910532988300055
38.6825132370512 48.757358512734086 42.910527960629196
38.68297359149909 48.75798476548553 42.91048263392199
38.68262067350503 48.75751083835133 42.91051232505638
38.683402481755145 48.75856309898409 42.91044459733518
38.68318398749753 48.75829938162279 42.910438648422826
38.68298672193841 48.75803277492798 42.910456639333525
38.782742622539914 48.92872797960632 42.87148115085506
38.8117529009047 48.995496491487515 42.88793994441275
38.811672206782546 48.995325441578906 42.88796372073163
38.812712736426576 48.997532425161864 42.887658907175876
38.91410439340825 49.20849085161109 42.855508027859265
38.81212095441745 48.99628154933751 42.88783797144823
38.91500379994733 49.21042521658144 42.855296419208116
38.914576565877596 49.20950649976475 42.85539700179559
38.91581725577517 49.21217443392712 42.85510489837383
38.91646309894873 49.21356350859169 42.85495297077708
38.91633945232576 49.2132976113312 42.85498207612604
39.000042637324185 49.36640039090145 42.83456507001911
39.000042706917284 49.366399807244726 42.83456489934964
39.00003446819659 49.36642105455198 42.834568485149795
39.00003646529821 49.36641576561328 42.834567567832565
39.000031472781046 49.3664291331913 42.83456991167663
39.00002737427522 49.36643903412164 42.83457146316291
39.00002816077932 49.366436967623656 42.83457110760082
39.000023658945395 49.36644891581629 42.83457318441649
39.000024653511545 49.36644594616119 42.8345726109791
39.00001694154159 49.36646593789666 42.834576003255464
39.00002039652708 49.36645685732454 42.83457444036301
39.00001248945634 49.36647778441717 42.83457806766695
39.00001134989151 49.36648012780719 42.834578356818994
39.00001336281458 49.36647485464833 42.83457745226802
39.00000668762049 49.36649249720567 42.83458050604886
39.00000683796718 49.3664915964442 42.83458026242833
39.00000718113293 49.366490698326885 42.834580108517194
39.000001834390616 49.366504801035035 42.83458254457078
39.000005904167494 49.3664939691178 42.83458065650371
38.999997853081894 49.36651489242854 42.83458421617689
39.00000192365577 49.366504177903494 42.83458236924963
38.999992937758236 49.366527976237435 42.834586497008694
38.99999465936357 49.366522984463835 42.834585556040224
38.99999765889653 49.36651509490231 42.83458419708013
38.99999001790273 49.36653535657909 42.834587715796545
39.06435313185021 49.569485495251456 42.829449601976656
39.0642012968518 49.569076678369655 42.82946502170353
39.06485366157038 49.57083302924356 42.8293987018027
39.065753975557044 49.57325410607853 42.829305851484285
39.06566055904712 49.573002637164365 42.82931536460562
39.06636711231938 49.57490450136561 42.82924335883417
39.153359417010705 49.77872183727705 42.82206933233097
39.15452629428784 49.781601542212144 42.82194531338448
39.153814741919085 49.77983912182367 42.82202117511496
39.23583340515479 49.96317552230968 42.799801482008306
39.235853577458066 49.96318237743101 42.799792701818646
39.23585983376669 49.96317018457883 42.79977465937463
39.235847155629976 49.96320011054857 42.79981680382463
39.235867379108235 49.963203693800864 42.79980448229435
39.23587191644374 49.96319210738322 42.799788461821834
39.235862160378865 49.96322348169231 42.799829821560664
39.235882252076195 49.96322385555459 42.79981417168462
39.235885525570474 49.96321275154138 42.799799676914844
39.23587848653173 49.963245503983224 42.799840340627625
39.23589789335947 49.963242620292284 42.79982175270173
39.23590005248768 49.963230875367984 42.799807462432625
39.23589559747515 49.963265897963154 42.79984849070594
39.23591399297595 49.963259972231114 42.79982745608325
39.23591536590257 49.963246946043256 42.799812423075934
39.27019383050302 49.97617730818176 42.81918787471749
39.23593034196405 49.96327578929417 42.79983131814819
39.2359307918939 49.963259939687205 42.799814001779424
39.270250526445615 49.97619362326912 42.81919250566504
39.270272104060936 49.97620105712254 42.81919390948886
39.23594652995857 49.96327129012661 42.79981357318104
39.270306252989585 49.97620947824615 42.81919711048596
39.270326669810885 49.97621572402704 42.819198669618984
39.235961986361474 49.96328002111654 42.79981056712343
39.27035062803187 49.97622170365109 42.819200894427375
39.23596606647275 49.96328171596482 42.79980912106662
39.270347494020456 49.976220659358525 42.819200680155205
39.27038204756108 49.9762300800284 42.81920365556224
39.270403972398704 49.976234934096006 42.819205872557
39.27039593198718 49.97623242470878 42.8192052731107
39.270440411011975 49.976244322959424 42.81920917012315
39.270457342064 49.9762477500241 42.8192109762854
39.270441394922145 49.97624311554542 42.81920968702893
39.27049810467802 49.97625797841033 42.81921474558389
39.270512769945746 49.976260340473964 42.81921648762861
39.270487482832635 49.97625339382648 42.81921432549309
39.27055706431337 49.97627122316037 42.81922065142574
39.270568490549515 49.97627245405184 42.81922218721389
39.270535773166614 49.9762635802669 42.81921935636578
39.331854578053346 50.035921618164146 42.838578981866746
39.27058550188628 49.97627420432595 42.81922449778472
39.270543116926106 49.97626511099905 42.81922012681717
39.27057962488939 49.97627255264093 42.81922400617878
39.33191234782978 50.03595777750968 42.83859363565738
39.33197399797808 50.03599639816932 42.83860915685792
39.33183923656818 50.035911646196894 42.83857641860165
39.33242118269031 50.0362775828791 42.83871797878141
38.58620128909877 48.646845608809315 42.91969312388105
38.68130813357239 48.7556603300056 42.91069479076678
38.681046188570534 48.75532481838984 42.91070351387826
38.681644603069074 48.75614421056307 42.91064022928109
38.6814514771172 48.755892124769034 42.91065052879465
38.68193679636222 48.75656646179964 42.91059117213156
38.68182422847431 48.75641756319238 42.910598785197394
38.682191396755606 48.7569359683674 42.91054713098487
38.68216190035383 48.75689656588502 42.91054944234773
38.68257340619299 48.757447388543525 42.91051628151554
38.682264352291284 48.757042252000105 42.910534181784854
38.682784710594404 48.757759833737424 42.91047499793684
38.682473402760834 48.75734028100074 42.91050242001262
38.810948352462034 48.993792928868274 42.888179474079465
38.68275580931344 48.75774421282648 42.91045842809565
38.81274382108785 48.99762161529959 42.88768063370774
38.812507595874344 48.997120804450965 42.88775013517167
38.91430566924347 49.20892396120638 42.85546077502025
38.914794545454384 49.209975299037865 42.8553457108812
38.91568149871741 49.211882697373525 42.85513694801129
38.91505492511715 49.21053524513479 42.85528442423056
39.00004056446916 49.36640496312401 42.83456570352209
38.91648035137303 49.21360065452164 42.85494893049932
39.00003767220044 49.36641258433947 42.83456701867391
39.000034426881534 49.36642051584349 42.834568279019834
39.000035426259494 49.366417931416024 42.83456784159593
39.000031083837165 49.36642928150217 42.834569784083826
39.00003035983033 49.36643084231874 42.834569992791366
39.000025177626924 49.36644425494701 42.83457226493394
39.000028728207596 49.36643500622915 42.83457068766143
39.00002144087324 49.36645410885899 42.834573966672565
39.00001996444164 49.36645748094031 42.83457445798744
39.000022566337826 49.36645072006803 42.834573307937696
39.0000160243886 49.36646785197967 42.83457624571825
39.0000156305057 49.366468501915065 42.83457629007589
39.00001701370029 49.366464909708725 42.83457567937234
39.000011416648974 49.36647955260143 42.83457818777894
39.00001202794316 49.36647768039225 42.83457781901525
39.00001211486207 49.36647745794839 42.83457778178099
39.00000751315432 49.366489470832924 42.83457983507474
39.00000303479597 49.36650126177958 42.83458186808579
39.0000119256996 49.366477944174335 42.83457786355034
39.000004576004976 49.36649696237044 42.83458108451965
39.000007872063044 49.366488378261415 42.83457962087502
38.99999984432017 49.36650936521614 42.83458321340217
39.00000237258091 49.36650260205759 42.83458202865005
39.00000439212677 49.36649735235973 42.834581135297306
38.99999766922404 49.36651491634673 42.83458413981971
39.0647952539241 49.57067310425147 42.82940338560025
39.064748726164616 49.57054783042441 42.82940811194479
39.06523159175597 49.571847832266855 42.82935901909636
39.065268227001376 49.57194551968507 42.82935485171929
39.0664641124541 49.575163578555795 42.829232525181766
39.06601549378834 49.573955969518224 42.82927822569876
39.15377033080882 49.7797289422796 42.82202591658464
39.15445952968113 49.78139880473292 42.8219538094515
39.15403696565896 49.78035062451285 42.821998917849186
39.23586179155736 49.96316716693014 42.799769866953056
39.23588205452188 49.963171747686005 42.7997585810748
39.235886187855584 49.96316528477744 42.79974836479791
39.235874559564586 49.96318662378373 42.79978048370145
39.2358944499382 49.963188681509166 42.79976679615639
39.235897364944606 49.963183230265514 42.79975863546199
39.23588835183733 49.963205074397095 42.799789205693514
39.2359075618421 49.96320458538413 42.799773336979655
39.235909596204074 49.96319988786718 42.79976668615713
39.235902260296356 49.96322231442889 42.7997965397127
39.23592121580809 49.963219417849764 42.79977829852313
39.2359226911295 49.96321517598007 42.79977258176057
39.23591700251535 49.9632383447408 42.79980191346127
39.23593523493332 49.96323304762423 42.79978168164824
39.23593638836354 49.96322903908974 42.7997764716595
39.23593172058884 49.963253092932774 42.79980593480185
39.235949471018245 49.96324545755706 42.79978358639262
39.23595042850829 49.96324123783516 42.79977830698468
39.235946926224145 49.963266457596276 42.79980808647352
39.235963578844775 49.963256715317655 42.799784360924136
39.23596445994216 49.96325129975597 42.79977786315297
39.235962030803094 49.96327855201581 42.799808959881624
39.23597720816418 49.96326690434777 42.79978437430357
39.23597794814928 49.96325851876889 42.79977481173762
39.23599071826784 49.96327600854228 42.79978332228775
39.23599097356416 49.96326371529078 42.799769966220964
39.27043906258062 49.976240753868254 42.8192099916255
39.23600319767227 49.96326661586086 42.79976330445238
39.236014799652885 49.963270727456546 42.7997584352929
39.236008538472504 49.9632670948838 42.799759550549034
39.23601450963615 49.963267279557996 42.79975497817863
39.27048472247782 49.97625198055363 42.81921428129634
39.27051823027729 49.97625660117969 42.81921848895104
39.23602546662566 49.96326755966191 42.79974652507597
39.270535014122025 49.97626328948061 42.81921931555893
39.270564046246406 49.97626679499325 42.819223107022346
39.23603631797189 49.96326814682543 42.79973848487691
39.270612914619036 49.976276919060815 42.81922825209273
39.270598605628265 49.976271113352 42.81922757772168
39.270624317686405 49.976276088973236 42.81923038763842
38.58594773136981 48.646619405904445 42.91968231506314
38.68102392625508 48.7553001052336 42.91070114041848
38.58619097259711 48.646836605450346 42.919693723459176
38.58612375966174 48.64677654123177 42.91969032609478
38.68132260373729 48.75572545071245 42.91065613709841
38.68128452765945 48.75567589010124 42.91065805317224
38.681463624322475 48.75592675468013 42.91063449787061
38.681605027424894 48.75612829800708 42.91061305122854
38.68191481934305 48.75656638733411 42.910568900327505
38.682385484812336 48.75722115295042 42.91051068892318
38.6822298676029 48.75701121976293 42.91052456575596
38.682545827343354 48.757458193227784 42.910479403116035
38.68249511379378 48.757389330573304 42.9104842926807
38.81136694186459 48.99469985884303 42.88808216315188
38.81196525448582 48.995974607996715 42.88791447083723
38.91501333052298 49.210445792689235 42.85529421299454
38.813620582798734 48.99950227420912 42.88745167258328
38.9161661896594 49.21292501681893 42.85502286072015
38.91574588406809 49.21202109314319 42.855121763574815
39.000038984747306 49.366408909347825 42.83456634668479
39.00004134160722 49.366402965955515 42.83456536772664
39.00003377630218 49.36642209798762 42.83456852894742
39.00003563781334 49.36641737532826 42.83456774587307
39.0000291544573 49.36643391181234 42.83457050383056
39.00002903965887 49.36643409852101 42.83457051581504
39.00003036652434 49.36643071920365 42.8345699531134
39.00002446163282 49.366445842022216 42.83457248645143
39.00002490718135 49.3664445862758 42.83457225547427
39.000025560020745 49.36644292106857 42.834571977737845
39.00002033681493 49.36645633441 42.83457423124697
39.000023061574055 49.36644929541417 42.83457304117604
39.00001680091988 49.36646534106395 42.83457573120813
39.000021123941494 49.36645424578231 42.8345738682854
39.00001410796436 49.36647223912885 42.834576886975974
39.0000172118909 49.36646426346947 42.83457554618435
39.00000940024905 49.3664844177499 42.83457894901822
39.00001201521963 49.36647762394245 42.834577793550004
39.00001379591443 49.36647305243937 42.8345770257604
39.00000733128279 49.36648973781474 42.834579844053366
39.000010766451496 49.366480898493165 42.83457835582691
39.00001084399659 49.36648070132634 42.83457832305536
39.06443031909951 49.56969049922111 42.82944043970264
39.000010754686215 49.36648093360985 42.83457836260591
39.06548763450586 49.57253495804622 42.82933195177544
39.065237887542224 49.57186257394385 42.82935734385444
39.06593473634726 49.5737385730383 42.829286447497026
39.06648819705676 49.57522667075166 42.829229256200215
39.06634979410356 49.57485410819579 42.829243353283715
39.15382106010195 49.77981412511444 42.822022000287106
39.15410575019252 49.780489119024935 42.82199275980899
39.235891578967106 49.963159129133075 42.799737472501306
39.15439635479359 49.7812013323402 42.82196205651419
39.235904355041335 49.96317479233219 42.79974402410467
39.235910908270995 49.96316740296613 42.79973088355622
39.235918196247866 49.96318940375326 42.799748599586714
39.23592185187499 49.96318501687891 42.79974098599419
39.23593244091026 49.963202835122225 42.799751590278646
39.23593375089264 49.96320125785125 42.79974885635677
39.235939414411085 49.963208429345556 42.79975200470201
39.23594656128594 49.96321696773282 42.79975543048898
39.23595945094261 49.963229655624474 42.799758708179795
39.23597238711855 49.96324026514198 42.79975972512833
39.23598478978645 49.96324791710961 42.79975800407811
39.23599579005179 49.963254053292005 42.799755781623
39.235993250793626 49.96325150727144 42.79975508615947
39.235996474265725 49.96325271603902 42.79975380437098
39.23600461848543 49.96326298998386 42.79975829026213
39.236007555605255 49.96325563070373 42.79974807056004
39.236018060838084 49.963257003324784 42.79974114718097
39.23602825422394 49.96325788366852 42.799733946244125
39.27057828019281 49.97626362875678 42.819226396568666
39.236031179322325 49.96325806333276 42.79973180180324
39.27059439220356 49.97626441619169 42.81922883987707
39.27060421995683 49.97627126238548 42.819228465819776
39.2706327056345 49.976272274249126 42.819232896915096
38.586190336639234 48.64683604042254 42.91969370839825
38.68126515332333 48.75565071615118 42.91065899200879
38.68146181602055 48.755924413781244 42.910634578360536
38.68158443394101 48.75610102934813 42.91061446752608
38.681842701072206 48.75646912525597 42.91057530833592
38.681971589431015 48.75665230587341 42.910556190235695
38.682112845000105 48.75685197173033 42.910536132018606
38.68201535074146 48.7567114257366 42.9105522188505
38.682309237954854 48.7571363308825 42.91050270850552
38.81188127574835 48.995801068650884 42.88794514453574
38.81158795808683 48.99517855841981 42.888030568453
38.81330129208491 48.99882810421245 42.887549251381735
38.81319052493193 48.998592750035186 42.887581149605275
38.915437491324596 49.21135780482547 42.855194309844286
38.91540231639359 49.21128215779416 42.85520258755667
38.91641575396132 49.213461569532065 42.85496405772
38.916346381404686 49.2133123739588 42.85498038164009
39.000040520523946 49.36640524406901 42.83456578086395
39.0000410144236 49.3664039821612 42.83456557001196
39.000035807761236 49.36641712874429 42.834567738488346
39.00003625991728 49.366415983921 42.83456754907983
39.00003182645664 49.36642720630836 42.83456940529312
39.000031900569724 49.36642701917035 42.834569374424376
39.00003154423575 49.36642792453109 42.83456952478748
39.000021981825576 49.36645208879217 42.83457351416317
39.00002787920093 49.366437244065445 42.8345710739512
39.00002002619763 49.36645717589542 42.83457438047685
39.000024108418984 49.366446905120696 42.83457269303698
39.00001890297569 49.36646018142936 42.83457490713117
39.00002080042633 49.3664554037896 42.8345741215107
39.00001858026768 49.36646113481078 42.83457508965726
39.00001790677164 49.36646287636903 42.83457538439986
39.06510521215124 49.57150528368973 42.82937078932942
39.06491417319225 49.5709907769014 42.829390128125766
39.066011648850264 49.5739437189403 42.82927772643116
39.06592274914407 49.573704361888794 42.82928675756325
39.15330649180134 49.77850445694496 42.82207815683981
39.15434308341853 49.78106823255456 42.82196777855114
39.15388195095463 49.77991520355096 42.82201734256208
39.23591766424914 49.96316334318546 42.79972114325538
39.23592407639128 49.96315950436717 42.79971191402129
39.23593377821193 49.96317680620569 42.799722674555966
39.235933954550326 49.96317664584254 42.799722362124456
39.23593442152942 49.96317737261593 42.7997227666373
39.235944739423516 49.96319237861273 42.79973057879144
39.235949452531344 49.96321472009997 42.79975071620894
39.23595633086273 49.963207349551666 42.79973733609183
39.235966573316134 49.963224848984495 42.79974787615201
39.235968837578895 49.963222271271654 42.799743309583505
39.23598068918888 49.96323401608168 42.79974640752685
39.23598099934931 49.96323352146575 42.79974563058865
39.23599228261416 49.96324272857729 42.79974646754675
39.23599270857533 49.9632419874395 42.79974533435811
39.270535159516136 49.976241294073205 42.81922578152232
39.27055627491362 49.9762476404368 42.81922742713219
39.27060058428185 49.97625753707018 42.819231882205884
39.270625304265366 49.97626377459838 42.81923415790243
39.270641117784606 49.9762673615197 42.81923573178307
39.27063869861321 49.97626768814462 42.81923523464168
39.27068213235535 49.976276546058045 42.81923984860951
38.68211217757955 48.75685105973948 42.91053620105274
38.68230829869821 48.75713503439098 42.91050281635182
38.811587669873624 48.995178010549026 42.88803073697298
38.81313591297078 48.998476740960115 42.8875969143071
38.915370327734905 49.21121335816032 42.85521011315424
38.916265106216045 49.213137548274084 42.854999491733494
39.000044079741485 49.36639656204363 42.83456440439289
39.000040938259225 49.366404434933855 42.83456569219663
39.00003919406826 49.366408798863745 42.83456640470128
39.000037075026185 49.36641420558476 42.83456730677459
39.0000371013186 49.366414019915965 42.83456725439526
39.00003251610076 49.36642586607347 42.83456925737461
39.000033473269326 49.3664233011307 42.834568807281194
39.00003124459013 49.36642911347602 42.83456979974973
39.00002910794039 49.366434702875594 42.834570757163036
39.0000262656044 49.36644189396222 42.83457194591548
39.00002262178235 49.36645126176364 42.83457352161161
39.000023549975836 49.36644886631747 42.83457311704524
39.06438524361711 49.569567116403604 42.829444072000015
39.06493839039348 49.571055493346435 42.82938743971121
39.065766539325594 49.57328354321594 42.82930251725229
39.15372468080235 49.7795091320212 42.82203471951219
39.153654425510595 49.77933569178645 42.82204218861817
39.15417151008067 49.78060270326232 42.82198756653442
39.2359370156187 49.963159996956676 42.79970210477778
39.23594545563043 49.96317154097545 42.799707713189825
39.235955314982945 49.96318864097441 42.79971813194203
39.23595449962711 49.963182540374675 42.799712256450555
39.2359606215002 49.96319394462181 42.799719567125315
39.23596730439233 49.96320547034148 42.79972655960031
39.23597679535803 49.96322041591796 42.799734967688366
39.2359706987746 49.96320884518963 42.799727458698925
39.23596797554911 49.963212924394064 42.799733998295196
39.23598554302631 49.96323185684639 42.79974022004218
39.235992984797484 49.96324137065372 42.79974445382549
39.27053353178922 49.976240934221956 42.81922561677739
39.27055696212612 49.976247716068244 42.81922751903066
39.27060109991906 49.97625759147549 42.81923195184652
39.270629832132 49.97626450272472 42.819234696092934
39.27064158337023 49.97626740825159 42.819235795364534
39.27063914857769 49.97626773308234 42.81923529615615
39.27068255131014 49.97627658607456 42.81923990641893
39.00003710097832 49.36641414249911 42.834567296814285
39.000033500035975 49.36642323592635 42.834568796960085
39.00003127244038 49.366429045477304 42.83456978895707
39.000029136812586 49.3664346322298 42.83457074592158
39.00002629475833 49.366441822529374 42.8345719345304
39.00002369666535 49.3664484684262 42.83457304639808
39.06438544559395 49.56956765716599 42.829444050052835
39.06493838925952 49.57105548759442 42.82938743856124
39.06576623389495 49.57328271889356 42.82930254735736
39.153621288207894 49.779254206911254 42.82204569970958
39.1541709402951 49.780601185349205 42.821987631213645
39.235937090273 49.96316000566216 42.799702054455366
39.23594552648455 49.9631715453655 42.79970766128618
39.23595456630797 49.96318254070704 42.79971220353944
39.23596068687531 49.96319394075465 42.79971951076435
39.23596736809361 49.96320546210674 42.79972649990373
