ply
format ascii 1.0
element vertex 445
property float x
property float y
property float z
end_header
58.547228324176594 25.246851654834913 51.279455813804205
58.54755177575533 25.246769326654945 51.27943000068014
58.50953298486622 25.25668909932454 51.27143608744711
58.54750021177462 25.246918828545635 51.27946836310465
58.509544425476584 25.256863374530134 51.271653778511556
58.509546487003874 25.256894599286706 51.27170478003816
58.54778098332493 25.247041455663066 51.279494696838945
58.5043424372752 25.281089946699264 51.27497601310754
58.504444052503665 25.280664101950958 51.27512958585875
58.546944798801114 25.247463398140482 51.27961394043644
58.54760067163872 25.24714096013343 51.27952254923338
58.54714924359932 25.24740603878911 51.279596288206555
58.50393354436787 25.28311533143264 51.2743954236023
58.50404849499634 25.282625560582876 51.2745681865278
58.51988026844654 25.28479054043338 51.27391145044557
58.5307704957189 25.294058111200663 51.27539823547393
58.515289653501135 25.333595455735228 51.266886850933886
58.51579919100426 25.334212267695364 51.26687884663917
58.54327877972349 25.346240164454226 51.267683250845145
58.526329682190166 25.359390124289835 51.25623283235499
58.537445044529 25.36765371961506 51.258108364716755
58.53741357013875 25.367697422765623 51.258104243636154
58.53709523421823 25.367711720823102 51.25808591237781
58.53735942309443 25.36785787487212 51.25809249906984
58.5374031122951 25.36794969707546 51.25808989507493
58.53741664727822 25.367967404976895 51.25808967459659
58.537532739905245 25.368048762929092 51.25809163365315
58.546195922046394 25.2128579552907 51.269315958251454
58.55020513020176 25.246151472043326 51.2792326896964
58.55010560919679 25.246193449169212 51.27924481217721
58.54879441426971 25.246466508725753 51.27933421451735
58.55127364726805 25.24590118772872 51.27915286216499
58.54915119040518 25.24651377778782 51.27934041669022
58.55222346804635 25.245701184586956 51.27908754708308
58.55196072010135 25.24581726982743 51.279120872946294
58.55103782745043 25.245997534370765 51.279180803421255
58.68612277569016 25.26349934345646 51.286775225794784
58.6866417457893 25.263880393415725 51.28691487129841
58.547877879533715 25.24701576929529 51.27948670702729
58.55152033111742 25.24604405576013 51.279184820393475
58.71605250076466 25.283746802221227 51.29364349333809
58.68765276055938 25.264622099069086 51.28718673477467
58.7160528998627 25.28374665227021 51.29364336682781
58.64579482759041 25.280104663147334 51.29168887584346
58.716048315788676 25.283748941273405 51.29364565441499
58.716054178197055 25.283746576101642 51.29364355675336
58.716054446823534 25.283746432996615 51.29364340949188
58.71605431548163 25.283746516627104 51.293643501611385
58.54188757664386 25.327448278196226 51.267377980763264
58.59943129628972 25.308587319534922 51.28029167982571
58.71604629061224 25.283749996555112 51.29364672988352
58.716052105519815 25.283747653649094 51.29364465378609
58.716054517749626 25.28374661561957 51.29364369519206
58.54360658867488 25.34670425184114 51.267558023677694
58.59098447917317 25.375219878775845 51.255104668101716
58.71604679022229 25.283749763432994 51.293646504644556
58.71605172334555 25.28374779104572 51.29364476580761
58.716054568963735 25.28374656633548 51.293643634716915
58.53755626176097 25.367768548467616 51.2581082277585
58.56451239071231 25.379304982440146 51.25652018921407
58.58088512791407 25.383940439043215 51.25654441311285
58.63678193074894 25.34716012327521 51.268843870613196
58.71605263960074 25.28374722765966 51.293644152667966
58.71605439718987 25.283746481272495 51.29364346885578
58.564232717640714 25.379548234608894 51.25651785229596
58.56440603397911 25.37939772558923 51.256516083751436
58.580812199165734 25.384033239639272 51.25653070480945
58.62669083929449 25.438699381201594 51.25206365771397
58.65818687447997 25.449090243076956 51.24380517884383
58.65826822246605 25.449508979708803 51.24380589380469
58.53747379550239 25.367999223471344 51.25809108831638
58.56421064157814 25.37956779548157 51.25651278364729
58.59938213586642 25.441878103714625 51.25356050968356
58.61722897220359 25.449509233541903 51.25093890888798
58.65897613111139 25.461359785323122 51.24124560701661
58.659107819600294 25.461648378459802 51.24120417601861
58.598434841680785 25.440923029086242 51.25363524354725
58.6001159816723 25.443196405023933 51.253446800267795
58.60207411676494 25.445839062460124 51.25322781874757
58.61915031337472 25.452916125226295 51.25071678564631
58.68224991785924 25.572035372442286 51.232497307925506
58.68225504197309 25.57209429701158 51.23249372184408
58.60061155874831 25.444018976462303 51.253376542974905
58.64072970907877 25.56103318650734 51.24193095585072
58.68876660294525 25.677597338371783 51.23147483840979
58.68876633247743 25.677540307940724 51.2314792755674
58.68861473052591 25.67530132041257 51.23170787115162
58.6887808683114 25.6777103748461 51.231460746699554
58.689020377784345 25.681414251148645 51.23108694143517
58.689028409779894 25.68148690034102 51.23107832307728
58.68904051067303 25.68160916658043 51.23106436525566
58.689055815970256 25.681774178174187 51.231045923580055
58.68906748536487 25.681905276168287 51.23103146126137
58.69238807666154 25.748750244008782 51.224478696594986
58.692390539185844 25.748737720943325 51.22447888235506
58.69239377841888 25.74872127779511 51.2244791072542
58.69239664296533 25.748706758566986 51.224479291849846
58.692374193411645 25.74882060069647 51.22447780969216
58.69237629311804 25.748809932428408 51.22447796175817
58.69237947028434 25.748793826223118 51.22447816808592
58.69366570664387 25.755575193984573 51.223116577903525
58.69367447287145 25.75556905632521 51.22311296881388
58.69237159191124 25.74883378426218 51.22447764360463
58.69367555100105 25.755568302184525 51.22311252476311
58.693664359525584 25.755577143311008 51.22311687647182
58.693672197785645 25.755571660367078 51.22311364815742
58.69367505792208 25.755569649216 51.223112472824795
58.7059600188775 25.790556267287812 51.21231055721417
59.558860200051015 25.804228065311968 51.325960911526906
59.558353584891776 25.804090589609892 51.32637074802578
59.55754733367253 25.803912806625355 51.32701854243876
59.56006574056959 25.804473398243175 51.32499452099192
59.55816838847892 25.80408862648121 51.3265153385505
59.55712039086435 25.803819053477383 51.32736153368619
59.55692265442886 25.803784191497783 51.32751946178831
59.55696809677454 25.803796779165474 51.32748267253685
59.55729954102338 25.803879018947196 51.327215377765256
59.527255911625794 25.927304371641874 51.29690747265956
58.686829953094204 25.26401831295046 51.2869654355526
58.687453119293096 25.26447507064023 51.28713288543443
58.71605934575726 25.283743744446504 51.293640607920864
58.71605826580057 25.283744336074232 51.2936412239647
58.71605636812655 25.283745045454282 51.293641820173754
58.716063019124164 25.283742209302197 51.29363921528352
58.71606215091896 25.283742703327768 51.29363973763483
58.71606421880195 25.28374169251621 51.29363873774748
58.716064043444284 25.28374188249047 51.29363897607196
58.71606026794126 25.283743832121367 51.29364095496466
58.71606439258508 25.28374189874632 51.29363908251973
58.71606546597275 25.283741299943095 51.293638454356554
58.716066902490084 25.283740735082993 51.29363796199408
58.71605838562142 25.28374487142398 51.29364204066138
58.7160631996262 25.283742618221584 51.293639860133155
58.716066483488106 25.28374099699173 51.29363824867477
58.716067570151864 25.283740422929267 51.29363766008336
58.71606873354414 25.283739864024167 51.29363711194583
58.7160573262145 25.2837453344416 51.293642472164336
58.71606200265295 25.28374317605978 51.2936403987637
58.71606546978025 25.283741492949893 51.29363873948705
58.71606778566303 25.283740300674914 51.29363753097538
58.71606878679866 25.283739835135158 51.2936370819876
58.716068580649534 25.283739873090013 51.29363708916469
58.71605714268714 25.28374527911812 51.293642347321395
58.7160611938664 25.283743438592822 51.29364059425021
58.71606445377331 25.283741888314154 51.29363908161679
58.77032491519823 25.342387445295877 51.26346299766942
58.77203548763272 25.34430906706799 51.262495782179045
58.771329226580384 25.34351520418634 51.262894972298426
58.867440175569044 25.376086020187092 51.22676825499654
58.658286891531 25.449547420185596 51.243801449239186
58.703102033800775 25.377636222998625 51.27728210633362
58.70327858686365 25.376235571758066 51.27754077757929
58.76893100681086 25.34385612195134 51.26399453117897
58.77093923062317 25.346055433919602 51.26286452475925
58.954960357915496 25.421282512545183 51.18740255221033
58.95585746482692 25.420807270601493 51.18722831310755
58.65921568510534 25.461854876506216 51.2411648874113
58.6741378686236 25.4665081471918 51.23551986234942
58.74041498399944 25.485483455905882 51.22545869464825
58.78954548709177 25.50834545600054 51.21161098568669
58.7920223647014 25.507132541352334 51.21101538108161
58.891719226019866 25.462189517407104 51.18825494291916
59.037626734065526 25.44375745350395 51.21390421025514
59.03764105104247 25.443753299934063 51.21390154942088
59.03780006909094 25.443755891690728 51.213937247248964
58.6822992222546 25.572592077151803 51.23245206808133
58.68234653503491 25.573108059099027 51.23238959494462
58.726340515229126 25.650748983854633 51.22243235210715
58.78594626295778 25.56466803407705 51.2152161463039
58.78840582722493 25.563882698643603 51.21466072332997
58.833142763588654 25.545140640288167 51.19569457900866
59.06311658883904 25.508742879058268 51.20721293475135
59.06328510833698 25.508734196063116 51.20724135182661
58.68878432010311 25.677754994152792 51.231456025026475
58.68881448053379 25.678155897361773 51.23141393035233
58.68885046963435 25.678651310801598 51.23136240655653
58.72692453619763 25.65293629169315 51.22207572706562
58.72820547259276 25.653594599216156 51.22164207889362
58.789952477792035 25.641769417752652 51.20384438367978
58.854499383595105 25.60933536723323 51.190662120513764
59.06313058108985 25.508862724543548 51.20715604866586
58.85476045757669 25.608945776732213 51.19063382437683
58.689070863150434 25.68194429778587 51.23102719341803
58.689086748642346 25.68213464002678 51.2310066034298
58.689101232323836 25.682316862813074 51.23098717115819
58.6955802259454 25.74589519066869 51.22330419414075
58.73492803406256 25.718161804878317 51.213807991086284
58.7956209927717 25.69798806678805 51.19743243646403
58.863822171097226 25.69288782381468 51.176209611456606
58.864087520055236 25.69298915361757 51.17611160916276
58.692397330983226 25.748703273952586 51.224479334445945
58.69240062715056 25.74868658811953 51.224479533095725
58.69240336592563 25.74867274185707 51.224479686455155
58.695576280082165 25.745944450561147 51.22330118568538
58.734295515408384 25.71858191339581 51.21395415105626
58.81854483334752 25.712703268175236 51.187921942039466
58.864028766828426 25.692978324101855 51.17613083860523
58.86425887703045 25.69306595347119 51.17604590302724
58.69237984300938 25.748791938003382 51.224478191470695
58.692383876050975 25.74877151448967 51.22447843940691
58.69238779497495 25.748751682564897 51.22447867140144
58.69239134716807 25.74873371892493 51.22447887358675
58.69371888698295 25.75553740431662 51.223094824729046
58.81223849288193 25.772247466331926 51.19210588190654
58.85041167435932 25.745121911058817 51.18416013053416
58.882595786949025 25.772983840956933 51.1710323614287
58.693685128682894 25.755561617946398 51.2231085761081
58.69369587078346 25.755554146840453 51.22310414083064
58.69370575280663 25.75554729081798 51.2231000563671
58.77367687797868 25.799410493146 51.20141789663706
58.82571124994126 25.844977924846305 51.186303968057
58.86470332490288 25.85050675073317 51.17351154683042
58.87061175918941 25.839852999935164 51.17377307677381
58.87077605152406 25.839461841524834 51.17369628565689
58.87066951761911 25.839714350215072 51.17374506965166
59.503983407327965 25.750719340012864 51.31743356328346
59.503830029289205 25.750539393940926 51.31730797370326
59.50373829887583 25.75022454537019 51.316957219833114
59.54953161821939 25.793181427021615 51.33456067350052
59.54949735228473 25.793173581818778 51.334588362435596
59.54891337196947 25.793148858102796 51.335044612004715
59.548959349921034 25.79314196511876 51.33500995928268
59.548799367544945 25.793142609886836 51.33513388492912
59.54891603029259 25.793136544635253 51.335044318615154
59.549579238620176 25.793183066620404 51.33452352288003
59.54967487834736 25.793174597678487 51.33445059859132
59.551310878277754 25.793273550724823 51.3331681703296
59.551242230322956 25.793253573665126 51.33322425344842
59.55339352717864 25.79338306738191 51.33153798401587
59.55322773717425 25.793360036689137 51.331669809846325
59.55518618718001 25.793478441635106 51.3301346266733
59.555103069440705 25.793464688763848 51.3302010334039
59.55594410871812 25.793519123811627 51.32954124752736
59.555627935945175 25.793493012185813 51.329790092143696
58.69368211918997 25.75556468045596 51.22310957199121
58.69369220525708 25.75555759244282 51.22310542620388
58.71292091825916 25.79371489247883 51.21240224743762
58.82214560791442 25.874815462519745 51.18408996316195
58.82285569400628 25.874893736206452 51.18404638595818
58.866642406008495 25.864745490131696 51.17176321405702
58.890791857088146 25.897419715927597 51.16931206566231
58.891602766378625 25.89781153440385 51.16903604240779
58.8914367034896 25.897717059657012 51.16909725961314
59.03601336637115 25.909126828149994 51.16531816675603
59.035991874520946 25.909120810725156 51.16532113625951
59.24684611245624 25.88353214908124 51.228304285828344
59.40297788043878 25.79560194605424 51.26832038213791
59.403289872917085 25.795216472159332 51.26853027295488
59.32246994874687 25.937571311874297 51.24536182146241
59.40659507532217 25.794043788092615 51.271829470708255
59.40808967536195 25.79218795341974 51.27283154509422
59.457103837591404 25.82972586322556 51.29331219664794
59.54999805649516 25.7932158047864 51.334194156775
59.54953029650922 25.79319320266232 51.334560007942734
59.5495031264434 25.793194080939855 51.3345809440942
59.550236411882295 25.793235167735673 51.33400660475489
59.551815995330685 25.793320903965448 51.33276980749449
59.553879926874274 25.793432202990083 51.33115387503729
59.56002018714857 25.804461253922575 51.3250313488427
59.55638765448224 25.793555129433997 51.32919224341083
58.72810051351779 25.82725427891669 51.200230182371705
58.7283789722871 25.82771438211878 51.20007320761873
58.77990599769201 25.871194593922166 51.18534414218139
58.822227890252194 25.874867616916763 51.18407488330935
58.82292232183592 25.87494279577921 51.18403258556507
58.89028681928589 25.89723064760848 51.16946586239448
58.89119856024686 25.897659714303103 51.169159298002384
58.89201484616796 25.898048542445018 51.168883286250825
59.13779727005142 25.994661032655497 51.16362278684825
59.31419568902892 25.945686188498293 51.24018108756297
59.31902311760283 25.940819800007535 51.24310722707193
59.31996844158442 25.940238885521964 51.24395215923248
59.32695877309634 25.933811684111443 51.24864216910208
59.45452349947138 25.835378501513595 51.28962304475153
59.550819920677185 25.79326791090163 51.33354956968407
59.55058534753667 25.79325928513864 51.333732648612184
59.5507342958346 25.793271599560313 51.33361541655292
59.55506907120822 25.803321503524664 51.32901459218656
59.556688991814454 25.803707534340635 51.32770992224247
58.75052841041666 25.95014232300216 51.17498435119249
58.78316873961238 25.912630638018022 51.17902498157865
58.82229085135868 25.874915309204987 51.18406153215355
58.840169676723704 25.902594643967817 51.17477508114429
58.89073902528684 25.89749886921005 51.16929555070696
58.89162564945735 25.89791190151778 51.16899882048004
59.06353298186038 26.038454857703158 51.15080745888234
59.21865852839021 26.050515556627353 51.16857807725758
59.219147221957826 26.04950961488388 51.16853849561254
59.313940523239204 25.946415859097407 51.24037173227002
59.32024327017841 25.940485468946452 51.244501470419365
59.327614485025535 25.93372484229561 51.24945928637164
59.45711745788785 25.834365209611448 51.29074708260852
59.55538799400907 25.803403438642786 51.32875709204158
59.555785416164746 25.80350474769756 51.32843629695535
59.55669002077184 25.803727230825046 51.327706987838795
58.79432329513561 25.955678703674145 51.169508672948936
58.87153601988919 25.963759142026166 51.17437097514458
58.871737489168154 25.964643504384796 51.174295010626636
59.014263209614896 26.064478969389732 51.160497392654946
59.09426310661932 26.08642877555254 51.14566305611785
59.147093710966125 26.094055276990353 51.15615798957914
59.218026196018215 26.05199063375481 51.16858128217147
59.218546559765855 26.05094849875293 51.16853110959619
59.31366487229735 25.947263032378324 51.240620749760225
59.320131030340136 25.941159671526187 51.24484351610043
59.425701213810854 25.95748301517785 51.25832831465259
59.52688287188418 25.925051651742162 51.29811716001501
59.55713759431235 25.80383817026519 51.32734605250194
58.99102844561865 26.13991713260117 51.16362728434143
59.045921031446824 26.10483246203144 51.15656743665622
59.16751888776339 26.156055161793574 51.168576751452214
59.16802944783556 26.155249090835923 51.16853805157193
59.21739835513137 26.053500543582476 51.168571923583244
59.21795299941924 26.052410777886028 51.16851262706805
59.293492396671084 26.006122423248993 51.23630254794327
58.716064023845085 25.283741886191997 51.29363897689133
58.716065290468926 25.283741380614487 51.29363853168205
58.71606693126731 25.283740599238058 51.29363776874317
58.71606688510584 25.28374062788337 51.29363780001873
58.716066367548834 25.28374090577264 51.29363808694265
58.716067469981326 25.283740265963495 51.29363740525612
58.716068355914814 25.283739842068833 51.293636990372335
58.71606876880105 25.283739834309102 51.29363707651793
58.71606801062964 25.283740127406602 51.2936373289764
58.71606943653336 25.28373929204998 51.29363643576007
58.7160690256952 25.283739495602667 51.29363663843222
58.71607047827922 25.283738734686473 51.29363586114537
58.71607010888599 25.28373891764141 51.293636043278546
58.994615390045006 25.370727615206917 51.24714132629714
58.995868454341746 25.371110514242577 51.24705091864959
58.71606905743399 25.28373956779337 51.29363675224406
58.867849571511684 25.374807505036358 51.226951605548464
59.1804660480753 25.43145060726031 51.238608286623936
59.179852662499286 25.431258261729525 51.23841300885864
59.182503516388714 25.432079084579215 51.2392598385031
59.04499180910218 25.429280996785813 51.21701196324078
59.18150997150866 25.4317780370694 51.23894060946712
59.28861821111418 25.475405861141223 51.26848126812364
59.28849518899703 25.47531354193886 51.26846515986882
59.288750964955966 25.475504467447706 51.26849876239441
59.044658356340925 25.429646403725656 51.217147647707954
59.18257037060529 25.432113209291487 51.23927746085046
59.28878554394751 25.475532583950887 51.26850305162774
59.28920956964407 25.475846887891294 51.26855900136728
59.28892230974277 25.475631733933987 51.26852134263644
59.289695189717264 25.476206392203416 51.26862312855765
59.289498584935245 25.476059787069588 51.26859728294663
59.28996005063268 25.476402291802266 51.26865812347253
59.14062795593496 25.45817250629655 51.245737772193294
59.285695694764875 25.485171390877937 51.26672869955682
59.2860228053983 25.48558151188061 51.266752657936216
59.29007834214231 25.476492212020474 51.26867348567853
59.33990625399733 25.52721882920852 51.27348238852632
59.290316445333225 25.47666600153267 51.268705200374
59.339914440559795 25.52719649567855 51.273486595161756
59.2858949122421 25.485421771806678 51.266743211166926
59.28617634034284 25.485774601012125 51.26676382580144
59.286535444846294 25.486224986842295 51.26679010762021
59.31541040373955 25.510524733343473 51.270089332256646
59.33988084121202 25.52728872121265 51.27346938901427
59.339890756429 25.527261663573768 51.27347448305687
59.339914987192145 25.52719502833284 51.27348687853687
59.339900325106655 25.527235539046142 51.27347939775319
59.339912929597716 25.527200886527623 51.27348584676072
59.39566341952526 25.610277387829004 51.308679103724444
58.917998869199835 25.66132967538721 51.17382115381729
59.19812390583004 25.510512423476985 51.228221259112786
59.286643098718486 25.48636061195936 51.26679790716686
59.315384541823434 25.510556406067664 51.27008109351932
59.339850034457996 25.527373275618423 51.273453612338486
59.339855915634104 25.52735728951393 51.27345664041795
59.391842374267085 25.619733725187913 51.306669114743485
59.39558354253815 25.622946052899984 51.30903202094819
59.39852680243281 25.627697999066513 51.31089967026768
59.39898367961516 25.61609382508732 51.310800123988216
59.42659234124261 25.673932821755827 51.30346258485415
58.86432425716078 25.693080210683185 51.1760240351396
58.99613460725356 25.674883431279778 51.1546593102958
59.315366206261146 25.51057088594016 51.2700760437657
59.33983121032656 25.527424935341628 51.27344397151379
59.390659404820056 25.617922082550482 51.30592078243386
59.392866893914004 25.621446530734225 51.307321777243494
59.39576288259363 25.626065095559802 51.30915956914028
59.42642213021213 25.673719758559677 51.30345984659685
59.50369813932133 25.749795244911624 51.316415977958314
59.55125787692796 25.793241300344448 51.33321388579255
59.50468233499714 25.75026341530079 51.316308711480616
59.5518448522687 25.793268676562615 51.33275493377138
59.55216453315795 25.79328203564846 51.332505200026254
59.55227195093356 25.793289697767776 51.33242083012979
59.55242399204626 25.793294663268597 51.332302255306864
58.86450114213589 25.693158775654112 51.17595636093639
58.99578617212774 25.675320822018115 51.1546354873594
59.247724305909195 25.561510543527667 51.232923341121264
59.39168523885334 25.619593606115526 51.30657290257143
59.393711027056156 25.622836778615206 51.30785885998677
59.39640268445183 25.627140083905147 51.30956732013426
59.426775057317556 25.674234779718454 51.30365842069542
59.429813221583174 25.67890688998787 51.30599614640627
59.54980841582637 25.793174543893507 51.33434708818129
59.55013842243615 25.793188859455096 51.33408921266516
59.551347367747525 25.793251525569463 51.333143044975685
59.55254917587258 25.79330751346378 51.33220336854491
59.55236967733585 25.793303146713832 51.332343142399296
59.55201809369882 25.793280627034324 51.33261892193603
59.552983346614624 25.793334842489944 51.3318628772802
58.88262886676877 25.772888794468972 51.17101096059319
58.9353381267782 25.780603795554686 51.16021378895042
59.29059714100881 25.684510538692777 51.26138062096413
59.39417506029171 25.6235950570125 51.308153913592385
59.4242723097279 25.670340989586236 51.30161403165198
59.42656005762982 25.673848516976754 51.30334646302954
59.42944481430503 25.67829404059735 51.30559070704534
59.50414791385897 25.751517833506398 51.31837365232137
59.549071615184104 25.79314551067425 51.334922422464835
59.54903325316211 25.79314105352872 51.33495280039843
59.549898384538935 25.79318399792098 51.334275987591475
59.55165622797276 25.793275258541854 51.33290021044537
59.553032106488864 25.79334814014843 51.33182317007094
58.87077961641786 25.839449304594595 51.17369101255197
59.271353532983724 25.810402033333876 51.22794532695782
59.37193078379144 25.757718789047836 51.27357661711184
59.405427804593295 25.792398798081507 51.26990343971649
59.409211838519994 25.790659815896277 51.27353412025443
59.55338934844259 25.793370326287697 51.33154305208506
59.552519802125275 25.79332176304639 51.33222409381777
59.55508261718708 25.793463704703047 51.330217029213195
59.31956519172209 25.94028525159377 51.24344450275666
58.99585440390328 25.371105833000946 51.24705867926692
59.17987078709393 25.431264050030038 51.23841874986147
59.18251537760683 25.43208309413778 51.23926353393375
59.2885132584958 25.4753268748296 51.26846755082105
59.28898779551099 25.47567946800548 51.268530072141694
59.28909943743279 25.475762312716743 51.26854479310967
59.28951153740894 25.476069194534624 51.26859901328974
59.29012266662535 25.47652148406881 51.26867972844418
59.290312743501545 25.47666200911961 51.268704849279196
59.33991465200582 25.527195926676093 51.273486704628866
59.33991452555824 25.527196284889186 51.27348664103485
59.339913309817916 25.5271998359719 51.27348604075147
59.395786098416124 25.610492256828643 51.30875747220753
59.39893772010349 25.616013273901473 51.31077076432799
59.426605070816485 25.67395308064891 51.303474179186786
59.50470442164857 25.750259407300817 51.31628699816852
59.55217412574499 25.793282652112087 51.33249767538127
