ply
format ascii 1.0
element vertex 531
property float x
property float y
property float z
end_header
68.22888179241428 49.88106976475112 49.65008380751162
68.22888349854992 49.881071193346614 49.650085146529236
68.22889087022929 49.8810774737726 49.650091064337104
68.22888839496498 49.88107538630328 49.65008910346458
68.22889162782502 49.881078111655626 49.65009166324187
68.31532174608006 49.90761036792374 49.725949487040275
68.31540188183955 49.90764646744746 49.726015439485835
68.31540401049205 49.907647427312014 49.72601719254174
68.35446144144171 49.94268109818162 49.759564322708826
68.22888382450884 49.88107143105906 49.65008535915705
68.228888828305 49.88107568733636 49.650089367757346
68.2288985373713 49.881083425367414 49.65009650740157
68.31535711391585 49.90762587495166 49.72597807744911
68.31539077243986 49.90764096159961 49.72600568645636
68.31532332093337 49.90761080112556 49.72595044707446
68.31541771296375 49.9076534233713 49.7260282549082
68.31537250810251 49.90763286054652 49.72599080884208
68.31541074994743 49.907650073719424 49.72602226519177
68.35444919549309 49.9426767815496 49.75955443082023
68.35451432507544 49.94270111155467 49.75960493541658
68.37698687799346 49.93338409544988 49.77424434432591
68.45925378123233 49.963253663150965 49.84392988126825
68.45934677935061 49.96328500277097 49.8439976242195
68.45943542360963 49.963314918533854 49.84406221304047
68.45944613918016 49.96331853594424 49.84407002116484
68.45953459271604 49.963348661870384 49.844134580979926
68.45955087057715 49.96335391392917 49.84414634481364
68.45958514333095 49.963365510230744 49.84417132892674
68.45964607522964 49.96338649330768 49.84421589381769
68.45966414225632 49.9633922438867 49.844228919117256
68.4597155943839 49.96340966341005 49.844266430845565
68.4597692691182 49.96342822862638 49.84430572048767
68.45978343207256 49.96343264057787 49.84431589272283
68.60291113032034 50.00783169228282 49.94650897503563
68.6029114976634 50.007831587338444 49.94650914462548
68.60291175887315 50.0078315128226 49.946509265214694
68.65202051887928 50.012885588992006 49.98534380854784
68.65202473797854 50.01288580530749 49.985346908195766
68.65203838243897 50.01288652303133 49.985356945455294
68.6520391473091 50.01288656362581 49.98535750837568
68.354419834586 49.94266607678862 49.75953125890937
68.35448495124027 49.9426904469301 49.759581684499764
68.35450214662225 49.942696828235505 49.759595083442676
68.3544520318147 49.94267804845225 49.7595563121379
68.35456458357885 49.94272012894858 49.759643535986115
68.45928302440633 49.96326329623372 49.84395109420454
68.45932243413267 49.96327648626578 49.843979765231005
68.45941181836325 49.963306556704595 49.84404485514526
68.45945748061779 49.963322265648785 49.84407824569102
68.45950438748886 49.96333770365905 49.84411226633833
68.45955327197869 49.96335417706233 49.844147875330506
68.45960322845382 49.963371016090065 49.84418426694474
68.45970260734876 49.96340464876839 49.844256715060574
68.45970884692537 49.96340666339711 49.84426122490639
68.459722638911 49.963411323709806 49.84427127646818
68.60291188177924 50.007831466798855 49.94650932220894
68.6029125252907 50.00783127637818 49.94650961944876
68.60291279780185 50.00783119781502 49.94650974527438
68.60291254135197 50.00783127792543 49.946509626721614
68.652016396481 50.01288497423051 49.985340489545436
68.65202330780085 50.01288531263358 49.98534555561092
68.65202912908657 50.012885744463915 49.985349928346835
68.6520340320702 50.01288583933712 49.98535341776113
68.65204032678974 50.01288615209203 49.985358035122744
68.65204934060534 50.012886701383714 49.985364720043
68.69402893501832 49.99970916835497 50.01508562124265
68.69403281436335 49.99970916401242 50.01508834219811
68.65203968830895 50.01288657054629 49.9853578908469
68.69404503119986 49.99970944964842 50.01509697532438
68.65145249728607 50.014338385740956 49.98506356954064
68.69404567201192 49.999709471152386 50.0150974295602
68.69405711685195 49.99970978222293 50.015105526489194
68.69959173192116 50.02222225279995 50.02091404070547
68.69959640862233 50.02222237456351 50.020917260150526
68.69960407520098 50.02222259986238 50.020922517013226
68.69967902755462 50.07918733085938 50.026123128141364
68.69968578988626 50.07919442499136 50.026128219249046
68.77463679936307 50.155825320947486 50.08360597981591
68.7746388916374 50.15585222105307 50.083609041846934
68.77463947576435 50.155859696706045 50.08360989501066
68.35451740063935 49.942702592320245 49.75960681127612
68.35456849828137 49.942721790405486 49.7596462662479
68.45927814189346 49.963261592326404 49.8439475141706
68.35454787067924 49.94271396855754 49.75963044878195
68.45929884837115 49.96326868261799 49.84396264247496
68.45932425487807 49.96327718238418 49.84398112458465
68.45940150147224 49.963303022375996 49.84403731689659
68.45948291891492 49.9633302891946 49.84409655591987
68.45957023273871 49.963359591211926 49.84416010935749
68.45963864208959 49.963382571245 49.84420991163746
68.45966158068242 49.96339027350473 49.84422660971855
68.45976108849177 49.96342378054182 49.84429908401439
68.60291372996215 50.00783092012654 49.946510175884875
68.60291397774334 50.00783084816472 49.94651029030426
68.65202884335655 50.01288529192482 49.98534940320643
68.65202975034785 50.01288531548762 49.98535005303306
68.65203051200069 50.01288535225209 49.985350610951436
68.69402728164937 49.99970661486194 50.01508391269793
68.69402909242376 49.99970630058435 50.015085115696735
68.6940303472916 49.99970627057391 50.01508598971108
68.69404496562936 49.999706178170115 50.01509622661551
68.69404598829901 49.999705990013936 50.0150969037421
68.69404670605684 49.99970598187 50.01509740559756
68.69406191481197 49.99970586792519 50.01510805213316
68.69404657934297 49.99970927359278 50.01509802374122
68.69406315318683 49.999705859414064 50.01510891919341
68.69407663583256 49.99970585406038 50.01511837795347
68.69406970579497 49.99970834590417 50.015114050828856
68.69408069176309 49.999705884558814 50.01512123029141
68.69962501531346 50.02222317311579 50.02093690947389
68.69963117723123 50.02222336339965 50.02094112715544
68.69963572332226 50.02222348439756 50.02094425455329
68.69964285114344 50.02222369246121 50.02094914313432
68.69968545136257 50.07919034417921 50.02612778701297
68.77463555359834 50.15580380034707 50.08360388417769
68.77463727249986 50.15582811538273 50.08360650944822
68.77463587373268 50.15580784597237 50.083604349212195
68.77463765251767 50.15583035400191 50.08360693455356
68.77463899780645 50.155852837806535 50.08360916018331
68.77463975981556 50.155857247144354 50.08361000866475
68.7746397166698 50.15585662870426 50.08360994236675
68.77463976918547 50.155857302166126 50.08361001913771
68.79956932461769 50.286997545863635 50.110646607916145
68.7995719262131 50.287004905219234 50.1106491159552
68.79958134726793 50.287031874509125 50.11065821306703
68.79958117594296 50.28703138182864 50.11065804752907
68.79958141689944 50.28703207147751 50.11065828019433
68.85906635526898 50.42316927803883 50.16681955864113
68.85907639789431 50.42319248287181 50.16682906409014
68.8591073578225 50.423265256344884 50.16685841696564
68.85910594752555 50.42326191120432 50.16685707867966
68.85910814432805 50.42326707280187 50.16685916136684
68.85914032210236 50.42334266543564 50.16688966715089
68.8591627555133 50.42339533358437 50.16691093359758
68.45932589121172 49.96327772615987 49.8439823134786
68.45942298111846 49.963310158723885 49.84405292248823
68.45951759719605 49.96334170682007 49.84412170912717
68.45954412464191 49.96335057757181 49.84414100505796
68.45947397467077 49.96332720171202 49.84409001125472
68.4596373198232 49.96338195849766 49.844208881501785
68.45967971243822 49.963396154069 49.844239725496564
68.45972219721865 49.96341037200731 49.84427063314621
68.60291429827835 50.00783075222168 49.946510438385644
68.65202549860174 50.012884937815315 49.98534681444968
68.65202606325816 50.012884961988235 49.98534722584708
68.69402774646969 49.99970475172742 50.01508383863775
68.69403254658863 49.99970458237341 50.015087170197475
68.69404444626544 49.99970409571941 50.01509541490786
68.69405186137686 49.99970388071573 50.01510057143514
68.69406142944277 49.9997036286986 50.015107230602496
68.69406954814377 49.99970341937611 50.01511288201388
68.69406537494508 49.99970547652687 50.01511039581621
68.69407884384923 49.99970320262737 50.01511935765887
68.69408694993649 49.99970303459252 50.01512500908843
68.69408652620154 49.999704727871716 50.01512507549125
68.694096773562 49.99970280351109 50.015131852062524
68.69410487169885 49.99970263801457 50.015137498459026
68.6996442062736 50.02222371595622 50.020950085558304
68.69965052941271 50.02222389042413 50.02095443044151
68.69965902635896 50.02222413496965 50.020960260852775
68.76560227696811 50.08253754494992 50.07018422250358
68.76560230887532 50.08253348349482 50.07018397242655
68.76560227733985 50.08253779718106 50.07018424587066
68.77463562670398 50.15580424246059 50.08360396652438
68.77463637852956 50.15580879286924 50.083604813567376
68.7746380548219 50.15583273414118 50.083607385096165
68.7746365886922 50.15581142119902 50.083605117490464
68.77463849932374 50.15583535744938 50.08360788257515
68.77464051691103 50.155861633493195 50.083610851944435
68.7746400288576 50.15585463436837 50.083610101826096
68.77464063929597 50.155862341753874 50.083610988221736
68.79957451990384 50.28701224270021 50.110651616396446
68.7995778617816 50.28702169735785 50.110654838152364
68.859066030223 50.42316731635795 50.16681920302095
68.79958468477292 50.2870412299012 50.110661426564434
68.85906879175472 50.423173697916 50.166821816865834
68.85908690335162 50.42321675544651 50.166839007547324
68.85909890415759 50.42324448059063 50.16685036626316
68.85912792844991 50.42331276969412 50.16687788657084
68.8591227380404 50.42330046786131 50.1668729615649
68.85913068103385 50.42331912650921 50.16688049178541
68.85914914204392 50.423363031908025 50.166898014794654
68.85916246267354 50.423393785697655 50.16691062190595
68.89455801436549 50.493093924007596 50.19320892544056
68.89455505920736 50.49308723153237 50.19320581435183
68.89456066249988 50.49309910195805 50.193211418571074
68.89457335454061 50.49312600413021 50.19322411789983
68.89457455861054 50.493128547314285 50.193225319432464
68.89458706895712 50.49315496915979 50.1932378027099
68.92162644952796 50.53186101493061 50.21326992387874
68.92164037896731 50.53188257939908 50.21328094691236
68.92165185712275 50.5319003055852 50.213290014100096
68.92166276525228 50.53191714327719 50.213298627973955
68.45954508175907 49.96335089544317 49.84414170038393
68.45966538839339 49.963391254945535 49.84422926252823
68.45969614279454 49.963401573970955 49.844251647057575
68.60291417683595 50.00783079011827 49.94651038224564
68.60291473664017 50.00783062607177 49.946510640783686
68.65202286423191 50.01288471111978 49.985344813094216
68.60291439508823 50.00783072472189 49.94651048307584
68.65203091001959 50.01288510349154 49.98535070959917
68.69402512449159 49.99970430482114 50.01508190296953
68.69404123938946 49.99970367750251 50.0150930750166
68.6940417156116 49.99970365641721 50.015093404622164
68.69405842131621 49.99970259681742 50.015104898348014
68.69406657914179 49.999702278941626 50.015110553893734
68.69407569281958 49.99970182563494 50.015116851009715
68.69408741170149 49.999701428735676 50.01512498814689
68.69409323158695 49.999701198824255 50.01512902220402
68.69410745696378 49.99970071716979 50.01513889978321
68.69411128642716 49.99970057933566 50.01514155706639
68.69412722063106 49.99970008824072 50.01515263159246
68.76000943611938 50.00304623884128 50.05918487991421
68.76001022290473 50.00304897297214 50.05918584114019
68.76001026219164 50.00304910984857 50.05918588903559
68.77457723737864 50.09881489284227 50.07841263382815
68.77463643762823 50.15580916570418 50.08360488090035
68.77457741032923 50.098816402781644 50.078412875267276
68.77463713588942 50.15581354549811 50.083605675198115
68.77463886020783 50.15583755759419 50.083608289951755
68.77463774938718 50.155821164416636 50.083606559744474
68.7746392611948 50.155840003356154 50.083608742653574
68.80048572257832 50.22717943942216 50.108443239136605
68.80048450870724 50.22717279152469 50.10844190949575
68.8004860755148 50.227181202595915 50.10844361721296
68.79957989796499 50.287027463318324 50.11065680139302
68.79958299758702 50.287036242012746 50.11065979003894
68.85908805000648 50.42321818644311 50.16684004459489
68.85908666018081 50.42321488773297 50.16683872565069
68.85908887803801 50.42322009907247 50.16684082830963
68.85910800246049 50.42326549306233 50.166858977490094
68.85911908205941 50.423291078265024 50.1668694638235
68.85914988720513 50.423363463084854 50.16689866896736
68.85914849294808 50.423360156176535 50.166897345909675
68.85915071121691 50.423365365323185 50.16689944883366
68.85917042172574 50.423412153851444 50.16691815434777
68.89455678189435 50.49308943122747 50.19320701573058
68.89456728941269 50.493112028538874 50.19321764638035
68.89456518112749 50.49310722457382 50.193215416279145
68.89456931525565 50.49311597763241 50.19321954929879
68.89457399326993 50.49312725014643 50.19322471819744
68.89458199865737 50.49314284323937 50.19323223341627
68.92162404814376 50.53185646344448 50.21326771558695
68.89458454480534 50.493148219280656 50.19323477354347
68.92163497273899 50.53187153948936 50.213275682457734
68.92164843880127 50.5318936755576 50.21328681484431
68.92164460238892 50.53188645418091 50.21328330538077
68.92165591981096 50.531903963762545 50.21329225727591
69.00374511290798 50.62578543910969 50.269807643800476
69.00374537154224 50.625784926532475 50.26980749761611
69.00375094863668 50.625789753148474 50.26981101929444
69.04103711546527 50.66796009305564 50.29669788925073
69.04103769597009 50.66796044835285 50.29669818963298
69.0410410532337 50.6679625096092 50.296699925379
69.0410602152627 50.667974274454764 50.29670983239174
69.04106029973867 50.667974326216296 50.29670987609059
69.04106063160869 50.66797452996116 50.296710047674395
69.04108139654866 50.66798727865727 50.29672078347708
69.0410830194885 50.66798827503544 50.29672162256963
69.04110482457719 50.668001661521956 50.29673289633082
69.04110517731883 50.66800187808346 50.29673307870503
68.652023374741 50.01288472896119 49.98534518215179
68.65203161319339 50.012885127966726 49.98535121786638
68.69403106645031 49.99970379047393 50.01508596158183
68.6940434593767 49.99970357133238 50.015094609834655
68.69404803370065 49.9997029867247 50.01509769377343
68.69403776619251 49.99970366788244 50.01509063603012
68.69404747711833 49.99970386534522 50.01509749197987
68.69405357070333 49.99970315317536 50.01510161448704
68.69407131371452 49.999701580989786 50.01511372592289
68.6940740638523 49.999701513813335 50.01511564108937
68.69408799875238 49.999701171486066 50.015125344786625
68.69409001573656 49.99970119600431 50.015126765241824
68.69410656921566 49.9996996473358 50.01513804711052
68.69412247322106 49.99969902566173 50.01514907240025
68.69412466885646 49.99969886852358 50.01515057918443
68.76000950658428 50.00304648834676 50.05918496465914
68.76000951332004 50.00304651220388 50.05918497275796
68.76000952682799 50.003046559087906 50.059184989277256
68.76001025691521 50.003049090342586 50.05918588292832
68.76001023608475 50.00304901307963 50.05918585889211
68.76001045229327 50.00304976347169 50.0591861233112
68.77457731760279 50.098815589536386 50.07841274635412
68.77457669534495 50.09881013320401 50.078411881100365
68.77457797416753 50.09882129231592 50.078413667144844
68.77463741140357 50.15581547849044 50.08360599874647
68.77463712012715 50.1558103153542 50.08360550225676
68.77463771975818 50.15581764155277 50.08360636084413
68.77463980391418 50.15584369874533 50.083609374433415
68.77464030078404 50.15584995043896 50.08361009484221
68.80048974262189 50.22719950710142 50.1084475447593
68.85907262550235 50.42318134116154 50.166825397407706
68.85908107753392 50.423201205894706 50.166833410622004
68.8591019233736 50.42325019726472 50.16685317407999
68.85913184617934 50.42332050378407 50.166881542513636
68.85914345076326 50.42334775433547 50.166892543669476
68.8591633567988 50.42339449445484 50.166911414435354
68.89456246336832 50.49310039872587 50.193212313704464
68.89456363896673 50.49310288567163 50.19321348822798
68.89457506816562 50.49312706019647 50.193224905671556
68.89458373377578 50.493146189322616 50.19323385019669
68.8945815870008 50.493140829017776 50.19323141077756
68.92162658714125 50.531856310382885 50.213268216594194
68.92164278366528 50.531882167845744 50.21328132296162
68.92164190758878 50.531880011598474 50.21328033423051
68.92164705926305 50.53188797871243 50.2132844079302
69.00374834465416 50.62578565191423 50.26980859846131
69.0037491209361 50.62578632591714 50.2698090895642
69.04103852570029 50.66796095390355 50.29669861949785
69.04104367430078 50.66796411499043 50.29670128138565
69.04105682189439 50.66797218724954 50.29670807884147
69.0410661844548 50.667977935479506 50.2967129194201
69.04107662827016 50.6679843474333 50.296718319051074
69.04108382910425 50.6679887715421 50.29672204128133
69.04108835885432 50.66799154935117 50.29672438397361
69.04109802786766 50.667997485470714 50.2967293830521
69.04111011129427 50.66800490366174 50.29673563048084
69.04112194738039 50.668012169976706 50.29674175003531
69.04113169071132 50.66801815141085 50.29674678760854
69.04114845956403 50.66802844564195 50.29675545761151
69.04115316087062 50.66803133173396 50.296757888327356
69.04117323241033 50.6680436539757 50.2967682657997
69.04117420655797 50.66804425098574 50.29676876969361
69.04117857836367 50.66804693471409 50.296771030067234
69.04119585550822 50.6680575406648 50.296779962944406
69.0412113844579 50.66806707315129 50.29678799201247
69.04121719593385 50.668070640530594 50.29679099677287
68.69405372489823 49.99970313653118 50.0151017191006
68.694072018745 49.999701378157766 50.015114177030064
68.69407626067145 49.99970126299741 50.015117128582446
68.69409379140293 49.9997004027421 50.015129243995396
68.69409736273721 49.99970037978366 50.01513174484081
68.69411224319154 49.99969945607638 50.015141987094566
68.69411872517955 49.99969871111644 50.01514637507604
68.69410501824954 49.99969987466895 50.015137007727176
68.69412745622239 49.99969847984205 50.015152451413336
68.76000915551775 50.003045318779584 50.0591845211508
68.76000960365336 50.00304683552922 50.059185080392695
68.76000956976142 50.003046760969276 50.05918502646543
68.76000972599 50.00304727434085 50.059185225888434
68.76001051944318 50.003050031580074 50.05918619527882
68.76001053736846 50.003050093615784 50.05918621725244
68.77457782986313 50.09882008663436 50.07841345789361
68.77457849022912 50.09882585015103 50.078414380022224
68.7746377716672 50.1558170263764 50.08360637332042
68.77463808751598 50.15582089161492 50.083606825880764
68.77464017880024 50.15584664004108 50.083609830080064
68.80048288445434 50.22716172662432 50.10844002141838
68.8004919585494 50.22721054727208 50.10844991702276
68.85908220098375 50.423203431940905 50.16683445932725
68.85910567353946 50.423258678601485 50.16685671636437
68.85910823877454 50.423264717805935 50.16685914881848
68.85913929519884 50.42333762307241 50.166888589416544
68.85915930314532 50.42338460692577 50.16690755696922
68.85916952695969 50.423408626714 50.16691724961542
68.89456612998534 50.49310735477012 50.1932156889386
68.89456701802771 50.493109228075866 50.19321657425385
68.89457853324335 50.49313358193898 50.193228076690104
68.89458436509955 50.49314587703323 50.193233888090674
68.92163362690023 50.53186554590553 50.21327317335093
68.92164711772433 50.53188637723429 50.21328382930316
68.9216539783689 50.53189698456143 50.21328925336878
69.00375187944317 50.62578816483341 50.26981060095373
69.00375635556878 50.62579113040805 50.269813045709924
69.00375772314915 50.62579231779299 50.269813910884565
69.04105000741923 50.66796800142406 50.29670455611928
69.04105295801318 50.667969813014096 50.296706081608434
69.04106812944934 50.66797912780842 50.29671392542494
69.04107507363497 50.66798339122599 50.29671751567555
69.04108798190624 50.66799131615733 50.296724189488046
69.04109671241906 50.667996676140476 50.29672870333352
69.0411098945401 50.6680047688661 50.29673551880742
69.04111774997492 50.668009591347015 50.29673958027969
69.04113402422949 50.66801958222908 50.2967479944967
69.04113885330297 50.668022546740104 50.296750491275475
69.04115781309146 50.668034186257984 50.296760293991525
69.04115955760626 50.6680352566577 50.296761196081576
69.04116147709905 50.668036434987386 50.29676218852362
69.04118044255918 50.66804807736146 50.29677199431472
69.0411910930427 50.668054615418214 50.296777500974606
69.04120175155757 50.66806115837676 50.296783011793465
69.04122103949632 50.668072998644035 50.29679298433244
69.04122248320391 50.66807388439297 50.29679373089341
69.0412249196116 50.66807537993132 50.29679499062347
69.04124299743361 50.668086476538704 50.29680433767372
69.08510519487723 50.70648905360097 50.31687596579813
69.08510524686207 50.70648896699659 50.31687601959399
69.08510527460925 50.70648892589577 50.31687604714196
69.08510536068104 50.70648879783539 50.31687613272447
69.0851055018691 50.70648858117969 50.316876274609484
69.08510562858714 50.70648838925524 50.31687640137823
69.08510564424462 50.70648836295237 50.31687641763082
69.08510565656059 50.706488344351044 50.31687642993984
69.08510576969644 50.70648817509979 50.3168765426428
69.08510590341783 50.706487973168926 50.31687667628104
68.69411886940867 49.99969869501671 50.01514647281423
68.69412767175129 49.999698455555254 50.01515259741946
68.76000916053613 50.00304533670888 50.05918452713985
68.76000957759166 50.00304678897984 50.05918503579994
68.76000983040996 50.003047649066 50.05918535002381
68.7600105378668 50.003050146303984 50.05918620309784
68.76001060159794 50.003050327047276 50.05918629275864
68.76001024153736 50.00304908014245 50.059185851613535
68.77457709094861 50.098813758744555 50.078412408624644
68.77463616676012 50.1557984324294 50.083604125543864
68.77463630518615 50.155798708719715 50.08360425370322
68.7745771491199 50.09881420540434 50.07841249864808
68.7746370950392 50.15581044378284 50.08360548786615
68.77463721009995 50.1558108418526 50.083605602730415
68.77463838723372 50.155823594019736 50.08360720753521
68.7746382540233 50.155823309880546 50.08360708330075
68.7746393159955 50.155835999725255 50.08360858977878
68.8004805445889 50.22714849972711 50.10843743769223
68.8004925620387 50.227213518440365 50.10845056130515
68.8004861571259 50.22717902635682 50.10844357491534
68.80049371194194 50.22721927500043 50.10845179371702
68.80048576079363 50.227176881718094 50.1084431420851
68.85907170139967 50.42317857306442 50.16682449766411
68.85908764825858 50.42321597509212 50.1668396135057
68.85907082969531 50.423176574936726 50.16682367322322
68.8591117676342 50.42327279417664 50.166862485849144
68.8591127330611 50.423275072961516 50.16686340153877
68.85909998459296 50.4232451436522 50.16685131627192
68.85912862413696 50.42331231016129 50.166878463157545
68.85914469812205 50.42335001564016 50.16689369971004
68.85912669931301 50.42330790519774 50.16687664297941
68.85917009937194 50.423409802889935 50.166917785607296
68.89455609444151 50.49308559272315 50.193205471121914
68.8591577761816 50.42338086929991 50.16690610338762
68.89455687629842 50.49308761348837 50.193206384218556
68.8945606821607 50.49309543336135 50.19321010337653
68.89456737254497 50.493109490501695 50.19321675303968
68.89457418130648 50.49312379324539 50.19322351923756
68.89457912260522 50.49313437794903 50.19322850333731
68.92163437317421 50.531865487715805 50.2132733157338
68.92163632219493 50.53186855879599 50.213274877941814
68.92165707033834 50.53190055396594 50.21329125059924
68.92165262416735 50.5318941174187 50.21328789709571
68.92166347673859 50.53191078504964 50.21329643596191
69.00376373698535 50.62579648272467 50.26981727139536
69.00376035165507 50.62579375823175 50.269815219996076
69.04104591344282 50.667965488939416 50.296702439235126
69.0410556583432 50.667971471509404 50.2967074775805
69.04106555449435 50.66797754697393 50.29671259411722
69.04107559101195 50.66798370862519 50.29671778322373
69.04108578199498 50.66798996512805 50.2967230521874
69.0410961498155 50.667996330209036 50.296728412577
69.04110666185413 50.66800278386958 50.29673384752131
69.04111730699364 50.66800931925795 50.29673935127859
69.04112812557656 50.66801596114277 50.29674494470649
69.04113908159701 50.66802268744648 50.296750609182936
69.0411501625239 50.66802949044967 50.296756338235085
69.04116703673488 50.66803984790709 50.29676506304257
69.04116138616897 50.668036381095824 50.29676214107005
69.04117277401286 50.668043372564455 50.296768028795654
69.04119119302436 50.66805467818783 50.296777552350775
69.04119218972784 50.668055290012724 50.29677806768599
69.04121465103772 50.66806908006209 50.29678968057025
69.0412290012758 50.668077885689016 50.29679710095226
69.04122258210899 50.668073947051944 50.29679378158747
69.0412307241213 50.668078943602666 50.296797991652454
69.08510505385485 50.706489287986784 50.31687581998827
69.0851052645333 50.70648894619407 50.31687603591598
69.08510515774873 50.70648912008221 50.316875926323604
69.08510526031162 50.70648895473259 50.31687603120476
69.08510525783338 50.706488989520565 50.31687602166534
69.08510545398693 50.70648867555111 50.316876221737374
69.0851056457735 50.70648836269632 50.31687641869178
69.08510547248947 50.70648864613868 50.31687624056328
69.08510549893819 50.7064886279404 50.316876262049455
69.0851056356025 50.70648841963613 50.31687639906771
69.08510585788461 50.706488060979126 50.31687662644211
69.08510574333239 50.70648824639175 50.31687650913362
69.08510571629323 50.70648831012989 50.31687647690012
69.08510584060244 50.706488124486725 50.316876600660095
69.08510603702723 50.70648781245607 50.31687680046895
69.08510592027045 50.70648800103521 50.31687668099424
69.08510626672071 50.706487441321 50.31687703554274
69.0851058908809 50.706488069305074 50.31687664618832
69.08510612546206 50.706487690789146 50.31687688614677
69.08510633659178 50.70648735364004 50.31687710131403
69.08510619356913 50.70648758806378 50.316876954183684
69.08510627195 50.706487447042576 50.31687703767069
68.77463721320476 50.15581086819083 50.08360560660202
68.77463825699772 50.15582333457732 50.083607086983264
68.77463931883466 50.155836022722134 50.08360859326527
68.80048057082291 50.22714863145844 50.10843746582873
68.89456072291985 50.49309551079378 50.19321014093511
68.89456741857872 50.49310957760945 50.19321679533451
68.89457423843638 50.4931239008791 50.193223571557894
68.8945795939508 50.49313530737375 50.19322894989732
68.9216336865809 50.53186431168815 50.21327273062992
68.92163690169053 50.531869360003554 50.21327530109809
68.92165271560394 50.53189423490074 50.21328796056314
68.92166356537847 50.53191089807566 50.21329649716951
69.00376045814053 50.625793832883716 50.26981527987996
69.04104604717614 50.66796557103025 50.29670250838082
69.04105579034082 50.66797155253465 50.29670754582879
69.04106568466779 50.667977626879264 50.296712661422376
69.04107571927753 50.66798378735922 50.296717849542475
69.04108590826444 50.6679900426366 50.296723117474116
69.04109627399637 50.66799640643532 50.296728476783876
69.0411067838563 50.668002858758285 50.29673391060176
69.04111744364675 50.66800940313955 50.29673942193428
69.04112825953885 50.668016043372376 50.29674501397097
69.04113921276566 50.66802276796094 50.29675067700306
69.04115030667913 50.66802957893519 50.29675641276994
69.04116152696177 50.66803646751701 50.29676221386649
69.04117292644392 50.668043466128886 50.296768107609715
69.04119148299907 50.66805485602572 50.29677770231628
69.04119331157253 50.668055978487104 50.29677864776256
69.04121493694213 50.66806925529778 50.29678982845489
69.04122317715856 50.66807431230066 50.296794089256615
69.04123344721296 50.66808061538465 50.296799399549485
69.08510508568726 50.706489237752365 50.31687585229336
69.08510514724867 50.70648913929543 50.31687591506631
69.08510517920914 50.70648910749475 50.316875943261806
69.08510529497731 50.70648893191036 50.316876059131886
69.08510537449692 50.706488807721584 50.31687613953643
69.08510547283515 50.7064886472844 50.31687624052934
69.08510537022231 50.70648881140279 50.31687613589552
69.08510542075493 50.70648874225336 50.31687618476804
69.08510550944304 50.70648861623229 50.31687627160251
69.08510547490587 50.706488655891576 50.31687623992932
69.08510566125109 50.70648837875994 50.31687642518823
69.08510575688823 50.70648822527056 50.31687652282905
69.08510571774468 50.70648830784913 50.316876478370894
69.08510586378166 50.706488084021466 50.316876625067636
69.08510592099259 50.706487999895145 50.31687668172721
69.0851058913999 50.70648806847839 50.31687664671678
69.08510612584477 50.706487690180964 50.31687688653612
