ply
format ascii 1.0
element vertex 542
property float x
property float y
property float z
end_header
44.69717102025837 36.86843797538475 42.3341158668519
44.642515639147256 36.900132141192046 42.29182423245133
44.68958204739101 36.92310963841473 42.30536348655756
44.649656722605066 36.90581901645932 42.292970809207524
44.71038771663943 36.90881321314062 42.3451418839664
44.7140749223024 36.905861024352774 42.34901904526264
44.72894564300939 36.8838464801225 42.36226572975582
44.71475819431856 36.905315597343616 42.34975135410965
44.68933509555793 36.92331653862924 42.30515951713708
44.709698240594506 36.909345747344105 42.34425235452949
44.7139154522474 36.90599172191008 42.34887681320724
44.5170274247336 36.84943454135991 42.33403174965731
44.593773128589866 36.91980749813595 42.300209106155606
44.6360289028096 36.90039052887813 42.288291840783245
44.64396498155429 36.90382258681002 42.2908922485029
44.728724770359065 36.88411811308429 42.361798353795976
44.753798125933 36.91441998855747 42.365874771804485
44.81662819045536 36.94062335140811 42.40365579247687
44.82034827209179 36.94463076009027 42.40548618780594
44.817256004222656 36.94117252056984 42.403887230026875
44.43409560671337 36.9663179440967 42.350002697377214
44.395809197055335 36.967389100803345 42.34869975105599
44.47061807789884 36.922093053149155 42.35141935017086
44.556938287888144 36.97621820426161 42.32564665232442
44.5879875618434 37.00111164950364 42.278078854005294
44.62936776395204 36.97877366174624 42.2624811545454
44.64082330148458 36.96831779722385 42.2708866797374
44.671252215654164 36.94052761736768 42.309105853097435
44.707089618278914 36.91146390080364 42.34175859420782
44.711651135933 36.90795997115481 42.347806271494676
44.75039513601256 36.91543332462023 42.362764772160915
44.778566634304156 36.921023158224116 42.36675024771409
44.82142682122936 36.9463841192855 42.40637728600763
44.82334371563278 36.948199898501315 42.40716863237475
44.43540555275789 36.967922148616275 42.35055672010729
44.50071303538405 36.976670651180754 42.36583362235642
44.441579723947726 36.96895545464288 42.35377825702123
44.58569900711022 37.00141623962877 42.284871398356756
44.587563126390855 37.00202460258179 42.278741599793086
44.59013198285332 37.002164867132414 42.270781014816556
44.631128983937515 36.9773356293321 42.26403843558727
44.657209232218285 36.969760748286866 42.26394920841867
44.6781250336458 36.955072947752946 42.30792131038697
44.73177656116507 36.95410795318604 42.32189564342925
44.735665593283606 36.956221173801836 42.32356963010653
44.821219664451505 36.947681485531135 42.40720184862251
44.8211516650086 36.94768479952097 42.40721504392732
44.82374393340828 36.94913488777224 42.4076725655256
44.824790029967474 36.94984472026353 42.407933152330045
44.49982759192889 36.97734496669962 42.3653644383517
44.542074612921525 37.00157273061043 42.321522623911875
44.58661951106212 37.00436323674835 42.27999968915292
44.54416442302436 37.00199305637948 42.32026939512322
44.589119809005744 37.00557648144203 42.27150102670886
44.61196959880425 37.01801106391473 42.2338130171938
44.664583967396055 37.00900511887464 42.29113109433371
44.705248360452515 37.025772652425694 42.31553750886192
44.71765691299159 37.037804725562346 42.31093179985325
44.71781967133731 37.03924926001338 42.310982973982675
44.754192304477954 36.99865888940721 42.3424325302979
44.58630162696044 37.004873232419854 42.28061718243486
44.58814463086151 37.006388506542876 42.27391985008583
44.633188117803805 37.06104575857464 42.31629464247488
44.66316569419494 37.08624224993118 42.34317845102852
44.70427416074875 37.09047785298772 42.32296156328748
44.39402340568944 36.96682365394836 42.34736929422114
44.320455124119036 36.966676650230546 42.322939953175876
44.37151672776843 36.96051587288023 42.3248633738082
44.39633164330823 36.967846127603295 42.3470451704726
44.4366398640734 36.96918705798248 42.35110181456077
44.82144789255576 36.947979760711746 42.4073460843236
44.82827558944215 36.95411696838613 42.40996346526802
44.852396486276795 36.97761963480126 42.44095681665935
44.256388140208465 37.02408849946898 42.30230015340303
44.29982516677907 37.00331303444873 42.30673573404747
44.3916236146207 36.966071743004704 42.34552566729181
44.41042611722064 37.002804876412306 42.34296163195167
44.42447548426014 37.00670511978005 42.348079975058596
44.49914404531427 36.9782199629078 42.36473559712385
44.542116291066414 37.00160274924104 42.321440300162735
44.71829530723335 37.04028075027472 42.31079286321594
44.810381423378274 37.02613251252403 42.37357233955636
44.823631756032015 37.013825727637695 42.38926462929259
44.83022406463611 37.010804412454995 42.39333370078314
44.85357210785796 36.97827122758757 42.439856710625655
44.25816410508225 37.02957292948774 42.30461622067011
44.2341358168863 37.03703820183406 42.30697978072159
44.259597720285406 37.032028432719585 42.30548322739189
44.288982031756866 37.01412344177493 42.30694299818822
44.3953936445775 37.059629349455754 42.33654343453266
44.43685240639991 37.06084648180823 42.3654860371653
44.43788529654744 37.057204998589725 42.365063978448546
44.43853398382443 37.05462111051276 42.36477385522798
44.541742167886746 37.00215767542512 42.319994842695436
44.59790163150258 37.027151604200924 42.309428348187815
44.62871447857124 37.057411056672336 42.30962976699318
44.63688795509023 37.06408392239729 42.32177303451907
44.663293840750065 37.08637493404113 42.343129209315244
44.71320016544283 37.101620066933876 42.31821810028603
44.71891809044907 37.10002785639571 42.31475576218101
44.80706620953288 37.029868053291594 42.368855022854035
44.82105008575617 37.01686470692307 42.385434427661835
44.8125903445234 37.02479809190013 42.375323939413214
44.828269128909334 37.01271937670359 42.39089887500104
44.82880490078895 37.01244847113722 42.391260138553946
44.246894864732624 37.04047211825114 42.3075303019674
44.25422316804659 37.066151608095566 42.31409739488423
44.25416085803073 37.06652853636276 42.31421649782303
44.30911313170203 37.06659206866972 42.313483851924886
44.419962223527534 37.10757547349035 42.35343455027321
44.420896933182256 37.10622319021734 42.35478858299848
44.42301186649594 37.10360300978229 42.35735063703827
44.42316474743809 37.10347339561008 42.35746760505124
44.52914481607469 37.03687317621236 42.325584552572685
44.631855215897836 37.05998333024652 42.31428739080906
44.65952552839694 37.086371718118876 42.342801020023124
44.659075806200036 37.0859725639873 42.34275044418135
44.67491439119899 37.101877467310686 42.33804126706154
44.70793758336293 37.10304938083464 42.321524021588345
44.71767025304451 37.10036797604981 42.31553565447274
44.7175009796273 37.1004145581026 42.315639983410115
44.806298957304975 37.030827048558685 42.36764942237982
44.2533666659678 37.06823380768754 42.31457226922177
44.321372907283845 37.125361997315416 42.32400055901935
44.417113014891385 37.11215387101921 42.348786369821035
44.37444223100164 37.137333662355765 42.340766755708174
44.410166869868114 37.12334782973409 42.33741773973879
44.420318724369494 37.1076922868523 42.353229061242004
44.42223983004894 37.104853362886274 42.35607999579043
44.42241755184709 37.104499719982854 42.35644760420956
44.65195199205155 37.10657840716063 42.32323883605466
44.661015404945026 37.08843554607584 42.34219661556047
44.673509088935646 37.10138562588547 42.33804763628373
44.67990683940037 37.10754552473326 42.33684699940736
44.676654391495134 37.10511721855006 42.33724722668224
44.703314682773595 37.104321839176045 42.32437231175342
44.41682953190041 37.11263997530503 42.34828900415453
44.408057441833385 37.136562655473135 42.32879381319879
44.41931359589456 37.10912783221622 42.35179426384302
44.421434596647295 37.105961341636686 42.354978558388424
44.42203870435558 37.105025989780486 42.35592370776488
44.651863640024004 37.109399011059665 42.321104440662495
44.6605742716557 37.12021543377941 42.318180457186436
44.673897604472906 37.10172584270413 42.33798484215917
44.50161894150534 37.92462805877245 41.99573927094624
44.5041431553872 37.925852052187075 41.99611802387314
44.503810769115 37.92568200521778 41.996078294283706
44.5304250389987 37.928389942951455 41.99434810762193
44.530401570286266 37.92837635038869 41.99434473478659
44.53121374789784 37.92883828395017 41.994431786487304
44.53212826406941 37.92935945794121 41.99453343433773
44.53382601304762 37.93032763050493 41.99472438813334
44.53425805673307 37.93057329956857 41.99477048623395
44.82228890176279 37.01568719196316 42.38693398850625
44.82927015625327 37.011924571966105 42.39192174890848
44.824626318118284 37.01409704593671 42.38900213702952
44.8256794858121 37.0138335571876 42.38938802355424
44.23406455999405 37.078876876844234 42.31798876400751
44.71743383892803 37.10043375353218 42.315678988138444
44.75305240651218 37.06107889094339 42.3485965260989
44.8180673860769 37.02027764686171 42.38112749553149
44.819119891534086 37.01968272730633 42.381912796698586
44.21370827462687 37.16492513407561 42.33067955891613
44.213962907490895 37.16469231101 42.33087540785462
44.256741686628715 37.13802016615344 42.32692401419065
44.321813091182996 37.12913379890503 42.32445701151488
44.678672005535454 37.1063035150911 42.33709459811404
44.70047372966036 37.10514353926335 42.32599142190424
44.70774854740364 37.1031412857631 42.32150872741693
44.71060951186179 37.102352265526555 42.31975109050056
44.81646085249768 37.02196519755604 42.378989360291904
44.71117039921354 37.10219852816238 42.3194033734245
44.8171704595874 37.02140720205376 42.37970791576026
44.212607267361285 37.165932549539484 42.3298316437283
44.21345909021699 37.16515702471534 42.330481733354866
44.234989134878745 37.170148396091406 42.33184204652612
44.2567649388111 37.185306267759486 42.32885075433482
44.30714605283478 37.1763590703352 42.326855571528995
44.37265916120491 37.167127437960815 42.315838717481775
44.408522523492664 37.141300916287534 42.32628490815993
44.41355654492089 37.139938832998325 42.32752614887859
44.42129401796714 37.10614607846818 42.35479619167627
44.421901173359984 37.105210882455175 42.35574054616267
44.65991797268315 37.12293969727616 42.315781769867115
44.66042122989154 37.12290845910217 42.31612629844169
44.67278874309315 37.128420867042195 42.31779288521662
44.68828752539481 37.11715374361137 42.322109669192415
44.68898815932354 37.11781069336872 42.320661268322496
44.70610331848021 37.10361468173099 42.32245450259066
44.70552997921652 37.10377604426852 42.32279601952875
44.70973973022777 37.10259818494455 42.32026546899516
44.21246741967766 37.16606124515059 42.32972282269324
44.21260341865019 37.16594203488369 42.32981959674258
44.25059915223061 37.18621951540909 42.32774167566953
44.25903321044069 37.18737373296515 42.32820966472748
44.291383398978994 37.20359375956804 42.31071280595985
44.389403770043245 37.18700718311258 42.29396179376814
44.39180964333368 37.184154390524284 42.295692180618396
44.41610493824253 37.17888296811278 42.28905756724323
44.417937895558346 37.17997559990259 42.28693881074699
44.41884312471997 37.18055455456522 42.28586633864949
44.66217457814302 37.1883010614733 42.29679709798659
44.662372618682404 37.18695844080517 42.29730267985579
44.67145001219397 37.130999409548906 42.31514000623239
44.6729304206379 37.128330469245185 42.31784705396787
44.6722923234704 37.129484454551644 42.31667577391605
44.68909191461069 37.11796402932099 42.32035848932234
44.220372384090425 37.179957458648246 42.32461997176967
44.220086844594476 37.17970621015988 42.3246694791268
44.2220637671267 37.18143355593593 42.324330404776525
44.24812396986782 37.189082423945486 42.32522802640905
44.25422688906192 37.18692771430147 42.32785054879768
44.29438693867445 37.205644787303676 42.30763554891656
44.35049362493171 37.206963490735404 42.29261821062477
44.39153768840313 37.213897157298675 42.268788639517766
44.41985740666283 37.20755552691223 42.26130518611373
44.42101420616063 37.20781444550125 42.2602072797309
44.467515635759014 37.21495341263252 42.247314612322334
44.65959556487572 37.25003048329013 42.28209096730862
44.6596392061204 37.25040045340065 42.282124962209934
44.65971472176201 37.25100717834916 42.28218083416813
44.65931703204475 37.24770593114741 42.281877239933415
44.22094321026838 37.18045264535267 42.324523149852965
44.22225689909784 37.181599069587634 42.32429826073887
44.22138003655475 37.18083264125341 42.3244487373794
44.24617324652706 37.189191115276316 42.32501565502366
44.28965928348812 37.20501292693925 42.309187206341704
44.296168116200256 37.206847096052314 42.30582841063822
44.34983454892162 37.20734034472363 42.292421599055515
44.390853808611205 37.21469036066913 42.26790995718436
44.42028192275388 37.20784637726565 42.26052922837863
44.42100973995147 37.20796165141583 42.25992919413492
44.593228629507 37.26118115149138 42.27270787763815
44.659847392713026 37.252033627493496 42.2822755103909
44.5944109627184 37.2616108116794 42.27292105123763
44.222659459701966 37.233199875173966 42.29588460900145
44.198413452074334 37.22814589535767 42.29405621428726
44.24567598098356 37.18880111334309 42.32508717432094
44.292414291179824 37.206081793461756 42.30739465349146
44.296722032250884 37.20729471130096 42.30517295725399
44.37345701410892 37.21320401452624 42.267715716105464
44.39066200452494 37.2150469987067 42.267426774598896
44.39162511483764 37.21470957166298 42.267288568470775
44.42102398789951 37.208067662911255 42.25971979970709
44.5936362828363 37.26133067051874 42.27278132507602
44.421052092827836 37.208070523931355 42.25969965867306
44.220370048144765 37.23543754312385 42.2941409902172
44.22261802114821 37.23348416743167 42.29566394352324
44.219804213022144 37.2360420485584 42.29367013327183
44.29383531154329 37.20659929640045 42.306512933929895
44.29676760407826 37.20742851137123 42.304996081969975
44.37334303794885 37.21314729869662 42.267512688260034
44.39066534713561 37.21519473919514 42.267163545114265
44.391368732929934 37.21493708887352 42.26708240343228
44.42102801330771 37.20808062596426 42.25969300156696
44.42093165311638 37.208132219909544 42.25964508671959
44.19987888976502 37.323022729666775 42.24814566403095
44.199252272962156 37.322865100620355 42.248024894777
44.270474597888814 37.296417724549066 42.25919868121113
44.29986673792252 37.33063350041937 42.21180782217693
44.36186641679694 37.25017845092973 42.24127773732974
44.41402552572216 37.28667598380117 42.240560160172734
44.416073205268304 37.29013978518192 42.23884140760452
44.43479289416764 37.28815213498111 42.23095856386927
44.203601743475396 37.41029229804072 42.19715161929173
44.20348105495454 37.410110832814524 42.19723052045326
44.24313354173945 37.41671867403562 42.175911923000086
44.261929886535285 37.41415302468398 42.1757980480571
44.34108258585154 37.40014711953336 42.177347016981386
44.39331644832414 37.332487736347126 42.20040582308911
44.42282187274034 37.30330732486135 42.223183211449026
44.58718922962262 37.366183095332104 42.21184480221574
44.204085037336206 37.41103505485856 42.19684120319528
44.214797959722475 37.46328090061438 42.171241182898
44.21426081216563 37.46326634590727 42.17128799864787
44.26035493462543 37.41674490670733 42.17583594793465
44.316092829674744 37.448603855444006 42.17475000002418
44.32630244180892 37.447756138412615 42.17417644080167
44.45342921008456 37.41592017611653 42.13934904309599
44.57308534402502 37.409263912774605 42.169226505187126
44.587012468927966 37.366349536596154 42.21167633547
44.57418036011603 37.40893582555927 42.169274929242064
44.214612359730765 37.463591341181655 42.170881161863825
44.2141506380992 37.46358959692175 42.170908564515045
44.26757320217193 37.455129992853045 42.15917165212611
44.315366412819984 37.44877421275012 42.17467322156093
44.366876385207064 37.45084627407874 42.14844962534139
44.37231118889508 37.44998382420658 42.148852288087085
44.572938530435756 37.40972207181427 42.16895742236837
44.57491636758109 37.409161795059816 42.16902439533351
44.21436490450993 37.46390421909597 42.170521626678834
44.21392606214328 37.46391509478218 42.17053272526847
44.26810421912759 37.4552202736606 42.15882251730328
44.31481969946183 37.44890944723957 42.1746079346585
44.365395704671386 37.451078755394775 42.14828032635665
44.42707812212122 37.494045880194456 42.12213582344235
44.54244288539704 37.4802997017143 42.133860869520234
44.57777870411802 37.432798274513374 42.154344155224116
44.20618955436967 37.509076511151946 42.16947780449062
44.205379575929854 37.510286261122275 42.169383258629146
44.20708419398816 37.50777254510086 42.16956716226596
44.314471012192264 37.449001586671386 42.17456000320238
44.380026756059245 37.5047712891137 42.135718845614065
44.441021040515096 37.54918244703873 42.10857937032655
44.48372203495707 37.53989847485773 42.1094392529008
44.52207477961233 37.53145761751589 42.10906946423699
44.15471050269083 37.64128131386369 42.14168650674573
44.18078970095769 37.57295428725676 42.159243918088144
44.1546860065322 37.641275082388624 42.1416937854134
44.192877355703786 37.58187285080823 42.14811500508998
44.19387904683923 37.580224814104895 42.148267506959954
44.277618203279474 37.57853187154578 42.123456051172695
44.43902635379723 37.55436539280363 42.1059707799926
44.439631873790546 37.55298980096281 42.106655750807676
44.48358727438487 37.543195251583874 42.107669564761146
44.48387199081519 37.543001526982884 42.107746516734245
44.15474092152025 37.641452539299856 42.1416174723216
44.154598893319864 37.641424984925386 42.141656526846546
44.15493356363824 37.64149933868322 42.14156104115618
44.15506417506884 37.64154042416175 42.14151934756803
44.306176129720896 37.641200893615135 42.09033394125254
44.43033663342079 37.62511440780288 42.073081906534654
44.430589924113704 37.62523228475868 42.07304508015304
44.474545096616566 37.616384893440284 42.0735746929793
44.47470923537715 37.616318098457576 42.07358560266219
44.15453845833336 37.64159024132252 42.141608197250385
44.15452498136488 37.64150167228408 42.14164344632048
44.154435959672966 37.64157747761369 42.14163376856393
44.15475906062023 37.64162012755618 42.14155227503784
44.15493938954815 37.64164708035048 42.14150563629574
44.15505953935353 37.64166494426911 42.141474596349425
44.305730735722925 37.64134955062883 42.090373725987
44.43046615629991 37.625237335701776 42.07305089690519
44.43070049439132 37.62534650276221 42.07301680463428
44.47431542684156 37.616607725094894 42.073531890707635
44.47442650896549 37.61656066963589 42.0735396680099
44.15456123468778 37.641748157013 42.141545604579214
44.15476338926168 37.641763626686355 42.14149873220246
44.1549270271456 37.64177215951862 42.14146225447176
44.15503753050068 37.64177105104938 42.14144014270546
44.305368980572695 37.64147893369851 42.090397581086314
44.430582493441264 37.625345047524604 42.07302356929556
44.43079516285915 37.625444256070644 42.07299260303791
44.47388715927384 37.63260753817692 42.06726948357516
44.474022221728106 37.63262552082465 42.067249064036545
44.15490337233663 37.6418691402294 42.14143148529189
44.155005648492406 37.64185569531025 42.141415577258385
44.3051268196898 37.641583228925924 42.09039623921187
44.398570195894564 37.64043597141378 42.068281837350156
44.43087382130015 37.625525185955304 42.072972551038575
44.47399991356899 37.632678249871084 42.06724385059369
44.50520359442333 37.62545720815889 42.068106917363195
44.21681907803443 37.654190894147845 42.112192000965585
44.3240166180399 37.65229975778388 42.08724409787221
44.39849099809672 37.640532654445046 42.0682468772067
44.4362910485673 37.71752069175022 42.04870600228283
44.479223642663115 37.7243718775925 42.0430681366046
44.47962194548103 37.72356366062546 42.04322903330609
44.505210148048164 37.62547327852009 42.06809943912211
44.50544097062783 37.6254212700117 42.06808147022472
44.37186795006157 37.827474395064954 42.0174783772075
44.4171098359065 37.73428889287112 42.04273381907251
44.44983769262113 37.81525217898104 42.01383808910083
44.50704533649361 37.839014163402396 42.02723614445828
44.5086799684806 37.840826538884684 42.02710570595048
44.533867887731134 37.83866617854242 42.02449569884038
44.53463514950498 37.75637480339081 42.04638358476374
44.535034287507486 37.83943655438413 42.02455289292124
44.53572976875091 37.75873775270672 42.04600588685837
44.53558169570853 37.83981757661199 42.0245763033004
44.53607675567899 37.75949539472397 42.04588527394812
44.40511314915594 37.910389385531815 41.98801581396005
44.40613869512654 37.91007178770636 41.98802294041584
44.50323401762136 37.925389543193916 41.99600638251524
44.52954504241509 37.92787950166118 41.99421894975063
44.53095355801143 37.928675356288615 41.9943515037835
44.53227650375548 37.92942494057452 41.99448329580064
44.53243272893394 37.92951341136166 41.994498694938464
44.53198138858396 37.929274597137024 41.99451304915945
44.53305590147826 37.9298780015158 41.99460109677046
44.53312367889372 37.92991647285915 41.9946080889394
44.81677362327283 37.02161877732404 42.37942717254225
44.75124349273309 37.06267114030142 42.34772105593679
44.70595205075218 37.10365817766403 42.322541558204335
44.70797733149937 37.10309454329604 42.32131413138789
44.70815538973812 37.10304508841925 42.32120589281328
44.709535076893644 37.102656607863146 42.32038464841946
44.67267695404566 37.12880180575654 42.31736571899327
44.689455526841876 37.11848595855501 42.31932171471996
44.68959776673472 37.11862134591154 42.31902449053323
44.707005887076356 37.10336969745083 42.32188700977266
44.70591518623895 37.10367782918469 42.322532862447495
44.70630290146431 37.103565920378806 42.32231113123243
44.21257814879713 37.165961971189446 42.32980498728891
44.65977736037436 37.25150239454207 42.28222646867829
44.65994989576106 37.25276588773646 42.282343295877254
44.66837463103616 37.23557754145408 42.30014922055957
44.668714549904394 37.231714959302955 42.30126068582061
44.68972603059007 37.118803890715874 42.318661234819785
44.67172036637476 37.228662351892254 42.30244400201734
44.689793323962526 37.11888180152509 42.31849878770907
44.18627507635802 37.216218679929256 42.296570514181894
44.221162528717755 37.180642130986016 42.324486183500426
44.660140062628464 37.25431708902725 42.282486052337404
44.66038953425779 37.25627694387129 42.28266670325443
44.66055003546335 37.25740151197756 42.282770900587714
44.66050129618297 37.25681852973138 42.282717955630574
44.66807176330609 37.23990832390251 42.29893936912704
44.66817669964739 37.23867335805181 42.299292994070726
44.19435542853872 37.232354833805026 42.29077301121645
44.19649314335474 37.23008694489009 42.29252902686774
44.59768110431351 37.26281836184487 42.273509929668876
44.635251609206094 37.27390876743642 42.26481757137399
44.660669128516545 37.25832273343442 42.28285587167778
44.66079474891438 37.25916950148901 42.28293447754915
44.66072334073673 37.25846679117923 42.28287026562755
44.66053582673115 37.25692662115696 42.28272856480266
44.6606956020216 37.25819395294077 42.28284533393156
44.1667858389017 37.27225769713645 42.25164973598176
44.169079895686835 37.270300723425855 42.253706858594825
44.21893332472859 37.23684137942148 42.29304710199669
44.42104596675634 37.20813831384171 42.259573724369496
44.63213549513265 37.27250478779632 42.26258333902558
44.655458490958104 37.30727005730392 42.25937399916535
44.65599236111744 37.306100785169406 42.260918286384324
44.65634659369985 37.305352742604114 42.261921028148706
44.66078306856818 37.25889841160439 42.28291019933499
44.65644287951443 37.305177437952715 42.262171483183835
44.15874836639078 37.346145953048406 42.21390777839045
44.16008932810627 37.348437128700354 42.21355140979533
44.19814799180087 37.32252503677781 42.247841856102994
44.600590289820886 37.338207468615636 42.24404132851536
44.60729556690357 37.33282625267296 42.24840913298003
44.654816280603654 37.30880491514745 42.25741512227807
44.65523298146137 37.30789529069605 42.258618095761896
44.65555477020922 37.307201303379 42.259540401010284
44.65570462270026 37.30689083456612 42.25995987909904
44.160928370016094 37.34995700370096 42.21307226284982
44.17365785283975 37.40756329367228 42.19671537106864
44.201673781074916 37.407345798206656 42.19839562543575
44.587768969843175 37.36578594961435 42.212137716937704
44.60236027195892 37.33681437553787 42.24518767724568
44.65425634436618 37.3101247941447 42.25572167052671
44.654580657447966 37.30941611228606 42.25665850756621
44.65487344483313 37.308774499848525 42.257505712387655
44.67880059017088 37.313630349631595 42.25546735474485
44.17378175781168 37.410490197534955 42.19515966418223
44.174693970762306 37.41166534767059 42.194916917530904
44.213323086967215 37.463393781231154 42.17118746067541
44.2140802337832 37.463277625569475 42.171284451287896
44.590049922447065 37.36441536184737 42.21295513290041
44.594986410386184 37.36099703684893 42.21551323362736
44.654083898516845 37.310564737870905 42.255173742337035
44.65434486002843 37.309986752306614 42.25593368064804
44.67974166585161 37.31534704261975 42.25351474152797
44.67930950851142 37.314558538179654 42.254412127905425
44.67991185993253 37.315655986789835 42.25316796604558
44.18380746402122 37.46709982204622 42.16740048035773
44.18424899342949 37.46676580018764 42.1677912984327
44.213187481270616 37.46370619988964 42.17082233888647
44.213914620115894 37.46360452808132 42.17090370327303
44.57616136165923 37.408803831478664 42.16906990359743
44.579309635032715 37.40788539985664 42.16919337219007
44.64243970898552 37.360189814747685 42.209042042810125
44.65397247544178 37.31083553048588 42.254830332276725
44.68041213356187 37.31657090515544 42.25212023026401
44.680550112335624 37.31682137571433 42.25183907308929
44.17598199968584 37.513605370954465 42.16653020264612
44.17955608822342 37.51326708840638 42.16678668535923
44.20587913417606 37.5082932823029 42.17002457786873
44.21371665580206 37.4639299670248 42.170526474798145
44.578499357473206 37.43279889681577 42.15424467888649
44.58129081337965 37.43280205809785 42.15385922911598
44.63286640662469 37.40865653012993 42.16167112316087
44.644395747595894 37.3861804617233 42.19279281333459
44.6737277945303 37.367757497387345 42.20523159725583
44.67392887923657 37.367655433115296 42.20527726900639
44.680832705399695 37.31733716534292 42.25125152222359
44.68075087008017 37.31718854042536 42.2514185719597
44.165892052463136 37.57294682572788 42.162254266756186
44.18124329293083 37.570358649683925 42.16001854770012
44.20514838979103 37.51063891003237 42.169352832201895
44.54446828035944 37.48267485630241 42.13231865267243
44.58150903165063 37.4328046905527 42.153828692126886
44.58361418413115 37.4328081669679 42.15353782303566
44.632882477540015 37.408917740185515 42.16151010210582
44.65958171133332 37.414190680255764 42.159102730843394
44.65985726335151 37.41400419253494 42.159226687588344
44.15425802807254 37.64120271100079 42.14180755810167
44.154483287951884 37.64123254738351 42.141750705051685
44.5231902571398 37.534253598521516 42.10741358291776
44.52346759236136 37.53482877528816 42.10706175983294
44.607747504233295 37.482627926904065 42.12301501228275
44.63134580939377 37.44250804562124 42.13438495841919
44.659415984884774 37.414306856258385 42.15902566478432
44.659038896829166 37.414564961227526 42.158854216686045
44.6591589656762 37.41448043962866 42.15891027147588
44.15427957473906 37.641382472728026 42.14173719904687
44.15451069475776 37.64141053155544 42.1416798041286
44.51490765427528 37.60697115862253 42.07343321084995
44.53919264375777 37.603192388879556 42.07086703654015
44.53924458167754 37.6031376233945 42.07087778529782
44.60746650305509 37.48321275932025 42.12273608728486
44.607656203798946 37.482845508115005 42.12291093070549
44.50559515596195 37.62502008017333 42.06821498720808
44.53913136478779 37.60339673404941 42.07079867924534
44.5391850911272 37.60332590587603 42.070815446902465
44.53922872424896 37.6032734921229 42.07082702909323
44.53924781765585 37.60325368808333 42.07083084952461
44.505405135557915 37.62524180629222 42.0681587327391
44.50579793071634 37.62503628539774 42.06817462313061
44.53913344677062 37.60349125453 42.07076057376593
44.53917701465649 37.603432268425436 42.070774788613505
44.539184630268224 37.60342371966974 42.0707765713066
44.50523967814061 37.625438227529685 42.068108417093
44.50562234012426 37.62523573131401 42.06812480187203
44.53908647537484 37.603644917071 42.070709360736956
44.53915356075076 37.60350452304427 42.07075099888533
44.53912455439482 37.60358671664549 42.070724432688856
44.53913491541231 37.60353321266693 42.07074354247631
44.50546935726654 37.62540634942209 42.06808264557732
44.534519911367994 37.755355677229375 42.04650261517368
44.534979911363855 37.756354373934286 42.046343306177775
44.67809848949571 37.168097597978495 42.32030860548207
44.67785712768412 37.17095485848695 42.31951614984354
44.67102867726223 37.23416331000011 42.30085539752949
44.66062388119437 37.2575915792482 42.28278996381212
44.660491999405295 37.256529773535846 42.28269219302885
44.660436705997284 37.25612324134416 42.282654610425396
44.65643967520647 37.30518505227745 42.2621617439553
44.677160129805884 37.31064253357076 42.258851536677064
44.677209748388236 37.31073296109715 42.258748942892645
44.655707059897935 37.30688557752208 42.259966865222175
44.67814958785105 37.312443951015496 42.25681330501014
44.67817290250824 37.31248644068863 42.256765099290035
44.67881183106732 37.31365078559512 42.255444321658175
44.67859779309125 37.31326198575493 42.25588155129117
44.67905770914586 37.314099507289356 42.25493333898095
44.67846746678636 37.313023011797526 42.2561571238511
44.67982699975538 37.31550286852724 42.253337010046195
44.67940515449453 37.314732600060694 42.254215403841634
44.68054768165104 37.316817003775256 42.25184385703576
