ply
format ascii 1.0
element vertex 253
property float x
property float y
property float z
end_header
41.87805871080467 38.142055734018555 48.399321101475884
41.86400312987872 38.13909624361186 48.400492607109044
41.832538791192604 38.14330506001598 48.37784186137027
41.787169753303395 38.15722347037149 48.37033852054256
41.77195489932659 38.22640423616332 48.3449942918801
41.76316173581715 38.201865712701334 48.352905356208524
41.7530691643558 38.24934149480744 48.36039589253161
41.75272919177671 38.24986015713464 48.360408238168745
41.909678407892855 38.13518622533089 48.42066911706714
41.91144896393242 38.131580979463045 48.428509195329994
41.91116671473296 38.13226210202192 48.42765217449512
41.910923492274335 38.132747134528174 48.42653744033376
41.91079964115672 38.13302544883581 48.42608546993454
41.852162879334216 38.136644385139945 48.40214536962389
41.86364146222877 38.129335095179044 48.424731743504005
41.82333615123263 38.13784183913725 48.396543944605135
41.91078857382902 38.133129478953876 48.42633730867706
41.78355506928068 38.15623524775022 48.375843549629316
41.791093077460566 38.14711485496659 48.385377826846245
41.75798038185252 38.165558646964826 48.42246160856867
41.724544296167856 38.229801045343336 48.401265670312156
41.727572581566 38.26392614331708 48.40602080575411
41.7242284049287 38.233590621094464 48.404984551215286
41.725577860724606 38.26227460273242 48.41128449289591
41.741239941190656 38.304834191586956 48.40403316068753
41.728563288962505 38.28068362314344 48.4022253235276
41.743375840360784 38.30629019106301 48.40378104501187
41.7765299924504 38.33368858565049 48.41524083574854
41.911357658842846 38.1319255528755 48.42869058746642
41.88979399419898 38.12653541547826 48.43703369300743
41.8778641266542 38.12836635851198 48.43109810860615
41.91295095244697 38.12834716347702 48.4345124187524
41.91119938792085 38.13218011245141 48.42773978143305
41.91289348961849 38.128479880260464 48.43431596536839
41.80565385041429 38.15001706383858 48.459433059821265
41.8041366827161 38.15883883540337 48.481389611027524
41.7804093860499 38.16652252459326 48.48008335362291
41.87691023544089 38.128451989024654 48.43065904585096
41.91189828680509 38.130745839746695 48.430793332780404
41.95110501907995 38.16259882190073 48.460939531732656
41.95941298534 38.17086575783654 48.464049067879856
41.71371474393314 38.188394198645945 48.46262525266348
41.71655721156375 38.177248286226444 48.51809218571821
41.71523135106015 38.198326673621395 48.500727971787036
41.7241910446211 38.2303446854651 48.40259763144185
41.71613387489445 38.202041250716675 48.50068004454968
41.72326453824601 38.24447046119588 48.4834106203548
41.70069801202416 38.28318962470586 48.47193731262754
41.73947616841808 38.336571766650486 48.44883492829746
41.74049141534562 38.33661951654055 48.44924801142232
41.78976760879106 38.42740050502921 48.489185783305096
41.77761635691814 38.16931350503417 48.54306511051797
41.776603119833204 38.16886482739906 48.543537517283575
41.7740939640578 38.167757839845976 48.544687678340615
41.877152916966985 38.1284318609536 48.43076977955896
41.84293714858876 38.15540805838164 48.50623285311115
41.902172313867915 38.114086054874114 48.50391907869184
41.912878721604294 38.12854402301081 48.43437635148217
41.90367751545672 38.114834453045816 48.49837771552856
41.717340062577094 38.17565338260613 48.520679724896006
41.75073641649712 38.1696179311481 48.54035005456598
41.71760559305691 38.17275457138491 48.524642399066984
41.90444486458127 38.11536757124812 48.495283879425344
41.921942023017394 38.15455338053677 48.47077694251954
41.966271926420085 38.18926827428133 48.493201126427834
41.96337984965743 38.18792523360673 48.493637055968414
41.7086397895376 38.18065435265597 48.50857123487812
41.71673927585013 38.1736366652845 48.52293411570311
41.71154605479461 38.17800401664597 48.513897964747585
41.96908340001801 38.19424723400379 48.49552212591942
41.99509213819093 38.22577232935457 48.54025591596957
41.994590964476366 38.22552615746798 48.540882035122394
41.71359374756473 38.200337546272124 48.49958762329844
41.71033942221198 38.20750231326039 48.50326480058845
41.99531208692619 38.225802480534256 48.54023510886792
41.72390409202347 38.24484290625995 48.49689908880411
41.706882166654154 38.25945854748973 48.52186582863489
41.7049705347143 38.26098924056635 48.52277431707086
41.6788757844287 38.295236646436635 48.527513150137004
41.72587327918722 38.34980865809789 48.52884189309847
41.726189426051484 38.34982207246519 48.528761873461285
41.79444828006507 38.44470356020412 48.53848266557969
41.793981542884 38.44591754147206 48.537705383171584
41.68899986344917 38.13838856483327 48.58773156022893
41.713647013858655 38.12693177936838 48.614748644751074
41.68678791744252 38.13785484456479 48.588961611146644
41.740082058714904 38.14712513659551 48.57361173597482
41.714428982749396 38.12732945651222 48.61514360971245
41.769726494278366 38.1156002575542 48.60975928355677
41.831716756151486 38.13693361270161 48.58174138580348
41.896624718775826 38.1153765682856 48.588705304813175
41.89733424462524 38.11651247444415 48.5874300618111
41.717675789221374 38.17233602747346 48.52523492641683
41.67590325328871 38.14101620720284 48.58585379225892
41.900221058773774 38.1213890641646 48.582786007417376
41.94551474408095 38.17794711832656 48.54048248822539
41.94253650688663 38.196867327821764 48.599343145572035
41.664509576855416 38.14481928181254 48.581818943259954
41.94341259750303 38.197314734245026 48.5989617804569
41.98458814893701 38.21989620663469 48.555715557490075
41.98361782847941 38.21917849692302 48.557713975182025
41.63709733971598 38.21263504353401 48.559218307360574
41.98432512593542 38.21950421759022 48.55690109687788
41.994792329618036 38.224740307488176 48.54351556599028
41.993216994651064 38.223861793786575 48.54582513313363
41.697612311486495 38.266830898075234 48.52627213863104
41.99412154317506 38.22432300216643 48.54463995834595
41.67699094360991 38.293804965287286 48.53012909126663
41.6740918471319 38.335269946610445 48.55044477020918
41.72253359754455 38.36948837255933 48.5641516885056
41.728632015492764 38.37156308381755 48.56509234827883
41.79902408639841 38.436395550934066 48.54641850962799
41.79013106637016 38.408872375714566 48.56834601368076
41.8207183769837 38.40586054107315 48.56649213019614
41.822564454051346 38.41063670981035 48.559879016314014
41.67777726303861 38.10108496750239 48.64929822195982
41.67675801243992 38.10042918759368 48.650162486430304
41.67385520264904 38.09897718430208 48.650427281284685
41.71368873516399 38.12594609480095 48.619285727509975
41.713030847604834 38.06685552052098 48.67069243984503
41.77018871448303 38.10280252018393 48.64525746965693
41.77047017671049 38.10274166010774 48.645402660632044
41.772305631459965 38.10236445517562 48.64542288734115
41.64651515839155 38.110939320978865 48.62191798740489
41.66741135995147 38.09570391378882 48.65127944004448
41.64055063553211 38.1048939785268 48.627762680546006
41.846809434259875 38.108921571480195 48.648729649399996
41.89202948373381 38.11166854894587 48.6047554269074
41.897647636955675 38.10238538002096 48.65029092501816
41.671443815308564 38.14121960007353 48.58630862954939
41.6403464625472 38.117442915049736 48.61479364905988
41.899156546981644 38.10383992842169 48.65050555031246
41.914681397339116 38.14835393929563 48.635588402790766
41.91758382945824 38.15228067273554 48.634969537223064
41.66190795774399 38.145024872229385 48.58194669926182
41.62432854417407 38.16099029313369 48.59321177627808
41.95931128207268 38.17055690133377 48.64152332377299
41.96090381217145 38.1728459791611 48.640189270566275
41.591034141179726 38.198644220373396 48.58606738810563
41.59005871017812 38.20140038509189 48.586581507751845
41.98155726483054 38.215003015331305 48.5706035797339
41.95106209686163 38.19767658146362 48.604796381992074
41.714936538616485 38.277122577983974 48.569864608509675
41.981526582685376 38.214957715435204 48.570740484805235
42.08118723503701 38.28159746050494 48.627352890783314
42.059032839472025 38.26595817902499 48.6719518298734
41.716686109619296 38.27708493183717 48.572011445653445
41.72195163496883 38.312424700147744 48.5971274702016
41.74526583880538 38.33103366690341 48.63296947892391
41.78326621476087 38.352035946908515 48.63214423488529
41.767744100433866 38.38330644310432 48.61139830683808
41.852160916742164 38.387974608320945 48.58866171248275
41.85535822777105 38.38733383147125 48.590620543055564
41.858830685420706 38.38695660012284 48.59330833695881
41.884229014350055 38.39621649775775 48.600840799348816
41.64037545237841 38.068416192769234 48.67153827904415
41.646059166993076 38.02683073872481 48.703021169644984
41.63805412830196 38.06315914338299 48.68704772521508
41.66189438079289 38.01290326059946 48.709373840947755
41.721773336096525 38.04591642429922 48.71339047715438
41.77088083179651 38.1026516405701 48.64567216211515
41.76901184955539 38.05065397119803 48.68257600087617
41.62346176007109 38.069259738943394 48.66496492146838
41.776560568424294 38.054920821368896 48.6791091309737
41.87211142691358 38.11921869382737 48.65714677712158
41.872312254533355 38.11554589541367 48.655774267419545
41.637967173439684 38.10419354585707 48.62831406961304
41.875710408746414 38.12659976992997 48.655827878803535
41.91561326970018 38.15042206840671 48.635329796307104
41.87738963911712 38.13328049219074 48.656241801370754
41.67517635650894 38.129307736344174 48.62108909767844
41.92089103446541 38.18958614816421 48.63005055623089
41.91937302054357 38.189619855787655 48.6301326992335
41.960470414069974 38.173598321000156 48.63963277621684
41.676263506045096 38.128847134315684 48.622016327603134
41.664175672881306 38.145395267537516 48.63172066426344
41.921268435763906 38.190689957612314 48.629796314872934
41.94370458089546 38.19664204034869 48.62722618294187
41.931261687188425 38.196239962633356 48.6280421113861
41.72011379905815 38.27667257883728 48.57546893265527
41.733962103902584 38.18292053604691 48.64289520613299
41.77578211891081 38.297360941574794 48.6737198608282
41.927659143309356 38.198530917080404 48.627772235337495
41.925553446849996 38.198816314738366 48.62783600891711
42.051104360455 38.25941487030025 48.66779432052776
41.7506353288437 38.32260804352261 48.63706508501017
41.77608317321784 38.29420474015485 48.66923618988856
41.78527809887187 38.30226080733663 48.66986917896449
41.960283516201734 38.32709757453492 48.66061230432578
41.958010436400244 38.32872876111874 48.65953764648003
42.11093100144343 38.31017684831747 48.69086525187446
41.78283112629391 38.352113350509505 48.63303838043968
41.78633632874635 38.30331062676067 48.67152850215531
41.84725936780935 38.362039461691694 48.63469439554278
41.828899592715196 38.31567177980026 48.66024322063459
41.87081164037237 38.35885514648872 48.62902077033118
41.866970680364616 38.35270161745889 48.63144259653345
41.93510077454551 38.39544082972373 48.63576471307312
41.920946932982034 38.383386702053585 48.636818099145714
41.949965849874765 38.39616102494397 48.64301160485599
41.88094952436659 38.38927123402485 48.61872452405024
41.90132841263488 38.38706627110752 48.59605275220635
41.64256950839044 38.02430525461173 48.71046109114239
41.69209155979518 38.022158405284095 48.73303644546421
41.65110092714043 38.018113039212885 48.71181163143559
41.72168269587678 38.05057911000864 48.71400633708362
41.69414306126603 38.02350961725041 48.73307220583885
41.61589910961978 38.04119148334966 48.72441322868935
41.61469028834702 38.04810952048107 48.71627286229351
41.721294229377186 38.06486317662651 48.715109111875066
41.76615181534528 38.0961835856596 48.687863739044644
41.720841341808054 38.0720783687826 48.713850123228454
41.87185730084309 38.120621724321374 48.65785179910978
41.68200641225475 38.091520204984874 48.68848856101939
41.75495613192932 38.12894609445069 48.71075506352636
41.849758961161896 38.153561605957684 48.67427724176814
41.75972597082213 38.13258528504481 48.71087772324796
41.87611160292563 38.13270129217595 48.657359473404526
41.68063087143384 38.10201351550161 48.65167421102559
41.68456234422842 38.0924794985951 48.689311408106605
41.71308762947113 38.10800069633398 48.67904840579264
41.8480073132294 38.191366524044604 48.68801518518956
41.80976834120024 38.17870733856672 48.69232588864837
41.86534567647335 38.18966464338228 48.667247977432616
41.72887895162024 38.169713755021 48.644377110125575
41.71307258592326 38.107997996987606 48.67899595988362
41.812933013678105 38.22738351334437 48.670568970738216
41.756836694048324 38.13161210733145 48.708065026509715
41.832706784986335 38.223054997663155 48.69087579011719
41.808941976493315 38.17850170047724 48.6912648640827
41.833720380004436 38.21783044542986 48.6891858802537
41.84678344621497 38.21060021984437 48.66488988517078
41.92079464838025 38.19656164035405 48.628589740754556
41.77740873605461 38.295859041886565 48.67255470015481
41.80951746755058 38.266374787068386 48.664917813229
41.83751035337889 38.254940372109736 48.66776451081122
41.84387033346115 38.24418240598436 48.65772090197636
41.917106160465394 38.200487743346464 48.62798115377493
41.78705696256817 38.30229909483936 48.6713979844782
41.81501607061481 38.27191710537123 48.67342953923994
41.856063232668085 38.30160101841621 48.65500107435487
41.86156582846642 38.30600173293288 48.64917337706331
41.69200935597399 38.02362946243394 48.73316929235187
41.64922224049795 38.05843593417877 48.70978617003187
41.6996914181996 38.08372444628664 48.71854025957396
41.721126169303204 38.076203203706434 48.716977576064274
41.68408632261397 38.092160480187566 48.689501832054354
41.7153732834354 38.10515695642003 48.69122829379665
41.71597247167878 38.10417059234082 48.69473303408301
41.757622673035115 38.13096921168211 48.71084886555374
41.71323235740053 38.1078439439384 48.67978946323546
41.75214888745817 38.127975165947305 48.7080786760108
41.806873779822794 38.17706134821395 48.690967928068204
