ply
format ascii 1.0
element vertex 579
property float x
property float y
property float z
end_header
53.60466819960965 43.667883445430775 57.988146555520416
53.604843752723326 43.667707085598806 57.988136340783655
53.605158518488466 43.66737838643397 57.98812487509457
53.60532303243957 43.66721353197508 57.98811507478467
53.60559056696967 43.66693402809464 57.98810539903396
53.721464166259004 43.718298677569635 57.99170169655608
53.718928392354954 43.71609427969564 57.991572110427505
53.917642140139804 43.844650094315696 57.98244610606119
53.860335299806295 43.73795137794761 57.9995768642119
53.917903596022796 43.844434921459786 57.982429134876554
53.91808124010053 43.84429511092837 57.98237651970682
53.9182219842816 43.84417566851916 57.982390623638906
53.91837574495614 43.84405501378523 57.9823427734582
53.91857553380729 43.843889944881674 57.98233396539875
54.0146893980414 43.76897671515184 58.036014815715035
54.01777946977823 43.766616626263165 58.037434418448434
54.02106430709515 43.76411060350713 58.03903365148355
54.14464421778666 43.778924317156736 58.10900734888355
54.1454471911329 43.77583465320219 58.10919416553854
54.21897613628417 43.742417311176524 58.12599743336314
54.21832004776206 43.73841418844575 58.124789706492535
54.2196653511526 43.74520256685959 58.127996648413884
54.21882918154177 43.74016086249406 58.12642646764074
54.22051161483951 43.7488323785556 58.130343439601205
54.219446812626046 43.74250890265181 58.12829414142776
54.26048446548191 43.75337766868027 58.1504044446666
54.26029563843741 43.74716013311149 58.14856993751292
54.26164449460928 43.7561031724946 58.15068419856636
54.26161031894711 43.752615892659875 58.149620343268246
54.262520909365506 43.75703914704843 58.150547553721196
53.917270547943154 43.844944796462975 57.982541696124706
53.91753437818083 43.844727204412735 57.982527562917525
53.917873439403365 43.844451207557526 57.98248597613522
53.918263968014244 43.8441361207462 57.98242003564188
54.030891229423936 43.859869061861396 58.05909859826734
54.04209751226181 43.861888215352046 58.066054679205294
54.151706186442425 43.78680857390323 58.11511739071119
54.22143154521173 43.75554154891826 58.13147289980473
54.26205021892895 43.825044161516715 58.15941030412907
54.262688124954494 43.83072912744632 58.160979395591596
54.263716921975856 43.83658232879868 58.16221331392937
54.26318956694996 43.76012209616559 58.151177261258
53.35733081497736 42.88311676748253 58.24652239137318
53.3608757160837 42.94160380189647 58.21905732007451
53.38564145445997 42.96485025069864 58.2139502337036
53.37028052111957 42.97053829849444 58.21449345334839
53.37088422853162 42.97051385998715 58.214567581844875
53.37026843119841 42.97105376612394 58.21440495326826
53.393268352138875 42.996248507509165 58.21025236910684
53.39173253834565 42.99619399028499 58.21015430752204
53.39310613077818 42.99670383044304 58.21010568378173
53.39386238002143 42.99699088454252 58.21007703438583
53.39257441576804 42.996746259295406 58.21005360833294
53.41184932494356 43.02869651233962 58.19896746661806
53.412871438797126 43.029409556496944 58.198766776236766
53.40248588769194 43.07915288962069 58.19042246527601
53.43738875112914 43.10692357635813 58.181660470056116
53.437476164817255 43.10655312117912 58.18171604358061
53.436935875575365 43.11296045228627 58.18038782173349
53.43701597105985 43.11304846733288 58.18033651608317
53.43708494983252 43.11283447158031 58.18036163609946
53.39462364536415 43.16090229436156 58.14058353293429
53.44778003188197 43.1344518839421 58.16703759036879
53.447864141399734 43.13410111473368 58.16707200727562
53.365061063774554 43.26720453200552 58.11696160941475
53.414379324519835 43.23688238440357 58.14911868793547
53.415170073424804 43.23430785072049 58.14973907786252
53.37757841171586 43.35071807345817 58.123405620789384
53.378635480949946 43.34799004119839 58.12413622571416
53.3794633951576 43.34584045501235 58.12471337426534
53.37872637917198 43.3477547811635 58.12419930764753
53.37488234530564 43.35769279265117 58.12153579518123
53.37597350635584 43.35488715635012 58.122286013486516
53.37645982511771 43.353630696388926 58.12262266789533
53.34412003962716 43.432177027502206 58.10199813744883
53.34937090492974 43.42961998950539 58.10066680940084
53.3745507046651 43.35856076835329 58.12130197577954
53.37480654511918 43.35790110844652 58.12147857415828
53.374614744872616 43.35839512809071 58.12134637808063
53.34408187055881 43.43222939607068 58.10198885199178
53.34934660068646 43.429687114136456 58.100641634920144
53.399863483636665 43.42183855599314 58.09259533554082
53.34397471474852 43.43237641796245 58.10196279056875
53.34929127398569 43.42978677794473 58.100615122017416
53.40031680998878 43.42186701301693 58.09248899977135
53.40037474146564 43.42182505725759 58.092496828942565
53.401599127307236 43.42178715692712 58.09226353839756
53.34394539836171 43.432416629672915 58.101955629294906
53.40021817932123 43.42192885787153 58.092480173773126
53.41559875496758 43.44619389096775 58.0801161767249
53.40215141413113 43.42176843836591 58.09215906976994
53.48234200645224 43.41865145390477 58.076689349433835
53.35538624472778 43.465594422321615 58.08627349841332
53.38834278670641 43.511739515280894 58.05722540859698
53.425913147634134 43.48254983674207 58.06250450433937
53.540329520320725 43.46806464508677 58.04749667450615
53.5507356632453 43.447769695592456 58.04913532668612
53.55179792619882 43.44852754705617 58.04855962228629
53.551775273319905 43.44848453927954 58.0485839537936
53.55187304018789 43.4485524725744 58.04853178372724
53.388361306535515 43.51177047045827 58.05721098367751
53.42097197316568 43.555205033786265 58.044889698442276
53.50196950462234 43.53755564506317 58.03874592447296
53.528651554637506 43.565567638082506 58.020075964282796
53.61223946883639 43.531632334905915 58.018106571276164
53.63085278380099 43.486048624669515 58.029125289888825
53.63278105322988 43.4869869358164 58.028881998411165
53.70978775886695 43.463102787555286 58.04213635368183
53.71115497566622 43.46335422277562 58.04212402322361
53.4733568216119 43.62528454557971 58.01677948914427
53.50485896318869 43.595136571197926 58.01677299569475
53.505114975427624 43.59485482087035 58.0167380457539
53.54815504282773 43.61055790923049 58.01004318723358
53.66421817935857 43.60226446576742 57.99776501134282
53.6649117824575 43.60146825079061 57.997988220957666
53.74560323498416 43.4959064147544 58.02351533694596
53.722424671000994 43.530948594251484 58.02329674424945
53.74615992849833 43.495342080202505 58.02386369365596
53.74617602528937 43.49533723365573 58.02387843354671
53.74672185331363 43.4947605824932 58.02421049853443
53.88681354476718 43.471336738610034 58.08776614791266
53.8880330354954 43.470871329593166 58.088300204038774
53.89632613902514 43.470357480192604 58.09165032550138
53.89796373114959 43.46989289659503 58.0923504393982
54.17483038006715 43.50144273342566 58.176454604935785
54.16411049493258 43.43774814305807 58.19860902600232
54.17498401952251 43.50206869026846 58.17623840417305
54.16408256187951 43.43777506054017 58.19859987636976
54.175221186232335 43.50296550210327 58.17592835738448
54.174503477604986 43.500387356444534 58.176820297610035
54.17557187071375 43.50422326127897 58.17549321113965
54.174697026275055 43.501076657515895 58.176581796985985
54.17603769136942 43.50581720045969 58.174941386789506
54.175031487347795 43.50218546325476 58.176197746481776
54.176580839718675 43.50759776566735 58.174324558182946
54.175647943266725 43.504205183840206 58.17549806283182
54.210192805969484 43.54300173266071 58.15435773523337
54.17658129001455 43.50730425440504 58.174424681273756
54.21128817293762 43.543616878273454 58.15392044554095
53.48563206299333 43.616275583640274 58.01887908616678
53.521953394937945 43.63856726706244 58.01038290068425
53.58039603003127 43.63694471889649 57.99946551158625
53.66335492306493 43.60326272187297 57.997481927503365
53.664053477683815 43.60246086230998 57.99770670200219
53.66470812683711 43.60170949184551 57.99791728331493
53.806342755946794 43.60472142441447 58.026487956712856
53.80765909718741 43.60738494966572 58.026353325513156
53.99824758970793 43.710999097044535 58.05702558371965
54.10767227261891 43.625479560989874 58.10453385495293
54.17581240773349 43.50500811060276 58.175221301897594
54.17618860818327 43.50639197892471 58.174742692523004
54.17667789584699 43.508139113422644 58.17413820007033
54.20141396042274 43.652698573028495 58.17391622610724
54.20226631591427 43.655654247549265 58.173505244495814
54.242893066314856 43.68487932024445 58.156393970933784
54.243460028398374 43.68531443114178 58.156625987645455
54.211999526834404 43.544420875416385 58.153533781209724
54.2442258908623 43.68627820072065 58.157013697315804
54.24423165187861 43.68596162897537 58.15695262923316
54.24427593535821 43.686317412284 58.15703433603776
53.604848350382234 43.667695458257704 57.988139917558
53.60533887209291 43.66719009447379 57.98811828074285
53.66320556217489 43.60344213928096 57.997428098011454
53.66387312788137 43.60267579339204 57.99764294317527
53.751880861158895 43.679893358559525 58.00306380754974
53.86136426998456 43.738757845191614 57.99937684585249
53.9185024823489 43.843955989562424 57.982300595427965
54.01763688699567 43.76672755797763 58.0374338458317
54.02421986005486 43.76170356677808 58.040581260084004
54.20301080492142 43.66141097267892 58.17520351192784
54.20387725005824 43.66464893062718 58.17493698001231
54.20493063449507 43.66871311611618 58.17469563413389
54.24280247251845 43.697690089668924 58.15890194080575
54.24303494989991 43.69917573962537 58.15925537660628
54.261332403269066 43.74161553227832 58.146347303636446
54.263087381052266 43.74313730240951 58.145964469351014
54.2648445335593 43.74400344458787 58.14537743785232
54.264835804491405 43.74323575221186 58.14514382685723
54.26573702158899 43.743900706686404 58.144911135685824
54.263219240893775 43.757284812692006 58.15028371713897
54.264830280851726 43.75629223872741 58.14919191321479
54.266497700631334 43.748830706158344 58.146068333101894
53.44039203084685 42.80121928684083 58.288476295597036
53.45041499758753 42.80328213581817 58.28777931381039
53.4297694585195 42.80004423927379 58.289318492075964
53.443255516886175 42.80227295778823 58.28832470746163
53.56558948963909 42.889110400557726 58.2923452679919
53.45104328201286 42.80343634621612 58.28773817311028
53.56651145424962 42.89107568462413 58.292641733185164
53.43357429812698 42.80107692773137 58.28907946193513
53.50187991100749 42.85240621526779 58.29141642355967
53.569023576017095 42.89647390805005 58.29345812670873
53.59096363516668 42.93613095304807 58.29817263432898
53.59097065424629 42.93612857835481 58.298169429314626
53.59096551332969 42.93613047364501 58.298171908651554
53.381700602810696 42.90493371132247 58.2452151790585
53.39916423882953 42.88038735036901 58.24446869808729
53.570749236370105 42.9001786348133 58.29401824114831
53.59086820766216 42.936159036969016 58.298212655706905
53.59089336290687 42.93615506060182 58.29820500328789
53.59099038689295 42.93612961104408 58.298166937107126
53.38587120526136 42.96500011332721 58.21392319324946
53.38643627277807 42.96536899075712 58.21384534629156
53.59088044149679 42.936155916315336 58.29820793057422
53.590846079066594 42.93616830462605 58.29822426596343
53.5908564327651 42.93617012345699 58.298224038050684
53.59096083695202 42.93614340500175 58.29818364026815
53.590991888538824 42.93612937339864 58.29816648006182
53.59106000234246 42.93611265324313 58.2981407256148
53.386309458650786 42.96528604705509 58.213868970867836
53.40896638726035 42.9908838020761 58.20960701327771
53.59089760640826 42.936152487591514 58.29820210396094
53.59087821769496 42.93616078580291 58.29821242722045
53.590892850844554 42.93616059777749 58.298209772558984
53.59096680591754 42.93614187567168 58.29818132914412
53.59105103964019 42.93611578505381 58.29814490229108
53.59106456939756 42.93611124593945 58.29813875676497
53.59109023897513 42.93610182632449 58.29812641410805
53.39405581056958 42.99654879957864 58.210222125910946
53.40953159241042 42.99187572920216 58.209436543270655
53.53553206838177 42.96671558249929 58.26799873959539
53.59092348188857 42.93614782448189 58.29819374803346
53.59094192977361 42.936144967719976 58.298188186229936
53.59098888566683 42.93613286769413 58.29816994678937
53.59104359666277 42.93611637749207 58.29814667262166
53.59108083411857 42.9361037272983 58.29812962546381
53.59109265590989 42.936100673339794 58.2981250269988
53.5910963084892 42.936097711837284 58.29812189996515
53.39456836530309 42.997266362514864 58.21004807080017
53.42850651311632 43.02444361295364 58.201417024321465
53.487801917654124 43.013211410226404 58.22743795988598
53.590959122397116 42.93613691638204 58.29817844625555
53.59097599163981 42.9361334645772 58.298172650552374
53.59100652143166 42.93612544764737 58.29816066502343
53.59104156515513 42.936115088869414 58.298145929504116
53.59106967605476 42.93610597461216 58.2981334286749
53.59108698373928 42.93609979680404 58.29812525323334
53.59109638462505 42.93609740458689 58.29812162718574
53.591094167353376 42.936096825643816 58.298121515817215
53.41384980852702 43.03010555271735 58.198566799909
53.450065532220066 43.05958320345138 58.183872404774434
53.45364417227228 43.05713237138539 58.18422660185724
53.4896930727209 43.01261470629987 58.22830014673159
53.59099747920439 42.93612596027911 58.29816264062525
53.59101836907649 42.936120395100886 58.2981543722502
53.59104189412936 42.936113527035964 58.29814455279502
53.59106258225552 42.936107026291694 58.298135527763115
53.59107752216631 42.93610197798405 58.29812871118941
53.74707173787101 43.06233937119464 58.184546656414526
53.591093631272514 42.93609681640585 58.29812159943444
53.84028983929655 43.11543933709805 58.1325106567985
53.43756185062611 43.10619713521162 58.181768809497385
53.43773576385259 43.10558596646451 58.181849274016884
53.450717421676146 43.060589269314654 58.1831881414311
53.48618200774347 43.08969650163286 58.16644481458917
53.49327770546514 43.0911105158404 58.16367809101217
53.56717911457716 42.999897371290935 58.24972823377719
53.62311858312273 43.0215539854732 58.24516092635557
53.62474943744389 43.02547761919875 58.242626113404086
53.70240979969197 43.09148914555563 58.185259959067245
53.78007985520823 43.147278195577584 58.13013691178681
53.840145509373 43.11555924516795 58.13245938023992
53.84030611622849 43.115433730336576 58.132516173552204
53.84038623805224 43.115409864936055 58.13254320385097
53.43715435926978 43.11253092148797 58.18040801045323
53.44901141247052 43.12914239951798 58.16761962675732
53.46824802656694 43.1407062001335 58.164211046151514
53.469634751746966 43.13960666037002 58.164055597121504
53.47085978084241 43.13872478903192 58.163898432359176
53.57276481673486 43.13108133142773 58.14791728442353
53.60588913014404 43.09019960567454 58.191463204473365
53.608837565761064 43.091866189729416 58.19084080035257
53.77640553565387 43.14915329139592 58.13037433822002
53.77886832440388 43.14791756371838 58.130213536954244
53.78127050722265 43.1467092846248 58.130056925989486
53.84024470014331 43.11552605891221 58.132492966080946
53.84039705225945 43.11540904647625 58.13254677144671
53.84042734762986 43.11541015173053 58.13255665166918
53.447945371628734 43.13376417845714 58.1671044267885
53.448213586522854 43.13266419306729 58.16720584115011
53.467386426011046 43.14357851303549 58.16382208862623
53.46873692294355 43.14224675261704 58.163728577195705
53.496737011679066 43.20149218940139 58.137438329034296
53.55101807618793 43.17789157228926 58.148276842138074
53.59137838700394 43.19147800565745 58.129745295261344
53.594618583732434 43.1917351171216 58.12983397367226
53.77554654337828 43.1496054953591 58.13042875450394
53.77784820062112 43.148453409223535 58.1302782539851
53.78018696487106 43.14727910050812 58.13012561448153
53.840070256691085 43.11565795899337 58.13243142871275
53.84031345304167 43.11550220772408 58.13251627421935
53.84043420352909 43.115412761879355 58.13255880827687
53.93651469851396 43.18148620661456 58.16003183820649
53.41536845169672 43.233633962367236 58.149895812628415
53.465545408924044 43.14692230367007 58.16361059245004
53.49284020849397 43.20421830668769 58.138075548400145
53.49477825705145 43.203841179080825 58.137440309191206
53.4965696529695 43.20353770680887 58.13683846388201
53.55537827422563 43.22523759170312 58.1311869466449
53.591142668463334 43.193098311935756 58.12912712632252
53.594107454763034 43.19312660720495 58.1292855104604
53.76618759732924 43.17971644124238 58.11597369763483
53.76790949918097 43.17929085503786 58.11562119089692
53.779289103269306 43.1477465761716 58.1301829018787
53.795790292962465 43.140880526297586 58.135008312590784
54.01804818954962 43.25976194229952 58.180748303147304
54.04015362253669 43.254233724891485 58.18795409794009
54.03787706928533 43.25211985959309 58.18735474327778
54.0425895092181 43.256478340240754 58.18860068262135
53.44023883919509 43.29394628580225 58.124033394904224
53.44295099122196 43.29251385466301 58.12363529492373
53.49495318310606 43.205447907077385 58.13684930680252
53.49658455254048 43.20517397970085 58.13630043253224
53.554420787662025 43.22571986515884 58.13094099047436
53.559995865963735 43.224853771025536 58.13066745001908
53.675027282146296 43.22110607236699 58.10756582259148
53.76641911411087 43.18004844382671 58.11564780962908
53.76791933346654 43.17970448786775 58.115321482105486
53.76948723445837 43.17932695768209 58.11499335223263
53.87404805842119 43.21081380447095 58.156766326723755
54.023009482867465 43.26301530508126 58.18212327288964
54.122370100504455 43.35910686005059 58.20306784471845
54.12222570999752 43.3585559127218 58.203125780530115
54.1221302980353 43.35819715079779 58.20316378624324
54.12220394432427 43.3584724548368 58.20313453521405
53.38076775111311 43.35158584513554 58.12127306504851
53.441274026323015 43.29638732077416 58.122668946549695
53.48497491162558 43.29776258309322 58.112852202564994
53.486137787999205 43.29845596412659 58.1121820959292
53.553648150896976 43.226116307155934 58.13073612837667
53.610662474205455 43.28962948169798 58.09632832535282
53.61243424332589 43.288453988588 58.09685636999796
53.76239322662984 43.27494569370964 58.09418371666751
53.76352313281779 43.27649345177315 58.093490287024174
53.76466867674974 43.27804327849708 58.09278864616792
54.01011337702059 43.357639621484545 58.15795030587003
54.01904278291735 43.35444433781219 58.16223769191954
54.12281063973344 43.36076912247776 58.202892060793815
54.12272342194369 43.36043239877366 58.20292726233481
54.122696957777165 43.36032496992324 58.20293821900624
54.12260074513473 43.359961863018555 58.2029766135946
54.12270051943996 43.360337242860986 58.202936858952356
53.425190375621554 43.349621527889596 58.11361295090272
53.485702287845086 43.30140447320456 58.111514606024926
53.48665034634446 43.30174666937143 58.111032156735746
53.54155657777725 43.36834147831651 58.07534018635528
53.60941088623732 43.29366927055639 58.09487247894181
53.610968395379615 43.29252502302786 58.09537408629242
53.70042068427593 43.347133987402174 58.08253146265261
53.76516403926732 43.281220418693465 58.09230572170043
53.766157357507566 43.282661393052585 58.091690365598964
54.00704877539263 43.358783805061755 58.15646682322083
54.01578024447333 43.35567267318679 58.16065579888331
54.1233423073728 43.362780738551976 58.20267962633575
54.12335880455082 43.362836312808255 58.20267339343169
54.12342932298771 43.36309585251563 58.202645598155264
54.12357108052184 43.36362651377128 58.20258925551107
54.12339120235046 43.36294469484339 58.202661192682605
54.123617408693 43.363800826737005 58.202570795571276
53.400395961989005 43.421807795165854 58.092500586329145
53.4022741067309 43.42170116579851 58.092165510976415
53.54085268491522 43.37066862536583 58.07496946978978
53.54165322104458 43.3706068495074 58.07478851112096
53.5423759130649 43.370574435950964 58.074619704427974
53.69786697459375 43.35155014189439 58.08086225954694
53.700685055063644 43.35179726400379 58.08094548032439
53.77251491884308 43.345558304756494 58.07211091636741
53.77348749154493 43.34746102544903 58.07132954221747
54.0042369273977 43.359831600702684 58.15510620275343
54.01250479241421 43.35689615067013 58.15907010502726
54.123895431805025 43.3648782682678 58.20245837063612
54.12403145614921 43.36538845920182 58.20240425472127
54.124229738505235 43.36613454605484 58.202325245190984
54.14488122516387 43.40657769137259 58.19971253077038
54.16454669948538 43.43732841129676 58.19875193422321
54.16459780082719 43.437279284103944 58.19876867785953
54.16462066052752 43.43725748132245 58.198776175587696
53.402185972629624 43.42175123437314 58.092160064532706
53.48298251638169 43.41868714533511 58.076537858863134
53.55114852357572 43.44730756338808 58.04925133496485
53.56999021860143 43.428492158794356 58.04810599589663
53.6326612258909 43.424750181757666 58.061582111627004
53.71188512672255 43.461067064195944 58.04302853643947
53.78339556162536 43.45400750071134 58.03456027777282
53.783884849287226 43.45334889899497 58.03470344246564
54.014606162753125 43.40711288146006 58.149139101064364
54.023436607380994 43.40637554503841 58.15286104791312
54.12440858807953 43.36682769694722 58.2022529210554
54.14485835366715 43.406966736176145 58.199650820345525
54.16422043915719 43.43764196517092 58.19864502873999
54.16427279366502 43.43759167470193 58.19866218480189
54.164381867011016 43.43748697008079 58.19869793008178
54.16454515253065 43.43733034875917 58.19875144709958
54.1646428867499 43.43723636577984 58.19878346918391
54.16470686707174 43.43717536497815 58.19880445495772
53.550637156895945 43.447605072782046 58.04923107589558
53.55146678961508 43.4479043061886 58.04891285383894
53.552202721709925 43.44818034945936 58.04862581024749
53.70933155074807 43.4616445470765 58.04265758319076
53.71201004183712 43.46184852289441 58.04274201898788
53.78270455252886 43.45494431201454 58.03437442727655
53.78320163772497 43.45427520859028 58.0345198590936
53.89141864506169 43.46926652163423 58.089816105640175
54.02250626559129 43.407362449579985 58.152281669550334
54.1450397539262 43.4075367939185 58.19959836800041
54.164144720461906 43.43771494877338 58.19862022742699
54.16413944467581 43.437720050117804 58.198618500074616
54.16416618079513 43.43769441239366 58.198627263184775
54.16424467571688 43.43761908153335 58.1986529882512
54.16438342126261 43.437485946986186 58.1986984599995
54.164555876289896 43.43732054756191 58.1987549830869
54.1647079691098 43.437174329033674 58.198804817077914
54.16470447367732 43.43717812396472 58.19880369083481
54.164714942684725 43.437168066426224 58.198807121371054
54.164765425865205 43.43711973148473 58.198823671144574
53.552457449387525 43.44874558601902 58.04831555717756
53.709586879571916 43.46244090817618 58.04237330645803
53.712097459956254 43.462639226130435 58.04244976668307
53.74715452149845 43.494283048953776 58.02446540744408
53.78251537112767 43.455196973881286 58.03431422317889
53.89019326738895 43.469939122814665 58.089257694125585
54.03959076004426 43.43858573420669 58.15062147389122
54.164133384200824 43.43772598045911 58.19861651888681
54.16410630622441 43.437752050741864 58.19860764832174
54.16409209536818 43.437765775235746 58.19860299480281
54.164103520459655 43.43775488326721 58.198606742320244
54.16415745263856 43.437703164428385 58.19862441918909
54.16426603922304 43.43759896188881 58.198660006475265
54.16441818466515 43.437452964443374 58.19870986962124
54.164574202973334 43.437303290947696 58.198761003802844
54.16468915309882 43.43719307026716 58.198798680504254
54.16474949848433 43.43713513407098 58.198818456419474
54.20818676254373 43.46625345810273 58.18024888034543
53.74569295227584 43.495811201740324 58.023569743503074
53.7463536727342 43.49513617350018 58.023981064653384
53.74697959110573 43.494486614179365 58.02436661640274
53.888670950668384 43.47063054451041 58.08857928487744
54.039340909655024 43.43858875349207 58.15052524639695
54.16411509290923 43.43774368702845 58.198610530990024
54.16408698515916 43.43777076779777 58.198601323912655
54.16406939965378 43.4377877557597 58.19859556551276
54.164074033910175 43.437783405509236 58.19859708855565
54.174596745332295 43.50060098831966 58.17674580472921
54.17498486436388 43.50176763823949 58.17634109296158
54.17541877839413 43.50299258701455 58.17591570078027
54.17576686053627 43.503867642263415 58.17561115833894
54.211791607011136 43.540277492536 58.15463889157145
54.222215025466014 43.53222123994459 58.15717576408191
54.22189927564118 43.530542799103 58.15777088219105
54.22266305719428 43.53244712482364 58.15697163300055
54.222230638352556 43.5307759828715 58.15760026813813
54.21178083284248 43.543761945972946 58.15375717318167
54.21297311258617 43.54348752551484 58.15352081424645
54.272806036330046 43.61413494071131 58.12218719299162
54.273554519119116 43.6144145563497 58.12195756159417
54.24518256542753 43.68919871634008 58.15783719515909
54.245421402683306 43.68922818169911 58.15790453874028
54.26581440619687 43.744336848432745 58.145008597607145
54.265206331319746 43.74069274004389 58.14417552940067
54.266417163472106 43.7488846316115 58.146124247373045
53.4505935078951 42.803320952758014 58.2877671131371
53.44667299675914 42.80235215849027 58.288023164979435
53.56657522367145 42.891195737525784 58.29265908602166
53.56673914687818 42.891546420902976 58.29271204708599
53.56730926450908 42.89276039972511 58.292895115139125
53.5674835581455 42.893147628240285 58.29295427765696
53.56873512506857 42.895803645572286 58.293354375322316
53.56975101890564 42.897975660267406 58.29368233643429
53.56795953571624 42.89415229232344 58.29310535817622
53.591060786750745 42.93610279796178 58.298132258736445
53.59102830828731 42.9361138804755 58.29814716870396
53.591073628554135 42.93610005999877 58.298127753497674
53.591069637560096 42.936102288311226 58.29813031830158
53.59105725273771 42.93610466742147 58.29813444217576
53.59108681329916 42.936097194139975 58.29812308162853
53.590993240461486 42.9361287839119 58.2981657510536
53.591071221746304 42.93610500338593 58.29813234384101
53.59109799597605 42.93609469965588 58.2981190652258
53.59109457543531 42.93609663428683 58.298121284417796
53.591086518431005 42.936098393422206 58.29812414596697
53.59111444841854 42.93608922949777 58.298111633996314
53.59111250060724 42.936090470836554 58.29811301580425
53.59111751054752 42.936088227113224 58.29811026418891
53.59111628685508 42.936088958894395 58.29811109164406
53.59106544114073 42.936110750697296 58.298138189339326
53.59109983747627 42.93609728919953 58.298120940738116
53.5911046178564 42.93609390733868 58.29811726592604
53.59110950500988 42.93609191339085 58.2981147464487
53.59109433140941 42.93610013743063 58.29812428810702
53.59110504541372 42.93609470658414 58.29811786880546
53.59110418033692 42.936093531882086 58.29811702307881
53.59111046029868 42.93609131677004 58.29811407905401
53.5911068527765 42.93609208175073 58.29811534114204
53.59109775603582 42.936097031320905 58.29812107767852
53.591101387958076 42.93609464726089 58.29811844242235
53.59109991290805 42.936094160397786 58.29811828232613
53.59110608289011 42.93609217059609 58.29811554756869
53.68583825499401 42.989473722846164 58.245918575759745
53.59109471649789 42.93609653171474 58.29812117363016
53.6863956989972 42.98980332337844 58.2456074985452
53.84278998012681 43.09615582583224 58.13314764330555
53.68792849290142 42.990697626331254 58.244750707512
53.84293783288284 43.096153224375946 58.13319997469348
53.84033280545337 43.11541300882673 58.132525606738184
53.84059566086722 43.11525245880057 58.13261704900674
53.840773309112805 43.11514477178393 58.13267882183841
53.84296653804564 43.09618021177391 58.133211060316526
53.84303684645736 43.096257412235225 58.13323858637006
53.84043575012565 43.115378911891945 58.13256045204251
53.84066196912205 43.11523688891301 58.132639278596315
53.84079812975389 43.11515034924698 58.132686759594975
53.84083443887039 43.11512308810656 58.13269956166208
53.84080610013898 43.115145358300566 58.132689536459466
53.84049653736402 43.11536541004263 58.1325808048024
53.93567070006415 43.180525470792986 58.159808817616934
54.0361032697616 43.2504586918012 58.18689208933263
54.035781234691314 43.250160983485614 58.186806902860894
54.036345067191185 43.250681639901124 58.1869562302079
54.03484307459022 43.249308728278365 58.18655411763487
54.04127434965668 43.25523905373619 58.188259999505064
54.12993890238484 43.35021407051227 58.20583356968784
54.12993726595423 43.35021080622057 58.20583380532737
54.12994381304986 43.35022235391952 58.205833199810584
54.128450415962014 43.351151043688375 58.205327929100044
54.12856880704701 43.35137743609509 58.20531413944913
54.13034062501123 43.350911013062046 58.20579900536242
54.13031747791853 43.35087061276532 58.20580105108136
54.130439960351296 43.35108005331824 58.20579119337389
54.12887924911041 43.3519856645202 58.205274598269796
54.13075463497345 43.35163352635849 58.205762435223704
54.13129939775641 43.352556031413236 58.20572060278049
54.13090959618839 43.35188637948073 58.20575266754459
54.131536996413374 43.35295881596791 58.20570226089018
54.129878449102506 43.35390906639074 58.205155273877395
54.13212473741569 43.353973772015465 58.20565274120342
54.13284235621258 43.35518081821536 58.20559945809958
54.132305963081066 43.35426770426541 58.20564171430192
54.13317322182864 43.3557383207128 58.205574672532876
54.13251741531641 43.35462468299054 58.20562572125127
54.13154469590345 43.35708896914194 58.204962672699736
54.15453875517078 43.397269413062546 58.20292320319935
54.15460768114281 43.39737407798597 58.202920413347755
54.15504474643911 43.39811097237224 58.20288977858877
54.154338207260636 43.39692536288145 58.20293830770537
54.16499401900832 43.436899791391255 58.19889856314392
54.16471164533166 43.437170300236694 58.19880599992394
54.16484536483924 43.43704237515283 58.19884984142078
54.164929658648575 43.4369617456221 58.198877478635985
54.164714269623886 43.43716827512418 58.198806881616534
54.164885998258015 43.43700372683911 58.198863173397946
54.16482863878556 43.4370588197996 58.19884437703183
54.164852797783695 43.43703546822394 58.19885228734043
54.16483652341232 43.43705126947124 58.19884696177557
54.164789422499034 43.43709673563657 58.19883153700778
54.1647932916658 43.43709287610924 58.198832798629766
54.16474955678332 43.43713506437814 58.19881847492307
54.208162166817615 43.466227073430275 58.18026395347091
54.22188484840751 43.53051873625053 58.15778244228193
53.59111598684045 42.936089046679 58.29811121703739
53.5911083011719 42.93609225057504 58.298115236867616
53.59110874249572 42.93609185630363 58.29811482822525
53.591104918281346 42.936092688885815 58.29811618443023
53.59110393961479 42.93609281217563 58.29811645558865
53.591096622891314 42.93609458578746 58.29811920312376
53.68558498539491 42.9893269919299 58.24606027031106
53.84289736830608 43.09615801388452 58.1331857898428
53.842916260719086 43.09616977873385 58.133192883974885
53.84300536052047 43.096245589181265 58.13322702543334
53.84083511398906 43.11511067989104 58.13270019962565
54.03150971848637 43.24623513660211 58.1856699151838
54.0327467475727 43.24737661236578 58.18599778808347
54.04035081595002 43.254399473041595 58.18801134347612
54.0415616779695 43.255518726737236 58.18833168997571
54.13056078849676 43.35127205294443 58.20578472748164
54.13062622584714 43.35138479394994 58.20577927235812
54.130899829477094 43.35185968645568 58.205755681989714
54.131138013775065 43.35226847249426 58.20573617789647
54.13163921423928 43.35313049451803 58.20569472775288
54.13235132627082 43.35434279932379 58.205638615164204
