ply
format ascii 1.0
element vertex 858
property float x
property float y
property float z
end_header
73.74688096123272 82.06503109817422 49.77575355273461
73.74688056358629 82.0650320058764 49.77575346169161
73.74688066915857 82.06503178304368 49.77575348350693
73.7468806101771 82.06503192231102 49.77575346940189
73.74688026574078 82.06503273427387 49.775753387203714
73.74687970287881 82.06503394455993 49.7757532680079
73.74688019448863 82.0650329054982 49.775753369777114
73.74687994939046 82.0650334954944 49.775753309701145
73.72528517084561 82.09921651791399 49.77199244859203
73.7468798110407 82.06503383388448 49.775753275095155
73.7468796585552 82.06503420975739 49.77575323657594
73.72528373591447 82.09921895613586 49.771992160664084
73.7252852861356 82.09921646018026 49.771992454725535
73.72528463899648 82.09921753972348 49.77199232734242
73.70625005314884 82.13198287067871 49.768202542808766
73.72528333928268 82.09921972031115 49.771992069976335
73.7062507718449 82.13198184822889 49.76820266047038
73.70624880349824 82.1319846566698 49.768202337791664
73.70624957340455 82.13198355998027 49.768202463910015
73.70624936468597 82.13198385825831 49.76820242966885
73.70624751770927 82.13198649405305 49.768202126859194
73.70624852846547 82.13198505425385 49.76820229243286
73.70624836274199 82.13198529175489 49.768202265210164
73.68381362990723 82.16819895592744 49.7638161916628
73.70624795853774 82.13198587179454 49.768202198772855
73.70624780556076 82.13198609242356 49.768202173570614
73.68381371825305 82.1681987669257 49.76381621551685
73.68381355042668 82.16819913682743 49.76381616727534
73.68381352241131 82.16819919867262 49.76381615919614
73.68381338953684 82.16819949278315 49.763816120665965
73.68381333522234 82.16819961283831 49.76381610496115
73.69232230067264 82.04362938354387 49.77526149758016
73.69232152630144 82.04362918107401 49.77526147949922
73.69232446920482 82.04362981404742 49.77526155426213
73.75071912955111 82.0583938579628 49.77610420691916
73.7468819887016 82.06502888079483 49.775753771367405
73.74688214219972 82.06502855767269 49.77575380297337
73.74688204408983 82.06502878418122 49.775753780179194
73.74688140558179 82.06503010944535 49.77575365115096
73.74688166215914 82.06502965733587 49.77575369256223
73.74688117083355 82.0650307252445 49.775753587030636
73.74688151110848 82.06503000779259 49.775753657244636
73.74688130499882 82.06503048667288 49.77575360896529
73.74688094125062 82.06503132803212 49.77575352425137
73.74688099626484 82.06503121186023 49.775753535626265
73.7468809656561 82.06503128424144 49.775753528292405
73.74688033477145 82.0650326092613 49.775753398783166
73.7468806306495 82.06503207361854 49.775753448390866
73.74688010598273 82.06503320980248 49.775753336241976
73.7468805466734 82.0650322773877 49.775753427596854
73.74688033690116 82.06503278882387 49.77575337533929
73.74687987615928 82.0650338102628 49.77575327378086
73.74688021378175 82.06503309450477 49.775753343953426
73.74688006958581 82.06503345540736 49.775753306819304
73.74687964649618 82.0650344088136 49.77575321155675
73.746879935193 82.06503379552537 49.77575327172297
73.7468798217143 82.06503408608575 49.77575324165082
73.72528525387801 82.09921675765574 49.77199241839514
73.746879686326 82.06503443246885 49.77575320580844
73.74687958159 82.06503470072924 49.775753178042024
73.72528381286932 82.09921919852435 49.77199213019268
73.72528563825215 82.09921625636053 49.771992476840865
73.72528509443558 82.09921718565647 49.77199236707496
73.70625079632282 82.13198182937944 49.76820266363808
73.7252845547958 82.09921811916435 49.77199225675565
73.72528403831328 82.09921902089332 49.771992150151625
73.7062494928012 82.13198369178974 49.768202449813025
73.70625241334201 82.1319795314019 49.76820292823929
73.7062520545325 82.13198004688316 49.76820286923263
73.70624815518576 82.13198560275467 49.7682022304036
73.7062519880028 82.13198014266341 49.768202858281185
73.70625130899504 82.13198111526526 49.768202746769454
73.7062519535128 82.13198019708693 49.768202852353056
73.70625193840881 82.13198021966973 49.768202849822735
73.70624997267406 82.13198302423692 49.768202527579916
73.70625189261888 82.13198028900447 49.76820284210586
73.70625186450852 82.13198033214891 49.768202837337995
73.70625186430503 82.13198033439225 49.76820283720196
73.6995096153149 82.14651768076718 49.76635180992512
73.70625237274338 82.13197961511493 49.76820292022825
73.70625249500617 82.1319794423466 49.76820294018313
73.78421613096288 81.79042290308432 49.790667376608745
73.74532541367537 81.75277907541908 49.789578871777664
73.78421625484017 81.79042396763882 49.79066731282866
73.69231593533998 82.04362772052075 49.77526134889813
73.76804173482341 82.02430906945321 49.77796834281453
73.76803722537927 82.024316890307 49.77796803227516
73.76803877463405 82.02431420728172 49.777968139101176
73.76803773074809 82.02431601919987 49.777968067267125
73.75071922586272 82.05839375726961 49.776104212432664
73.75071936163776 82.0583936157556 49.77610422011596
73.75071920921658 82.05839389464535 49.77610418700705
73.75071929391075 82.05839376180839 49.776104200889975
73.75071925613064 82.05839384520579 49.77610418977251
73.74688175327134 82.06502949681033 49.775753707264876
73.74688201054771 82.06502904388776 49.775753748734644
73.74688152149508 82.06503010195718 49.77575364432696
73.74688189226183 82.06502931836435 49.77575372107291
73.74688166638857 82.0650298446433 49.775753667972154
73.74688129265995 82.06503069832009 49.77575358233108
73.74688139003555 82.06503049221656 49.77575360252683
73.7468813342094 82.06503062391889 49.77575358919123
73.74688071485359 82.06503192149496 49.775753462467826
73.7468810074672 82.06503139296858 49.77575351137163
73.74688048627397 82.0650325168711 49.7757534005828
73.74688094412573 82.0650315463314 49.77575349573074
73.74688072707748 82.065032078765 49.775753441237825
73.74688025829165 82.06503310927653 49.77575333904311
73.74688062857899 82.06503232288048 49.77575341618504
73.74688046187828 82.06503273585838 49.775753373807
73.74688002943103 82.06503370226673 49.77575327748659
73.7468803451386 82.06503303043874 49.77575334343251
73.7468802198604 82.0650333503681 49.77575331034292
73.74687980107325 82.06503429306878 49.77575321618019
73.74688011763462 82.0650336181101 49.77575328247495
73.74688000245823 82.06503391883822 49.77575325119758
73.74481229328643 82.07090946435326 49.77487735718515
73.74687990752223 82.06503416736501 49.77575322533278
73.74687980038667 82.06503445724854 49.77575319492186
73.72528516973672 82.09921724011724 49.77199235974039
73.74481237843318 82.0709094074609 49.77487735239177
73.74481237650701 82.07090954600213 49.77487733340381
73.70625264171214 82.13197921141075 49.76820296536948
73.74481237671728 82.0709095874383 49.77487732760735
73.74481238260435 82.07090974508348 49.774877304795226
73.74481238941696 82.07090972575202 49.774877306468
73.74481239009296 82.07090973314561 49.77487730533842
73.72266542256939 82.10399313262212 49.7715083004338
73.74481240241238 82.0709098606811 49.77487728575544
73.74481240879743 82.07090990850236 49.77487727814896
73.70625303860425 82.1319786613904 49.76820302957847
73.74481242127575 82.07090997686711 49.774877266774766
73.74481244045892 82.07091006079784 49.7748772522341
73.74481244440105 82.07091007817405 49.774877249228126
73.72578195177304 82.10366859796962 49.77108826889811
73.74481247384139 82.07091015967298 49.77487723349481
73.74481248328807 82.07091019217914 49.774877227562186
73.72578325372346 82.10366667198866 49.771088471826175
73.72578258582134 82.10366766127868 49.77108836804925
73.81553586246784 81.742276759085 49.79465186878957
73.81553277315787 81.74227394584878 49.794651954795825
73.81553736685004 81.74227812733047 49.79465182699097
73.81555010814603 81.74228973167503 49.79465147219227
73.81555843489804 81.74229730473714 49.79465124084561
73.74533359083833 81.75276564028727 49.78958061556813
73.81557951944768 81.74231649718641 49.79465065424007
73.81559640065115 81.74233186697575 49.794650184407416
73.81558622121995 81.74232259734686 49.79465046779613
73.81560138249914 81.74233639766416 49.79465004600539
73.7680430610427 82.02430678404592 49.777968434663975
73.79245770638862 81.98714723880022 49.77944398898494
73.76804078725146 82.02431075120842 49.77796827891922
73.79245626763138 81.9871497002638 49.77944390555825
73.76804187094008 82.02430888339082 49.777968353959366
73.7507194363946 82.05839353756828 49.77610422440154
73.76803806661898 82.02431548734123 49.77796809219064
73.75071941753254 82.05839367398525 49.77610419951724
73.76803726589264 82.02431687826493 49.77796803712722
73.7507195153802 82.05839357029373 49.77610420540269
73.74688207936198 82.06502892264737 49.775753759839155
73.75071939833539 82.05839380966833 49.7761041748349
73.7507194314201 82.05839375705555 49.77610418040532
73.75071941685557 82.0583937898393 49.77610417599023
73.74688184789049 82.0650295224904 49.77575369756897
73.74688206749701 82.06502913296984 49.77575373334497
73.74688161982388 82.06503011330797 49.77575363624099
73.74688192101324 82.06502947465842 49.775753698858
73.74688174011325 82.06502989832839 49.77575365604747
73.74688106728534 82.06503128518747 49.775753521334636
73.74688139503891 82.06503069523615 49.77575357584582
73.7468814652597 82.06503054613276 49.775753590471325
73.74688142545959 82.06503064043511 49.77575358091106
73.74688084064327 82.06503187253034 49.77575346036173
73.74688111602305 82.06503137223008 49.77575350676186
73.74688061785128 82.06503245022257 49.77575340038219
73.74688105698942 82.0650315161209 49.77575349206037
73.74688084149024 82.06503204033172 49.7757534385303
73.74688039467978 82.0650330273383 49.77575334050298
73.74688074088527 82.06503228936394 49.77575341298117
73.74688058993544 82.0650326662072 49.77575337423275
73.74688017026577 82.06503360583704 49.77575328052787
73.74688048442911 82.06503293452603 49.77575334651057
73.74688036466439 82.06503324312224 49.7757533145208
73.74687994661697 82.06503418202719 49.775753220800866
73.74688026510714 82.06503349968388 49.775753287924154
73.74688015725644 82.06503378554856 49.77575325808284
73.74481241121583 82.07090949023238 49.77487733598255
73.74688009057098 82.06503396825208 49.775753238859494
73.74687997961509 82.06503427176614 49.77575320693677
73.7448125091644 82.07090938278095 49.77487733631276
73.74481251659954 82.07090952034294 49.7748773160638
73.74481251695113 82.07090952788872 49.77487731496146
73.74481249459372 82.07090976078854 49.77487728589477
73.74481253167464 82.07090965152517 49.774877295562106
73.74481253608283 82.07090968860555 49.77487728974509
73.74481246470859 82.07091001719229 49.774877254681535
73.74481254628567 82.07090977225027 49.774877276584604
73.74481255368069 82.07090985318119 49.77487726422079
73.7448125533063 82.07090991061288 49.7748772562861
73.7448125635347 82.07091002221028 49.77487723923271
73.7448125571853 82.07091005394263 49.774877235765445
73.7448125519316 82.07091021346851 49.77487721435449
73.72578180789813 82.1036688067483 49.77108824542512
73.69951214485951 82.14651384544119 49.76635225971677
73.78694636061356 81.65303946855647 49.79575784932082
73.81553644886776 81.74227727696297 49.79465185325485
73.81555343189737 81.74229273862332 49.79465138062933
73.81554648048862 81.74228640851372 49.7946515741517
73.81555655584455 81.74229557988417 49.794651293831315
73.81556746752302 81.7423055197826 49.7946509898872
73.81557666488737 81.74231388466904 49.79465073435112
73.81558179872117 81.74231857009852 49.79465059091646
73.81559717176262 81.74233255131047 49.79465016381608
73.81561252573567 81.74234653176839 49.794649736431836
73.8155999110368 81.74233504462991 49.7946500876118
73.81561920475662 81.74235260594102 49.79464955087977
73.81988033838826 81.94176592539581 49.783398483804206
73.83912057957289 81.91079095706033 49.78441943941576
73.79245654333721 81.98714930448452 49.77944391781325
73.83911962506969 81.91079247288744 49.78441931079227
73.81987985323546 81.94176682628985 49.78339845309833
73.7680385703105 82.0243146190436 49.777968127063566
73.76804197066826 82.02430875720313 49.77796836248373
73.76804281071985 82.02430730218894 49.77796842040092
73.76804227698075 82.02430822912523 49.77796838368994
73.75071961566094 82.05839346460532 49.77610421131588
73.76803868547863 82.02431446459282 49.7779681365986
73.75071959478409 82.05839360049998 49.776104186852464
73.75071968188823 82.0583934617693 49.77610420156162
73.75071964097823 82.05839355150258 49.776104189640066
73.75071937967297 82.05839394349866 49.77610415044708
73.75071953371562 82.05839377794564 49.776104160183905
73.74688193237299 82.06502955445845 49.77575368773887
73.75071950258953 82.05839384902112 49.776104150541784
73.74688205688317 82.06502933179479 49.775753708258605
73.74688171273996 82.06503012150262 49.7757536289286
73.74688176353446 82.06503001349608 49.77575363952774
73.74688173266871 82.0650300854952 49.77575363226076
73.74688117623519 82.06503126245636 49.77575351695694
73.74688142565076 82.06503080762556 49.77575355920301
73.74688095973329 82.06503182280491 49.77575345880492
73.74688134839947 82.06503099443891 49.77575354015697
73.74688116081876 82.06503145315965 49.77575349324746
73.74688074140515 82.06503238542962 49.7757534004804
73.74688105676691 82.06503171181316 49.77575346668166
73.74688092171054 82.06503205157759 49.775753431675824
73.74688052265131 82.06503294830576 49.77575334215186
73.7468808227234 82.06503230587555 49.77575340533458
73.74688070544065 82.06503260715907 49.7757533741268
73.74688030449818 82.06503350899204 49.77575328406708
73.7468806142744 82.06503284419064 49.77575334950012
73.74688050559712 82.06503313082914 49.775753319613976
73.74688008498069 82.06503407215892 49.77575322575217
73.74688043639642 82.06503331604823 49.775753300233376
73.74688032717341 82.06503361321492 49.775753269017756
73.74481252358561 82.07090950873348 49.77487731663628
73.74688028239781 82.0650337355675 49.77575325615223
73.74481263704067 82.07090931775272 49.774877326273604
73.74481263642883 82.07090934260076 49.77487732290777
73.74481263051646 82.07090951727025 49.7748772994882
73.74481263731451 82.07090949685855 49.77487730131345
73.74481263711695 82.07090950506594 49.77487730020101
73.74481260937397 82.07090973004179 49.77487727304066
73.7448126175855 82.07090970380932 49.77487727546479
73.74481261686722 82.0709097132483 49.77487727425873
73.74481258927867 82.07090992655594 49.77487724869874
73.74481252827113 82.07091009358352 49.774877234565835
73.72578175048014 82.1036688854484 49.771088234863804
73.69951062715671 82.14651620962144 49.76635197846717
73.6995091388154 82.14651852809592 49.76635170265291
73.69950792588337 82.14652046330814 49.76635146961452
73.69950728610353 82.14652144656642 49.766351353465595
73.78695345283026 81.65301003782653 49.795757828704325
73.78695412754684 81.65300725115932 49.795757826854064
73.78694737248826 81.65303528787192 49.79575784653326
73.79973507318255 81.66448251642035 49.795833509565995
73.81553963847352 81.74228017800897 49.794651764629194
73.81555518111159 81.74229431455015 49.79465133276368
73.81557017486365 81.74230796653806 49.79465091542953
73.8155597088176 81.74229843603317 49.79465120679143
73.81557466202709 81.74231204767287 49.794650790754176
73.81558402235017 81.74232057619622 49.794650529933776
73.81559396123895 81.74232961551466 49.79465025379423
73.81559813464254 81.74233342701501 49.7946501370649
73.81561371925005 81.74234760072285 49.79464970408256
73.81561058121015 81.74234474321429 49.79464979144039
73.81561538319811 81.74234911402976 49.79464965785366
73.81562791647188 81.74236052872857 49.79464930885675
73.8156362683547 81.742368124292 49.79464907682927
73.83912113498411 81.9107900806951 49.78441951345711
73.83912976476799 81.910776464231 49.78442066385861
73.83913281826787 81.91077162631133 49.78442107373447
73.8391309573897 81.9107745824663 49.78442082284107
73.83911681228159 81.91079698605273 49.78441892521347
73.83912237803929 81.91078820285627 49.78441966734488
73.81987937980674 81.94176770327782 49.783398422715024
73.83911739473007 81.91079611837131 49.784418995592425
73.81988303683055 81.941761779323 49.78339882446101
73.76803983447762 82.02431248276932 49.77796821611021
73.76804218603397 82.02430842659714 49.77796837883453
73.76803774589574 82.02431612472832 49.77796807297845
73.76804044270142 82.02431145322846 49.77796825889183
73.76803870868392 82.02431446357284 49.77796813958595
73.7507195742232 82.05839373458704 49.77610416270848
73.75071971950848 82.0583935793866 49.77610417169984
73.75071955387386 82.058393865796 49.776104139118566
73.75071968602558 82.05839365363532 49.776104161778115
73.75071962687399 82.05839378667922 49.77610414386782
73.74688201070572 82.0650295838313 49.77575367865913
73.7507195534157 82.05839396247951 49.77610411946795
73.74688202985443 82.06502954931088 49.77575368185078
73.74688149737267 82.06503067702845 49.77575357132611
73.74688174177084 82.06503023265553 49.77575361255258
73.74688128164001 82.0650312317967 49.77575351384649
73.74688168984963 82.06503036056073 49.7757535994471
73.7468815001119 82.06503083187292 49.77575355104875
73.74688106583528 82.06503178591734 49.77575345645576
73.74688143569503 82.06503099504539 49.77575353420727
73.74688128304228 82.06503138592461 49.775753493752035
73.74688085076056 82.06503233757914 49.77575339933499
73.74688122581139 82.06503153428815 49.7757534783489
73.74688107906024 82.06503191441769 49.775753438891684
73.74688063759257 82.06503288399954 49.77575334276614
73.74688102473914 82.06503205337403 49.775753424513574
73.74688087627544 82.06503243810235 49.77575338457477
73.74688042479161 82.06503342896552 49.77575328636132
73.74688083079455 82.06503255573338 49.77575337236937
73.74688067229977 82.06503296092207 49.7757533304502
73.74688021293846 82.06503397111408 49.77575323025836
73.7468806269519 82.06503307726022 49.775753318403616
73.74999735510457 82.06470852837377 49.77533326321347
73.74999728953121 82.06470866872245 49.7753332491712
73.74999709078979 82.06470909455703 49.77533320647336
73.74999686776562 82.06470956842891 49.775333159751156
73.74481265147315 82.07090961309059 49.7748772830286
73.74481260392874 82.07090984816716 49.77487725741843
73.74481254672392 82.07091000814233 49.77487724369916
73.72578217087629 82.10366825883187 49.77108829916851
73.69950883932094 82.1465189888069 49.766351648204044
73.7062529233342 82.13197883523834 49.7682030101887
73.70625302708247 82.13197868856673 49.76820302712524
73.78696683035399 81.6529545223261 49.79575778979603
73.78696111867708 81.65297824401908 49.79575780656596
73.78696580034476 81.65295880203027 49.795757792836
73.78696152447411 81.65297656874712 49.7957578054592
73.79974695337465 81.66446352826479 49.79583352803669
73.7997501699448 81.66445839199503 49.79583353313875
73.79973757833201 81.66447851601714 49.79583351353663
73.79974256491737 81.6644705530457 49.795833521439604
73.81555657250567 81.74229558007075 49.79465129410249
73.815572733166 81.74231027876036 49.794650845062904
73.81557015378598 81.74230792997885 49.794650916868086
73.81557368447149 81.74231114400874 49.79465081862983
73.81558617365233 81.74232251766178 49.79465047090426
73.81559238829625 81.74232816997831 49.7946502982303
73.81559980744865 81.74233493259459 49.79465009136407
73.81561141447449 81.74234548910475 49.79464976887557
73.81562858210731 81.74236111802763 49.7946492911521
73.81562133692283 81.74235452063192 49.79464949284156
73.81563227124313 81.74236447318494 49.79464918865774
73.81564258136285 81.74237386561433 49.79464890144472
73.81565258441607 81.7423829628284 49.794648623545086
73.83913801670357 81.91076344396335 49.78442176388923
73.81566425764326 81.74239358773507 49.79464829881569
73.83913990761181 81.91076046041164 49.784422015957276
73.83912548761468 81.91078329566282 49.78442008197795
73.83913140233933 81.91077396171305 49.78442087064819
73.83912127016657 81.9107900311653 49.78441950830032
73.83912755909327 81.91078006633052 49.78442035257895
73.8391236790473 81.91078622913633 49.78441982958654
73.7924559529486 81.98715051286325 49.77944387382879
73.81988381870309 81.94176061844861 49.78339893111185
73.76804103469809 82.02431045062578 49.77796830051331
73.79245714613674 81.98714854882203 49.77944393921585
73.79245528072636 81.98715174181164 49.779443830971076
73.75071975761814 82.05839353866317 49.776104174060976
73.76803873059858 82.0243144613259 49.77796814236167
73.7507197351326 82.05839366922687 49.77610415093599
73.75071990468824 82.05839339582684 49.776104180251764
73.75071983781109 82.0583935579878 49.776104157607335
73.75071971251789 82.05839379789103 49.776104128218634
73.75071979163047 82.05839366972009 49.7761041420206
73.75071976319069 82.05839374231358 49.776104131649696
73.74688179518802 82.06503013589261 49.77575362151631
73.75071969060191 82.05839392423648 49.77610410586524
73.75071972538576 82.05839386757658 49.776104111996105
73.75071971773754 82.0583938941269 49.776104107773484
73.7468815816124 82.06503068328873 49.77575356484825
73.74688186323873 82.0650301705982 49.775753612436084
73.74688190092928 82.06503008994986 49.77575362036643
73.74688188391272 82.06503013290829 49.77575361593644
73.74688136796954 82.06503122998781 49.77575350827519
73.7468816521282 82.06503070919433 49.775753556744164
73.74688168886868 82.0650306304501 49.775753564491325
73.74688167306766 82.06503067073935 49.77575356032594
73.74688115594714 82.06503177215347 49.77575345218138
73.74688144338711 82.06503124132634 49.775753501731685
73.7468814802061 82.06503116227674 49.77575350951319
73.7468814645994 82.06503120203509 49.77575350540363
73.74688094674642 82.06503230682806 49.775753396869874
73.7468812375172 82.06503176567209 49.77575344753648
73.74688127432023 82.06503168655863 49.77575345532735
73.74688125893945 82.06503172570638 49.77575345128183
73.74688074239114 82.06503282886047 49.775753342873
73.74999791717205 82.06470734443707 49.7753333778808
73.74999741466756 82.06470840471383 49.77533327482625
73.74999791172895 82.06470735606631 49.77533337672138
73.74999764205695 82.06470793267962 49.77533331914355
73.74999720820678 82.06470885003688 49.775333229589286
73.74999747683759 82.06470828320262 49.77533328468872
73.749997303139 82.06470865255078 49.77533324821595
73.74999700341263 82.06470929107915 49.77533318492233
73.74481257365856 82.07090983081582 49.77487726435064
73.7448125355755 82.07091002066471 49.77487724362091
73.74481253025883 82.07090997096162 49.774877251329734
73.7448125578189 82.07090993578277 49.77487725211064
73.72578253959405 82.10366771118767 49.771088356070585
73.81501161159093 81.53952620906634 49.79545857126085
73.78696835298346 81.65294823982101 49.795757785672244
73.78697029056008 81.65294019334185 49.79575777998883
73.78696850382548 81.65294761741619 49.795757785263575
73.79976232433215 81.66443896668704 49.795833552058866
73.79976450498096 81.66443548471565 49.79583355552036
73.79975330171983 81.66445339110771 49.795833538105875
73.79975715845885 81.6644472325807 49.79583354422281
73.79974417831421 81.66446797665297 49.795833523996734
73.79974994820354 81.66445876283208 49.795833533140964
73.81558816050848 81.74232431050865 49.79465041639743
73.81557835201612 81.74231537898952 49.79465068944354
73.8155919021259 81.74232771365871 49.79465031243211
73.81560141270921 81.74233637783482 49.79465004748633
73.81560984711193 81.7423440490812 49.79464981313514
73.81561484510976 81.74234860924894 49.794649673558894
73.81562834532022 81.74236088763408 49.79464929846853
73.81564272288492 81.74237397863634 49.79464889828233
73.81563106435502 81.74236336261808 49.794649222823054
73.81564801310586 81.74237878994072 49.79464875130498
73.81565652241713 81.74238654420944 49.794648514142025
73.86739749975433 81.75958721292041 49.793246842946765
73.83914584596174 81.91075109070886 49.78442280756121
73.91802235528216 81.77699546951314 49.79178621446103
73.88048928713955 81.8425576646121 49.788131046780975
73.83913373166374 81.91077028585384 49.78442118123819
73.83914005783784 81.91076030273257 49.78442202475254
73.83912951404142 81.91077701965584 49.78442060781689
73.83913748562043 81.91076438819016 49.78442167805411
73.83913238285253 81.91077249174893 49.7844209904399
73.83911725607706 81.91079644300103 49.78441896212763
73.83912469781419 81.91078469614604 49.78441995485526
73.81987883347702 81.94176879375814 49.78339840306366
73.8391236665203 81.91078633486947 49.784419815749935
73.82386311374952 81.93900576674717 49.78343060629307
73.76803902410703 82.02431395496227 49.77796816266869
73.79245540107675 81.98715163588756 49.77944383303441
73.79245656742748 81.98714965318146 49.77944390004029
73.7924558936286 81.98715080890476 49.77944386082386
73.75071990661294 82.05839348351726 49.77610416206386
73.77201547488443 82.02156317542223 49.77799952273103
73.75071988301426 82.05839361102419 49.77610413973606
73.77201494158777 82.02156400306632 49.777999491846494
73.7507199901186 82.05839349386449 49.77610414692463
73.75071986002892 82.05839373649425 49.77610411772808
73.75071997158568 82.0583935541313 49.77610413752254
73.75071994387812 82.05839364371367 49.7761041235719
73.75071983752893 82.05839386026764 49.776104095990476
73.75071992453836 82.05839371712294 49.77610411161483
73.75071990949094 82.05839377968263 49.776104101201206
73.74688192343727 82.06503021131755 49.775753603103595
73.75071989009429 82.0583938587909 49.77610408809048
73.75071988065805 82.05839390887712 49.77610407934583
73.74688171739697 82.06503073482065 49.7757535490292
73.74688190895907 82.06503032325648 49.77575358955174
73.7499987431045 82.06470559665918 49.77533354877989
73.74999840769698 82.06470630977446 49.775333478377746
73.74999858434605 82.06470593713375 49.775333514579515
73.74999849047757 82.0647061383556 49.77533349438465
73.74999792117093 82.06470733614694 49.77533337865687
73.74999818024091 82.06470679905198 49.77533342893811
73.74999824456377 82.06470666333843 49.775333442127575
73.74999820716685 82.06470674323704 49.77533343416191
73.74999770106935 82.06470781007377 49.77533333067557
73.74999789945237 82.06470739831141 49.7753333693223
73.74999751510316 82.06470821163433 49.77533328979674
73.7499975485592 82.06470814103858 49.775333296659156
73.74999752086649 82.06470819964443 49.775333290927726
73.74999704949124 82.06470919416702 49.775333194278716
73.74999710202025 82.0647090839607 49.77533320486353
73.74481259895643 82.07090977048964 49.774877268968
73.74999684391614 82.06470962787336 49.77533315213515
73.74999677997587 82.06470976124245 49.77533313948331
73.74999689552652 82.06470952002516 49.77533316240617
73.82496568770185 81.55675517450965 49.79567952308867
73.82496563340746 81.5567551138676 49.79567952251835
73.82496570524177 81.55675519282806 49.795679523246505
73.79977680407934 81.66441582912461 49.79583357468679
73.7997784498235 81.6644132013879 49.795833577301735
73.79976812369486 81.6644297065228 49.79583356126507
73.79977132979842 81.66442458716213 49.795833566354645
73.79975934216962 81.66444374559944 49.79583354768661
73.79976422862583 81.66443594280443 49.79583355543687
73.79975046233783 81.6644579418242 49.795833533955836
73.81559002109238 81.74232598934029 49.794650365358265
73.79976136627634 81.66444052055822 49.79583355104684
73.81559296382814 81.74232866594099 49.794650283587636
73.8156029070765 81.7423377231004 49.794650006646364
73.81561002320177 81.74234419551158 49.79464980891573
73.81561596483239 81.74234961326613 49.79464964315311
73.81562738068331 81.74235999622283 49.79464932596056
73.815629191017 81.74236165679311 49.794649274971604
73.81564294912585 81.7423741697843 49.79464889271341
73.81563562576356 81.74236750133778 49.79464909657244
73.81564605108058 81.7423769910122 49.794648806527945
73.81565624010469 81.7423862721945 49.79464852273395
73.91802545119928 81.7769892595857 49.791786126141254
73.91802303699431 81.77699410208302 49.79178619501499
73.91802408507925 81.77699199991544 49.79178616510529
73.91802432738815 81.77699151387355 49.791786158193375
73.91802415017204 81.77699186935729 49.79178616324771
73.91802231396277 81.77699555255838 49.791786215626686
73.91802286521728 81.77699444689142 49.79178619989554
73.83914153115116 81.9107579778128 49.784422221190646
73.88048957115697 81.84255716782774 49.788131075019884
73.91802174013114 81.77699670375362 49.791786231982684
73.88048993354832 81.84255653880658 49.7881311133557
73.83913729950756 81.9107647319924 49.78442164614731
73.83914130121039 81.91075841625562 49.78442217983425
73.83912543306735 81.91078353557134 49.784420052933825
73.83913315910968 81.91077134032638 49.78442108353278
73.83913541424991 81.9107677666782 49.78442138633388
73.83913405057484 81.9107699331734 49.784421202449494
73.8391213544502 81.91079004666426 49.784419498521174
73.83912699644915 81.9107811397853 49.784420251295145
73.82386172417448 81.93900804238643 49.78343045446432
73.83912454450935 81.91078503817151 49.784419920247146
73.83912081837809 81.91079096372593 49.784419416979645
73.77201600710917 82.0215623516281 49.77799955373787
73.82385341742105 81.93902164713882 49.78342954443778
73.82385892775194 81.93901262236669 49.78343014807707
73.82385606202425 81.93901731584862 49.7834298341092
73.75072004531268 82.05839343357977 49.77610415061051
73.79245464740077 81.98715308203484 49.77944378162633
73.75072002095582 82.05839355846993 49.776104128934804
73.77201760052102 82.02155989969013 49.777999647782195
73.75072013807808 82.0583934291234 49.7761041370463
73.75071999724852 82.05839368131265 49.77610410757539
73.75072012569011 82.05839346892853 49.77610413085938
73.75072009527099 82.05839357156576 49.77610411466881
73.7507199733418 82.05839380356636 49.77610408636727
73.75072008037395 82.05839362513706 49.776104106065226
73.75072005752337 82.05839370778084 49.776104092772194
73.74999888207492 82.06470530911236 49.77533357558394
73.75072003902768 82.05839377357046 49.77610408223771
73.74999899057863 82.06470508461908 49.77533359650747
73.74999865245069 82.06470580276815 49.7753335257584
73.74999879776495 82.06470549619216 49.775333555549274
73.74999871359387 82.06470567610921 49.77533353759512
73.74999842712106 82.06470628699232 49.77533347692411
73.74999799669384 82.06470719531283 49.77533338861376
73.74999821574204 82.06470673314811 49.775333433529525
73.7499980070318 82.06470717379271 49.775333390646416
73.74999767708066 82.06470787410501 49.77533332174865
73.74999725546715 82.0647087636548 49.77533323529779
73.74999720848913 82.06470886277401 49.77533322566457
73.85314542297266 81.4554337722308 49.7984018319249
73.85315048050374 81.45542510270376 49.79840212530262
73.85315114047542 81.45542397153399 49.7984021635843
73.82496702942471 81.55675657619177 49.7956795351708
73.85300186833564 81.51101137449831 49.79741282462851
73.81291947474179 81.61229385296407 49.79581559761377
73.81292177755009 81.6122901539508 49.7958155996096
73.79977365279967 81.66442087791842 49.79583357004273
73.79977826495447 81.66441351343417 49.79583357736429
73.79976510275331 81.66443454698282 49.79583355682337
73.79977060004703 81.66442576884137 49.795833565543546
73.79977513476787 81.66441851907652 49.795833572553676
73.79977145540656 81.66442440298069 49.795833566900114
73.81560432556873 81.74233900015595 49.79464996787536
73.81561091296246 81.7423449918117 49.79464978482898
73.8156170211671 81.74235056045532 49.79464961446814
73.81562777218961 81.74236033898752 49.79464931573572
73.8156298830627 81.74236227219096 49.7946492564312
73.91802921084602 81.77698171825418 49.791786018891955
73.86738525313612 81.7595658786443 49.79324719833403
73.91802937377764 81.77698139146172 49.791786014242035
73.91802753096665 81.77698508788657 49.79178606681079
73.91802803833848 81.7769840702461 49.791786052331155
73.91802582539944 81.77698850904635 49.79178611546233
73.91802670249528 81.77698674984137 49.79178609043177
73.91802509036495 81.77698998359176 49.79178613641692
73.91802645566577 81.7769872449647 49.79178609747154
73.91802543681726 81.77698928870487 49.79178612653003
73.91802337340127 81.7769934276127 49.79178618539346
73.91802417413093 81.77699182156712 49.79178616254297
73.91802267618253 81.77699482630224 49.7917862052695
73.91802366418597 81.77699284448681 49.79178617708666
73.91802297452365 81.77699422790955 49.79178619675586
73.83914466632895 81.91075310532317 49.78442262860797
73.91802178333948 81.77699661735608 49.79178623072849
73.83914052201419 81.91075971846398 49.78442206566568
73.88048691477552 81.84256176730993 49.788130788626844
73.83914317138917 81.91075553655739 49.784422419069934
73.83912908476916 81.91077784304835 49.78442052991994
73.83913616243544 81.91076666978698 49.784421474235614
73.83912504387554 81.91078429221625 49.78441998087614
73.83913581136632 81.91076722786255 49.78442142684969
73.83913002861851 81.91077642177886 49.784420646119855
73.82386780328716 81.93899808610036 49.783431120347004
73.83912738018205 81.91078063339388 49.78442028842659
73.83912428400964 81.91078555901855 49.784419869978706
73.79245483325894 81.98715276967464 49.77944379212751
73.82385963420828 81.93901146559557 49.78343022494624
73.82386609890906 81.9390008776918 49.78343093328144
73.8238628667565 81.9390061713482 49.78343057907776
73.7507201732878 82.05839339027064 49.77610413947832
73.82385113106712 81.93902539200944 49.783429293366815
73.75072014776299 82.05839351271815 49.776104118483104
73.82385055319577 81.93902633845315 49.783429230040454
73.77513358416093 82.02123621917316 49.77757960230635
73.7507201210633 82.05839363494287 49.776104097716654
73.75072022757944 82.05839345659066 49.77610411747939
73.75072018712447 82.05839355931879 49.77610410283606
73.74999911199745 82.06470483327242 49.77533361996096
73.7507201249532 82.05839370093653 49.77610408364795
73.75072011063263 82.05839373441594 49.7761040790529
73.74999883968714 82.06470541448785 49.775333562130236
73.74999844757444 82.0647062439293 49.77533348109084
73.74999849863687 82.06470613610743 49.77533349158701
73.74999846787485 82.06470620121468 49.775333485218574
73.74999814369852 82.06470688932313 49.775333417510794
73.74999766785379 82.06470789193621 49.77533332034547
73.74999790133303 82.06470739920526 49.775333368255694
73.74999788007713 82.06470744423645 49.775333363842265
73.74999726105091 82.06470875184446 49.77533323645149
73.8659568468532 81.46689008092383 49.79847810886372
73.86595766599002 81.46688827902331 49.79847816720838
73.85300498371322 81.5110055464206 49.79741301433985
73.86595398271787 81.46691445697317 49.79847758470681
73.82496968631887 81.55675944896616 49.79567956111262
73.85300057174149 81.5110225427794 49.79741257194961
73.79977894575774 81.66441242634411 49.79583357844474
73.79978401249457 81.66440433595496 49.79583358648689
73.81292368919456 81.6122912167398 49.79581560961099
73.79978466010029 81.66440330187216 49.79583358751462
73.79977587909771 81.66441733906369 49.795833573914805
73.79977793633284 81.66441405398207 49.795833577176765
73.81561802929986 81.7423514645975 49.79464958708354
73.91803309085759 81.77697393554008 49.79178590820487
73.81563054268355 81.74236285888037 49.794649238753344
73.91803170931712 81.77697670678106 49.79178594761039
73.91803216190044 81.77697579895467 49.79178593470034
73.91803179911895 81.77697652666606 49.791785945047465
73.91803008857227 81.77697995779666 49.79178599384243
73.91803049358404 81.77697914546393 49.79178598228373
73.91802844910161 81.77698324637477 49.791786040608564
73.91802920978151 81.77698172067254 49.79178601889983
73.91802678546037 81.77698658343701 49.791786088064114
73.918027700595 81.77698474793755 49.79178606194793
73.91802880291166 81.77698253682422 49.791786030504234
73.91802794976535 81.77698424817292 49.79178605483709
73.91802605554957 81.77698804770021 49.7917861088729
73.91802668222671 81.77698679076073 49.79178609098904
73.91802438510453 81.77699139841154 49.791786156522406
73.91802534868083 81.77698946574097 49.79178612902467
73.91802582627294 81.77698850774871 49.79178611540134
73.91802547964005 81.7769892030725 49.79178612528746
73.91802369660655 81.77699277960409 49.79178617615003
73.9180242640095 81.77699164154551 49.79178615995823
73.91802201107726 81.77699616057373 49.79178622422972
73.9180230245359 81.77699412784187 49.791786195309335
73.91802338132229 81.77699341217104 49.79178618513204
73.9180231408736 81.77699389449896 49.7917861919895
73.88048646701515 81.842562538865 49.788130738577635
73.91802202484581 81.77699613319302 49.791786223818114
73.83913644088906 81.91076623019224 49.784421511388814
73.8391434356784 81.91075518819015 49.78442244458682
73.88048702980382 81.84256155714198 49.7881307958023
73.83914530558162 81.9107522362526 49.78442269407109
73.83913241608812 81.91077265208247 49.78442096475718
73.83913842536583 81.91076316372988 49.784421766769626
73.83912846688368 81.91077895316559 49.7844204284192
73.83913705133574 81.91076534737137 49.78442158139056
73.83913222609986 81.91077301620926 49.78442093032272
73.83912465597741 81.91078503301064 49.7844199109453
73.83912728072923 81.91078087273074 49.78442026350491
73.83912573844475 81.91078332289275 49.78442005554917
73.82385176916526 81.93902434688313 49.78342936337933
73.82386268667494 81.93900646533031 49.783430561284284
73.77513458979178 82.02123453021213 49.77757967668583
73.82385606397484 81.93901731173234 49.78342983619147
73.82384893200046 81.93902899222343 49.78342905530098
73.75072024832367 82.05839348644562 49.776104108152886
73.75072016454803 82.05839362292551 49.77610409338353
73.75072008295501 82.05839375668977 49.7761040788276
73.74999880903643 82.06470547682383 49.775333556542265
73.7499984782715 82.06470617899322 49.77533348743577
73.7499983945389 82.0647063513155 49.77533347156376
73.74999827624944 82.06470660519116 49.77533344602429
73.74999825716738 82.06470664114339 49.775333443398516
73.74999812930453 82.06470691811296 49.775333415031184
73.7499982990473 82.06470655863228 49.77533345023841
73.86595868124088 81.466886047012 49.798478239498756
73.93487715946779 81.44186101178465 49.798663004685196
73.86595464106993 81.46691287601035 49.79847763395048
73.93475105406499 81.49743611502211 49.797673875891164
73.8530012257809 81.51102129345864 49.79741261228968
73.93475002327334 81.49745772328474 49.79767328425889
73.93475223163296 81.4974408473746 49.79767373595007
73.98349134785377 81.54262862366372 49.79569423873723
73.89466370410253 81.59873333190447 49.79607614889461
73.98348734451969 81.54263022335866 49.79569421681384
73.9021860579453 81.69902648005 49.792970150255954
73.90218910519155 81.69903327977283 49.79296997717532
73.91803330619209 81.77697350364754 49.79178590205909
73.91803396738142 81.77697217751248 49.79178588318824
73.91803251121145 81.77697509842992 49.79178592472425
73.91803340853329 81.77697329851227 49.79178589912797
73.91803265053187 81.77697481899666 49.79178592074802
73.9180309344072 81.7769782613058 49.7917859697029
73.9180313551864 81.77697741735022 49.79178595769407
73.91802933198967 81.77698147555886 49.79178601541217
73.91803008267509 81.7769799699046 49.79178599398851
73.91802860936846 81.77698292519736 49.79178603601325
73.91802968344578 81.77698077072918 49.791786005375045
73.91802885821917 81.77698242607396 49.79178602891152
73.91802699503971 81.7769861633447 49.79178608206213
73.91802763807121 81.77698487360232 49.79178606371161
73.91802631496991 81.776987527627 49.7917861014497
73.9180268655476 81.77698642323469 49.79178608574444
73.91802646926983 81.77698721814312 49.79178609704643
73.91802468821543 81.77699079070072 49.791786147852875
73.91802532624877 81.77698951097484 49.79178612964566
73.91802403642396 81.77699209825691 49.79178616643406
73.91802466671456 81.77699083396935 49.791786148455046
73.91802425126474 81.77699166734195 49.79178616030336
73.91802239825688 81.77699538422499 49.791786213162624
73.91802316781477 81.77699384068693 49.791786191202846
73.88048957295746 81.84255713157243 49.78813105946773
73.91802271679987 81.77699474540319 49.79178620406529
73.91802212304967 81.77699593643925 49.79178622099849
73.83913943482463 81.91076156949497 49.784421901543844
73.83914463923168 81.91075335006384 49.78442259640943
73.83913558671455 81.91076770568873 49.784421379443486
73.83914054914172 81.91075984022558 49.78442204599165
73.83913698127029 81.91076550197242 49.784421565816366
73.83912921679934 81.91077782123755 49.78442052112385
73.82386656227331 81.93900011562134 49.78343099048168
73.82385688641659 81.93901596192937 49.78342993199455
73.77513509239806 82.02123369022553 49.77757971261363
73.7507201628239 82.05839357480197 49.77610410346907
73.75072007267427 82.05839376411146 49.77610407891768
73.75071999443539 82.05839384631133 49.77610407435688
73.74999893049045 82.06470521635309 49.77533358270622
73.74999890875645 82.06470525805494 49.77533357949056
73.74999878685506 82.06470552219554 49.77533355242062
73.7499989585443 82.06470515861497 49.77533358802493
73.74999839623541 82.06470634773558 49.77533347191178
73.93488632851779 81.44186564991672 49.79866286173403
74.0477737302655 81.35934527902809 49.805667815630564
73.93475287325539 81.49743592575786 49.79767386769714
73.99891124907113 81.48164280238322 49.79727157777637
73.98351831255818 81.54262017410578 49.79569420823556
73.9989241480308 81.48165342015963 49.79727113044176
73.98352091485948 81.54261935864427 49.795694205293
73.98350789829591 81.54262377597922 49.795694194079374
73.98351506308387 81.54262152832852 49.79569418616784
73.9021908821928 81.69903724501513 49.79296987624299
73.97113458561955 81.67399957582522 49.793154756004114
73.91803405971508 81.77697199232347 49.79178588055274
73.91803439157678 81.77697132672584 49.791785871080265
73.91803301704985 81.7769740838874 49.791785910286606
73.91803170884272 81.77697670803084 49.79178594760025
73.91803021437089 81.77697970576352 49.79178599022992
73.91803138206016 81.77697736352661 49.79178595692099
73.91803039821838 81.77697933702214 49.79178598498292
73.91802915538631 81.77698183004195 49.79178602043089
73.9180279899497 81.77698416782802 49.791786053670165
73.91802794659372 81.776984254797 49.79178605490674
73.91802681706056 81.77698652056098 49.791786087122205
73.91802576730075 81.77698862633042 49.79178611706046
73.91802573263843 81.77698869586114 49.79178611804902
73.91802467228138 81.77699082287607 49.79178614829046
73.91802359124259 81.77699299137988 49.79178617912153
73.9180236467302 81.77699288007855 49.79178617753874
73.91802361440332 81.77699294492444 49.7917861784607
73.91802256120094 81.77699505759315 49.791786208497626
73.83914592279635 81.91075131533775 49.78442276885502
73.83914100781348 81.91075910392314 49.784422108917056
73.83913610106424 81.91076687924195 49.78442145011562
73.83912665044892 81.91078185707869 49.784420180919454
73.82386198696418 81.93900760531277 49.783430496793116
73.82385426492507 81.93902025379091 49.78342964805118
73.82385550618864 81.93901821895993 49.78342978788025
73.82385903612408 81.93901243967105 49.78343017050091
73.77513526490368 82.02123340188132 49.77757972495755
73.75072015936871 82.05839357732174 49.77610410349414
73.75071999425016 82.05839384637248 49.77610407437328
74.0477937468015 81.35932781986995 49.80566923478705
73.99891364625458 81.48164466000826 49.797271501249256
73.99890791007834 81.48163986432495 49.79727170440525
73.99891430250216 81.48164516865768 49.79727148029307
73.98352307791615 81.54261867473005 49.795694203314156
73.98351361274928 81.54262196709513 49.795694189011755
73.9711325601266 81.67400347206502 49.7931546781235
73.9180340173722 81.7769720772997 49.791785881757264
73.91803255603918 81.7769750085629 49.79178592344142
73.91803123202968 81.77697766439482 49.79178596120654
73.91803031099501 81.7769795119739 49.7917859874716
73.91802994681407 81.77698024241711 49.791785997864615
73.9180288439305 81.77698245473377 49.791786029319226
73.91802847815276 81.77698318837945 49.79178603975783
73.9180281125539 81.77698392179006 49.791786050181514
73.91802756741154 81.776985015313 49.79178606572909
73.9180266599717 81.77698683562454 49.79178609160617
73.91802629663569 81.77698756437258 49.79178610197511
73.9180259417559 81.77698827628231 49.79178611209302
73.91802558611518 81.77698898971839 49.791786122232615
73.91802451081882 81.7769911467001 49.79178615290017
73.91802414666213 81.7769918770942 49.79178616329255
73.91802380358467 81.77699256533019 49.79178617307376
73.9180237192592 81.77699273459768 49.791786175469554
73.91802346201676 81.77699325053796 49.79178618281195
73.91802240691844 81.77699536700499 49.79178621290332
73.88048696730313 81.8425615288948 49.78813072421859
73.83914489637517 81.91075289219367 49.784422638067035
73.83914346649756 81.91075513646976 49.78442244913289
73.8391429361403 81.91075601854394 49.78442237202867
73.8804869286181 81.84256163041303 49.788130736458335
73.83913941673595 81.91076162022952 49.78442189599156
73.83913632372952 81.91076652244973 49.78442148057109
73.83912715231331 81.91078105895618 49.784420248706645
73.82386201787702 81.93900755461816 49.78343050031296
73.9989130136359 81.48164416907332 49.79727152148518
73.99890350264816 81.48163679515056 49.79727182532142
73.98351735151789 81.54262046218216 49.79569421032423
73.98350154547384 81.54262541076713 49.79569422853589
73.98349164980716 81.54262882965222 49.79569421536253
73.98349128853522 81.54262878275081 49.795694228039
73.98350743078042 81.54262388944491 49.79569419713927
73.98350182112938 81.54262548532243 49.79569421589302
73.98350246533106 81.54262560494666 49.79569419053121
73.97113255629839 81.67400347943256 49.79315467797582
73.98350531021086 81.54262472125593 49.79569418671781
73.91803401765947 81.77697207673664 49.79178588174804
73.91803257990577 81.77697496070324 49.791785922759516
73.9180312885756 81.77697755098093 49.791785959592765
73.91802994912156 81.77698023778916 49.79178599779874
73.91802848027514 81.77698318412259 49.79178603969727
73.91802811588178 81.77698391511518 49.79178605008654
73.91802763417259 81.77698488140915 49.791786063823864
73.9180262998411 81.77698755794319 49.79178610188366
73.91802594626365 81.77698826724064 49.7917861119644
73.9180255924146 81.77698897708295 49.7917861220529
73.9180241499634 81.77699187047241 49.79178616319837
73.9180238075166 81.7769925574434 49.79178617296158
73.91802346659468 81.77699324135536 49.79178618268134
73.88048697448599 81.84256151594607 49.78813072474982
73.99890350001277 81.48163679310728 49.797271825405616
73.98350154513497 81.54262541083628 49.795694228539105
