ply
format ascii 1.0
element vertex 140
property float x
property float y
property float z
end_header
68.66766034497574 50.83592216434282 50.366749872301966
68.66766100186166 50.835942933154 50.366743512255894
68.66766084709282 50.83593501656137 50.36674595987877
68.66766114203726 50.8359431113399 50.36674349050109
68.66766135733047 50.835949006881904 50.3667416921356
68.66766205559982 50.83597195371496 50.36673465840491
68.66766184607923 50.83596190714151 50.36673776136996
68.83153643790622 50.79443997243449 50.36677023344507
68.8315972435177 50.79443867302433 50.36676534151428
68.9069908222818 50.83708584127831 50.36200757938738
68.90694654260034 50.83707116216165 50.36201300181131
69.06448641537223 50.800496986394414 50.35874890772324
69.06451989309932 50.80050434742094 50.35874564028721
68.66765936678098 50.83588749037837 50.36676051942882
68.66765943634127 50.835889212604314 50.366759995710325
68.66766019664905 50.83591474479998 50.366752165450094
68.66765992498365 50.83590121912562 50.366756345502594
68.66766045887378 50.835915558001304 50.3667519741009
68.66766040169558 50.835912731307815 50.36675284758015
68.66766051399873 50.835915754841466 50.36675192574779
68.667661241979 50.835943262914256 50.36674346728869
68.66766090104457 50.83592637962393 50.36674868455175
68.6676614778482 50.835943761247705 50.366743368362904
68.66766137717491 50.835938790003155 50.36674490450382
68.83349297263136 50.745405077881976 50.3769531219434
68.83159838486203 50.79443581752276 50.3667660502384
68.83361012781505 50.74536798056661 50.37695093887325
69.06402671210333 50.80039345994463 50.35879353157122
68.99092948907388 50.708660839702205 50.373719532064214
69.06420973883166 50.80043266337985 50.358775564702995
69.06451508324699 50.800503127206106 50.35874609356263
69.06441884925891 50.80047864556581 50.358755155795265
69.06487495327696 50.800580264325404 50.35871077226264
69.0648293689682 50.80056881398646 50.35871507941056
69.30169977140233 50.86218529713454 50.331605737053195
69.30171963193811 50.8621972752329 50.331603876862545
68.66765871162679 50.83586849416689 50.36676632340003
68.6676593995538 50.83588768783048 50.366760465432435
68.66765916027018 50.83587783583843 50.3667635000513
68.6676596386825 50.83588908369747 50.366760085526224
68.66765961807766 50.83588820437014 50.36676035656079
68.66765966147987 50.835889216052735 50.36676004953382
68.66766007514218 50.83589884520343 50.36675712740161
68.66766068809697 50.835916470877635 50.366751743411015
68.66766051263038 50.835908519477854 50.366754196913675
68.83345678094196 50.74539867129373 50.37695881298765
68.8334955772118 50.74538606688941 50.37695817977415
68.83363812257505 50.74535160062221 50.3769525273975
68.83368540439065 50.74532399081352 50.37695519485784
68.99093465843674 50.70864608656285 50.373722171067755
68.9909354516611 50.70864396570999 50.373722545798685
68.99098987963376 50.708641987888875 50.3737179207574
69.06439083192654 50.80047147204503 50.358757789579506
69.0663219484983 50.75130620584797 50.368964659491446
69.2287574657581 50.76537990601284 50.35095872519401
69.22874591598455 50.76536495612853 50.35096117696261
69.22877605584065 50.76539561670961 50.35095649436317
69.30171389791732 50.86219381035193 50.331604419665005
69.22881357520833 50.76543411408349 50.350950597530215
69.30175636780393 50.86221940658068 50.33160045722997
69.30175078398372 50.8622160325277 50.3316009857562
69.30176706309956 50.86222585581736 50.33159945652601
68.66765883346311 50.835884410213566 50.366761356364435
68.6676591786827 50.83588711579533 50.366760591154126
68.66765951594803 50.83588955402857 50.366759907936455
68.66765959943844 50.835890146408126 50.36675974232378
68.66765985154285 50.83589210822436 50.36675918790562
68.66766026803643 50.83590082131542 50.3667565540554
68.83350458083446 50.745381102081595 50.376958605517075
68.83354643991491 50.74535806120258 50.376960573287526
68.83372848275953 50.74529905188375 50.37695756443914
68.83374254733747 50.74529092548653 50.37695833362385
68.99083227913964 50.70863515805017 50.3737339667162
68.99093945406757 50.708630360751435 50.373725050266984
69.06629114608639 50.751284419578425 50.36896914836415
68.99115294076661 50.70862099272269 50.373707249460885
69.06664110056377 50.75133904567488 50.36893874017771
69.06662819819714 50.75133047445765 50.368940561261994
69.22872067007273 50.76532706065648 50.350967607751
69.22879794523368 50.76541403930892 50.35095388329984
69.22876672064626 50.76537393293508 50.35096044786587
69.30371838427679 50.813082178376334 50.34179883299602
69.3037135561604 50.813075937037254 50.34179997243669
69.30372257793367 50.81308759858683 50.34179784409869
69.301792426295 50.86224119241794 50.33159704651359
69.30179144920848 50.8622406018129 50.3315971391669
69.30179422776672 50.862242278712586 50.331596877948996
68.66765877839802 50.835884071957 50.36676144912897
68.66765898046353 50.83588949380123 50.36675979625217
68.66765913529993 50.83588982815381 50.366759729045185
68.66765898173472 50.83588700801675 50.36676057695951
68.66765946843144 50.83589036206579 50.36675964266975
68.66765928446516 50.83590210384135 50.36675591154368
68.66765948912263 50.83590644245815 50.36675459937183
68.66765958556097 50.83590285196581 50.36675575010474
68.6676593931268 50.8358983505573 50.36675711636504
68.66765988843761 50.83590369267195 50.36675556003465
68.66766015129977 50.835901977493194 50.36675616261087
68.83356439696948 50.74534973696512 50.376960979410384
68.83376194734917 50.74528037334603 50.37695921011985
68.99093798900947 50.708626384619336 50.373726026339966
68.99093755617213 50.70862479495609 50.37372640240879
68.99100320758389 50.70862136558098 50.3737210442322
68.99114638373104 50.70861447857108 50.37370923372515
69.06658260085683 50.75130909170659 50.36894604609179
69.2287426748571 50.765343979397706 50.350965311749434
69.22874547011702 50.765346860439024 50.35096486977156
69.30370381768029 50.813063459562315 50.34180217645091
69.30370942745395 50.81307070702927 50.34180085619512
69.30178102963325 50.8622343983283 50.33159804529234
68.66765958145578 50.83590287357022 50.36675574232099
68.66765988568079 50.835907872308965 50.36675424719
68.66766012479701 50.83590801611106 50.3667542603591
68.83345458884287 50.745394158488764 50.376960315847
68.83355351970542 50.74535863417832 50.37695965101886
68.83346028103696 50.74538942548488 50.37696103262728
68.83374644716848 50.74529060486542 50.37695800424571
68.99093292578044 50.70862440560991 50.373726913724695
68.83384524104704 50.74525512760929 50.37695734093735
68.99092625904206 50.70863151326653 50.37372602927999
68.99112714143362 50.70862346149034 50.37370911814901
69.06657306137743 50.75131831508348 50.3689457314575
69.06640210262876 50.75129037872344 50.36896071987403
69.06659921047937 50.75134251508295 50.36894131171972
69.22875564245267 50.76536044514464 50.350962624599156
69.30369937069 50.81305776625992 50.34180317915329
69.22879515413754 50.76540316654402 50.350955966931394
69.3017207733365 50.86219814522456 50.331603612826726
69.22880747235159 50.765419114987836 50.350953351238466
69.30177579840729 50.86223128221333 50.331598501611545
69.30174129597572 50.862210440277444 50.33160176188891
68.83355997568492 50.74535487658003 50.37696001178277
68.83375150913403 50.745288110328644 50.376958160282726
68.83384652685379 50.745254492409956 50.37695738100909
68.99092606357621 50.70863142163523 50.373726066756575
68.99112655918374 50.708622316876955 50.37370941400354
69.06639890565974 50.7512893235749 50.3689610570293
69.06659831655716 50.751342229891065 50.36894140494276
69.22875569996978 50.765360535636994 50.35096260909444
69.22879496678635 50.765402937932194 50.350956003848474
