ply
format ascii 1.0
element vertex 364
property float x
property float y
property float z
end_header
38.61536361521022 48.64887987139682 42.92832782745746
38.61585982752655 48.650533516847815 42.929352394775734
38.67654543287541 48.653787622440404 42.88708713530025
38.67573310336034 48.65458661297063 42.88856278805639
38.711255630286054 48.710095350387604 42.89470072224665
38.71118176176564 48.71013747957825 42.894809471549046
38.72879977498234 48.703226912846475 42.88292327507172
38.71119751414657 48.710151630856245 42.89480537857701
38.70561758293864 48.752233426768 42.9181847824248
38.70526516174155 48.75225767014447 42.918600071892484
38.75715418561356 48.67442234179819 42.83073806027187
38.70544093078351 48.752324113339014 42.9183837992663
38.70640536429619 48.75244137085963 42.91722593371285
38.70581610251741 48.75248608271619 42.91791982720688
38.70609895376088 48.75263032265155 42.917567449678586
38.79312373522926 48.781408305016214 42.85124093357235
38.70625358132867 48.75271913750109 42.91737365335855
38.83077776197009 48.87095419940681 42.85349082973573
38.83038876148032 48.87102583712578 42.85381472418229
38.83055778891613 48.87103806861232 42.853675108674466
38.8806434673641 48.87447411268387 42.8120056426403
38.88050998509903 48.874663191338 42.81212050542021
38.88452723240877 48.90971121770795 42.81748241907478
38.88450023055239 48.90969339528486 42.81749350780438
38.88454937614594 48.90973062567379 42.81747524289954
38.884771916359234 48.90989892819681 42.81739242265214
38.966953211006384 48.98591692550265 42.78463907932471
38.967152758227925 48.986127987064435 42.784558858058176
38.55921233913391 48.6351617349127 42.955556155144166
38.61488463589536 48.64940370461523 42.92892917165884
38.5594091279517 48.635432791564476 42.955626534482285
38.61485400533508 48.65256957269855 42.93131733632145
38.61461396126677 48.652784012427254 42.931582635429294
38.61585835014414 48.6515612745558 42.93012399760789
38.61487465789923 48.6535386525965 42.93203529427991
38.65031127922096 48.70707421836054 42.937496226231744
38.64886513370664 48.70664376721227 42.93829336692333
38.65048763493407 48.707508369351736 42.937872032885565
38.70409813500173 48.75234068640004 42.91997496540675
38.70312291437645 48.752407368108074 42.92112420236496
38.7036160842778 48.75257976461329 42.920519022328136
38.70502137035744 48.752544374549956 42.9188559094518
38.703742563799246 48.75262324728842 42.92036390152022
38.6953182028917 48.80376403308857 42.944341719452225
38.69522129318204 48.803652690664265 42.9444358340853
38.70588807044956 48.75275092856658 42.917803593257005
38.69539496097954 48.80395425563558 42.944327704692824
38.69647395550297 48.805677878160594 42.943566916979904
38.696202432531976 48.80537555716489 42.94383632730407
38.69674330920595 48.80635922172312 42.94352594123768
38.818603854446536 48.890928620241084 42.86379497980437
38.69697328599905 48.80678217848339 42.943396761381095
38.818332308245026 48.890907000928195 42.864020630017365
38.81745090537757 48.8908181788705 42.864751089407484
38.818139262171954 48.89089075816024 42.86418095566812
38.884645033898686 48.90981447676418 42.817444247448606
38.833722360049975 48.90589042189457 42.8596081033491
38.92492191478035 48.95132952866551 42.804197232526704
38.83509522809337 48.906274669705624 42.858637288424994
38.96690771167936 48.98586889370827 42.78465809843467
38.966893216334434 48.985853562361655 42.7846639290391
38.96733208124095 48.986317685563805 42.784486987464646
38.966930979453295 48.98589349885452 42.78464870344541
39.00232086109483 49.20752271361646 42.833704442573676
39.0023298365777 49.20805833343768 42.83386733686557
39.00984970244035 49.31707237448327 42.86557865000117
39.0098457682046 49.317068544545435 42.865579455735826
39.00991151405212 49.317224728323794 42.86560572666395
38.4533440510165 48.540204739444604 42.952085591222755
38.48275273695149 48.566566920722394 42.95318964234395
38.45344897307508 48.54027123763969 42.952022874416315
38.55935231538843 48.63535698855356 42.9556065273549
38.47749179298995 48.58486248642293 42.961511144041694
38.55635193570835 48.655749634976225 42.96446112799666
38.5549506936493 48.65441761169503 42.96419697986549
38.558372297580526 48.6576804977056 42.96487230479906
38.61498645608699 48.65576300296573 42.93365522208285
38.558838762426994 48.65812608683814 42.96496661424021
38.636581882875994 48.72622130012992 42.95084289716003
38.63635698651704 48.726025962366926 42.950903355910384
38.650614622217724 48.70781097747195 42.93813023370989
38.636784894344444 48.726407273105025 42.950833651605734
38.702196646575274 48.752693890796316 42.92218975302645
38.63886854277992 48.72824233475558 42.9503922930215
38.70352081372138 48.75263517879158 42.920625596574
38.69354043003446 48.801394153432526 42.94587402585486
38.69453509882699 48.80285542407563 42.945096970644244
38.69411116848108 48.80235685473978 42.945501849831324
38.694968953333564 48.803812441213715 42.94494765651806
38.69578962058 48.80490228987365 42.94423784069678
38.695190580275906 48.804190969976304 42.94480592058703
38.69626889439283 48.805989017064654 42.94409040864481
38.69612468716617 48.8058157784639 42.944225974947805
38.696866091191694 48.80666683738406 42.94350550248233
38.69642754171974 48.80634405037808 42.944038823502716
38.74380244103469 48.84367345062208 42.920089574253396
38.69687901301239 48.8071333006321 42.943760868222896
38.81586876925633 48.89066126822475 42.86606254599252
38.74407977198152 48.84416019883403 42.919924928323496
38.833285807251904 48.90577887223368 42.8599259973458
38.815876185896116 48.89066287620427 42.86605649044451
38.833425731594 48.905843930632614 42.85984942232309
38.831497302500594 48.90535274038594 42.861255043675165
38.83356955697161 48.905904739516004 42.85976547419038
38.81316792430373 48.965689819906075 42.86913978433709
38.824088000607496 49.0596093306474 42.869230130674644
38.91473907868507 49.1948016519007 42.842330242593476
38.914165479050894 49.194140400791326 42.8421972697483
39.00983903763412 49.317068794650524 42.86558376635611
39.00983835456397 49.317074180648916 42.86558651459224
39.009928362493085 49.31728995797292 42.86562332395808
39.009927943351315 49.31728960498313 42.86562343352451
39.009950138902504 49.31732020957166 42.8656227663217
39.009938389685246 49.31731479749848 42.86562777001136
39.01003325015871 49.317543809954024 42.865667254445306
39.01014555698113 49.3178168210125 42.86571481090756
38.453284044623196 48.54029956309046 42.952151368768654
38.45285666652288 48.54045240257645 42.95250221929963
38.47651075669177 48.58404954894361 42.961676456865504
38.47591251330949 48.58355220836255 42.96177258247118
38.55443878145164 48.65393152618349 42.96410206588984
38.47695083596355 48.58442092001365 42.961621844770235
38.55661780873354 48.656011078555764 42.96453686130917
38.540472435475934 48.64463714867632 42.97310613916606
38.558640169316895 48.65793682339761 42.964927763604756
38.557964699968 48.657299264021354 42.96481379953459
38.56068390967498 48.65989433144842 42.96535635907153
38.55913667950485 48.658418694187375 42.96505045579957
38.63607438364228 48.72580627110318 42.95110045165819
38.63776607507877 48.727296039343784 42.950741655398375
38.636283856296544 48.72599292902614 42.95106630986324
38.693317359675845 48.80140986082627 42.946252021950876
38.6418747408641 48.757143930238186 42.962501916216155
38.693839508607894 48.80203371745423 42.945759137474056
38.693520257985405 48.80180752297842 42.94615259022315
38.6944458718226 48.80326864763727 42.94548957848854
38.694167947563905 48.802913146692305 42.94573802030333
38.695086843559196 48.80406494665247 42.94490260928766
38.6948996469506 48.804155675466674 42.94526582061235
38.69563848788095 48.8052145267048 42.944672853897984
38.695153118429715 48.804584049054924 42.94510102353338
38.69613144560595 48.80620286899102 42.94444444051917
38.69602053130353 48.8060541357743 42.944539519626176
38.69667874876084 48.80689310487517 42.94394936106048
38.69626258577841 48.80645869563236 42.944379464787374
38.69701753045401 48.80760591757063 42.94381230729036
38.69673221883514 48.807233696412055 42.94406303950041
38.74246655364615 48.84323367330922 42.9211552072597
38.81592782254097 48.890669511246784 42.866013848070544
38.74261235152204 48.843339244675825 42.921047142370554
38.81195250176276 48.96452006182742 42.870134819217256
38.81129229193282 48.96388533720058 42.87067532040181
38.82322785152151 49.05806600429598 42.869863465421886
38.82316462763789 49.05795204876199 42.86990878518412
38.91400850729317 49.19395927252122 42.842160903985864
38.82338214799364 49.05834517889447 42.869755417138876
38.96705742547862 49.26171756793843 42.85254194738397
38.91452788385219 49.194583807616425 42.84227770561746
39.00991663153995 49.31727668787656 42.86562492894279
39.00991479430182 49.317275107979924 42.865625395145706
39.009973881097395 49.31741840648722 42.86565026986556
39.01002373225281 49.317526370653184 42.865665680335795
39.010000897674345 49.317483950434266 42.8656616532934
39.01011835235043 49.31776131977164 42.865707873942576
39.01009334579749 49.317709112454736 42.865700984306635
39.01435931254484 49.35430310745199 42.867645605731276
39.01435218699788 49.354331023212794 42.86764398084599
38.47535577226034 48.58308973892949 42.961863115597886
38.47618933336099 48.58379012364709 42.96175081827158
38.47576461876765 48.583436501006105 42.9618174781548
38.53912769546565 48.64344104752112 42.973092987325636
38.47652592541586 48.58407281371588 42.96170510685965
38.541685417728736 48.64574899915369 42.97321456554041
38.540146838897286 48.644377541052776 42.973190889067254
38.55856480478538 48.65787378824571 42.96493888278219
38.55755246928248 48.656914584797924 42.96475724193739
38.560158024934765 48.65940042245618 42.96527487472392
38.55876833452998 48.65807550577147 42.96500150302292
38.63618048780527 48.72590090903243 42.951083581375485
38.639107942305515 48.75365537622577 42.962480059304475
38.64070914539317 48.75566022629797 42.96250838614857
38.63954742539568 48.75423444589911 42.96245569516431
38.64244867430731 48.75810964762012 42.962236294843564
38.642142069867184 48.757720514617986 42.962236715086576
38.69394922624022 48.80262695000879 42.94592972858761
38.642896658650145 48.75875577549712 42.96214912095438
38.6945759036509 48.803788014496774 42.94558277576765
38.69439190033058 48.80351601734951 42.94572552778014
38.69505383547394 48.804450935786235 42.945186145311425
38.695005967424564 48.80455603124733 42.94532760515915
38.695595316558496 48.80546373355932 42.94489204314388
38.695218845235495 48.80491183833958 42.94518685000854
38.69604577472046 48.80627247429456 42.944627324738306
38.69595378805205 48.80613383341439 42.94469710845911
38.69651676868877 48.80694167057168 42.944245883311865
38.69615675259026 48.80646231886764 42.944556529254044
38.69680672866598 48.807463796569344 42.94407639731383
38.69657738534198 48.807129204006245 42.94425695091719
38.742517228893966 48.84327391274083 42.92111815426149
38.696978019530285 48.807744101721745 42.94395958431818
38.74328226295287 48.843861118312496 42.9205558708091
38.69703828249189 48.80783420226131 42.94391343591025
38.82168674938406 49.05528850840027 42.87096864176984
38.8211357719499 49.054295739159855 42.87136435355802
38.8232415485004 49.058100109308036 42.86987615007993
38.914253938292376 49.19426735684449 42.84221428896611
38.82354497941205 49.05864855757977 42.86966232765157
39.00991095435775 49.31727226452115 42.86562656723553
38.96684468560973 49.27022625162704 42.85627583421626
39.009980348077534 49.317443889606 42.86565721647174
39.009977426887694 49.31743809515715 42.865656542796955
39.00999861305277 49.31747960247978 42.865661205652245
39.01002492590626 49.3175537147254 42.86567672198357
39.01007926409277 49.31767917034695 42.86569687050374
39.01005352937334 49.317623220758705 42.865688822407705
39.0143402364355 49.35437691603154 42.86764082794199
39.014331223836315 49.35441066034595 42.86763805006146
39.009587031383624 49.373374876613575 42.867522753096715
39.00958282839368 49.37338584790419 42.867519707942996
38.475244495168084 48.583003569160766 42.961899490594
38.475984229825286 48.58362272412171 42.961792849083245
38.53880687789862 48.64318490567072 42.97317548299698
38.53753226516511 48.642062256855766 42.97319548417852
38.54095923889874 48.64512444576534 42.973270068501634
38.53959277097733 48.64390572096048 42.97324703887842
38.5581178258861 48.65745583603448 42.96487506481539
38.54204437386025 48.64610487056606 42.97332533388342
38.55929783666019 48.658586374301954 42.96512345669537
38.54347842964771 48.64739422063107 42.973379825728465
38.639397886164936 48.75405454181545 42.96244486634592
38.639708688135656 48.75468582203138 42.96218013991062
38.64107076384012 48.756382150940595 42.962214405942106
38.64007531854527 48.75517252784767 42.962155765647374
38.642499131131956 48.75842605613411 42.96195457035914
38.642303539864635 48.758179806446144 42.96195261888324
38.694247680203404 48.80329107761261 42.94583044449624
38.642763886686126 48.75881113736548 42.96189945280774
38.69480618074659 48.804255139005456 42.94547930142924
38.6946954306351 48.804059890354786 42.94554651460122
38.695145060275316 48.804798490811706 42.94524155588181
38.695121221565394 48.804777634104504 42.94526858221505
38.69562044333138 48.80561114397294 42.94493796402432
38.69535915097326 48.805173326274875 42.94511008443092
38.69599535996959 48.80621899912114 42.94467892402525
38.6959432066102 48.8061312905699 42.94471308835716
38.696377812174525 48.80682633633627 42.944407122416806
38.69606732677232 48.80632997615616 42.944625816839945
38.6966317038964 48.80722241984759 42.94422247519047
38.69644494641363 48.80692165087462 42.9443527106796
38.69700368677396 48.80778338628159 42.9439404679307
38.69678297384729 48.807429825896705 42.94409550533705
38.743903496639945 48.913970340019745 42.920477548983655
38.742353764730645 48.91122168393886 42.92161428088908
38.82221747312116 49.05625418834926 42.87060994815701
38.82171912926503 49.05535554699895 42.870966164329246
38.823458369598576 49.05849233205869 42.86972412669007
38.86773318262144 49.11270587395764 42.879209449715574
38.86759182737809 49.11248605102158 42.87926123939971
38.93137317292057 49.2322949873369 42.843613295938084
38.86817483874296 49.11339178562351 42.87904860659081
39.009968649650006 49.317420075228 42.865654255900516
39.00996345346539 49.3174089705055 42.86565271375343
39.01002790758393 49.3175659265201 42.86568012416558
39.01002180494811 49.31755182109619 42.86567785454885
39.01005001525246 49.317615476739014 42.86568767859315
39.00559065097842 49.34063217901439 42.867125718083514
39.00558977835297 49.34063084967724 42.86712527955748
39.01011487601626 49.317775010878734 42.86571594641484
39.005595914536904 49.3406705247733 42.86712816704554
39.00957342282621 49.373410328401235 42.867512872314315
39.00956559429335 49.373430554243846 42.8675071384673
39.00955133240676 49.37347539936438 42.8674990573958
39.00954842315514 49.37348248498544 42.86749679921958
38.538558452456435 48.642984332198296 42.97323282783
38.540315400769714 48.644564794170805 42.97330193805421
38.54262478226114 48.64662989182133 42.973356709356764
38.541369981803136 48.6455152211235 42.97334863530138
38.54388000606763 48.64776597220744 42.97342643947283
38.54214182562685 48.646208235849 42.97337519433236
38.639949849463676 48.75502292107099 42.96214518484759
38.64020598717261 48.75556023558347 42.96190797396244
38.64132515926217 48.756961604413235 42.96192770082275
38.6405011887211 48.75595370086677 42.96188658279071
38.64245997715681 48.75859079001551 42.96171531498742
38.642324414091284 48.75841965335524 42.961714478672995
38.6436299317834 48.76008561855186 42.961702598084756
38.642624606917416 48.758830422537656 42.961680838679975
38.69504486939083 48.80460281363331 42.94529106315008
38.69497759290037 48.80446733241273 42.94532188172237
38.695284228607335 48.80504121405589 42.945155538277355
38.69525888957079 48.80494098234163 42.94513795625586
38.6956689256923 48.80565247391127 42.944882353505974
38.69549368801292 48.80532994115143 42.94498063868959
38.69597539615604 48.80611750603832 42.94465170985513
38.695950042209596 48.80607134544923 42.94466622934373
38.696275717883026 48.80663831190677 42.94446431540349
38.69601474654571 48.80617408573263 42.94462023882082
38.69649316834984 48.8069446039842 42.944286628803766
38.69634610467012 48.80668965419527 42.94437844217649
38.742213463158336 48.91097275844238 42.921716629175286
38.74270516071848 48.91183862868749 42.92131321676371
38.74262455663053 48.91169560311615 42.92137190380932
38.74409569067756 48.91430515969215 42.920294914671814
38.7429282375758 48.91223360906108 42.92114494267037
38.82270226578825 49.0571343891112 42.87027774500032
38.822191683190056 49.05621298247476 42.870641047038575
38.86824697900708 49.11350955708663 42.879016231880385
38.867780344989505 49.112785773401825 42.87918519268699
38.97456114003449 49.28825266667734 42.85679330745265
38.974511881099794 49.28825188708696 42.856780388895594
39.010012137363844 49.3175291357328 42.86567411252234
38.974625525523834 49.288373677844824 42.8568210344194
39.00556979842447 49.340600458681955 42.867115238619235
39.005559675699985 49.34058576029358 42.86711014690962
39.00955354602412 49.37346143870772 42.867498241962636
39.00955149079705 49.37346666061907 42.86749671063978
39.00956242038015 49.37343872314776 42.86750480456462
39.009543019271895 49.37349257987529 42.86749169802715
39.00954379124543 49.37349371912866 42.86749318998312
38.541676473615354 48.64579158229513 42.973362615932395
38.542736705393594 48.64674771521843 42.973411361127845
38.64039018413743 48.75581852192893 42.96188036827077
38.64070575461037 48.75639118068433 42.96168781351836
38.64149828148272 48.75737897976844 42.9617068738365
38.641182696593305 48.757063535819675 42.96161234614401
38.64242721843066 48.75870669309522 42.96153960649664
38.641965742371376 48.758120145694406 42.96154119441418
38.64336995511816 48.75991868795375 42.961521013255314
38.64292648912737 48.75943062177832 42.96143817774357
38.69524306125068 48.80484914332963 42.94510963430864
38.64341398933167 48.76010177116828 42.961378996688104
38.695423463668966 48.80519859213631 42.94501878067314
38.69553155985275 48.80528862867959 42.94489353828772
38.69573463946207 48.80567597050148 42.944787684540074
38.69555499421643 48.80532727322185 42.94487773259587
38.69598931654305 48.80605213784432 42.94458992435483
38.69591519009824 48.80591090170351 42.944628650121345
38.69621426579694 48.80645772152884 42.94445874741594
38.696118030665914 48.80622963547116 42.944482490769374
38.696408952263596 48.80672495550248 42.94429551323055
38.69623572661877 48.806410638194585 42.94439534672978
38.74313829620697 48.9126015679703 42.92095919676448
38.742804448856155 48.91200918472047 42.921202284500126
38.82187666051534 49.05564448672148 42.870865199305435
38.753384118832926 48.93416170577735 42.921045165250376
38.840109584768975 49.09565739400411 42.87135413963401
38.82249734447378 49.056767122229644 42.87042961972827
38.87646578564811 49.13230041248556 42.879343244622675
38.84105249616098 49.09742063496205 42.8707934926111
38.97459907820777 49.28834934661424 42.856811937875115
39.00554061506689 49.340559136105725 42.86710055264425
39.00553831562321 49.34055622453428 42.867099393265114
39.00555342500828 49.34057694300898 42.867107001150266
39.009546321346825 49.37347973772675 42.86749284197643
38.64316603150428 48.759780654314326 42.96138649744492
38.64375529965072 48.7606469913834 42.96125348822024
38.695547934365095 48.80531304584861 42.94488096054266
38.69580058305664 48.805687154550796 42.94468533150635
38.69600921245737 48.80598275037514 42.94451587847138
38.69618938708129 48.80632416311527 42.94442063404782
38.742172275609576 48.910887269206256 42.92166136686748
38.743504016468094 48.913245886562834 42.92066114905141
38.82242516059257 49.05663676807433 42.870480767139625
38.84063574182544 49.09664331306552 42.871044224906186
