ply
format ascii 1.0
element vertex 630
property float x
property float y
property float z
end_header
41.9036831455067 38.4655584906787 48.456382481408546
41.9351895139893 38.50559840094156 48.43960609779064
41.975942767663135 38.53018114463532 48.41022915299065
41.97639890627194 38.53053244779967 48.4095912300044
41.97663234127909 38.530757299080655 48.409207549266355
42.061902009728044 38.71167459378835 48.48421799657354
42.06213822034917 38.711364489108135 48.48325684043489
42.064313110956405 38.70881640948817 48.475036301535475
42.06478507596339 38.70886596840775 48.47448655708998
42.06908447650841 38.71805703197881 48.47788800510042
42.06938442154414 38.72302380205868 48.48386204698973
42.07273510893288 38.733453809815806 48.481058254121976
42.07598321245578 38.75624450574038 48.50562660368075
42.07604865622821 38.75686393519132 48.50610923729958
42.0760581273691 38.756965592618215 48.50619465948431
42.43229840266127 38.70186894527353 48.61883778405178
42.4589507257446 38.76333659560389 48.62871496642247
42.45911421069355 38.76356612645796 48.6287034831376
42.517679680627026 38.80582903822994 48.59737930552362
42.541097656945254 38.86069480419289 48.60223552067039
42.542184368254354 38.8607239452667 48.601093322712224
42.586648981643634 38.88162429977324 48.564377842637086
41.99795197086676 38.099658465683554 48.53396497113546
41.99935724347275 38.10378839113655 48.53849725847053
41.73625854287637 38.17628128489209 48.54757586379617
42.015691824054265 38.149480144252514 48.51575128736473
42.054884277674184 38.19846454124384 48.51083562260399
42.05380213266909 38.197279857745315 48.51245211845818
41.74072477404982 38.19429727752274 48.52071963580734
42.05478474415179 38.19828546782665 48.51116870635367
42.10510423888042 38.22293216639226 48.46909455725867
42.10579245782541 38.22315442799975 48.46885872964944
41.7411722246933 38.19513850574556 48.51895416084813
42.115640201053395 38.22342193789904 48.464473782141596
42.11509473963416 38.223459278140886 48.46473475592201
41.741275360250924 38.19532290031089 48.51858525483144
41.74953786945648 38.253873379797284 48.48204146823027
42.115323195848106 38.22337939313394 48.46460316467537
42.19696802221783 38.22588636238606 48.468565650165715
42.19396778774087 38.22619560010028 48.46828432509628
41.7627892117764 38.368258712097 48.516122196068345
41.762965099108996 38.368260046499714 48.516176810906394
42.17041063474122 38.27135210776174 48.521069061500896
42.298861786433754 38.27098484690381 48.54319342846685
42.2874406186 38.30103603463796 48.60200546408446
41.80979966230773 38.37869984528736 48.480240701444735
42.28880907966382 38.33206662202819 48.65458875846669
42.301754508243704 38.326603826321026 48.64815221022704
42.299286700468976 38.32764319402316 48.64830491261836
41.81124394211839 38.380275372771656 48.48060555210796
41.85304123028695 38.42202414027314 48.48411049675657
42.30572715671694 38.400718499116934 48.65026829530765
42.34411467377546 38.39105386181449 48.64678023889895
42.30891869014394 38.40712243778611 48.65010273031282
41.855480637694214 38.42497130741696 48.48312542129225
41.86425233439077 38.452053351128306 48.45503546577109
42.30110436120195 38.55087004248186 48.65152985429321
42.434841427502114 38.516063784091 48.5857526841538
42.35303907962281 38.585440358468276 48.6336759246944
41.900949402613115 38.46289388063375 48.46328602422272
41.96056231712296 38.48878179031951 48.45156080994468
41.95822554614173 38.48772301590871 48.45283771757772
41.9621997551547 38.48941222258148 48.450848798678365
42.358357667168406 38.593545283078825 48.630902723602
42.3581279802507 38.593289261832965 48.6310028011944
42.53889745413231 38.536749659166524 48.52622393561552
41.9787477547986 38.527747445809695 48.412138629930695
41.96944531030533 38.49278878500573 48.44673600164801
42.019601738874854 38.56730561096192 48.440853079799524
42.35865087643213 38.59409653140602 48.63072796895881
42.41795057318765 38.636975908256886 48.61511469995581
42.417551267083596 38.63640924062534 48.61522731222045
42.495505827706026 38.61788077257734 48.56533662327523
42.62589426051893 38.51925078989695 48.49118331864276
42.06186465490571 38.711725659532156 48.48437414404235
42.060575382262996 38.713384893427985 48.489551935930855
42.06119161847971 38.71271363421147 48.48732660542317
42.06092754556366 38.71303103730654 48.48834115837441
42.06101567175602 38.71296119327467 48.48807648697398
42.41887102469421 38.63873497208883 48.614635909925134
42.483348948395246 38.654834165853856 48.61128387545103
42.48220899067042 38.655430966518594 48.61108618505642
42.57847484869266 38.62889177601851 48.57603929285468
42.65439691343856 38.589491764484535 48.527934020271985
42.06908140314837 38.719389081426186 48.47955338107334
42.06120627423433 38.7128820088291 48.48765127687196
42.06936371729156 38.72340890472129 48.48435850766898
42.069359415005046 38.72347838488845 48.4844485078656
42.06940576480506 38.72406186737877 48.48514191431184
42.49874467992511 38.66502366929214 48.578999255460054
42.5159857065417 38.661343971479766 48.57198551745917
42.68587574416191 38.64121822812042 48.509278441952205
42.52098400757878 38.659556877301895 48.569770700598696
42.686344243532915 38.64369820380996 48.51024379018894
42.689152519772065 38.65123866138145 48.51231038488794
42.06940210905689 38.723336513918966 48.484239083287754
42.07584552995674 38.75543286375134 48.505248512105254
42.069437461693845 38.724505501849656 48.48567180747297
42.149458053835545 38.72167993110591 48.56590703565547
42.264237374451 38.67174197605428 48.59699075609058
42.373431096682516 38.668883005155315 48.63139265274272
42.37235982810061 38.667642485497836 48.63124892779557
42.43221187352752 38.699989075201756 48.61797384328545
42.43213810857185 38.69970260280953 48.617878236146716
42.432786678395864 38.699958203359934 48.617616763596146
42.62030069818346 38.68569663267563 48.54846591139862
42.66524752956247 38.7302563571037 48.53477717531248
42.71720401226084 38.73252600054592 48.53168330109313
42.716811629934114 38.73096693063583 48.53100887102777
42.740742788927335 38.776332575074676 48.53411287358749
42.77442828494983 38.77379576711964 48.543466096982094
42.793058042529815 38.77493432699083 48.5479552508108
42.7772001154519 38.77437521575287 48.5438878046339
42.8510736039461 38.792457428054036 48.558391795818146
42.07604202739367 38.756872957873156 48.50615339680893
42.432012181278665 38.70150618335397 48.61883145192569
42.432744856938214 38.70185667831729 48.61856614122003
42.43428599062054 38.7022798305309 48.61785512710357
42.43445626018048 38.70063265285997 48.616951687548756
42.459874403966644 38.73967444616074 48.62815168988417
42.4614687199309 38.71406850596869 48.613952381625516
42.51467120500248 38.77956471970511 48.59824690051447
42.50982737885231 38.77322707969465 48.60010305427057
42.5237506476683 38.79021605056751 48.593062792572454
42.52049586413923 38.786331985165006 48.59482985202436
42.52751239447872 38.794531557665636 48.59077960250514
42.717481973018806 38.73328741531652 48.53190601375115
42.740069373202914 38.77551668463349 48.534370059885006
42.774481052788374 38.77388871824293 48.54342493654194
42.45903873293127 38.76341766168211 48.62869179265762
42.46056879038293 38.76491836071489 48.62832541703786
42.518977043674624 38.80667012556668 48.5964309273174
42.543699392300226 38.860430979277716 48.59923434881647
42.58797634741724 38.871861267347946 48.563356598365246
42.61585216515651 38.881909235720165 48.53717819462318
42.636685740228636 38.83873318051759 48.542197725277205
42.62458468603146 38.888389910427655 48.53304820098488
42.64458886062316 38.83731396466726 48.54031036445875
42.6540966714647 38.87239204030421 48.5188409893629
42.57586546971095 38.87829876894553 48.58334315150794
42.62017957394093 38.885968999420776 48.534942213942315
42.62327476456299 38.888227292015856 48.53348701099393
42.634850785965845 38.895709876138795 48.52825961767807
42.673707549205915 38.890374970343174 48.5084255744551
42.678189335503006 38.88772345810521 48.50597568474085
42.7543164943103 38.84293892825235 48.50178967499565
42.75513513404003 38.842451331517914 48.502263991628695
42.757169797896715 38.841612099058324 48.50335552781458
42.64121706117194 38.9101483742493 48.5313218468604
42.666549978359306 38.89626659572567 48.51169382508014
42.72155649512545 38.884375534902944 48.518541834554696
42.77140843228919 38.87332057989299 48.527865588616315
42.79685418230828 38.877092088363334 48.552551423175636
42.7983452449196 38.880252629241824 48.55630241925671
42.82457566005451 38.909078490216984 48.57489334281446
42.88672428404625 38.98886170992027 48.560595850850824
42.887050316787466 38.98634532978317 48.56230901092138
42.90077168895982 39.006149449426346 48.54823516628935
42.90478499186979 39.006475585775604 48.54786001232846
41.73946947057231 38.107110575015355 48.59220601324425
41.74099434484839 38.103150407216596 48.59215133867514
41.7380008052855 38.109236959061164 48.5933437692922
41.80407080532856 38.03973418904594 48.56246794761652
41.80091309987942 38.03577853985972 48.56554625258769
41.80222945333148 38.03755288876777 48.56477362907734
41.83255233240728 38.052341014374775 48.560637707282325
41.87277598052833 38.05311299772429 48.56326086552747
41.87142051304262 38.054205465751146 48.56433116461778
41.73593998200084 38.17292524062378 48.55148459921504
41.69087496569013 38.1518917863324 48.61163793160417
41.88833578874365 38.083910177594475 48.56194942259981
41.97931729626757 38.11742791651277 48.57958545279815
41.97608791107794 38.118550914066674 48.579192052263416
41.68706436369384 38.15243430858843 48.61324053446759
42.0008067976635 38.11161533002308 48.59884709481072
42.00831006183122 38.17179749549996 48.56735495900329
42.00772735950814 38.17020529174773 48.569890100702935
41.70299383754735 38.17882697870642 48.56900122799724
42.007775742780375 38.17165492267537 48.56810723208574
42.05500160677342 38.196419027849856 48.51637837068085
42.053193306043696 38.19436959762524 48.51926313815789
42.10507078895584 38.22296333172501 48.46912057834575
41.74072819345332 38.19393456604715 48.52218302657705
42.05512376786729 38.19629704086946 48.516868499055676
42.09520838381107 38.23663614716772 48.536723349949696
42.09531597733113 38.23707961946177 48.54227093681958
41.71863834974068 38.23703305842727 48.57838176086091
41.721247226542225 38.35701732949918 48.62733331855625
42.09711943881513 38.238510658201086 48.54651271161195
42.18241446199811 38.29267857965273 48.593787779478845
42.18355033225656 38.29311674088978 48.59585224057951
41.77709731907396 38.36658992293889 48.585076788633444
41.780170447551015 38.36580496715432 48.58386034465636
42.197605606189256 38.308509422741594 48.6673158478636
42.24978788362912 38.3232527598422 48.65871260313941
42.19975756508374 38.310948319763085 48.66638567348147
41.838138668535116 38.346171221049566 48.56418410939632
41.83752417233821 38.3440309396571 48.56821093294284
41.83780094557753 38.34461578147607 48.566976332379284
42.212922613740716 38.36152366873591 48.67249551247172
42.2128330994175 38.361877158020505 48.67261603953192
42.28753986498369 38.33258267662259 48.65452507895013
41.85396114431815 38.42078039596606 48.48687076130102
41.86128311898688 38.383005768328566 48.528476316252736
41.86501763687292 38.38966271361465 48.524711416219134
42.21762295815919 38.43368682544721 48.67403687276514
42.27225542318372 38.46763918397674 48.655665051745586
42.217654490274384 38.4443289818816 48.67526415757869
42.2789992667356 38.4720821822488 48.65501418715371
41.9009104688153 38.462877889887054 48.463218838266364
41.897437930121725 38.40802014777154 48.52540535875038
41.94520144415783 38.444161994189564 48.50198142965576
42.290571258131635 38.55303831110977 48.65323848846804
42.28594610678175 38.55329175354393 48.65413694279351
42.29769958124507 38.55183297473234 48.65202658344479
42.35235836668337 38.58478030659404 48.633951848508914
41.94637730198356 38.44465771551489 48.50147093323106
41.965840475975185 38.490984628732534 48.44898588116982
41.956924853916725 38.5234042099674 48.529382550567576
41.992392422328706 38.591190729606254 48.587481407148296
42.2891453642059 38.55757556345966 48.65256971394225
42.283379718714315 38.557137928187 48.653849543489095
42.29637206285157 38.555829952941096 48.65145214560938
42.35303297377859 38.58930657846375 48.63286747629532
42.01942275871225 38.617294003300586 48.519058781942185
41.992521316375466 38.593848522073046 48.59077906772791
42.0375025501432 38.69887502366663 48.55345558461687
41.99282243042389 38.59870659781831 48.59657801915413
42.06037222806901 38.71375850581025 48.49059756558246
42.09797077104721 38.64067415297946 48.62337357416607
42.20667724274017 38.61116094369682 48.60113950141917
42.23885113105025 38.53865935306426 48.67054056835186
42.28487234708758 38.56163679439695 48.65258805633937
42.2830518332146 38.55760051613558 48.65381893434325
42.288804082801725 38.56334583771213 48.65141612480975
42.34563107888026 38.5961849207187 48.632924209991934
42.355634205370215 38.5988147452788 48.63035005897131
42.4140790365724 38.630848945868316 48.61651285236541
42.06077675301723 38.71333149519122 48.48916468668195
42.06073724992987 38.71341813867453 48.48939667516153
42.20922977495406 38.615646619035864 48.59930785586738
42.30774748305564 38.60258577925666 48.63935693977898
42.34848621374392 38.602692874824754 48.63098375375847
42.39085120736735 38.65723586339683 48.615475364580234
42.43175465720734 38.691736116144966 48.61422701319838
42.43436273502415 38.693678013538005 48.613620674095976
42.14475538636218 38.69336004920729 48.546072527775735
42.36227765723419 38.660751547146965 48.63230147931208
42.36884653370092 38.66395337340426 48.63096824069178
42.431342926817756 38.6963520881184 48.61671983697331
42.43325168464285 38.69523075923547 48.61503795417779
42.437075348884306 38.69698725384209 48.613617977614624
42.459390798582234 38.71018698698981 48.61237828512923
42.514455153144304 38.6622476523207 48.57275353221077
43.08855935764685 38.65272732221748 48.558083049418286
43.088422555415875 38.652594719800305 48.55755484004311
42.43442351484198 38.700099923698986 48.61671175261275
42.43809545651209 38.700987284470536 48.614958822931044
42.46286939361971 38.7156915664494 48.614004706844284
42.512638468256924 38.776528642324855 48.59850327623756
42.594663201047666 38.77305158665372 48.56437519007258
42.66477075855299 38.734855813498946 48.53573421478043
42.8121289171166 38.79792295148379 48.541667802220445
42.851473537332694 38.79147236211536 48.55899207735478
42.91469301765585 38.757792541198576 48.53967818555734
42.92607329334227 38.75329683870105 48.53255327480793
42.98518539860889 38.71413839601023 48.49754641640314
43.051727343289755 38.64513497824262 48.48197172423302
42.98551692595836 38.71372892628163 48.49734022824981
43.086479587531564 38.653462625016175 48.556385507269795
42.63947065174156 38.83621249298093 48.54205654018388
42.65314443998685 38.825030233083204 48.54105370205181
42.73214690447079 38.791612208313914 48.52259086221048
42.75124000434058 38.78882838309573 48.53006111593313
42.765448332420576 38.80559047369554 48.524547824916574
42.81070674950262 38.799322743301715 48.54052570247277
42.85489406385253 38.79054309066876 48.5607667066893
42.883039555338016 38.811925256124205 48.575152781498176
42.91755095849943 38.82625443486299 48.57857102675428
42.917920291455125 38.825623462251876 48.57843245068331
42.98336726226259 38.71743785558903 48.50003787727639
42.69740913756701 38.839197417348025 48.513194841927344
42.76312662621823 38.837266225747 48.50699389349997
42.77647477957241 38.82948793981456 48.51468742090007
42.792285565639574 38.841519750144485 48.53431711702355
42.869279103187665 38.817793822173726 48.5756077123031
42.90118791729083 38.818392223375334 48.57624442943359
42.92465427218325 38.825592444483775 48.57818662700328
42.78623336418147 38.853204661241136 48.53156325543777
42.79983413500918 38.8745768683274 48.55488752360671
42.844846103415094 38.86797710567931 48.57436766973782
42.93124157578891 38.884768701967914 48.585028174592836
42.959232738277095 38.88888065358044 48.582493445916825
42.799078118937636 38.87980061138906 48.55697427116754
42.87098394473795 38.94223768061144 48.576035547514586
42.92151869645039 38.96262221218389 48.573456780103164
42.964479604635684 38.93763394217588 48.585059437604926
42.96374126916727 38.93629622973561 48.586287651682674
42.96685781986458 38.936645549503694 48.58548479266535
42.903941216450846 39.00584983677416 48.548232563388964
42.94323028423493 38.978712778324194 48.56047526100012
43.00299191205468 38.95845105795444 48.58177317696262
42.9986551539059 38.95416751776021 48.582360994577655
43.01125071423573 38.96508891208494 48.58159137160246
43.013505624144685 39.006489152289 48.54700551769107
43.02357829279935 39.00352680986646 48.55674349333062
43.026044307524714 38.97834978013267 48.58041990653867
43.01999908855949 39.00421129633166 48.553625860346955
43.016227759206984 38.96915970116207 48.58143825754533
43.03887454807979 39.0215046137258 48.595537670636766
43.06657476855001 39.08365348105632 48.61898745810585
43.19038718059839 39.02359111621502 48.50443497419777
43.24911671823917 39.09776845054243 48.497720225598194
43.24906940229113 39.09690472762274 48.49761868623793
43.25363395226732 39.179810939677026 48.54244410162217
41.763676959665204 38.05519174661299 48.616486766746725
41.79526603826114 38.00708917197942 48.621502108451274
41.76122734424332 38.059466092505 48.61798663062646
41.79395038804027 38.02857757100833 48.59861745749504
41.794498181655975 38.007845838033646 48.61995274190755
41.79449293841686 38.029425431782514 48.60182266713251
41.794601359946604 38.00817552593056 48.62152263923587
41.79485161944547 38.03001363981317 48.6057751044544
41.687472578251096 38.152268964441106 48.61384309318959
41.68758778522905 38.15224943325783 48.61381723432605
41.683647759118344 38.1527911534551 48.615613109622124
41.816971383555014 38.06123370367521 48.60386165070636
41.86596144009987 38.05787635236301 48.56904710619757
41.86125072744655 38.06127414974549 48.57298858471879
41.68631708055128 38.15245692971339 48.614159694270775
41.67241361315572 38.15440195468292 48.6202556498926
41.86230386866358 38.060539181725645 48.5720937061751
41.95549560455412 38.112662058862604 48.61901364859489
41.95687020015612 38.11206704796774 48.62023199394079
41.68414425966711 38.15280415879017 48.614799982555446
41.65972171229012 38.156288195092145 48.62502101750403
41.985360051775544 38.15297492638773 48.60429645837274
41.985718427287885 38.15475911059327 48.60282756994088
41.67482877897566 38.1540437842003 48.61934330971455
41.68207520211665 38.16244001222367 48.61063274813634
41.98476069782191 38.15798935338806 48.60119070136285
41.98433861083052 38.158253286019075 48.601275799398614
41.706421407708035 38.23241037642305 48.61571717138365
41.96722657408556 38.19173470378042 48.59628952181262
42.06783124674795 38.21002229093152 48.594276725057014
42.05809039837412 38.26030267943986 48.66655874374745
41.733756930433074 38.280948097855536 48.62357200354033
41.76346168160096 38.321837552483586 48.64159916390218
42.064614773171215 38.30783122881784 48.67632049328237
42.15118106664037 38.26612770550939 48.61490240533133
42.064803976862976 38.3077854435317 48.67658188731299
41.769788050926486 38.32104291612162 48.63990676420258
41.816700340532655 38.32829111432457 48.607384200720546
42.149494748672545 38.31223873571973 48.68554025882325
42.06055433819294 38.30994671331953 48.67486042120652
42.198664838810934 38.31005646293251 48.66680228909704
41.81730236463469 38.3294496682783 48.60565888718109
41.83779225512954 38.340343060174405 48.573513047209474
41.83736281564376 38.33944450758687 48.57541507596324
41.83797356353622 38.33972213196523 48.57423782881422
42.16889593058072 38.37333156226249 48.69220858158991
42.00279171309023 38.34497249497518 48.6344905303573
42.211443017545456 38.36468042374916 48.674375354599576
41.89876106273604 38.40096591449491 48.531395341323574
41.923192120515296 38.36370597471708 48.57524069714447
41.94753992787292 38.388515860432946 48.56473059123191
41.94791215008206 38.38795182173414 48.56537357360436
41.94821150425913 38.387562033489765 48.56579144281261
42.03519621744026 38.38918544305854 48.631833918443775
42.032449165970064 38.38806857169421 48.630427607063396
42.025872887281125 38.3855639671778 48.62673565032223
42.21370229404188 38.44524613708157 48.67946570401628
42.21528331655373 38.4447376052118 48.67776816380515
42.2172330405722 38.444351004135484 48.67570322546344
41.94668268017672 38.44309813950825 48.503115990914516
41.95236773475188 38.439485521535936 48.50697509237641
41.94873841734977 38.38689243994628 48.56650131152866
41.97437019951412 38.405309221484856 48.546892991345516
41.97247888150872 38.39566318870084 48.55747935599267
42.0471693710586 38.43652761641005 48.5810744944651
42.21476725254041 38.454071494877 48.67940766112822
42.21635719704386 38.45754107153908 48.678171855068484
42.23439547575248 38.53171225706074 48.67336128608311
41.99244691635755 38.5934870577282 48.59052911963851
41.99259239288345 38.59650535295291 48.59427721906377
42.148253968234485 38.546726061139665 48.676617368633075
42.236024880405665 38.534251903355326 48.6723309169894
42.28284923590177 38.557013081854734 48.65398523663386
43.10849954317651 38.6649136996037 48.55211565598934
43.14839833712518 38.724490904505956 48.55007439737879
43.1084257018488 38.66563593934339 48.553839837422856
43.15002851721585 38.72680702071747 48.547680317544646
43.08849625279579 38.654353349771405 48.56172293394037
43.10931246403516 38.69918772286697 48.57625862073067
43.10926060718134 38.69914013149879 48.57710086097258
43.10809555901305 38.66569802732555 48.56148353286221
43.108269858369034 38.665567157491026 48.55744601787796
43.108383195123245 38.665610353050155 48.554823292514264
43.083974288081336 38.66162190558229 48.57108265870126
43.0839178222454 38.667626491450335 48.662404167356044
43.08356526357515 38.66789352617562 48.663619729709225
43.085313119583034 38.66485525521131 48.654212971955424
42.918660103704255 38.82688555286801 48.578657013733874
42.98871006485996 38.821972509559544 48.61836736513063
43.009659324666096 38.80837218838457 48.63543358169176
43.00834702068285 38.809792162860624 48.634253395193916
42.94955577304998 38.867477696375865 48.58082762609046
42.959398524461974 38.88871806156566 48.58274143683013
42.961777419658375 38.89406524905796 48.583115419347465
42.962958363116975 38.89602402857739 48.583589533259904
42.96682015622511 38.90365211638507 48.58463295778437
42.99848684264754 38.95084378786808 48.58433202607712
43.5181294898882 39.072307640699954 48.53184239044518
42.992575197508074 38.94428131495479 48.58557964066419
43.002596982686406 38.95523556307734 48.58357003112545
42.999476432147716 38.95190260479419 48.58414768682239
43.004833174815914 38.95761588995712 48.58316106566511
43.46547214908988 39.06402664431127 48.56284387129198
43.46434504921232 39.064121490440634 48.56363577832077
43.46346165265551 39.06426942500059 48.56451042965971
43.017953282606186 38.97068886471308 48.581312466903064
43.01246735668193 38.96536314743705 48.581998732380015
43.007405265658875 38.96030556921029 48.582720407669015
43.15482299368516 38.94854730126187 48.51545171143946
43.155613991055226 38.948125768049806 48.51497524399131
43.161488730936114 38.94557718824257 48.51156576022764
43.46038286556433 39.064278406418474 48.56581053728851
43.459444311967296 39.06464577187177 48.567465154747325
43.45491092747871 39.064801961591044 48.56987286348199
43.11357179189456 39.01974772917553 48.56751132878669
43.1707640637939 38.94206143400214 48.506295492509906
43.17088089320099 38.94160370163191 48.50613732093224
43.24769373414589 38.985365057870276 48.469004875678706
43.23358609977258 38.909059057475346 48.468270563153844
43.24797103318998 38.987516629137865 48.46906424957328
43.23368732988245 38.90921870579719 48.46825719222524
43.34860652661041 39.01700188420514 48.54124309820593
43.34738787068294 39.0166648790738 48.54337515235768
43.45295981146944 39.06350330691494 48.56619563582777
43.352456464393185 39.02110675873462 48.54781329861247
41.707820290970915 38.112243086150485 48.63791524139205
41.71078469353215 38.10907178091274 48.63855526539449
41.70514613065757 38.11418068635482 48.637726750459144
41.79641897035919 38.00670910197161 48.62621516852673
41.796328764402254 38.008391836404485 48.63106452641808
41.79519448992147 38.009512616321544 48.6287853929434
41.7942385499241 38.01533803173565 48.64227223963135
41.67961559613865 38.15335306280488 48.61739667394957
41.79340920712363 38.01781672883513 48.645843570990834
41.812741609303835 38.055312620781535 48.61314423127359
41.81386668050921 38.05686917540924 48.6112248243291
41.66970617820559 38.15477670121987 48.62147167536388
41.87781132418492 38.11363944757175 48.64777398124415
41.956473816464026 38.11219229161483 48.61989017107808
41.89589462813681 38.1495114020276 48.67228371748959
41.66046501742251 38.156131717387545 48.62507414969501
41.93938219470714 38.17519498743387 48.64121554330219
41.905047112964574 38.16723745797926 48.66363128343309
41.98385489219227 38.15482649600599 48.603966798138096
41.66939473317387 38.154769954755785 48.62197154186394
41.669149645890265 38.1982917839499 48.6375326191899
41.900098507871604 38.19433926782329 48.64936714958925
41.92468804174956 38.21733534587834 48.62416774815106
41.919208567316275 38.21851017479369 48.631910687076406
41.72428027878624 38.26952614129161 48.6447928784431
41.6731034037614 38.21516205355354 48.64007470082214
41.730629731201105 38.27321155310095 48.64493029883572
41.92064290344211 38.22055222748092 48.627457198809296
41.91929032857155 38.22113455722783 48.629066576356074
41.99859548109277 38.28434564275089 48.637656620013956
41.769247493046436 38.32036495770614 48.640669850558794
41.76781577503745 38.319687932365156 48.641763381572375
41.78934142500994 38.313171583967254 48.63916640790214
41.94961883512333 38.32774810325934 48.60368530682003
41.92687784533998 38.2984133644876 48.610690187994955
42.002742714875524 38.34398960751402 48.636177272850226
42.06345659702015 38.3084926306678 48.676116446974156
41.82203776922104 38.31887691034374 48.61532023327495
41.790847596398216 38.31281127633847 48.63890538195309
41.82363214189081 38.31864878168562 48.61366749703429
41.82659407672553 38.30677974313373 48.62435209055985
41.88028061653512 38.33461572016881 48.59900914776598
41.83665603856293 38.302297376828484 48.62058451791319
41.94714069407615 38.33875487038371 48.59958864793431
41.94436134638291 38.335577967582296 48.59977677612374
41.95242007679674 38.344444017714295 48.59996680038636
41.99560913575565 38.347286704841885 48.62842417058666
42.00542330512199 38.34349012900438 48.637811061154245
41.91693946645984 38.350573144930294 48.60212135640647
41.943640456873894 38.35269162124649 48.58972877872161
41.948775302747 38.35466310022397 48.59114606640441
41.99228354683068 38.34954873172544 48.62355528291889
42.00079751667894 38.345853202323816 48.63239409001071
41.95020907210929 38.384705422086725 48.56897721266279
41.971992292403904 38.393180893293604 48.560220275481434
43.141740261030506 38.73714129747722 48.57256791618342
43.15028317728434 38.72765759775502 48.54817791191517
43.19472173120384 38.791706953086404 48.46368448422886
43.10924758450957 38.69979887873761 48.57771834818856
43.109358039350255 38.70300802961236 48.57780553820336
43.13820974570236 38.7329521475027 48.581684507240595
43.141047167793424 38.7379819867067 48.57722727289217
43.143161392412274 38.741683231174726 48.5738256873832
43.185146707851665 38.835762713014475 48.55159911030061
43.23281086119148 38.88338389963229 48.44554353514352
43.348595627191166 38.942590207940256 48.46931071042299
43.083748641313434 38.66862245332926 48.66469862941621
43.084326601454784 38.67135560849607 48.66895827519217
43.08354147290433 38.67041481154949 48.66863765385763
43.082591025767755 38.668053905433545 48.66583997747778
43.082779577437805 38.66905574178029 48.66744688324683
43.13913922861218 38.73694334443672 48.584268130920705
43.14222452406465 38.74168659354468 48.57816882964387
43.184238446682905 38.83443248534457 48.55338862387684
43.23310470355246 38.908196419451826 48.468300749123074
43.18479342400212 38.83524632825393 48.55229329954828
43.23315160859295 38.90827424473774 48.46829579752769
43.39810415665489 38.99599079921087 48.47666982152141
43.009265379026616 38.8090597390499 48.63502818125595
43.10859577960196 38.71130458812289 48.595631285957765
43.10834704377778 38.71095298004437 48.59959650958181
43.08311507533321 38.67173964582141 48.672083275788296
43.10847076458361 38.710771266697904 48.597408360038216
43.233162361924535 38.90829459075045 48.46829547086174
43.233145208020446 38.908266503062315 48.468297402574876
43.350594196852555 38.96822878534108 48.49240365450581
43.407231812494 39.00778179905829 48.47815642224485
43.0007262698964 38.82457156701821 48.62612172138907
43.027199912226024 38.84706360803777 48.63739898049619
43.10191804002588 38.82505837174869 48.61145622666212
43.174504917687486 38.82017597669466 48.5725678865969
43.23323898727918 38.90842500044876 48.46828843837386
43.233213293861006 38.90838335887259 48.46829147013842
43.45977524432665 39.06393501511529 48.56487600399478
43.517009761346955 39.07219795082201 48.531397817873085
42.99911013303248 38.95155463167187 48.5841888021887
43.002153823949364 38.954992225598374 48.58351016075867
43.044590778537625 38.87740735247491 48.630442364754956
43.18539437549761 38.83616788051845 48.551033991934986
43.18505547978989 38.835670128822485 48.55170426788213
43.18547548049452 38.836286465951964 48.550874557162146
43.298021927785044 38.979559980737065 48.557152771715295
43.23325416917483 38.90845560099923 48.46828858273501
43.23327561081935 38.90849455833596 48.46828741097797
43.4121224545369 39.03824265525616 48.58478094093087
43.461879774238994 39.06424716929494 48.565085697588614
43.0055074038291 38.95838186421517 48.58300796528541
43.04359313429039 38.97939712630187 48.64421085586478
43.233079415300466 38.90820329835975 48.46831918808132
43.23320607090486 38.90840561697513 48.468303289380145
43.23310998729751 38.90824003364647 48.468311443382554
43.23331448933757 38.90857754180478 48.46828927248231
43.23323639731414 38.908443433664466 48.468296051360795
43.23339271539734 38.90870041233019 48.46827877907155
43.23328333211872 38.90851306514096 48.468288434935076
43.301625297651675 38.983522380995616 48.562531219521084
43.45826163730353 39.065022773561964 48.56925365540503
43.17111219664963 38.94136147634137 48.50597158217545
43.23345543228318 38.908834495356956 48.46828185242457
43.233551015793154 38.908984094906344 48.46826885805685
43.299042757325935 38.98082533923047 48.5584934563052
43.35210458428287 39.02099242438394 48.54835440199292
41.72478154363586 38.05413566209286 48.69400056798656
41.781222448969245 37.99736571286864 48.700159475551146
41.75076737358835 38.04466068753594 48.694374101656635
41.78682643897696 38.00194412151835 48.683894854447395
41.78137276725061 37.997599526177694 48.69962754321862
41.72385561442404 38.054699725038105 48.69427201631266
41.6880564973499 38.10810234484774 48.67161615520681
41.783790673434346 38.00008807588745 48.69216777948695
41.80897611583733 38.028266643802006 48.63508807114948
41.78375958179399 38.05521273704599 48.717808817690496
41.81287618002827 38.05549918450387 48.61290320205328
41.67923797621792 38.15332350711399 48.61815709711278
41.81741578114428 38.128688520162804 48.69247999836833
41.83425384022442 38.148685898554376 48.67001633480898
41.81860049955713 38.133685875377765 48.69445764455985
41.89359931257244 38.15128618297139 48.6718700373757
41.67179112097595 38.15439240318678 48.621226346883674
41.67938392403811 38.15329024422464 48.61818585935006
41.70635299059791 38.160877765695155 48.66161138102549
41.84962345264486 38.18090783057259 48.69218515326055
41.84016280379653 38.18190744126603 48.70858992382461
41.86139661724242 38.185725950452664 48.68451395992479
41.67264734218101 38.202777225824654 48.63789709744823
41.70893775087713 38.16115967949194 48.663257197872326
41.773584420627145 38.20536296443046 48.67772339603165
41.787542443854065 38.16603463624221 48.685680004924414
41.82077431026101 38.2074803962312 48.69492571227843
41.83977706809346 38.18212361058957 48.709627536113445
41.85411988511548 38.185586507730875 48.69522241760172
41.89027637874708 38.20700641433306 48.671753600369996
41.91281328467346 38.217821290807194 48.64307538057114
41.767706505897905 38.319823140373124 48.64169187656138
41.80867983459457 38.27772703965316 48.66404272579689
41.8468877717769 38.23323978442835 48.6615393531643
41.89830879817909 38.23875167237951 48.6400665752692
41.899185656338375 38.241117284183574 48.63616813000308
41.790498466339905 38.3127141110152 48.639115714900626
41.82701976158506 38.30421804066314 48.6257527441732
41.868663438401946 38.27411493759182 48.620828238259065
41.922155668828644 38.29201744231297 48.610564228472846
43.13632750184828 38.73439004224366 48.592879646905004
43.14016665314671 38.73965684482414 48.58419366923013
43.181452987203876 38.83034854892222 48.55888468972171
43.184405000450084 38.83467685334778 48.55305967741388
43.136059253786655 38.73768638919873 48.59980934778848
43.175280214552934 38.82129888403618 48.57106322214169
43.18063655692741 38.82915683570401 48.56048596390061
43.18435560269248 38.83460937496327 48.55314815248767
43.233104813291874 38.908200524340856 48.46830200419447
43.17687115664435 38.823647096820004 48.567895670869596
43.1816587183623 38.8306683845692 48.55844566860766
43.18536427695756 38.83609836134285 48.55113953774064
43.23311426693933 38.90822315520353 48.46830324880554
43.23318586243343 38.90833894498154 48.46829472135105
43.23303781732233 38.90811541651244 48.468317488950326
43.233143597779765 38.90828393754832 48.46830406476265
43.23323091893043 38.90842330256017 48.468293064504714
41.78111318605159 37.99736439489946 48.70040080174043
41.69107609135847 38.104068215178074 48.674863861711756
41.74844853391082 38.05201009437951 48.68780323290986
41.753152995822774 38.047061505534366 48.68695439624145
41.680044920282114 38.15319905848687 48.6178867729967
41.71047202060046 38.16133389117295 48.66425315437307
41.76926008672181 38.12424219494858 48.68026206718933
41.81816663160389 38.13331216793769 48.694988280472984
41.70921506601397 38.161197862100224 48.66345574876611
41.78744396453041 38.16611085123601 48.68610974687016
41.83957110654093 38.18200702398632 48.709693842068646
