ply
format ascii 1.0
element vertex 1332
property float x
property float y
property float z
end_header
54.76915944948239 57.86153081173175 36.960311620223735
54.768252290717164 57.862094342676556 36.959582866958414
54.76419619929139 57.86457816627918 36.956213575140524
54.760325598619595 57.8669149393741 36.952894830231635
54.645031802366596 57.891058540713274 36.89407373542967
54.64203046505983 57.89142763363092 36.892796795644195
54.75961675627683 57.86734029387201 36.95227903698243
54.6030589733156 57.911992894296674 36.848298682776594
54.599855143785476 57.91138429159612 36.85104115546699
54.54711295605953 57.91396971847367 36.86495533725863
54.54419311407586 57.914993892474435 36.86456059260499
54.5982908255867 57.91155928807182 36.852244644227675
54.484062266194485 57.93521791269784 36.8634265902693
54.90359694894457 57.793180774486956 36.98032885416285
54.90415328967533 57.79393333879533 36.98019580357263
54.903600490697116 57.79287515305171 36.980351561765794
54.90238329588287 57.79278879151321 36.98052427132903
54.90234064546393 57.79317991042221 36.98050041465992
54.903446336667294 57.792677885550276 36.98038757395373
54.77007059178612 57.860976712412686 36.961080413161106
54.85992597845671 57.803887126566465 36.98072863601964
54.773194991135384 57.85902273181884 36.963549852518284
54.76152416093515 57.866268205449295 36.95416034195475
54.76015882585498 57.8670828631642 36.952959882869344
54.77253592376442 57.85946785037315 36.96313087039509
54.64678526051632 57.89089986454212 36.89487004821571
54.75391799547719 57.87077349012368 36.94737025783232
54.75891562119728 57.86777252243385 36.951705518697615
54.62664375328807 57.8941260181219 36.8869622531157
54.707683108074406 57.87663418556777 36.92361553852243
54.62968006197563 57.89370843108183 36.88821505004794
54.54593109527867 57.914313945202714 36.86474138890493
54.60134846315136 57.91280694539213 36.84943585331099
54.548253255662786 57.91321297661114 36.86483470571928
54.62795268151942 57.893987531774194 36.88753899550012
54.48453779154855 57.93498742224432 36.86360548589012
54.483173302765636 57.93535190554209 36.86345893468203
54.54313239165289 57.91511939862644 36.86422728361647
54.40732794936359 57.981882439335266 36.850608179432896
54.44134603337398 58.01845867209087 36.8785560181904
54.441257149814476 58.03092276973783 36.88196951732587
54.40363553888094 58.082190612836236 36.87887020241804
54.366181349248656 58.089285194545376 36.896843512135575
54.409690358402415 58.07231634414573 36.8734741548805
54.967330949375054 57.596284960470875 36.98580073833128
54.95351072301251 57.660818841362754 36.987461389987615
54.964894657661986 57.59608850141235 36.98351786318502
54.95474643806167 57.660038861888935 36.98847962157548
54.904135343062514 57.79332034719636 36.980244768275526
54.9039354524018 57.792643603035515 36.980323407371344
54.93964197735929 57.72413477384055 37.003783855109525
54.90142479826731 57.79204256730719 36.98071173827891
54.90268372177914 57.78801693994169 36.98084535720719
54.89886165023171 57.787692007485475 36.98139175532378
54.8189474734729 57.83059856412402 36.97664053163702
54.89790106246403 57.790954931391695 36.981275286556546
54.82047463383556 57.82964658842528 36.97678075415675
54.7615614728628 57.86626077856468 36.95423905321335
54.7828405198101 57.85283570134441 36.97069451782774
54.77560183111065 57.85801179428227 36.96698154399412
54.818514713940914 57.830863677215156 36.9766185662986
54.759955421925866 57.86717153271699 36.952679875733246
54.76829683961084 57.86235577961837 36.96051320551646
54.76242114787956 57.86570520984116 36.95486302902597
54.76390333586457 57.8647663805507 36.95599775796521
54.70017922729057 57.88318914767452 36.92640570157869
54.76244590397889 57.86567660372059 36.95484198862256
54.62348627858138 57.8949627804282 36.88601486914898
54.63449248116558 57.893209337988964 36.890344396237154
54.62586612826345 57.89457800712968 36.88694606331045
54.48459538820528 57.93495782957192 36.863629223593755
54.540851048595705 57.91576487089258 36.86379967462132
54.48825886984787 57.93394751497927 36.86406188477815
54.624970537029014 57.894726951770814 36.88659929448494
54.441216222908665 58.03448817576751 36.88296887589479
54.44120181183905 58.03679090950571 36.88359654636914
54.48476971117239 57.93487687405572 36.86369043167713
54.40743002923455 58.16936317018738 36.89357026121081
54.40941545111842 58.081486939666135 36.88207750632174
54.41013649559657 58.17395850877192 36.89586200578322
54.40998246998924 58.17503456927764 36.895517789718596
54.409735317973784 58.17527332639841 36.895203274523084
54.41033916774391 58.17432022301894 36.89603080943515
54.41566359911397 58.24070092529986 36.9737790852521
54.30393416662103 58.226341435840354 36.965532958488595
54.30165331334661 58.22698616376475 36.965854851335685
55.08574008437884 57.55318057987183 37.05212069090623
55.0344862709752 57.55290537470512 37.05266699758348
55.00757320967903 57.57583645497804 37.02321323989054
55.08216826834955 57.55486543520894 37.052059808731244
54.97035749899164 57.64602412927709 36.99954961127803
54.96139514620139 57.719166062478536 37.00734504365264
54.9041838341707 57.79331498559819 36.98023855571963
54.95094967859856 57.73565378786583 37.00129662703962
54.90440278106627 57.79406930180677 36.98015142900346
54.902943265167345 57.79145711697673 36.98054888103401
54.90262466074906 57.79142472817237 36.98059483066574
54.90429014902131 57.79371068746276 36.98019401640161
54.90167968631883 57.793834551617934 36.980540965286735
54.90260936168834 57.794838235166836 36.98033789633476
54.777985750298214 57.85603131565453 36.96735086650768
54.81623920416521 57.83229382551062 36.976365030556856
54.776602261686165 57.856895350117135 36.966253709987335
54.77023409452219 57.8609740686079 36.96151784838788
54.76884810487137 57.861811219455575 36.96033069367665
54.77601643904088 57.85729168603421 36.9658834108485
54.76519052985341 57.86398622811916 36.95709201316468
54.766677985516544 57.8631029424177 36.95841295867329
54.76603308912125 57.8634766572543 36.95781166517913
54.637550316274286 57.89280218055125 36.891617898237165
54.634800833133475 57.8932086681125 36.890508477540855
54.76599640036984 57.86349498508483 36.957768381443
54.573028534681775 57.94432432141787 36.97389970633169
54.62997633066437 57.89393845625874 36.888576376002696
54.57269546398091 57.9460650150454 36.97812520424012
54.44119374949584 58.03764525910306 36.88383343581139
54.47684381470838 58.061177939785 36.997658413159805
54.474613778925125 58.066490162900195 36.992737400376896
54.57261297022223 57.94645774584113 36.97905695919142
54.39441496280053 58.15929331200692 36.959745663510645
54.394541754566625 58.159396351168326 36.959652297531356
54.44114562236866 58.04467117599461 36.88575467867974
54.390383903290555 58.23980401596373 37.0268550704054
54.3724841187759 58.15998017571045 37.01137039202624
54.38851212955579 58.241514078719824 37.030634526309484
54.382218232590645 58.247236028823565 37.0432427208881
54.31192977856706 58.24884956444865 37.10556744055693
54.38751602823661 58.24242085008804 37.03263419014134
54.30234932765313 58.24375293392865 37.1072796011393
54.301692388209325 58.243402172730995 37.10739682263166
54.308571074230066 58.24706879834834 37.1061685448182
55.149110968971684 57.540653640873046 37.06084019888573
55.143425211624916 57.543574126022854 37.060403463092484
55.031650911223025 57.57583622451357 37.080153141524846
55.08254662700077 57.575680927861164 37.0838173874685
55.07513705935284 57.642468619482536 37.09894115500667
54.99640131198844 57.64722962767043 37.062894052337455
55.07472790156372 57.64203705746109 37.09875316673049
54.99789682998697 57.645078993716346 37.064944656086155
54.90466980193585 57.79509450377871 36.980037184549545
54.90465692279474 57.795052181663245 36.98004215412449
54.99635020166532 57.64715447336684 37.06398026921161
54.90328200296506 57.792726063961894 36.980406350886895
54.90455838134668 57.79491784644449 36.98006579936465
54.9044210711446 57.79495193968826 36.980081956192286
54.903711568013506 57.79548755063327 36.98013816566016
54.90423356018738 57.79515484544624 36.980092156019545
54.90395631695183 57.79562718784764 36.98009415966685
54.81609495345895 57.832440130284496 36.97613646333522
54.81251269728115 57.834684911303114 36.97576273327356
54.90394465631352 57.79567649325902 36.98009201005298
54.77028240661146 57.860902432577674 36.961427867481845
54.77274423786318 57.85933577006624 36.963289940731144
54.770850063712 57.86053100735582 36.961825734951624
54.768185348043914 57.86216398477886 36.9596159019799
54.76780883872393 57.862390966664194 36.959292066222204
54.77019839239151 57.8609348101261 36.96129907326631
54.62507156970675 57.94138414199547 37.000285795045784
54.76726578645603 57.86271585997773 36.95881728111009
54.687451247387614 57.927209923576754 37.03459150703073
54.61270384281653 57.953349897326945 37.02165329056772
54.521645054004345 57.98343009950569 37.10065546772179
54.68521909524839 57.92907129497921 37.03732570910404
54.47875869005904 58.067228992218844 37.116855461385725
54.47804056826556 58.068056934191084 37.11532743905803
54.519946444759036 57.984515371627296 37.10507713494404
54.390624482504364 58.15485925494525 37.02598481595789
54.4734220366024 58.07432995887614 37.10425428201832
54.470750010701956 58.16707465942547 37.07819981002129
54.40976668300155 58.23912121513868 37.05164587536808
54.38338880538745 58.24619534597185 37.04098149103223
54.41215191641007 58.23702404627509 37.04715211236511
54.31515232622023 58.25056400387112 37.10499154063304
54.362626874685915 58.27516416610681 37.10154967764167
54.31606253277752 58.25104755664388 37.104828779675955
54.30081131097424 58.24293295046826 37.107554211440494
54.30615458874841 58.245798738609885 37.10660261149869
54.29903060548441 58.24198941140047 37.107872985570786
54.31548845772005 58.25074646879827 37.10493198985364
54.21976746245561 58.21880902044538 37.11542899727776
54.134655153782006 58.223996948731056 37.09695026812895
54.295786485972755 58.240249588407934 37.10845075635467
55.21259792291728 57.55620860754875 37.0769058575581
55.21303798982527 57.55873131208733 37.07761855460409
55.147979257256 57.54109827935041 37.06089215060808
55.2149847306649 57.569921556359354 37.08079669569843
55.21681955342957 57.58024319619863 37.083604594628554
55.14085963753798 57.699095577223105 37.096696571135276
55.163624115218866 57.61797405669492 37.074352282117694
55.1425135611228 57.70053768279476 37.0974310484323
55.08244044591077 57.64962809370341 37.10660026696227
55.082286367980586 57.64943787491094 37.10674871192664
55.14221168634501 57.70030854673777 37.097288402665896
54.9047060087152 57.79524178292543 36.980021066255816
55.082465638589596 57.64953969328073 37.107521679516836
54.955735578168444 57.72928095466131 37.00380338513869
54.904716125781846 57.79557802911624 36.979994170261705
54.904765117584894 57.79553107836518 36.97999104521347
54.90474322928328 57.79564724581026 36.97998521814716
54.90458008268352 57.79585750491211 36.97999153407094
54.904520001223176 57.79591397271525 36.97999545077105
54.90473582619825 57.79567360536315 36.97998422851617
54.81620206295845 57.832393120661045 36.976070843431934
54.90442194085977 57.79601372792097 36.980001267156396
54.84406992269467 57.872891757186224 37.03556944940872
54.80981075616513 57.89805940359135 37.03413992287435
54.809801079980325 57.89820264151362 37.034238779813016
54.809243074915955 57.896548147565156 37.03240547588441
54.7885279635387 57.9041295905054 37.012604273307645
54.809430026685064 57.897959681210594 37.03367109714464
54.80891091022448 57.8973360233548 37.03266126994068
54.72599453821714 57.95978543570049 37.104492676120984
54.7055166096725 57.969636969109914 37.098753161673635
54.808758451674 57.897118641090664 37.03233869073372
54.50045997397025 57.9998379686249 37.21107952749813
54.5005028998217 57.999907653243916 37.211039898283
54.62811792415786 57.95990396972695 37.150761557088366
54.480327529740265 58.06477759819814 37.121038000543294
54.49987090961301 58.00018159903207 37.21057574137234
54.497843206697695 57.99932080104192 37.21048860372119
54.47321329774596 58.086398165164795 37.1808087912264
54.47099710642037 58.09036907860934 37.17971736247885
54.49611150005458 57.99846872609493 37.210508424245205
54.38030155988842 58.266332958003616 37.11241189785589
54.39149549139889 58.26840539705957 37.11682365104656
54.38124165828356 58.26612266266429 37.11295512154556
54.36263267127617 58.27516161011806 37.10154781124746
54.36230681602048 58.27504889300619 37.10141243451379
54.38086449736265 58.26620680096243 37.112736208792256
54.301761652939085 58.243479640272724 37.107390239645866
54.2981051516859 58.24151846633556 37.10804142757457
54.31649384562407 58.251310897453564 37.10475653341142
54.191787606924365 58.23849583128325 37.13680885633596
54.28605665119237 58.23503623784102 37.11018429908255
54.1936798337054 58.23867723670364 37.136858002574584
54.12715038384143 58.22556211577657 37.095193024554476
54.053165851335834 58.26071994208128 37.06243590387167
54.192612530632005 58.239497886550886 37.13721289845571
55.2136937310645 57.563035677270484 37.079134469741994
55.215023358260645 57.5710837373543 37.08164237229977
55.227009421851506 57.66878294373104 37.1050923870702
55.215969037911435 57.57615847221486 37.082885544989736
55.22710624014068 57.66967994721203 37.10541203135712
55.22179433197843 57.7500013640324 37.125230425722165
55.22124812097606 57.75046935171861 37.12512278352723
55.22718300672142 57.67054789308473 37.10573127015242
55.08631427482709 57.65353962108338 37.10976038532962
55.22006848781029 57.751494590279805 37.124807826556875
55.15237615129337 57.70488985447879 37.141299584550794
55.087766614216335 57.65487816163802 37.11195754254672
55.090496331785474 57.65782043873275 37.112712463921454
55.0882603835155 57.6553867755469 37.11228089282969
54.904781512099994 57.79576306779118 36.979971203482364
54.90477461695979 57.79579869571876 36.97996944121289
55.08816908960408 57.655287519818 37.112262394182814
54.904636079935955 57.79596016339397 36.97997610012054
54.90475136613674 57.79589181394533 36.979965549155324
54.90468532114703 57.79597545076044 36.97996821829106
54.88467309278063 57.873997615249614 37.04324808839381
54.883467334069515 57.877921108026925 37.0469727606031
54.88853556779348 57.86167537013526 37.031483536935326
54.814490728912496 57.90620688693153 37.04516255704073
54.81733304087461 57.910882997933584 37.05165019013333
54.818610267676874 57.91328530128807 37.05479424287044
54.81632110731171 57.90968474770841 37.04969497067694
54.81547585508007 57.90830089129661 37.047770783344916
54.818607946503406 57.91335219407021 37.054842678274
54.67639811518664 57.98206829879792 37.20719299514296
54.700624094456984 57.97767320196611 37.20141661956795
54.67896846093983 57.980962493360515 37.20724964885284
54.50097895873797 58.00018097502063 37.21100295419027
54.55727046087806 57.98384309723685 37.236602825360876
54.55588283547927 57.9869145750003 37.23434358941926
54.67345424157359 57.98216628870187 37.20835149177829
54.50782805272889 58.00553954988128 37.20932197885081
54.50775183766415 58.00550193477592 37.2093229430411
54.548271664874605 58.054645462138154 37.21899811794853
54.47418661461414 58.086693720753004 37.180861253998756
54.52981982822905 58.06221987727116 37.20851003793187
54.474814478084156 58.045682240238676 37.219150642802965
54.42098477227887 58.17122522843857 37.22342944037756
54.40443534883012 58.2178093218344 37.167123161674276
54.47333616148896 58.13050144980595 37.203041540597475
54.37893199964148 58.26664609583459 37.111649146571644
54.37794600019169 58.266869187046666 37.1110900846744
54.39188220173124 58.268245903283955 37.11706751068105
54.299508079690895 58.24228477068527 37.10779355421365
54.3153724259368 58.25074622605507 37.10496149881679
54.302214667500124 58.243743215741645 37.10731250124928
54.28336569745156 58.23359498329648 37.11066382407262
54.198653117352 58.242663776691906 37.13844213854659
54.299236112117455 58.242144690095245 37.10784281513692
54.18683569092796 58.25192179064797 37.14244275988561
54.183983087343655 58.25233844758377 37.14265476378081
54.1953047731546 58.24647434753003 37.140067912115
54.108216631322335 58.29590250343138 37.11468930641166
55.21650788580206 57.579656804684035 37.08409898996238
55.216656949741356 57.58045169796348 37.08429076928027
55.22254442883029 57.66409646454504 37.114984903861846
55.22350483407459 57.67073519144931 37.1163932918593
55.2217201427291 57.75002751453271 37.12542803262359
55.22314297550854 57.74881199460713 37.12568830659728
55.222048311453875 57.74972175028428 37.12563220543333
55.22003146423633 57.751483102737794 37.12504562867494
55.15578744480766 57.70741032444598 37.14089714363554
55.22163530930047 57.75007476084218 37.12555560925907
55.15191734162673 57.7043298945686 37.14148584482767
55.09720644994694 57.68213698657058 37.19934001232184
54.99878193671833 57.680806596992504 37.15783683613713
55.095954453373636 57.68130913317745 37.20123298814448
55.094578605887875 57.68040442229446 37.203324768737374
54.8850516005904 57.87318104497548 37.10006818924522
54.8844645545686 57.8749757401925 37.100778485753985
55.09444294039484 57.68031229626175 37.20352434087216
54.87967668435424 57.8888366203456 37.106450286827766
54.88263481367497 57.880581690818 37.10299427688981
54.87972153421755 57.888423309871285 37.10635287609861
54.82039529770766 57.91130763239834 37.23021240266759
54.82064890977304 57.91285722116409 37.22826795488159
54.87865127704605 57.89167614509515 37.10764484811966
54.766623772371915 57.93427097471516 37.22443106842762
54.81178613434293 57.92110769542944 37.15115389471394
54.767067373384734 57.93369955250241 37.22503286482713
54.6924742994744 57.976380565375024 37.20626113960249
54.68384668784019 57.97749874496327 37.208786324301215
54.762940778330965 57.93236843959789 37.228302413536284
54.55806646449918 57.9856246492012 37.235596677392394
54.664692528690956 57.98157688765137 37.212721885976485
54.55908589648644 57.98447313003464 37.236538564866905
54.5082703601052 58.00583961394923 37.209250484986384
54.550032172923714 58.0544584035066 37.21631394943743
54.5506592195851 58.053548190827506 37.21479511826922
54.55841406207273 57.986059163734794 37.235380448609945
54.5315379421927 58.09879498523137 37.22619240059228
54.47848865101725 58.08499003866341 37.23935859899925
54.55080163531501 58.054241461264226 37.215050595442584
54.420316164806366 58.16330600067187 37.23122274919287
54.420361972832325 58.16384632403613 37.230690184581405
54.46486525789639 58.093328570319606 37.24641301651606
54.380115674733986 58.26638504299002 37.112348880741855
54.42084102834586 58.16952953003366 37.22510072119884
54.39128023475851 58.26848837557939 37.11668755051933
54.313289696679874 58.24964233192853 37.10533429394026
54.30660922070446 58.2460875877332 37.106528067293596
54.381174067026635 58.266151734365906 37.112975034519756
54.25849809230173 58.26689259333352 37.13525671006131
54.24220465070553 58.296336715693506 37.16003660444943
54.30152868061002 58.243366013283705 37.1074333460994
54.21234797614257 58.387931526296455 37.18441464261964
54.2117102166948 58.38865831176534 37.18442138467155
54.242947247441364 58.30343711059815 37.1629684302693
54.13105557874092 58.411259219961345 37.187407468354586
54.128521775622914 58.41145919805652 37.18754528126705
54.21025492388397 58.39029093786672 37.18444681918486
55.21686877240618 57.58163229315714 37.084605776626326
55.21702109419097 57.58256586142021 37.08490272468944
55.217664851165694 57.58601713009369 37.085746265461616
55.20931998314074 57.715842644813065 37.189494231867485
55.20905414556624 57.71540541891546 37.19030716504109
55.208477686383645 57.715086443928165 37.19147471192545
55.20689238981794 57.714121539144344 37.194768518331415
55.20633302036453 57.71376392396327 37.195946959735714
55.20837855559088 57.71502767052646 37.19167919892991
55.181759578624295 57.741233948412145 37.18746262895429
55.167070335162265 57.70418192899005 37.258500877789814
55.16484364481199 57.70389890802299 37.26158724987455
55.10948504511754 57.68430612727036 37.31527798352355
55.109053646769425 57.684299680786225 37.3152698352049
55.11326725233265 57.68404629685851 37.315357456235695
55.119181350113664 57.71438193726053 37.25801874522544
55.07303543342111 57.66092979576001 37.27428386491976
54.83221962006496 57.83051928924546 37.2055493098745
55.01356340293657 57.72508228296691 37.323727425295445
54.912543048627356 57.82178708145622 37.267181483085366
54.83374213133519 57.83981525109208 37.206793377553666
54.8146388801985 57.89067340064498 37.25731210433027
54.91100089141047 57.82352089271957 37.26640709122518
54.817403062754764 57.906061846091305 37.23787777711428
54.81494498678609 57.89485061467752 37.25226208647433
54.81489161563527 57.900444154495055 37.2457349251549
54.81213520010722 57.902881440714026 37.2442779527967
54.760242164739175 57.928358903040596 37.23462850355366
54.81472900823531 57.90134637795019 37.24476026784461
54.73918049789866 57.92481316203991 37.246982455430484
54.751311494079985 57.92611405856043 37.24085597194862
54.7379283477289 57.923910312542915 37.24864021307543
54.62973206427279 57.952581667094485 37.263729041781765
54.59071470235597 58.03757804019662 37.23948626304859
54.73661950397116 57.92375163318235 37.24932565952479
54.55101597489614 58.05630268318763 37.21611414349169
54.5513093826703 58.05591213856794 37.215427043758545
54.58718720431217 58.0424790444182 37.23530056711992
54.529455181025554 58.102303597353185 37.227942737521595
54.551962455533314 58.05743257588017 37.215491989453305
54.53003118349737 58.1028205802529 37.22793561730134
54.42006824291128 58.16036780837889 37.23411358613749
54.45522632171338 58.09922788817637 37.251397980786436
54.41930243588082 58.15129478984067 37.24304140315807
54.47867923857974 58.08487363910878 37.23926360268985
54.419784667488585 58.15711424966784 37.23735445960335
54.420173744118266 58.16177910842825 37.232784741416545
54.419327121715924 58.15158018434711 37.242757951020565
54.27398200484676 58.19973015754688 37.15882312917617
54.2724853634042 58.19916112319723 37.158637153556555
54.4204357356792 58.16490133552378 37.229719249465326
54.245030178641954 58.30821194917081 37.16491079577709
54.24506768028941 58.30967250813582 37.16551600176134
54.2362402733909 58.22345888827502 37.18281244763878
54.212203556975105 58.38796480432417 37.184467288093224
54.24522395434951 58.316218706872974 37.168228741817764
54.21235401803095 58.38776377758383 37.18447720694642
54.12987660279367 58.411353607732764 37.18748780290532
54.20985732286793 58.3905724505949 37.1845178267932
54.13507611448032 58.41094607634899 37.18723934930735
54.21207714942336 58.38807784607245 37.184480697876666
54.06087596433467 58.40517299619207 37.21066451318318
55.21098152024196 57.643933152894405 37.381975482070274
55.21127706061236 57.6438128600675 37.38230276131574
55.20804159087881 57.64513137062674 37.37865724205108
55.20608543733834 57.6786125282643 37.292877649355326
55.21115926928273 57.64386086466178 37.38216994051555
55.164676058015274 57.70032276201393 37.26598302571086
55.16548901441817 57.70035721936425 37.26493686724514
55.16274784513103 57.69818218135733 37.27087571846129
55.12042120227722 57.683369050380215 37.31551249492415
55.11861064104977 57.68419046862187 37.315456749447726
55.16203251615227 57.69777078813254 37.27224256371703
55.10905110753781 57.684559426861455 37.31526318992966
55.11399387831839 57.68526366787303 37.31534054100686
55.109437186161564 57.68512601012747 37.31525624015771
55.10648933971639 57.6844668687145 37.31521618124992
55.1064325828055 57.68436474338455 37.31521768118954
55.10844278509741 57.68498254213219 37.31524072381677
55.012254554387084 57.72552235379831 37.32385785851849
54.97322355790034 57.825910258107456 37.30157282341624
54.812251110574124 57.87951107944377 37.27160342138539
54.81204741241356 57.88003619788843 37.27109149229489
54.969094519484045 57.829277660992304 37.3018752984444
54.810685520944986 57.88322353337184 37.268047903791285
54.808803596667055 57.88626565307768 37.26543839740645
54.80312284542513 57.8901917015863 37.26372111082915
54.74955205138906 57.920260113153766 37.249302833849335
54.8074170185962 57.88782862903963 37.26431068618035
54.74013927059262 57.91937613095877 37.2538892159407
54.73155262416202 57.91941503455597 37.25694530837821
54.63332436927173 57.94800660374117 37.267161610799356
54.630175179322066 57.951166707112776 37.26489120838267
54.727245487658784 57.91957195423274 37.25829495215122
54.58144889089884 58.052628026979136 37.22829826148468
54.59051928619419 58.04141772184448 37.23893749975714
54.585137377194314 58.05267998243587 37.23221525569081
54.53647352040743 58.10337731777722 37.226180284641806
54.52905435712854 58.10939213552939 37.230336190025106
54.58440511736043 58.054304911695766 37.23129240760874
54.44577199021485 58.10501614360279 37.256315380556735
54.437746457076486 58.10992704375071 37.260451899564046
54.46687733104731 58.09209880967003 37.24539696010115
54.41878579687931 58.145575485040034 37.24881820651481
54.41912624125361 58.14963006308331 37.24483634913287
54.41832671387151 58.13985999168758 37.25433966393351
54.35339368705982 58.12660478438502 37.26054877347734
54.35124859329285 58.126735416073046 37.26018081992033
54.371844008911346 58.12548053265272 37.26371015825919
54.24635205233298 58.31417947375408 37.16736197519624
54.254995564501705 58.27596060329493 37.20971503390315
54.25471983961994 58.29027852708429 37.20625125103266
54.23453879143157 58.377822827605186 37.18860394444891
54.21230748084718 58.387840756433455 37.184468376341954
54.25462723359615 58.292716053940836 37.20565265118964
54.15458277264464 58.39508138912865 37.189125426252005
54.13891428704431 58.41064238607462 37.18702131274651
54.21156693071669 58.38866690325712 37.184483126493895
54.03695981102294 58.40256152740867 37.218339863130076
54.05639267022818 58.40372569828807 37.213636422925745
55.321002899392504 57.59756865720618 37.41578556648245
55.21447148853258 57.642513458163066 37.385808102687335
55.20957044110344 57.644508317973525 37.38038061761945
55.2137230658204 57.64281835608024 37.384968668429536
55.211273907626605 57.643814530294776 37.38228402206708
55.1656011420353 57.66883279471803 37.344340636545
55.163101307979005 57.670020356113426 37.34099499216102
55.210477502816644 57.64413855231105 37.38140745001208
55.12321854867547 57.68408921037326 37.31554810446069
55.15821760265223 57.67247182084908 37.334731952543414
55.1251731308597 57.68366116849681 37.31559663493937
55.115463223944246 57.68785032259055 37.315303162755576
55.11123171896198 57.68673003442076 37.31525008176978
55.12405341419857 57.68465943337111 37.31554970932233
55.105735245393106 57.68466136894287 37.31519671222219
55.1057374313728 57.684629051805146 37.31519757504685
55.107712053134826 57.68565153692681 37.31520965495695
55.00984156091084 57.726559065955286 37.32413612020447
54.996066097417554 57.732877680961536 37.32579177929113
54.811174440411136 57.873789065708586 37.27885463668845
54.963013593122035 57.82690373557308 37.3041643513276
54.8109410438381 57.87142655938767 37.28174136351136
54.80786676632145 57.87325324722863 37.28116118184702
54.805982909631695 57.87490093957071 37.28018658088374
54.81078986716196 57.87145163885103 37.28178870118131
54.799634418643066 57.88547651280422 37.27101658132799
54.80243255223444 57.87794900290382 37.27841686685556
54.797818758456714 57.88123375006826 37.27690952897701
54.729690720831755 57.92160202075321 37.34045331307489
54.72596250117076 57.922350963412796 37.33899929506481
54.797089895779564 57.88175312325534 37.27667086140516
54.63650516359555 57.94449257804793 37.26973463302622
54.67361009491477 57.91300293960265 37.340177765059096
54.63807550929451 57.94297918805315 37.270812578976646
54.59386836373692 58.0410884270136 37.242527491949325
54.59112410573469 58.05027501077294 37.23879394305146
54.63734556789669 57.94366179144546 37.27032963862748
54.53179814471176 58.11420786366011 37.23105685214672
54.52705114920933 58.11608527205421 37.233083851101824
54.58982003935854 58.055268667977856 37.23696397712504
54.451645383240226 58.13683756397588 37.264905217451705
54.427735319165635 58.148137337167036 37.284075679309055
54.458442416017 58.09726412287746 37.24980125684449
54.42866905769767 58.15036824177883 37.28524909009186
54.429134041741904 58.15144490782553 37.28577896438334
54.42614838955169 58.14450583432359 37.282335626948424
54.35487983756737 58.12651588143143 37.26081198066507
54.37317261890334 58.125407867718266 37.26398073137979
54.35949224438214 58.12623732218033 37.26161520110933
54.25516041804838 58.2769145336256 37.209520028812065
54.25507123978599 58.284532703587715 37.207688276596095
54.35682554148793 58.1263991984691 37.26115508158233
54.23444731165402 58.37863223131798 37.18870597883812
54.2119120873291 58.388406689201965 37.184427649296964
54.25495463238324 58.28933936501328 37.20652075828128
54.153315228588134 58.3951676974665 37.189155214798944
54.06123776886158 58.4027972620198 37.214414524091666
54.211224964504396 58.38916113009148 37.18444604738178
54.02545660365888 58.422562994071406 37.2507342397401
54.01856897962587 58.418287832815295 37.25119300095591
54.05217031305185 58.40217624834592 37.2167337160149
55.31698547194277 57.599288772875425 37.41570677974556
55.31784260585792 57.59892496567768 37.41571899715342
55.217759409462026 57.641179258656095 37.38928863016161
55.217348803493735 57.641344982973536 37.38888923436207
55.316346934223176 57.59956221414604 37.41569419562213
55.20690976810984 57.645582987866405 37.377761134937685
55.21588190105941 57.641937307303714 37.387451774201296
55.208590483422554 57.644895765412386 37.37974556533882
55.160810334317524 57.67117217101676 37.33806074402767
55.155123131744816 57.67501013355205 37.33280982642342
55.20792318538473 57.64516747046434 37.37900278447874
55.115475072828794 57.68799174644373 37.31529979954318
55.11417798125665 57.687603082102896 37.315284677923785
55.12379699009232 57.68560283625735 37.31552081055948
55.10576085160514 57.68467560390791 37.31519684409121
55.10820889768687 57.68564213430706 37.31521946676374
55.10660108481091 57.68488675161965 37.31520767122872
55.00559452779315 57.728642417167606 37.324669253417596
54.99956806262035 57.73138101798903 37.32538926623312
55.10640831682905 57.684662806428975 37.315209644217134
54.95778099814089 57.82551161424766 37.30597049556222
54.81210018679225 57.87764088429836 37.364137075319285
54.80953975379273 57.88099735946887 37.36402076916833
54.80887667467366 57.882083027527244 37.36408528967264
54.811813433167714 57.877859540750904 37.36405528990181
54.804898756198774 57.88814555260409 37.364275338397334
54.805092392336974 57.95023449608316 37.3936438192804
54.73766831609744 57.92667336587915 37.34742128036559
54.735855033500755 57.92676200985578 37.346554822607985
54.804379439545016 57.949416675634446 37.39283544112676
54.673226689265825 57.91527888216187 37.34774230431288
54.66859842174731 57.918160653508394 37.34945812683543
54.62743971520132 58.013206487677785 37.379132656564295
54.59514550119958 58.046513516714 37.30223928270917
54.66767295362721 57.91875386509752 37.34986306116898
54.58673116075323 58.13907412407816 37.28991639633707
54.586875447404594 58.1395372503806 37.29015055344955
54.58596580855473 58.13671315259235 37.28799119873442
54.43181556749468 58.15765379673262 37.28883445602604
54.475216171619365 58.139236471979046 37.31589789607766
54.433344508905144 58.16121156556902 37.29060459963962
54.43007988424876 58.15365791262332 37.28689320751634
54.432763475237216 58.159902641260985 37.290000392230226
54.43375183143861 58.16220078937434 37.29114195822811
54.433215818271364 58.160916448623524 37.29046250116727
54.436097236540746 58.167624671749564 37.29380374279913
54.364445770512376 58.125938943456696 37.26248187230655
54.43435104772812 58.16358773276036 37.29182394566328
54.27841902522309 58.28265799361161 37.29548203986761
54.26410742822856 58.28132029756772 37.29380191489635
54.35962057023626 58.126231147979404 37.26164570459632
54.263128007891545 58.377919564094086 37.35293216410897
54.241770099546976 58.374874437428446 37.27033204838456
54.26388319854236 58.28564916456858 37.29300503601059
54.12204518233979 58.444150652651864 37.23199313724646
54.12102068512141 58.44439079629203 37.232227677291796
54.22311523985938 58.39390344881012 37.269642201256175
54.03020030266191 58.426439056995925 37.255923202091694
54.02609153516593 58.42382634822236 37.25582822554132
54.03989319177106 58.43275848023255 37.257068143519376
55.34494190987025 57.58738602979494 37.416158215854
55.326002697971106 57.5954565873335 37.41584231168873
55.2227140295141 57.639173509829384 37.39434520041023
55.223174691405056 57.63898734671893 37.39480257753981
55.3114126671325 57.601676446164674 37.41559518150762
55.22397722145842 57.63865306755203 37.39599192844081
55.22005740239638 57.640208331047326 37.39323581375952
55.169074352106556 57.66744234340155 37.349528151191606
55.165293164267524 57.66971504934183 37.34545740592844
55.21727724897749 57.64132695246182 37.39066847582985
55.11478073333087 57.68685098574901 37.315315391308395
55.15822834243905 57.67451110868741 37.33899359765286
55.11514537779044 57.68566930317279 37.315352426425655
55.10928637877408 57.685046618836324 37.31525535062673
55.10836341474232 57.68480677086946 37.31524365831504
55.11404782927914 57.68566893249344 37.31533128866579
55.00292068509138 57.73000063381219 37.32501271390046
55.10762120568893 57.68448774672525 37.315237459434925
55.00541643821448 57.72901515377673 37.32473946139554
54.84048360063701 57.91961148662976 37.40199880195546
54.840516086712654 57.91994273882162 37.40216685363674
55.00093827147088 57.73101904505018 37.32526927315631
54.8408724843575 57.92431634570745 37.40438210882
54.840731671615075 57.92242086777594 37.403422711627705
54.84139381848907 57.9302789627409 37.40740395306546
54.816724513651295 57.964023908315646 37.40720504711348
54.81643877306011 57.96375101092063 37.406926820481424
54.84157849140479 57.932506501540004 37.40853236878756
54.81054308384988 57.95691118494742 37.4001778560034
54.81531325101878 57.96252889795235 37.40570816035105
54.81300592461116 57.95987931392254 37.403089611852934
54.737827785374975 57.944184284414845 37.40639721374701
54.69710993068999 57.957554860197334 37.396217323188445
54.81286386261368 57.95971232053996 37.40292517018587
54.627454690089806 58.022138180709305 37.38859346030837
54.62658041035924 58.027074800938834 37.38904518402638
54.63051265260344 58.00509131891893 37.387244424031955
54.551417276390396 58.167551155021314 37.32465137568739
54.616487628655584 58.11625322224783 37.376532585104655
54.554958334853765 58.16808557395612 37.33071987280165
54.491891862347 58.143949297509835 37.32860642980056
54.48008820100764 58.14062006368236 37.31963838015629
54.554232406352156 58.16785941271981 37.330379643661615
54.43815916233248 58.17243281824666 37.29620707810854
54.43847309174912 58.173164531560715 37.296572463354075
54.43755118921743 58.17100305102615 37.295479291866215
54.43889370916333 58.17412819546641 37.29703546150987
54.43893462330809 58.174217406456975 37.29707330761678
54.438732740267135 58.173765543919146 37.296868027042365
54.27248594267829 58.30844434664242 37.38157805149295
54.2725939421593 58.31163726201045 37.38391068101533
54.39636749126022 58.25789195874316 37.35755901059956
54.26552094151947 58.39466310440045 37.45080290147974
54.264957904331936 58.39514353729892 37.45098425490811
54.26786617286256 58.39264905148855 37.450059572218805
54.210303592220754 58.44283027356521 37.41057021088074
54.20952073745382 58.443510498886425 37.409496831676584
54.263420522804935 58.39644540774401 37.451488761892314
54.0034510948047 58.41962527772388 37.35127480797519
53.93819600708593 58.38286007850172 37.40787089522622
54.10414584848651 58.4319732170747 37.34387045862322
55.39530976811641 57.55339680528065 37.46077010883432
55.33687405986276 57.590826638238156 37.4160198123208
55.22491483669295 57.638284718376404 37.3965066365191
55.30794382461308 57.60316156528427 37.415527315372515
55.24694998874809 57.64336296029644 37.44359885819976
55.230398218574805 57.63606422842079 37.40212987288496
55.22819921676944 57.636904308219414 37.40186130164036
55.24671438251635 57.64261132399543 37.44181929408606
55.21404302416796 57.64261788374329 37.388091320750114
55.2131942539429 57.64296740344149 37.38699187691368
55.22338233254516 57.63880187736985 37.39901131800628
55.16615533259876 57.669923877636606 37.34789604133785
55.11485259202345 57.684353247356036 37.315380206871176
55.11020603065623 57.6844773116747 37.3152875279229
55.109831827811306 57.68444006900154 37.315281263707725
55.113358226115764 57.684510184236686 37.31534742848996
55.06442646099464 57.670617545660555 37.34468453766654
55.00653357550188 57.72875643671131 37.32464773429469
54.84116765454459 57.927630650879095 37.40606205859554
54.84122929440493 57.928319905604134 37.40641143951955
54.990682575625755 57.827159087373246 37.36811965154149
54.84172097384787 57.933927033077126 37.40925319258149
54.84241690064536 57.94199755551388 37.41334284125951
54.843936106125234 57.960987432464556 37.42295992313167
54.82637062713648 57.975571465301925 37.418544697823705
54.84282152739695 57.94676250528242 37.41575711886951
54.825378746490244 57.97470075215218 37.41764276572844
54.795326190652105 57.988218331432506 37.444117365455654
54.76781686092825 57.981637684376324 37.444734284811474
54.759935746179224 57.97975062678632 37.4449106778547
54.7911545288186 57.98722249744011 37.44421132738714
54.627888931499605 58.027133224238625 37.39618965517231
54.62737554191414 58.029721419693615 37.39612867120932
54.68741501822626 58.02778076198637 37.43680334190284
54.60752132060991 58.04814958858736 37.40808613158269
54.58658467034475 58.125165136835584 37.45182434292874
54.53564691465297 58.2071507085814 37.43134898103693
54.51198427526149 58.190289731644754 37.35294109549588
54.58498434606779 58.127909462280755 37.45255190278128
54.440532931336044 58.177941849055074 37.298932119094275
54.44074598641323 58.17843854434864 37.29918025787103
54.505740144241315 58.1918791332174 37.34890695644722
54.40275851800366 58.25450639910818 37.35408237758221
54.397443529497735 58.25994709154025 37.35849515568836
54.44082193752542 58.178614266438586 37.29926658269631
54.27008199961989 58.39064522703479 37.44945167505969
54.269668195809125 58.39099480434837 37.44958825114429
54.336252243422194 58.288679942998456 37.44728370500502
54.26517947865183 58.394801181634406 37.45105632233879
54.26444948291105 58.395417077199895 37.451298003935904
54.268237750462056 58.392210468172095 37.45005359740175
54.26158413531133 58.39783298053953 37.452248123494165
54.2131825950798 58.440145407574676 37.4148865950866
54.26270025846319 58.39688937194805 37.451880419403466
53.935841685983014 58.383278121184546 37.428982577312325
53.93561604947338 58.383318089499205 37.431007035171206
54.14002416322194 58.40342105341368 37.471775764423555
55.394898728862145 57.552242137465754 37.465347599654315
55.39746209478956 57.550143601505255 37.46884659609245
55.2854223986648 57.6005502856361 37.457336359808565
55.248691995849484 57.64726864593767 37.45323508468288
55.39467777969386 57.55139186244419 37.468599364405826
55.24621132362027 57.64360268568936 37.44355470094517
55.245622459668006 57.64358238435149 37.44306877903114
55.24815049779443 57.646010634447485 37.45014601199612
55.21544927452858 57.6420429228002 37.38975025454136
55.24420641962046 57.64495099080596 37.444922184414644
55.2451561653209 57.64726350213108 37.450566287689156
55.20022791865546 57.655407114472865 37.382719509974976
55.16834629629831 57.66874255852301 37.35053644180215
55.216691144405125 57.64154230617288 37.390934044408624
55.065715069975525 57.67116491614661 37.34437781618739
55.165595892878216 57.6704072857713 37.347599475694864
55.064613668393974 57.67025415549365 37.345733871610925
55.09118808160824 57.79339777292713 37.35898226182829
55.0530838586384 57.772995563620796 37.39285949674439
55.06423656060676 57.670030490359274 37.3459804112581
54.84163855320896 57.93318452973804 37.40887603073314
54.931880112772234 57.934425710699 37.41175977487355
54.8418234558971 57.93540868909639 37.410002759643824
54.842570194759006 57.94391119568201 37.41431197985086
54.84310264144404 57.9500201806653 37.417407920094576
54.841873092717805 57.935970549192646 37.410287534586544
54.844705650185226 57.970245558393586 37.42764995809106
54.844771769343936 57.971619787919835 37.428343752540606
54.84370663288799 57.957040192827165 37.420965167736874
54.81388120368632 57.992665074504046 37.44370283942254
54.79983898624996 57.98934103441438 37.44402460878095
54.766324081724704 57.981292951064475 37.444770180087275
54.76030534301894 57.97984944066433 37.44490442411504
54.7921696176648 57.987498873098176 37.44419512703412
54.61236432307489 58.02482089176678 37.41137097382931
54.687329627000246 58.02586247579014 37.4370945825982
54.61347512198401 58.023284644230486 37.4124290696919
54.58872174160926 58.11175234629197 37.45493577007239
54.58321390924064 58.123885412312745 37.45631395865037
54.612984405268975 58.02558275175677 37.41209098800339
54.54549069184807 58.21330216231661 37.47326817919534
54.54023695694632 58.215810478772354 37.47895537106062
54.5800827763956 58.12842181941617 37.45808639503982
54.512100834924766 58.214121090034496 37.449438946282854
54.45264950276392 58.220959995228334 37.50393469400511
54.51958732120693 58.21033038974374 37.44781640501438
54.39092725006215 58.25181743936049 37.53367241378383
54.30706513368858 58.259763205042766 37.533559600266905
54.45151430460938 58.22118668384755 37.504132584311336
54.26088278431156 58.32370549088233 37.488737513440206
54.260796064626234 58.32552110596958 37.48800303334061
54.30381862164888 58.26344017987326 37.529441632318644
54.264603421443354 58.39508813297169 37.45143331062
54.26334751271193 58.396132518965814 37.451863350296684
54.26012655175839 58.3281272921747 37.48736732300642
54.236713665198735 58.39235503108286 37.4965361004286
54.18620874621077 58.40442973383325 37.50464234788373
54.26208184016019 58.39719539999762 37.452287024477144
53.96700717896054 58.38515500968309 37.530502663895135
53.95348629537956 58.42191216579126 37.49921398707515
54.076509297293356 58.3927771526654 37.525347283857954
55.310622671738166 57.61204611656876 37.515880748214926
55.25127603165911 57.65252967668339 37.4663938001013
55.39534358264449 57.54759992029021 37.48069687720676
55.25074895655377 57.652597775748404 37.466142790518205
55.25062192156545 57.65268289826926 37.46622877848436
55.25123851159589 57.652509968085376 37.46632357878901
55.24993863244514 57.65302087727659 37.466435719830166
55.249614032613664 57.65313947512614 37.46644456951478
55.24959375691856 57.65316548581092 37.46648478245545
55.23505786710838 57.73359638671485 37.511925396698864
55.24957328477874 57.653164618406194 37.46646754457945
55.185958185174414 57.74476802922679 37.43496547865873
55.11715087342009 57.74198186994309 37.435757640008404
55.10408167921281 57.837918177951934 37.47448031109232
55.10338918842779 57.84008717609902 37.47365555843371
55.11661772434155 57.74146940439586 37.43579069800047
54.93540397720913 57.938730339346804 37.41401963273375
54.92938432198516 57.99918992048373 37.444331963645475
54.843022524129985 57.94952481163148 37.41715505419708
54.84332324931082 57.95303569318346 37.418934055323206
54.92545989909275 57.99924245924531 37.44426233957739
54.84478025794431 57.97165033774379 37.428359521817555
54.84395999152029 57.96063746965065 37.42278524745087
54.838751335191645 57.990759934096374 37.479895665048645
54.80947456076262 57.991584359522506 37.44379646207772
54.79987291143265 57.98931985750347 37.444018117302726
54.838844036710725 57.99090328156115 37.47938359701885
54.768597628083256 57.98182850120085 37.44471756692331
54.76517002926051 57.98100690630588 37.44479410859559
54.79049444107166 57.987077568420915 37.44422866858687
54.68935820034011 58.026921874921605 37.436973814968084
54.67927881729413 58.041162528500294 37.43459507540404
54.583633106126115 58.11074186356282 37.461327522970265
54.57714115283476 58.12162453118539 37.46438373185629
54.67722587609683 58.04476369955536 37.4340035707726
54.53515104788455 58.21476973453503 37.484682786127806
54.529516133625876 58.215704867816044 37.4908948784626
54.5719992552167 58.12802264312206 37.46773482775705
54.46587091325107 58.221299155348916 37.55137564263614
54.46368243279096 58.22140651675967 37.55283559573242
54.488058260768966 58.191228654086544 37.529904284400544
54.37249692744616 58.19898993244429 37.57850042343456
54.36267137175855 58.1992491281984 37.57860068129043
54.46149892434146 58.221790572096765 37.55419930316253
54.256261972240395 58.28489572644345 37.5374811680712
54.25613265923761 58.28509712494646 37.53811636282052
54.30423454735285 58.25342614788691 37.53884871761932
54.22760182169858 58.31873597468548 37.542847981448006
54.23218857495608 58.353316010710955 37.553655087612135
54.249713549940154 58.29893179869696 37.53172260234521
54.17437737034663 58.3797510618406 37.552741490335144
54.16779088792427 58.38029514864711 37.55552012044628
54.23215855570106 58.354304364963994 37.55235516461138
53.97270164590387 58.385220174922495 37.53479646337985
53.96460764407525 58.38512568102519 37.528690688569995
54.00157697628598 58.34357014373444 37.56116867179905
55.33920915951143 57.57059538855122 37.581214319726165
55.30908421231964 57.62005296149374 37.52553371898784
55.25800228764342 57.6647461589896 37.49749494092234
55.2582683726476 57.665280153654706 37.49883341107094
55.255554190017534 57.66029413569745 37.486163183948676
55.25717495078223 57.6640654336799 37.495421761570526
55.25482574313172 57.66072135370736 37.48652643533228
55.23750102815764 57.73642721741375 37.519411762585946
55.23630829328245 57.74038558299975 37.519722847467534
55.25402190455538 57.659558134652826 37.483442259401684
55.23388531819894 57.749038236670614 37.52080887852232
55.16793854661276 57.74784454778463 37.5194017338176
55.108830405204955 57.84067425448327 37.4781887788959
55.10778951300074 57.84231773909811 37.4771276554288
55.113057436651246 57.836023015956 37.48227453735904
55.05636093353168 57.95763391373973 37.48211101319535
54.929565252518856 57.99919361082279 37.4443378382887
54.83264787405714 57.98371865971318 37.50693909348868
54.83289918290578 57.98400864957779 37.505825399727875
54.92614743057099 57.99924022993764 37.44427757795931
54.833422826840746 57.98463208243088 37.503451417185154
54.833944703993495 57.985337336005045 37.500851846944826
54.83350826035755 57.985034236422656 37.50222784287465
54.83291515406604 57.98440914856794 37.50469115645116
54.83396243926435 57.98537560769329 37.50072368816345
54.771756057053196 57.982563553728866 37.44464272767327
54.769176864202876 57.981946871513586 37.44470062682001
54.78758863877983 57.98634210999336 37.444285940277474
54.70255431094714 57.983859127613 37.520123905032214
54.63317096970547 58.040510165156675 37.51040210919119
54.57762540174893 58.111348590713376 37.46811988332742
54.56992068263569 58.121842045905375 37.472761579958195
54.632664976034924 58.0427669688955 37.50983450691348
54.48913421215481 58.191074369594276 37.528792217090974
54.48305464897661 58.19214254764307 37.535609242524636
54.53593645588224 58.21499796828694 37.4837939928897
54.42923476704392 58.17565480642817 37.57869952938661
54.42259323973878 58.17362832607627 37.582650976818044
54.47760192594404 58.19313075359951 37.54180530740795
54.374723089793804 58.1988756362018 37.58123990236903
54.36288812532318 58.19919964942944 37.580773647628575
54.41611787908348 58.17159432249111 37.58648813354322
54.22912421575498 58.27372224498456 37.58630821222455
54.229137005066576 58.27599541766375 37.586726939314275
54.287646596535545 58.23030968235096 37.594545176309964
54.228666524417726 58.28820747099954 37.58814978626108
54.2284150852773 58.29123952588773 37.58829665265081
54.22909408019926 58.28004308132214 37.587371809361095
54.16881821476923 58.3482017690817 37.59859316892477
54.09168282281165 58.33580404541959 37.588050734152475
54.228285335275466 58.292608869464274 37.58833815210402
53.9855208435527 58.38536842313888 37.54446472525468
54.08546803617226 58.33659880761256 37.58853255596687
55.33955660963616 57.56884559356294 37.581554585175795
55.31160885713514 57.590915413715535 37.58206057982298
55.27049256054041 57.65523486225209 37.55392774363998
55.27097998519511 57.65923610275926 37.55524628689633
55.303834367716185 57.605753858482956 37.58120598976883
55.26304535122665 57.67322253849821 37.51935708224969
55.24795456006189 57.72187861302826 37.531644618045775
55.23905274187345 57.74004841247624 37.52552054259038
55.237167472241026 57.7449811580442 37.52502905015211
55.24626149237058 57.724765824013744 37.5300576279137
55.23468190072613 57.75200036820893 37.52476409966235
55.17258915122371 57.75105146049111 37.5223534301861
55.11252655138372 57.84200499898394 37.48116520047686
55.14488579813677 57.96078419725793 37.554854301830446
55.17132812759587 57.75090377103062 37.52164455582394
55.04302106792397 57.93806218713813 37.552883982522296
54.91186235847607 57.978700890430844 37.52031067534577
54.82921872696581 57.97985792973711 37.52186777542349
54.82889652999302 57.979501434771876 37.52325304529811
54.829695360591444 57.980393278340806 37.5197963089703
54.83077914330177 57.98174272651826 37.51471829883516
54.827249595627634 57.97771063962 37.53024640199051
54.827140859199034 57.97759462108661 37.53070195976954
54.828405249655134 57.97896277741296 37.52535158630657
54.82656690960869 57.97701084557768 37.53302691734834
54.82671278278846 57.97721643406899 37.53227675105707
54.698561514668185 57.967880971951466 37.605869446789924
54.69589121636207 57.968759308802774 37.60502808524165
54.82690711700726 57.97745131463168 37.53138594341216
54.68990855461122 57.97092213929112 37.60409493641801
54.634157501041656 58.03738488609928 37.53450537044742
54.57251109744435 58.12575627954577 37.56093213542812
54.564995195063645 58.13335343309599 37.555754128276575
54.633822176962155 58.038858266927285 37.533728519681574
54.48068717958995 58.19215864608677 37.53717796001691
54.42742169894766 58.17283822202617 37.579178492855014
54.55867936684345 58.13900092454509 37.55296967525213
54.427072686011265 58.177447818130865 37.58063579258278
54.41771813662084 58.176691892691984 37.58675739658067
54.43182727211052 58.1762042597582 37.5770930782938
54.377551350246264 58.19868666907001 37.586895339267095
54.36515192102844 58.19906533244767 37.584458547616116
54.40977414950287 58.17679561794981 37.59215351418043
54.229792863786585 58.274658092120596 37.587497668795464
54.230145137042435 58.27805872500317 37.58863483526123
54.29249085741879 58.230071670375516 37.595695530705704
54.22945698614822 58.293675134379654 37.59032168950044
54.228701473041625 58.29634933597806 37.589632900194346
54.230431644642785 58.28352132651149 37.590033208936674
54.16615555821912 58.34911121713516 37.598761904577245
54.08546250181493 58.34258020032089 37.59024738139971
54.22844516888853 58.29651701313658 37.5892693861004
54.020151781050004 58.35455258191622 37.57402424649176
54.08243435465 58.3439275469442 37.590757366373055
55.340098705169595 57.565004780203395 37.58238065889178
55.309568704459465 57.58899256734251 37.582987212898104
55.28302379904687 57.61805563724279 37.585892694439366
55.2823682445133 57.62396078044683 37.58476786759721
55.28658479417554 57.58985025116097 37.591206124757846
55.246926004239484 57.72640542846548 37.532739657513325
55.25618428730705 57.698738179953224 37.57655290030833
55.25581206303592 57.69960355801814 37.57650250013985
55.26442049375457 57.64735279612696 37.55229565128302
55.24018982995317 57.740572627571744 37.52841569830529
55.23733327387524 57.747434744005936 37.52721652798422
55.17400697127309 57.750972957158794 37.523119452787
55.18631042170295 57.76392735980497 37.637890132058374
55.18597900672656 57.76399546590412 37.63823374051368
55.23585204143495 57.75116227345251 37.526720411092526
55.14700550121223 57.95966515164392 37.560292371887336
55.14500058117666 57.96240036143924 37.56036729406826
54.962767974714424 57.93202659531178 37.65202907284457
54.837469463825656 57.97179336040167 37.62648923837595
54.83574749141253 57.97040014367389 37.62993258488265
54.834423612329545 57.9693987716079 37.631807280680654
54.83736921344935 57.97170690794178 37.6267488689728
54.82513792462173 57.965571931526945 37.6381347600081
54.824303268518975 57.96494938422842 37.63858835259029
54.83261191021476 57.968078283190636 37.63382041165719
54.82244212885157 57.963728260823245 37.638360452117276
54.775896673341705 57.96805471049342 37.69360588988351
54.70304868844188 57.970256734778395 37.626088681287
54.69780885962315 57.97228335303984 37.625917496015575
54.77204939153325 57.969800989881406 37.694590862844585
54.690009308256826 57.97542245993277 37.62626057586149
54.684157861085005 57.977570125523926 37.6255054528558
54.59166259695979 58.05426364654285 37.59053905619219
54.512012736363815 58.13045995508769 37.62283458229973
54.68395974195982 57.97761776649325 37.6253574611727
54.41788291346262 58.16692155759789 37.58405713290408
54.419729279177155 58.1693550624759 37.58345415960897
54.50677966719241 58.13545821149739 37.61930314796755
54.413730912630484 58.17415009814509 37.5887784910007
54.4040999726512 58.18022626140204 37.596897223265636
54.420123555500794 58.170843165684886 37.58358201522847
54.399114465094776 58.17759376894958 37.59956893579437
54.3105701572809 58.225260835429324 37.598563390275885
54.39790859034793 58.187755229223434 37.603076423597635
54.230489998812835 58.277784351039 37.589115388477936
54.23174495891031 58.28418880503727 37.59216392045211
54.29877502534378 58.22956174125852 37.59711471431875
54.2311684230609 58.29381905143629 37.59297085967765
54.229305176625886 58.295893122269995 37.590478371499245
54.23229614804016 58.2873679716394 37.59356717158369
54.08142955474581 58.34616351845281 37.591439386206
54.08143134134792 58.346343855309065 37.59149100774292
54.077946932687816 58.348788246561895 37.59233411406114
54.16596169087743 58.34872505825376 37.599090851625995
54.229168487783014 58.295896242025734 37.590269353801105
54.02911071950737 58.35848588356295 37.58039614764734
55.288483679408984 57.57449271025678 37.59410474801626
55.28538722630309 57.594257873466745 37.59046411129822
55.28468805136163 57.600072156639904 37.58936398979541
55.287993316858575 57.577057186789716 37.59364459060898
55.25501077637853 57.695181670104475 37.577618440386395
55.25420406439876 57.697661003539565 37.57739156947292
55.263643196354266 57.63159478192614 37.64119348646868
55.21054732787195 57.73655661574574 37.63956612454579
55.187087713413916 57.75210251035202 37.6429225453211
55.17828487329308 57.75629040781172 37.650858636747834
55.17741749679119 57.75649844378829 37.65174301661607
55.18471511935058 57.75343490932914 37.64495960187379
55.12997906508653 57.8598674034608 37.684097019911185
55.06861398442864 57.96071434263177 37.65418447155258
54.91278030888046 57.98055388380443 37.694608766417566
54.85574298866186 57.98584424068292 37.72534866351581
54.85548736288996 57.98560502321822 37.725105015014265
54.95428808320776 57.93443226754691 37.65622721352677
54.85229383499516 57.98274063341075 37.72204945520693
54.848498542101034 57.97959310451086 37.71839402024346
54.83259390191825 57.97110601477291 37.69977858907771
54.827106630634006 57.96678167692283 37.69489022277156
54.84578090150056 57.977465459012514 37.71576467306923
54.79086990563199 57.95636962022326 37.68363617068538
54.77729952981539 57.9660709287484 37.69155596090336
54.74975254022108 57.97811689315451 37.698034106911834
54.73403590825654 57.983563147308 37.69993969150569
54.77513709629052 57.96726358247315 37.692374585909384
54.683335764889215 57.978580684908835 37.62886008185001
54.678077360986556 57.984395718870005 37.64714954197106
54.641538813584845 58.033409655084206 37.66580412663553
54.72476383488428 57.98660617601767 37.70085050829057
54.513455508860886 58.12842474549912 37.624752647505936
54.51940753324659 58.12235650034342 37.62932009269781
54.514514084214944 58.12679786893095 37.626351983826076
54.594094698573606 58.1227721821995 37.66433638596183
54.411728109260814 58.16548175101442 37.58783510212092
54.41065087067787 58.16463756885791 37.58833942353908
54.410481910717195 58.164797841644805 37.58849607698254
54.49588125131172 58.14339540691711 37.615501403785444
54.399907766441686 58.17743957171304 37.59899195552859
54.40025714667473 58.17236904613295 37.59741227226383
54.399561320062325 58.17303462694025 37.59805888248947
54.40633956183336 58.16742495091946 37.59199164268324
54.30122848115263 58.22907989443376 37.59756603949734
54.301688655297426 58.22915041350247 37.59770915724155
54.29441374895124 58.23210842324768 37.596926606818045
54.38457811020675 58.18070605782928 37.642135582220256
54.23185036287502 58.28578009371384 37.59260491653139
54.231152448459696 58.28415305785001 37.59124923247842
54.23127702779816 58.286124099514204 37.59178630367894
54.2775051260785 58.24046652285125 37.595646660583895
54.22935668126207 58.29498596529734 37.59039805940492
54.22972036427216 58.291862416836196 37.590407216234816
54.181675136203374 58.341824057505 37.599168845658426
54.23090306510488 58.289673360419194 37.59183613221151
54.08414529466484 58.341153191929635 37.589892155930976
54.16876252339772 58.347091359311264 37.59938729661739
55.260000998716706 57.617443122276434 37.6632089192654
55.25985065559084 57.62142708499192 37.66503883110169
55.21494844252682 57.654860405878594 37.73815787694787
55.21302985937693 57.65420421156507 37.741104979656484
55.25976145227242 57.62221375039864 37.66580654585693
55.151828539790756 57.66684650625598 37.744824920728504
55.14393279537262 57.66590013972184 37.75459002550565
55.120102077758894 57.726382629930995 37.75056015784459
55.120103565454954 57.72680683534202 37.750143314962514
55.12044946605229 57.72494209686386 37.75179258957194
55.12299408807381 57.84870365213139 37.69686258070385
55.009096734848804 57.89150570201471 37.752594125562595
54.857435300204614 57.98705658715996 37.72699656912678
54.856571024106415 57.98616269725237 37.72618078261777
54.9041010946093 57.86770029657819 37.749014390280706
54.849091467633414 57.979351439265855 37.7190339978309
54.84935962476429 57.97952046307961 37.71929728690622
54.84920797001668 57.97939483115272 37.71915120762773
54.854676121867776 57.98427331843345 37.724385573709796
54.83736510461698 57.97058174860292 37.70765000903591
54.82437482365921 57.9616934858302 37.69496134065123
54.776210756112455 57.96668090884315 37.69198004009651
54.77711371079661 57.96739339729295 37.69315761579678
54.7722087594011 57.969745360955784 37.69457103361776
54.794139773530624 57.955579373686675 37.68367005838795
54.744821945402144 57.98013742640912 37.699023472135025
54.71413757136932 57.98981880747792 37.70154938295413
54.68452099583798 58.015225709491354 37.71833213560452
54.69144006955977 58.017212533756506 37.721755557529534
54.69128457689097 58.0127484390488 37.71721681975522
54.53045659392022 58.111323764950626 37.637465370283806
54.518812199652395 58.1216219812421 37.63079110763544
54.631898766157846 58.070050499844285 37.700479529307515
54.42229947303338 58.2115286631553 37.63991095382998
54.420843574983735 58.21174687261962 37.6416186910271
54.50522451147198 58.133354955500025 37.623410963921884
54.38399306518562 58.18124729198298 37.660348731032386
54.38436574734791 58.18233386744621 37.66110216822284
54.41854599068709 58.212088532714276 37.64430397096595
54.35352981180419 58.24252150161087 37.662938762328594
54.34557880681879 58.247086397398505 37.6601358813357
54.38448505271986 58.18280990588399 37.662449966158874
54.2304077392804 58.284025260617604 37.59008503799495
54.23039920652129 58.2860538940583 37.59042813929686
54.2822740547975 58.238867222843005 37.59628311263328
54.22973060402682 58.289279086973565 37.58996933954789
54.174882364934746 58.344285404124136 37.59950045066
54.23026625794118 58.28739052631583 37.59045899144002
54.17127453308411 58.34577240010431 37.59955078207543
55.254364294674446 57.629698668619895 37.75258552191025
55.25280652562269 57.62575401900901 37.764870640234314
55.252813377605364 57.62605069943734 37.76443387022997
55.20560176644789 57.648397723809865 37.766166095922145
55.13246261735466 57.64295593565451 37.84695445413187
55.07065613036134 57.64616540269985 37.84945726157653
55.07069441607161 57.64627469079204 37.849390000661856
55.070463696662074 57.64640203529103 37.84937452824677
55.12934700155918 57.643682153095554 37.84675670126047
55.06924539443909 57.64699903355685 37.849333217400385
55.068746931440685 57.64716116123545 37.84936028954659
54.90994137689411 57.860521160827375 37.75282716975049
54.9872664714414 57.76541893963542 37.81182564821988
54.91122852053806 57.859108029611555 37.75369974781672
55.06849535438951 57.6471883548882 37.84940320427897
54.85934773111005 57.98857610315279 37.72884477476654
54.85838984921996 57.98739821699479 37.727958219832175
54.85452697317587 57.983033941040475 37.724346738749794
54.85348445417081 57.98196375111803 37.72336195320968
54.857610330615415 57.98646160793824 37.72723468471373
54.849289563186886 57.978359710936466 37.71933339991598
54.84356049238347 57.97472732663252 37.71371033031441
54.77688106775731 57.97186338798513 37.69869531799059
54.76744426125299 57.97473913018466 37.69934447975383
54.842509325465166 57.97420861468612 37.712664730899334
54.74520254293342 57.981417836452046 37.700750027312075
54.693664019223746 58.01596730503984 37.72095402865459
54.684309094582545 58.01742813026755 37.720512252003545
54.693989671631556 58.02021613079914 37.725310295940396
54.692210753908476 58.01604968527111 37.72073945870689
54.59380104756665 58.13199724183926 37.66446666369313
54.52249792872074 58.13317422761746 37.680153217754956
54.66462969560785 58.08815781109065 37.732317965140936
54.41988808491006 58.214581516990705 37.65244217969629
54.383632925323994 58.18155864354762 37.67137196837146
54.488573651947675 58.14284302637667 37.69594766610558
54.38587076035404 58.188524695943336 37.67970733991677
54.38655882376692 58.190706576415536 37.68261582935983
54.38423562092016 58.18341477722706 37.67344448111532
54.36185801494921 58.24571083960482 37.73729629660637
54.30660855289053 58.28634666183042 37.80930826792634
54.3865951706966 58.19082568161315 37.682802681389845
54.244177314343304 58.30996326332204 37.760754715612826
54.244070043282676 58.31003167651325 37.76069913989983
54.30241238484495 58.288232448051374 37.81112171058936
54.17223575572207 58.34530601101274 37.59958652180927
54.21372555208016 58.310449189334896 37.769221283281745
54.24406275372198 58.31003619108473 37.76069327496887
55.204364153010026 57.608429109632866 37.84933767078516
55.12967803204481 57.64329020051768 37.846821105441066
55.12977643792739 57.64319103539896 37.846837859158626
55.129029229838096 57.64337020445511 37.84678974312345
55.198766190215046 57.6098790752678 37.849259115895876
55.07086614248072 57.646579070006766 37.84918779993492
55.06962173125851 57.647276360676905 37.84909875601262
55.06863667610786 57.64774715704404 37.84907172835564
55.06781571995822 57.6478746421981 37.849191024419056
54.99456842090321 57.75255194938968 37.81620508370291
54.98755054438976 57.76497073970903 37.81196773925731
55.0677824222659 57.64785336984203 37.84921002101119
54.94062980065539 57.902517830456716 37.78446849592257
54.86014541402844 57.98878340768243 37.72965573758065
54.85852356147923 57.986530278198344 37.728178964882595
54.85746126172035 57.98522727201457 37.72719545918595
54.860086967365625 57.98869216694114 37.72960346285355
54.81094349141894 57.92875150801584 37.719405121249544
54.81022409649803 57.92705202756293 37.72098633165819
54.80993100966627 57.92680434126477 37.72085287478362
54.85613385369595 57.98393022818565 37.72593539868923
54.777402033584465 57.974977734429785 37.702767845989584
54.76163809013252 57.97852534391265 37.702275429663594
54.694129259152696 58.016759082507 37.72184871162213
54.707126713633926 58.02194549328678 37.729747703347094
54.70266288953561 58.0223133078146 37.729204511028406
54.75211679578209 57.98090864236582 37.70227997638581
54.66698852776993 58.090247891820695 37.7349111686446
54.70345051793685 58.024638574562 37.731713430851144
54.66972494790329 58.097303036145284 37.73816075557552
54.69959020867465 58.02297985143277 37.72924792338894
54.54009469320086 58.174740007304 37.73760114038667
54.53997359500156 58.17476870924587 37.73762397169235
54.5385804326568 58.176387048754165 37.738012161850186
54.61276015317423 58.09928634231153 37.756498322967204
54.38478659176503 58.18552959811422 37.67894719211219
54.384917625213234 58.18606011585318 37.68049380518936
54.38524629956832 58.18710567641875 37.68191178479091
54.468804387963175 58.16212875488479 37.70128079121843
54.3873279570423 58.19355747965359 37.68942294864827
54.36717123784401 58.246143296476625 37.74360578452474
54.36506644501346 58.24714293197667 37.744921062102335
54.3867421854032 58.1918873138353 37.688564005059774
54.30146655451435 58.288651929096226 37.81158152579149
54.29928236012499 58.28962087149355 37.81264117624021
54.29198007881976 58.29290397839374 37.81578405570913
54.31727447939824 58.2815465245356 37.80476100094853
54.24412371355463 58.310163410862906 37.763305319931426
54.22038841895727 58.31260982231058 37.84426550692835
54.2169814997348 58.3125157313159 37.84533765930483
54.22347208676943 58.31261337544379 37.843464871070545
55.1306462225988 57.64235846669375 37.84697988587664
55.1248120094028 57.643806195220364 37.84659747179676
55.07123439053052 57.64675969322323 37.84900696301679
55.068265479859726 57.648456745771014 37.84877660771307
55.06758503487305 57.64803196658956 37.84915949253646
55.066859883682234 57.648652524974324 37.84899290342914
55.06687417496498 57.64843066444075 37.849108425510224
55.06778041661957 57.64867635241842 37.84876984359868
55.067071131255126 57.647914830793255 37.84933961351284
54.98954062556491 57.7613710565325 37.81321148728905
54.8603831281198 57.98899445660765 37.729883385286534
54.84038853142555 57.948691994073116 37.76293225729621
54.861550719210385 57.99015287954344 37.73099008944878
54.94711106884907 57.89036649587175 37.7879914967146
54.86100223198466 57.9893263036075 37.730496735246746
54.80629787283363 57.9190314214587 37.727422089223154
54.80437093681742 57.91751936158377 37.7263411342295
54.80289048655892 57.91616703162105 37.72584399916495
54.806268059991154 57.91905523234978 37.72732281611909
54.726765779606595 58.0233956488979 37.73523533902477
54.749319550288234 58.036589104390266 37.75831492299291
54.72665833759824 58.025760751828145 37.73760109804502
54.801122541523554 57.91447634893401 37.72538276945629
54.718924290638526 58.02811746704711 37.738395877650206
54.71328228011071 58.02865677606631 37.73778444093286
54.65401078243703 57.99923692001636 37.773117288894085
54.65212470724282 57.99599176258194 37.77511183620653
54.71289671270173 58.028689315891214 37.73773829897706
54.539410480038015 58.17506927679988 37.737746422922754
54.52846406480968 58.186618046756564 37.74068281101493
54.61513129380104 58.10340068147322 37.76057822669968
54.38487083526911 58.186123296224324 37.682122160240226
54.38593873083559 58.189539176035204 37.68689116632795
54.52222573164822 58.192348233920086 37.742273279132
54.32400008615819 58.27852390353725 37.8018552246145
54.31326866733752 58.28333163361734 37.806630585526236
54.3863089304191 58.19072412253852 37.688551207698445
54.22342277606486 58.312526785774764 37.84365770482319
54.22324015826773 58.31248876585927 37.84378378158116
54.222758776710705 58.312494032432255 37.8438966552521
54.29520703162139 58.29142803780512 37.81462481761629
54.31121550959653 58.28425160467995 37.80754288227877
55.06735879768175 57.649076504134634 37.84865191899443
55.067044494580166 57.64923462397756 37.84863906434812
55.06651229209149 57.649433416070124 37.848654213915246
55.06610346624809 57.64910497052564 37.8489234671238
55.042797301812634 57.640858074790316 37.856681878661576
54.99001058381785 57.76045402198655 37.81354136602059
54.99442540692091 57.75250656105635 37.816279923489034
54.99048475556097 57.759481752865156 37.813899592295826
55.042662976633174 57.64038486691372 37.85692418952688
54.87851574960652 57.82719449858793 37.781692510012164
54.83692392942559 57.94433097090538 37.76367443414492
54.80398284451263 57.91597725643277 37.72828761032351
54.835291605634914 57.94220243725991 37.76334091119648
54.834778769628336 57.941544846628034 37.76333918141073
54.83671557152231 57.944053231347766 37.763575970387606
54.79868199154546 57.909354058070356 37.72962223926717
54.786776150224895 57.96334203053114 37.78138367877478
54.710597121933866 57.98448570760741 37.77379494431541
54.70883314120026 57.990930683674016 37.77241515226237
54.78644065263789 57.964371193253214 37.781861642925236
54.6572205446082 58.00281040792406 37.77476023465682
54.65675502745625 57.99926784615391 37.7823376656531
54.65533101281146 57.99761117995453 37.78179299140495
54.70768161848049 57.99380077931789 37.771421008795116
54.650866749163974 57.99288743224241 37.77887114371721
54.64999193718961 57.99055123898716 37.78194383648116
54.64919692804479 57.989379514724234 37.78227763377458
54.65328511125672 57.99504591717047 37.781488825577654
54.52391058748632 58.190818562468934 37.74184547238863
54.52551342669534 58.18950982364907 37.74145276428609
54.520498960656795 58.193942969622555 37.74271436077937
54.59819655211079 58.11967816046284 37.76484756383884
54.36246718942823 58.2481147643265 37.74568969696055
54.35888182855466 58.24968111802009 37.747485640270234
54.317947282932096 58.28123512140904 37.80455294160241
54.44468694399418 58.25003720539899 37.71825447768224
54.3100144270675 58.28478829426908 37.80809017117293
54.30510188966389 58.28698457852601 37.81031788627337
54.29805306168842 58.290140470155556 37.813473005927165
54.314811527674706 58.28263812039778 37.80596510651307
55.04261794669892 57.640191851460074 37.85702347251361
55.04250443594496 57.63972334267638 37.85726427034345
55.04237747500214 57.6393134841297 37.85747365570313
55.04212969525096 57.63850551178617 37.857886541163595
54.990868037450376 57.75851148999267 37.814288719519695
54.834987642742554 57.941898861131406 37.76413700146991
54.83342244872556 57.939945501502166 37.76462775119996
54.83299825573579 57.93939928512289 37.764605145743324
54.88410713955752 57.81653159889933 37.78517505153508
54.83179035712732 57.93784975933728 37.76459476277753
54.830246852254 57.93588028663749 37.76467933148408
54.78575210027414 57.96361773248362 37.78206991394615
54.78305601511883 57.960533488540506 37.78284928487551
54.78217513806976 57.96530229282368 37.784661455605
54.83003199055835 57.93560717631743 37.76470079393641
54.71019476454264 57.990361686970644 37.7737880270698
54.71110561234194 57.98850174750257 37.77460305270651
54.65633491593251 57.9959465150684 37.78949724854248
54.71286037038368 57.979395133893604 37.77578732756527
54.65420978049663 57.99360226494434 37.788353392341975
54.65520551423715 58.05765178024798 37.86803061277082
54.648993676196774 58.05606014707037 37.8774568628962
54.605497929786495 58.08490645847483 37.94538620852235
54.6545864041737 58.05747796668035 37.86890700747818
54.52205885981019 58.165092800689024 37.959930433411444
54.51433878061833 58.1704290809519 37.9472208185834
54.6052828870009 58.08540654367799 37.94688712758785
54.30963355638541 58.284957652713885 37.8082713047539
54.312825869709606 58.28353096492855 37.806818882553515
54.51320977727432 58.17120299975867 37.9453678668621
54.88649389853967 57.81262090271697 37.78648272584532
54.83013767636721 57.93580354386631 37.76526395536568
54.82945524490827 57.93488809714809 37.76488808653929
54.828120363870596 57.93322972759628 37.76537654492712
54.781878362764644 57.95526089432798 37.782131302133905
54.82990426664753 57.93550535434717 37.765273370862005
54.68234004473277 57.920497922466716 37.81264529944493
54.681398727588245 57.91908918922236 37.81256079272103
54.680973093564454 57.919919309505126 37.81285590685728
54.78124569531495 57.958463407080274 37.78337283836895
54.678129557404176 57.92365277221397 37.814415718155935
54.61956826371134 58.000613773938 37.91976945976242
54.65312223939429 58.057627180234974 37.87330772212738
54.61273809645595 58.00048245473875 37.930703404758425
54.63802402333819 58.11652058503655 37.99810238052292
54.61842475761461 58.00061706703553 37.92163262313335
54.603567990655336 58.08646974826195 37.9546049417326
54.56372128829777 58.03546851776785 38.00185409260496
54.570569783884785 58.03187431428283 37.99798244705629
54.51549381933101 58.16916099006622 37.94953848336247
54.82957822774263 57.935097653972704 37.76536815750697
