ply
format ascii 1.0
element vertex 1816
property float x
property float y
property float z
end_header
44.10412823442715 41.300961282866844 47.66056886546466
44.10357013464626 41.29981841598202 47.66101939353744
44.1025570287851 41.298302422275334 47.66146424186813
44.108550832546875 41.30629081458859 47.65948714983871
44.107101269328815 41.3032874767885 47.66068064904097
44.11259049600123 41.31091033492721 47.65866504732251
44.110520912234435 41.306642523818844 47.66035559253238
44.13779794766534 41.39010322362872 47.616269966860216
44.11259839796866 41.30870386936119 47.660142690369895
44.139404679193206 41.39370647929833 47.61452206317355
44.11388899316689 41.3101770784863 47.659881806526066
44.199686985847094 41.31185087097078 47.69692431169403
44.20023766271122 41.3111990689606 47.697567867828056
44.20743109137933 41.30674057438618 47.70356596439363
44.2076283310618 41.3065371289006 47.70377864697706
44.267846290701435 41.250981570519116 47.75859233786818
44.073309198536364 41.23303962356242 47.691739290821936
44.07435067852746 41.238039870000435 47.68871021699419
44.07558322789054 41.244045241022384 47.68507130919171
44.22355565878919 41.36893391599099 47.667917858581454
44.25138724109287 41.38665003151489 47.68463874335875
44.253604848345034 41.381378004178636 47.6884664814611
44.25297584189815 41.385042752702816 47.686342633369904
44.25436570452418 41.3816751112754 47.68877199364355
44.249262431305375 41.39214905844972 47.680756978644816
44.18856972820941 41.47882279572362 47.594698316838276
44.79462545899542 40.57093004760521 47.65201282056586
44.79024212859938 40.587770704514725 47.65254103621774
44.789313003675716 40.584145160661535 47.652514715714304
44.78280066126538 40.62106575587065 47.65880505226548
44.78447106936974 40.638127937938044 47.6652826390479
44.78443363970639 40.636007903077555 47.66430557805177
44.78629770098837 40.6583542447201 47.67311689291026
44.786424721844774 40.65937447953502 47.67347675130189
44.833682695261416 40.73881646110627 47.676470834342716
44.79258912983888 40.76262238254357 47.66306488721804
44.83242163280843 40.82030952663555 47.6567434733596
44.848730495125594 40.82275489563101 47.64958932944533
44.838121877997416 40.82370310081819 47.651582263700234
44.843242625301706 40.867125681141474 47.59830549504094
44.917727457199824 40.87143661688213 47.63246952297327
44.915843179691876 40.87599082651224 47.63029041537713
44.915074431089096 40.88501610760461 47.63018131676206
44.933803143629724 40.88628887611826 47.646646614752726
44.92162306922566 40.91957548670564 47.633777402679996
44.91727818090234 40.87881451532358 47.63263464180555
43.44686272194642 41.211960156661476 47.755424804885564
44.65381521871748 41.00663177728092 47.75532668326058
44.65365156426515 41.00644494560291 47.75547591794783
44.60324003600526 41.0848978590289 47.73582813577205
44.722925621097055 40.98910019969615 47.70802929444068
44.72276659747927 40.9887708591088 47.708197492809106
44.724477186788974 40.992335488919025 47.70637901164481
43.459652894607004 41.2208429330476 47.75063450307878
43.513766576650575 41.24797942040158 47.709373355054126
43.46350470154636 41.2203136024246 47.74865681374449
43.515023015131945 41.248592304556624 47.708344839412995
44.333930734881406 41.166186619997866 47.843064791021156
44.33381238431146 41.16601251793946 47.8430770756519
44.333415489282004 41.165817981858204 47.84285075370414
44.33508478225932 41.166916241351664 47.84361019451106
44.33477836046949 41.16639852078596 47.84368800614833
44.33592577222263 41.167337811508105 47.84408331947014
44.33548476341985 41.16655811757573 47.844219068416365
44.60182776487285 41.09452283848833 47.73410217675969
44.76179239981666 41.037447945478554 47.692096249930444
44.825627934156 41.09957982283131 47.66942063981891
44.763794569429955 41.04038677481935 47.69059897220845
44.82428378380042 41.102433440520336 47.66719978497534
44.82499058122667 41.10053428943567 47.66857926778297
44.82324922528408 41.104621314184925 47.66549495434141
44.823882828041604 41.10303732187394 47.66666865983227
43.54462301550367 41.28540205305244 47.65191125097618
43.54938225766036 41.29430015129396 47.643970235788146
43.54800129111289 41.291315915079615 47.64673627360644
43.55045442062508 41.29567088947182 47.642908869888586
44.0721269685996 41.22467368611768 47.69683619738337
44.07210834503779 41.224575385418134 47.69689584210344
44.072111988050096 41.22455802081181 47.696906736414725
44.07225360727527 41.22582255248289 47.69613441096138
44.07203816079577 41.224728310234354 47.69679793061829
44.23839020929135 41.17560678287086 47.790922165417804
44.24019225968167 41.17456864399445 47.79203993082959
44.33367380492038 41.16657183450917 47.842567053484
44.33276473055194 41.165460575390775 47.84250608453179
44.33477661013938 41.16738230310701 47.84301042582521
44.33570014819561 41.16789756616457 47.843494044380705
44.336409643306354 41.168166122952144 47.843953040934075
44.5106946319833 41.17657974086797 47.77369553244709
44.69138997040478 41.23751200341546 47.78346260974362
44.79192403184295 41.14666966727097 47.71679032493357
44.8237953472272 41.10382493280111 47.66620449464464
44.82444946511491 41.10275816617883 47.667114301280684
44.82466173036195 41.1019782973793 47.66763984818485
43.55083318875471 41.29636915132113 47.64228824282024
43.60197789403689 41.36153490643319 47.58932514007493
43.59391233905167 41.31778625031671 47.63588344287636
43.68707578300145 41.36561561153183 47.65278273999485
43.689523503317695 41.36485140711338 47.65647500044556
43.78928863929296 41.346795806929805 47.72369785043927
43.771794222161475 41.322703847415 47.74523737022596
43.91424539907435 41.27279191690209 47.774502770794626
43.916563032039576 41.27098395190561 47.77426020816422
44.071504101643306 41.22457061817535 47.6968675617092
44.07099803213361 41.22228487854106 47.69825067916542
44.07174228254955 41.22550032193216 47.69630666230452
44.070931831513455 41.221791543047374 47.69855142301469
44.07231917431196 41.22773565254077 47.694958283549155
44.07098861854978 41.2213798525694 47.69880818335728
44.07329822295963 41.23168099604652 47.6925763807398
44.071353359640334 41.22157118727605 47.69870906180474
44.07401411130067 41.23463481517891 47.6907922019999
44.07188346637038 41.22280202776945 47.69797758062602
44.07390653590785 41.23396461000607 47.6911998565026
44.07214419650465 41.22416931092559 47.69714805824582
44.10673003365255 41.2977029952424 47.66420141082337
44.109709875711864 41.30229191712975 47.662806223267815
44.196328274345 41.3096962235569 47.69663948662484
44.20581726020219 41.30508536159735 47.703797249440704
44.27159624915559 41.24378418542469 47.76419963981398
44.336142639339336 41.16853917849595 47.8434545208646
44.33673595655607 41.16872633046843 47.84386407706814
44.58613847029353 41.215775903163504 47.77736846316139
44.68695608422507 41.24116607937481 47.79015650342029
44.696885799308646 41.23301426406266 47.7751910449902
44.690279646717165 41.23844299934047 47.78515181654679
44.69263177638579 41.23650332063431 47.78159977911922
43.85190109435722 41.35567258802594 47.667134643461615
44.072475474552704 41.22909574847869 47.69412779681299
44.07311149935439 41.23207006630049 47.69232685334557
44.07418186249423 41.23716524612942 47.689240740985085
44.07552541411371 41.24372281913999 47.68526711018312
44.296617901386426 41.2618473537559 47.77608074821034
44.30033801599453 41.25758764025568 47.780533968702144
44.53065400912744 41.26453312364243 47.86395917654865
44.6851105741527 41.24268970061823 47.79294487534517
44.68267532793921 41.24469034162622 47.796616282466864
44.68402631076866 41.24357357506386 47.794573938782044
44.34105860016021 41.333891415813845 47.784066032778526
44.2971417117706 41.261221190830135 47.77674006709266
44.53085480672689 41.26459195959016 47.864000672676376
44.81095442989847 40.32989930791885 47.66938435921848
44.810062616556834 40.329715830177385 47.66977547333762
44.810599319986316 40.32980567310903 47.66953660566625
44.82888916877496 40.33413205782525 47.66161100020244
44.81835372117622 40.331652623073275 47.66617851446267
44.839165655038435 40.36399777633269 47.65715984901807
44.810040173272725 40.330369630337614 47.66989701691006
44.83489922384456 40.37955850114037 47.65984380626827
44.83407291694543 40.378003331419 47.66020029793009
44.83443461063955 40.3788746072569 47.66004699416776
44.86164254988213 40.4218378367469 47.66490918985468
44.837448631065854 40.47969627770645 47.67860888247175
44.83328310525669 40.48488890867428 47.682015784363664
44.803789929291256 40.55245722213899 47.65123011740381
44.74782050927881 40.56903479029434 47.674197603167585
44.76287389992493 40.5812268319131 47.66190985391326
44.749757298018665 40.570697134256896 47.672675423654695
44.756515992545346 40.57676781842923 47.66753275099634
44.790410506099086 40.57530772378242 47.652293652153276
44.767144789353296 40.61142969436919 47.6617063148865
44.75386443513909 40.62014112212694 47.67053763293066
44.784168860838314 40.636607402749476 47.66486059014849
44.73897172567487 40.63469791299197 47.68158499299143
44.67662405643151 40.69422208619049 47.69178820582271
44.73360857612556 40.63914138363871 47.68537253819163
44.676224576098804 40.73910619718276 47.710811914514785
44.78649275425453 40.66084216569076 47.67411053053649
44.684470924428226 40.743588614440625 47.70816015479074
44.67646451968997 40.74167273277504 47.707426815856394
44.745658942051534 40.723824627472766 47.685186953319096
44.70677660786615 40.798965267314244 47.71109859072682
44.672551981875344 40.83274835474293 47.718475343460916
44.80292844161434 40.83724167921102 47.681045306897225
44.799243902517446 40.85011255656665 47.6292792208119
44.69488578368041 40.89141720040272 47.7500432721991
44.69493150539641 40.891378196345826 47.750039217644925
44.69483182122572 40.89144580559002 47.75004699848379
44.72486668376794 40.88892410813288 47.74536408777242
44.78783213824864 40.89033122174063 47.67851463627878
44.80676559109145 40.88792739390459 47.623246818774334
44.828023600637415 40.90584977111892 47.58145860754455
44.69308311509366 40.89288745201372 47.750199025739306
44.69069297036296 40.89414030369437 47.750363213248356
44.72600649719964 40.889996051929614 47.74509992532126
44.755980793323815 40.89858997001104 47.68263618980036
44.80641762884516 40.88790345092605 47.623693785551566
44.833186297495914 40.907545631775555 47.582589758855086
44.92185566497905 40.91897223577155 47.63459691237606
44.92029893372761 40.91971470522821 47.63229690627808
44.91699615513053 40.92055931850915 47.628123382308836
43.192120329088205 41.0177588720524 47.883421606732924
43.301765661081106 41.06275523591089 47.903784646589685
44.69023672245372 40.894524558305655 47.75040337150129
44.6901399246577 40.89456031784266 47.75040911067649
44.69029023410309 40.8944849211444 47.75039899147622
44.690479675081626 40.894466811986575 47.75039091160369
44.69030599448687 40.89438521591357 47.750392352314215
44.69218902593216 40.89367060457845 47.75027955388858
44.75118514746528 40.898564683584084 47.69453195373373
44.78669535830845 40.929706348693976 47.67705613543294
44.791470498703845 40.938311325396896 47.6822064110399
44.916314665094696 40.921389071544915 47.62662865869672
44.847418212886936 40.98505359231013 47.675289865108645
44.83253132378465 40.89689316582755 47.63371922152662
43.301820595628826 41.06284340555011 47.903744589676464
43.331536840519455 41.12812222518308 47.845250779756924
43.32992303955558 41.12599281272897 47.84695841790951
43.33279334551276 41.12954842230957 47.84442953650924
43.33251301571755 41.1291708200194 47.844743069730924
43.384085287930475 41.18154891277135 47.81019210351694
44.62784405432424 40.92303295768548 47.79429999604392
44.62818862980153 40.92290810350971 47.793841915148455
44.56388707491409 40.952141795941984 47.84629012473338
44.691023554052784 40.894180886386785 47.75035349968604
44.69129337200571 40.8941167177025 47.750339659752086
44.70580599855196 40.9040017029078 47.74695666165158
44.78852138723268 40.934033148404254 47.681684736470515
44.80718243318003 40.982099037503275 47.720437018412504
44.81497987596226 40.99256506213293 47.71804041178317
44.81523630076562 40.99294253816143 47.71795754947891
43.44338423278108 41.21179670257987 47.75700419076019
43.44257216766231 41.21176372213543 47.75737893497066
43.44651978268362 41.21196553995827 47.75560555237411
43.446288444143015 41.21195685141724 47.755713131535565
43.44699978534909 41.211990204440795 47.75539006671205
44.332143100669086 41.16328232886298 47.843439001667996
44.3321165224901 41.16323096455549 47.843450188813044
44.331970290314 41.163139804229246 47.843380191764396
44.376517193469425 41.09993879681872 47.848180337071256
44.435181116719676 41.02344524122418 47.87322682934576
44.5633694746044 40.95243933377266 47.846904233012594
44.5634061689923 40.95234465806788 47.846766550345194
44.56818333802884 40.95044026884895 47.842175626919364
44.691777909908204 40.89380796091872 47.750303046790314
44.718775828070136 40.9801997772676 47.71254670593505
44.75938798754024 41.02879404523921 47.697127399002284
44.81865872520375 41.06022656868765 47.68412253042295
44.83860997166181 41.037542006408636 47.706449310812125
44.83601977423906 41.03003322087493 47.70853208705774
44.83861887384331 41.03759539777334 47.706440821865414
44.837227252794634 41.033577192508275 47.70755905176471
43.45914782848843 41.22090102191497 47.75090932320651
43.46184759714377 41.22051528174972 47.749543303907444
43.46038842073479 41.22070190859174 47.750311538442105
43.463041435406524 41.22034489380964 47.74893899464143
43.462927999174426 41.22035949806686 47.74899858582155
43.46306253790607 41.22034166286179 47.748928612774996
44.14865106771479 41.16165078535085 47.76132509713362
44.14880310787686 41.161602082519636 47.761402730665665
44.147969803265894 41.1618602902124 47.760984648020234
44.246129165139855 41.17026331317812 47.79602011773669
44.28622549839043 41.133246181047795 47.84893673967043
44.331069670648105 41.16319206834433 47.842527392197795
44.330330128764935 41.162085054271934 47.842617276980214
44.332968522300256 41.16471254423348 47.84320492879246
44.334426431403635 41.16577710055033 47.84379579725217
44.335407977787206 41.166416401137965 47.844246800255206
44.76107533007975 41.03529405931985 47.6933273225622
44.81630185887643 41.06973350699063 47.678117124766224
44.82495992771339 41.100177925899914 47.66875242168117
44.819062864452 41.05914663649803 47.684976485330786
44.82577968336125 41.09913199283155 47.66973809985409
44.817901620758114 41.063549025808825 47.68210760141302
43.51657113018189 41.24974240823721 47.706922637667915
43.519022930361004 41.25268795551164 47.70422931137974
43.580103628713935 41.2261288731365 47.746443881083664
43.59740476314993 41.271556494669376 47.728979089297994
43.58457417258439 41.22723587478505 47.7479550876757
43.604478920502686 41.273960540763625 47.73435576628727
43.60450141107227 41.2739232159946 47.7344514232751
43.605067770529125 41.27414909849862 47.734823504847114
43.96480065473238 41.16691500214086 47.789935206467604
43.964792470158535 41.16677438724126 47.789973624817364
43.964150633199196 41.16722605380607 47.79032406431269
44.027573037409944 41.14349592797082 47.7540234877801
44.02654477829174 41.1422758233612 47.75498710801435
44.033238278211535 41.15029023725281 47.74862184940407
44.03104100221472 41.14768573110663 47.75067750481295
44.039941418196605 41.15830940737038 47.742256134060426
44.03709501352543 41.154944636566256 47.74490731006656
44.06823264882796 41.20879384246928 47.706425649933266
44.06709103090879 41.184222360628645 47.74293583301473
44.06922420733376 41.2110583486136 47.70508070781284
44.0678362587489 41.18447495186162 47.74427126776321
44.070276127058584 41.21543768420838 47.7024349937652
44.06858996396665 41.18435361805979 47.74744403821328
44.07099111617323 41.219244185559546 47.7001250503544
44.132433580356015 41.16666576929287 47.75319715426638
44.13985000886435 41.16450934712097 47.7567977515791
44.24238141698231 41.17317700169748 47.793441694526834
44.33246906063504 41.165085715932 47.84249548333693
44.823535943562156 41.10367999942616 47.666145311751094
44.82466406597399 41.101080466600216 47.66811785580571
43.550590516378 41.2958881176863 47.64272451676968
43.60315733284472 41.27768288896711 47.726063342631655
43.76304637186865 41.32345034529594 47.73916202886136
43.80047254339946 41.30493902530236 47.81851841853761
43.91050782824523 41.27519068797855 47.77619233140794
43.88512249523291 41.22576409731079 47.808318079008124
44.002721584164995 41.218161674137 47.75429515457221
44.01114752993948 41.21381336353553 47.749541868145286
44.07007979829889 41.21808234793536 47.700794291909666
44.06983055807912 41.21628989187849 47.70188654679289
44.070139905767206 41.2158164677757 47.70219441790917
44.07106056187861 41.21850516037462 47.70058428179356
44.0717705218905 41.22220073603573 47.698342469385054
44.74955165166194 40.14527641106628 47.706370005757066
44.781591060541366 40.17321882668688 47.71883075505666
44.752121826715154 40.1468274882963 47.70535208706974
44.75729716743723 40.14990599239755 47.70344177236921
44.791473208191626 40.19446792529212 47.7074910664779
44.78234129573455 40.19753976442233 47.715500778266666
44.78377830103051 40.230569738110546 47.6821648299177
44.774108622336 40.19990553144822 47.71809415042324
44.8779731333432 40.19236282528082 47.66765577940772
44.801414992027624 40.327663027422 47.67352155030567
44.76243245228715 40.30204252574477 47.697522601606394
44.797634306957384 40.32848685927466 47.67545133071036
44.765850066435576 40.305673830638135 47.69510181785725
44.778533658936425 40.33221606154507 47.71085251011898
44.79723464454716 40.3274576555283 47.67546595145284
44.80058607626077 40.32897641159007 47.67413682801006
44.77564922438079 40.334151600472644 47.721269733520124
44.8045713636357 40.32951172869262 47.67234075608674
44.74803171664738 40.374997666690795 47.69770543827921
44.634403483141796 40.43249386359455 47.73317667248277
44.672531161559824 40.48606736855584 47.717080995109114
44.636313263463094 40.43652462025862 47.73341213275466
44.642067051229525 40.448364251350796 47.73436915250079
44.761310562976405 40.50451760848455 47.680949717588824
44.68625754002024 40.499908545213756 47.70840037528306
44.67319289099905 40.48879910633792 47.71897683865203
44.7465064242323 40.567799636015785 47.67516308683683
44.68923670959957 40.571590617952474 47.71470454160329
44.69636198453364 40.522730523377575 47.744401074661226
44.68880747726995 40.57151222398299 47.71503182603711
44.743526936985226 40.56541077879844 47.67761041278378
44.689597225155495 40.60225538362028 47.714223000790106
44.6857059955352 40.6044394634157 47.71717046606831
44.74719849465954 40.62567030311134 47.675246741448504
44.66704243659035 40.69948633798998 47.70244225484966
44.64008314190501 40.72794711528842 47.73884982819058
44.73734161928195 40.635885723328315 47.68269731510182
44.63742358438857 40.729393290156864 47.733440094048454
44.63823242703871 40.727807361890015 47.73420034636095
44.63007799795774 40.73669145179286 47.721049805253344
44.63660939006405 40.729873159587285 47.73181264096715
44.63139075991578 40.73672932605688 47.724300507442884
44.63266532843289 40.73537705253704 47.72638405107805
42.97822363602826 40.94844273340223 47.87823671148887
43.007257750946735 40.953518786061835 47.88952727925633
44.642227858645555 40.76699257360271 47.708005234980384
44.63101020991293 40.778686964701805 47.71146272966448
44.64925823307449 40.77439422027783 47.71370822065097
43.00735826354038 40.95353961746003 47.88957595050304
43.10523308261664 40.99746912576738 47.87706134971254
43.218499298683014 40.95232546683333 47.87234538329666
43.22796744005885 40.95120174160612 47.87477603352445
44.65233058011678 40.840265830611294 47.71946257464287
44.63128974653968 40.77983374727997 47.71189878152393
44.65188964840134 40.83939016172084 47.718958575109106
44.655493980681804 40.84427215134215 47.72207314795373
43.32164842287285 40.96505676589107 47.91893783736888
43.32507209042157 40.9588565136515 47.91997072488979
43.32375275373072 40.96125790652631 47.91939559319947
43.325522159396236 40.958056473295514 47.9198860698169
43.32575255621557 40.95764622018595 47.919853010784635
44.588122500383506 40.87874984023374 47.7724080058542
44.58817466064078 40.87798945174153 47.77181027142555
44.561737538684525 40.95285545423995 47.84817258465487
44.65516498266 40.847025060792745 47.72320160572837
44.65234639489704 40.84040205612865 47.719526948336856
44.65696331024946 40.851604180314894 47.72570225493174
44.690388873691525 40.894301377712075 47.750384204472944
43.30179702443446 41.06277795275142 47.903788310423096
43.328587133905415 41.124246209775144 47.84833663243926
43.32586302257551 40.95744829489502 47.91985511977387
43.338157094124355 40.99985149003047 47.895331998605336
43.34020444016833 40.993497615903394 47.896356951615154
43.340356692441155 40.995795163321716 47.896091303374
44.43770515924988 41.02162982137586 47.8739337477996
44.438057810266756 41.02140067824105 47.87403633135302
44.43676680820162 41.0222285153331 47.87365907230646
44.55763459397221 40.954624622005326 47.85228644812045
44.55723778391223 40.95474266293189 47.85261642349681
44.56339708501433 40.95224815681698 47.84664717612508
44.59521806242298 40.880013325829715 47.76881972055635
43.44209979305751 41.21174655097556 47.75759926694866
43.340372425282524 40.99631074181326 47.89602952301066
43.444341023276834 41.21188229047431 47.75661708477677
43.4162019390155 41.17970916155042 47.791387243886334
43.44609276419468 41.21198297571098 47.7558431141217
44.20712833230708 41.121554806576306 47.82447748573517
44.20717406802639 41.121497210255086 47.82456072017278
44.20689388470579 41.12160369746507 47.82440124048618
44.28720216933082 41.114897877014585 47.866652637868114
44.28672046232774 41.11450214554552 47.8671380198305
44.29034850964793 41.11687776259339 47.86646267135602
44.331588276507944 41.055646023253296 47.87133479420895
44.429039593357146 41.027257567951054 47.871412546926145
44.43927679230224 41.020775836449445 47.87441696256063
44.56340480553672 40.95234126102115 47.8467628187794
43.459134087991785 41.22086563655819 47.75096740749103
43.446460103701526 41.2120009118064 47.755677111904966
43.53272010709516 41.191595487874736 47.79528588727466
43.53560241041386 41.190018625045774 47.79916229485222
43.5407179445709 41.18807115731012 47.80253206506573
43.54136732703107 41.1877215688026 47.80338200174219
43.619216519026665 41.20350403119458 47.82789443869379
43.95117718748455 40.99164943948341 47.822477025099204
43.951286205095194 40.990802862928135 47.822366185282824
43.9504258816142 40.99150675711323 47.82292502566052
43.98895309609403 41.05745312005249 47.78944124116491
43.95733610122982 40.98182960650429 47.81894786100863
43.99371977667162 41.065279730354405 47.78465798850534
43.99003021633695 41.05622482075061 47.78842337875945
44.03634607100537 41.11810463042962 47.74630848667951
43.99294104435257 41.06160868838631 47.78548972338968
44.06902569812256 41.183565755118835 47.752749068697725
44.03372854089439 41.1113697468751 47.74889296488159
44.14259071900003 41.163324519933745 47.75845796865586
44.19326117040437 41.11923920861522 47.82293426039547
44.20426898914019 41.12517431163465 47.81924723698637
44.283937120251586 41.130634682868354 47.85020225404696
44.32999857360306 41.16150216626947 47.84271707087616
43.534818704406916 41.191305929181794 47.79456770434847
43.61924786850705 41.206723237392026 47.82573001021575
43.622458200336936 41.20384042076571 47.83081573960322
43.62577127851438 41.2071449654904 47.83178270484827
43.83386646714989 41.05107037992386 47.860475152552
43.84637238509644 41.04684482898028 47.856869547930785
43.8491525044293 41.044479400669026 47.856108885605806
43.949275505194905 40.990479276778856 47.823568236693575
43.94898738538753 40.98921666744043 47.82367620801114
43.949705420689526 40.99205532311767 47.82339085426687
43.94944582659889 40.99050629014739 47.8234663929282
43.98951170043595 41.06360472008744 47.788770652810975
43.950237557748224 40.99147240524913 47.82303739708017
44.023844258988845 41.139108595370516 47.757470200046356
44.030826715857266 41.14746091269536 47.750840522082086
44.06754350270898 41.1838637103736 47.746222679009186
44.06807115563143 41.18408238507089 47.746975614096804
44.06868588334418 41.184097264284084 47.749012835567825
44.1344200547052 41.16600493130075 47.75423230121989
43.847737974912555 41.20557441800154 47.83393566308569
43.96069816047 41.16932994688242 47.79228462442228
44.79678275696124 39.912515888291956 47.75552695885492
44.776840331451616 39.93500048312371 47.73745669028154
44.77940529040624 39.98438401801418 47.74485416015975
44.77561185966293 39.93705665680258 47.73466280539401
44.77733020082883 39.98642866721179 47.74492592025737
44.83229985734811 39.96281973248887 47.745838134584616
44.74630749727453 40.07610622183422 47.7248011113875
44.691206636624045 40.10648319949203 47.74941494610744
44.75753714765691 40.06036264348468 47.72607716238852
44.72910672130686 40.13986044991529 47.734774833090626
44.6971900952799 40.11105181332822 47.74149624633082
44.74796524071708 40.14434027376793 47.706932151465665
44.732704132681306 40.14345183591651 47.73651262239878
44.709120175615766 40.14773486190299 47.72577131946365
44.704097885065345 40.228169833425255 47.75355203818291
44.70777305766137 40.1577489846362 47.72753375537431
44.69853568768001 40.203469674378866 47.76672745994534
44.74547644798804 40.18353712636556 47.72948577773643
44.69935898448205 40.232301105811295 47.75103773287475
44.69468793386844 40.24096900981506 47.77917453500744
44.73166944337444 40.217739740239956 47.73827788264397
44.695133366354966 40.24271447835582 47.789724725155985
44.69534747120037 40.24362780428691 47.79498781992722
44.75945613237033 40.29937670029197 47.69961922245749
44.62285520714104 40.323320840414794 47.75665112448569
44.623928138332495 40.32139985340392 47.75687771943826
44.62290736526279 40.33023366449298 47.78058275881928
44.74056479931528 40.30819911657778 47.75158980176621
44.60799590603152 40.38240367878358 47.74475577353785
44.60703484989048 40.38034190227644 47.74581495192814
44.67074512738286 40.37671181331679 47.715572435321434
44.63213394926872 40.428508742306384 47.73224170900229
44.629433825295656 40.422705282202145 47.73199395424595
44.634403292426086 40.43254274623244 47.733136534616655
44.6366015876512 40.43734874066821 47.733272209220814
44.63355952719024 40.43118635306067 47.732687038361654
44.635404503761265 40.43481226244066 47.73313270008351
44.65083737405626 40.46629203494598 47.735924768767894
44.6550663521545 40.47615173377669 47.76276983671042
44.650869395679365 40.47143455521235 47.77012905345345
44.656105765611514 40.47794111318285 47.7560237320341
44.663010434436785 40.55883652758594 47.774857824299836
44.66839996184665 40.50527144080538 47.81581803231381
44.5708215783659 40.69524369938584 47.825890983999315
44.61419418582829 40.622836925633266 47.77893387894153
44.56654925715826 40.694652887118565 47.830321165858614
44.640046403417934 40.65050157002189 47.721078648622196
42.9066428425687 40.683159364234314 47.90374813959659
42.90768756545588 40.682045279144404 47.90553306119155
42.90946059161342 40.68289910053814 47.90748786864372
44.59843831799057 40.71402990149144 47.75778749053186
44.5631346477027 40.694246800309934 47.833507391672356
44.63989455385362 40.72893168538716 47.739147299661404
42.92862869279976 40.81469082065021 47.85370759844085
42.98025023451838 40.69934599199633 47.91994440074082
43.08012054474789 40.704723657072805 48.016499014441
44.56341509191973 40.69429043887287 47.83319054153753
44.561112179510005 40.693981527952914 47.83552730439496
44.55962995299821 40.693760705564884 47.83714928594351
44.602158546910104 40.71703559113461 47.74793385157457
44.63805111980627 40.72837235549256 47.73419169926939
42.98954090409883 40.89224546031349 47.90740202510639
43.08034179516271 40.704590151695825 48.01658909201818
43.016045315008355 40.89856311847469 47.916442642135145
43.081510640217076 40.703880588942745 48.017062594917114
43.18489554628143 40.731573342360235 47.97774139500156
44.54907790014999 40.70686622254916 47.81169187543323
44.53074701825141 40.700012766252975 47.88458011502419
44.53078463740448 40.70015911725975 47.88485725900741
44.592994832543596 40.7166786061821 47.75477688141383
44.63380307763027 40.73691697151707 47.73036511744151
43.00739342176317 40.9534609397167 47.8897954380742
43.154942122673795 40.913029160176535 47.89464058642639
43.280497682584965 40.85003313576382 47.95701832185969
43.383119605117834 40.79770221679165 47.97536312969025
43.38307316867512 40.79767207971824 47.975460853176074
43.383363285042336 40.797857570957085 47.97485445329805
44.53099549745932 40.70092755943684 47.88624577755123
44.53095402309431 40.70081806376777 47.88610507602093
44.50978525790369 40.73204962499669 47.90160498688211
44.55301957993551 40.70995691523094 47.80127799951744
44.59573312404435 40.71911002767817 47.746982238154004
44.6327291581166 40.73874392872018 47.729140494717086
43.32599880361939 40.95717993857581 47.92022537926863
43.3295320598742 40.95081021272738 47.920866223494485
43.38383431634905 40.79815792979512 47.97387109635814
43.35383115111931 40.879705650435376 47.93578554605828
43.38462268685337 40.79865753340728 47.972229847970866
43.38495047510051 40.79886403734183 47.97154925924296
44.441138976196484 40.858214254978186 47.946363994876606
44.44106057211882 40.85810960655898 47.94641838341526
44.440992887027555 40.85807490389709 47.94643778614164
44.445390216673374 40.86232525941202 47.94418899407634
44.45258568599303 40.768696856161824 47.93440848064056
44.5447572922656 40.80720531866031 47.8075447062895
44.58887822749901 40.87189778880116 47.76683942612368
44.65191575328208 40.83938465023231 47.71896308107207
43.326871219130496 40.955626168185304 47.920104817883356
43.330569031432844 40.94895204860731 47.92088890533941
43.38514095393019 40.79898257284238 47.97115593639971
43.33403500378426 40.942699005969544 47.921585226556175
43.3851926304895 40.79900732139768 47.97106020478782
43.36569304315687 40.860290527516625 47.95779195716767
44.28074907824522 41.00220438550198 47.901830201170796
44.28204637602893 40.99769357522213 47.903692941227014
44.158529067706056 41.04767053044087 47.84854169621731
44.28276926746792 40.998825931617354 47.902520046702364
44.28595421481694 40.987628083358956 47.90716809622497
44.33985672896453 41.0494466869625 47.87406131455285
44.50185778968047 40.928034708605026 47.91611349816352
44.55711973883305 40.954760662413584 47.852692686880694
43.34081276392574 40.99492253804863 47.89625263670115
43.42079902644618 41.03987454285377 47.84640048962427
43.35622661072883 40.958564531307886 47.922026825336864
43.522330576911656 41.046811967037655 47.85433942473834
43.491815460134134 41.009102714198725 47.92737870206421
43.52950068931175 41.05406666231805 47.855417554466854
43.528290244355325 41.05084333151248 47.85676707134374
43.532818440312724 41.05726671465799 47.856036609593204
43.95313712757298 40.93712315190049 47.818965926205266
43.95268135108863 40.93659389939442 47.81923359853974
43.95054561992709 40.93435531107123 47.82042961778999
43.95427306713903 40.93834007309482 47.818323453630356
43.95377878699396 40.937756300528655 47.81861610611369
43.95328496588073 40.937239897482115 47.818892358452544
43.95288308273676 40.93676911774001 47.819129371464726
43.95258458956866 40.93647016276885 47.81929317103127
43.95228178879486 40.936117406709464 47.81947127774552
44.04232539106076 40.98081462330865 47.843965235363946
43.95192202383151 40.935730832186444 47.81967503649057
44.16333974776269 41.0502006166416 47.84876518888123
44.156770447707146 41.04680383312301 47.84824341809924
44.1764520467546 41.05684558879299 47.85030885853443
44.32302656399778 41.05856263330588 47.87182784432335
44.33401639885054 41.05374614535498 47.87221061889984
43.446306842792126 41.21199499880102 47.75574819997979
43.53815117504025 41.18864866171947 47.802489397037846
43.54507379668155 41.18569587087766 47.808358362191996
43.537800225041366 41.06390729749651 47.85555959579966
43.69705423871783 41.1010297012208 47.82986863231636
43.81828911857905 40.99159489494834 47.876965998513214
43.83726531103246 41.004522008779276 47.8587009684111
43.920089117836426 40.91409619970983 47.84708219330852
43.93460961426139 40.931609751109086 47.829924980050286
43.934622620930426 40.931587810409354 47.82991551388607
43.93454617935221 40.93169830483667 47.829961515965486
43.934557590165156 40.9316749320355 47.8299510587093
43.94340657831094 40.943508218622426 47.82437158225401
43.93455437426208 40.93166746998631 47.82994667303065
43.94500491431518 40.94419067250701 47.82344955288224
43.93492304185816 40.93112167226416 47.8297180792443
43.952120898590536 40.98359455835676 47.82147914733324
43.95818191316977 40.97599096742961 47.81815266770052
43.95772026092314 40.97651996434803 47.81848752945152
43.95727196438467 40.97691627040508 47.81880832385696
44.07964606775676 41.06452640197715 47.81238526057284
44.19423062785036 41.11842042853609 47.824222663815426
43.623081622799546 41.20326872221828 47.831811448222616
43.83517197057605 41.04990888852734 47.860119410576196
43.937725985151374 40.976753342436126 47.829580146203334
43.93796478172589 40.97814319966548 47.82951462521241
43.94932814274935 40.989747003876914 47.823497622508654
43.95023284436036 40.99130941921789 47.823031641653884
44.66352266994064 39.82188420859979 47.80638274139525
44.662531467334 39.81793549600832 47.80807227729479
44.66349217134122 39.82176748461984 47.806433722501545
44.65950512175394 39.84847004320037 47.795492091648924
44.66005210901082 39.84742029777622 47.79591614526669
44.69433296737645 39.881077806831826 47.7804756272293
44.65454063416584 39.85783002141741 47.79181111381506
44.77264745883683 39.90887846675321 47.76548572390168
44.69891251689128 39.885113649860116 47.77872660888953
44.64225473454345 39.92822677515009 47.79860739589015
44.775945484261754 39.934906277454125 47.73700015308609
44.66759455312801 40.005255649627976 47.79055416606731
44.62007150168095 40.01113048865227 47.79655084930516
44.61768871438157 40.06725341202575 47.80901117354469
44.61547940743947 40.065684794471714 47.8058956674004
44.61930566608648 40.06648420860118 47.810993551936576
44.68430056410842 40.10114023976971 47.758445345650486
44.640882529502655 40.09527228449619 47.79639051534454
44.619890478996886 40.09489430573003 47.83072485333903
44.69309469825703 40.107883692066565 47.74685191205221
44.643768819984906 40.102843732326264 47.78891049007194
44.61644444296809 40.12386895748913 47.84452660031269
44.70879946564332 40.148907361950364 47.72617214559554
44.69602033020735 40.24215072229574 47.800301498688775
44.64448165033508 40.160050597477586 47.83865856498277
44.69597243574645 40.24387025149218 47.80409220626922
44.64661301722164 40.162662520920264 47.83918311084207
44.63452573578209 40.25249820430076 47.82951602603892
44.69567979091589 40.242848480567424 47.79748358997974
44.64543901226729 40.28534945204963 47.81289016878177
44.58294711822961 40.29519718694161 47.81281169002495
44.695518991104336 40.24418081532184 47.79874274191321
44.59501926847943 40.36247294236153 47.76322232589419
44.5706832081855 40.329301864524965 47.78877957007066
44.59657066272638 40.36520051915409 47.76119618938566
44.571073484099145 40.329752837255775 47.78831207807822
44.57155734285328 40.330332091444106 47.78441597382043
44.60311499261971 40.37420463278336 47.75133164336384
44.603955591606606 40.37689352395532 47.75087159708792
44.601970122549375 40.37379585888629 47.75367165878582
44.62900101013628 40.42143892802259 47.73222779301051
44.52958929044888 40.429484343607804 47.769908378515396
44.60296661747547 40.37544304865939 47.7523150358274
44.52183539079151 40.43407667830405 47.7716434351486
44.63238990923155 40.42818032125798 47.73298027878022
44.485739571028404 40.53651845796711 47.806802536194944
44.41631693025442 40.559135769051856 47.86582377557857
44.65062892708116 40.47132269640085 47.77330518382616
43.002495584814866 40.48565169797621 47.95635921467944
43.00288255608102 40.48514300400241 47.95610965132472
43.00295137978325 40.48505558901111 47.95606829504698
44.43936537818815 40.5925471681207 47.84376133965671
44.41611495612639 40.559477949486876 47.864654302259915
44.41649447583801 40.56106144118529 47.864505497346066
44.44920340405263 40.60326354420225 47.84547608479325
44.66845912786479 40.50543042214508 47.81647277602611
43.00223130218106 40.486010030746804 47.95654047291082
43.00311178840644 40.484854520144005 47.955974551366836
43.00318113205881 40.48477232211332 47.95593870571824
44.44031624366637 40.59455894033765 47.84786639181013
44.43950355384945 40.593655580982244 47.84765164073358
44.439932804863375 40.594151577770205 47.84784117224182
44.450574104092055 40.60534297380825 47.84808159051747
44.497591963416404 40.66055785799457 47.87651990840929
43.03017185556137 40.65148953219314 48.0007484991623
43.07051993376234 40.50169375808349 47.96296586854754
43.084036654908594 40.700345060889404 48.016974476810006
43.08491293543739 40.6993213592255 48.01705647864682
43.085295228991065 40.69909851793989 48.01721647365251
44.490583116698325 40.65365945422794 47.87806664331639
44.37608936968641 40.58293648631904 47.86685087454581
44.498266934639375 40.661218403616886 47.876344471892416
44.55961391486425 40.69376032236459 47.83715607771945
43.080633905998766 40.704258041341575 48.01662150357564
43.08362818646276 40.70150930068605 48.01731765658237
43.08597730585287 40.6988029491746 48.01755856537951
43.21466612141877 40.715040363620005 47.99640972453991
43.214515123711564 40.71492554011501 47.99646139421371
43.21491200129768 40.715149090376144 47.99631856429004
44.35160276909049 40.66393141286311 47.92832066827956
44.3627557714619 40.588481404084774 47.87339345406033
44.3510657205966 40.66405617057145 47.92845278593104
44.49209723011457 40.65519737184934 47.87806556943692
44.37420205379819 40.58371973556453 47.86777473619585
44.49672187983028 40.65975207227744 47.87706542173747
44.53043084096038 40.69912487474039 47.88333849404083
43.3087681987047 40.741852131139346 47.98052689218317
43.38278378655267 40.797483316963664 47.97607125976478
43.38251294301561 40.79730568955805 47.97664398011048
43.38345254293299 40.797904346462765 47.97468313394721
43.38341217192112 40.79787769667919 47.97476875831573
43.383577125984296 40.79798254048394 47.97442489436449
44.3481597956282 40.673601906520084 47.93305663487824
44.34701913825997 40.67078100003078 47.931984370616185
44.34610787549853 40.67368912821034 47.93339068617144
44.35229709656379 40.672777562767095 47.932098787449945
44.49547209571541 40.658550689187344 47.877541832778
44.53076095499818 40.700323016512485 47.88549672418017
43.38381723843804 40.798146123931595 47.9739081061085
43.38485517986848 40.798802676080086 47.97174908554855
43.38478461062279 40.79875006508684 47.97190768569878
43.38604546886321 40.79955213900466 47.96927828783423
43.386145485267605 40.79961248070623 47.969074574959265
43.38657649414641 40.799883217967135 47.968180845978935
44.21254550873667 40.78327141968049 47.90870237256766
44.28230704817754 40.7573062769886 47.986185554763416
44.06517846268548 40.83741640828934 47.85166351703903
44.29111836946864 40.80804209008156 47.939342094143576
44.345979616312135 40.6747945312432 47.93389379318991
44.364414680780385 40.74446371300542 47.95638577307042
44.369190071582196 40.748989797917055 47.95719147520548
44.45310723562905 40.767663334073916 47.93355883938268
43.38533962197297 40.799108882538995 47.97074173660747
43.3858327917948 40.799413004244016 47.96972749902225
43.38661390127976 40.79990329688659 47.96810834294877
43.38569725731967 40.799313024739256 47.9700305277212
43.38605219403141 40.79953322042472 47.96929862395235
43.40956687994641 40.78872047839662 47.98140355046022
43.40964142843764 40.78872615090862 47.981359204870984
43.41012860232519 40.78777193995269 47.98339323724766
43.949924401822074 40.93338289485236 47.82085504169621
43.94990404063646 40.9333631636524 47.82086605534947
43.94966343121389 40.93308302287124 47.821007541732605
43.95089154811227 40.934513733675175 47.82028517047114
43.95068203072461 40.93428663833259 47.820404308245315
43.951269551447126 40.93497155046038 47.82005861799033
43.95095916826656 40.93462969913074 47.82023642100312
43.951379058172876 40.935116234571254 47.81999007669661
43.95104523720141 40.93474651196014 47.82018180255359
44.04686651200654 40.98256632392956 47.84595169303595
44.28650507960563 40.83176878591709 47.93742621768412
44.28862912925574 40.82762105181307 47.93875087501675
43.38496632750121 40.79885382902818 47.97154625956868
43.38470012697837 40.79867356687575 47.97211757523369
43.559870048816165 40.95602412739679 47.967472508240384
43.50898662031536 40.75455726139498 47.98126560036765
43.63976557517358 40.92734215307547 47.91992609976234
43.686848033304045 40.79886661857647 47.93839300076381
43.8545474829613 40.81832843787883 47.92177601995436
43.853310283106346 40.81687697308266 47.922883798402175
43.89351201390789 40.87991771299412 47.880509549337226
43.85521246955307 40.819171576581404 47.92124351318755
43.89428772077631 40.8810493588315 47.879538355889196
43.89270494167245 40.878018120670895 47.881698813623004
43.91940538613608 40.91228208248494 47.84816319666621
43.89757031197447 40.87256936836698 47.87754314816579
43.934969764094134 40.931048667284784 47.82968710752397
43.92399027460731 40.90094998007588 47.84705329448598
43.93582846180378 40.92978909515163 47.829160773102636
43.92603873279244 40.90360628759654 47.84451381397929
43.948732062557916 40.9319452308368 47.821568105984525
43.92872856294931 40.9070141567813 47.84122470926657
43.95152456781537 40.93514880630353 47.81993753875446
43.95207396692961 40.93583928566824 47.819602209657475
43.95197056221114 40.93576069913742 47.8196529251744
43.95180945675496 40.93560205671146 47.81974067797977
44.15653339870617 41.04668296483894 47.84821825666897
43.53651932914538 41.06077235977821 47.85677616093576
43.82128328730769 40.9885251702048 47.876477671088814
43.9198544761548 40.91353605702049 47.84744163411507
43.920185767956454 40.91434308098874 47.84693115220065
43.934585184822936 40.9316316345094 47.82993267252924
43.934586338385294 40.93161611568167 47.82992474872666
43.934947423151215 40.93108422463928 47.829702255817885
44.63602407751608 39.78340358413972 47.83364547743037
44.63401309114255 39.782452304052875 47.83473797970256
44.639937938841406 39.78543461511016 47.831737104253776
44.631538039752755 39.781405988072116 47.83623361467621
44.653676211185605 39.80201113862637 47.82029215239545
44.63598979740856 39.78368235544788 47.83402196726537
44.66412105445585 39.82455226860276 47.80530297025949
44.6589115208143 39.81975202865988 47.81190124428256
44.65390225272562 39.859023285897294 47.79134812114083
44.655898981785796 39.85523643202768 47.79285089182402
44.65405320656402 39.85873822038165 47.79146050732889
44.65377727230101 39.85926397475552 47.79125039488529
44.620775655998315 39.992543357874936 47.791431930806645
44.62032859382024 39.99518713526177 47.79174855170471
44.621906379015954 39.985599476985115 47.79054874588044
44.590126692141865 40.04495863041776 47.8060931130063
44.580547397961574 40.04294993573672 47.80616795591363
44.6200526422317 40.01221433642986 47.796875675826094
44.619857075694895 40.066309208735774 47.811683140761104
44.56916643824441 40.06750160488956 47.848935099517504
44.59334140119539 40.11681386805513 47.870092862076355
44.5684785884989 40.0691581808376 47.8512018711391
44.590116770647384 40.1165353911008 47.87444520363463
44.61873525556262 40.098342692598095 47.83227587936489
44.59516738724958 40.11704685821116 47.86534847476573
44.50417271174908 40.12250705525133 47.897168702909966
44.61636121198722 40.12373640632847 47.8447027429715
44.57885117605453 40.16786043195521 47.838792780145724
44.48434597241355 40.17710190949756 47.86766945159365
44.64400822711253 40.15942633277848 47.838874483117316
44.51497985562892 40.24549053395523 47.86365045600335
44.48624873218966 40.18289220525506 47.86520489312566
44.514000639502704 40.24176110734565 47.867144031185205
44.55299612632694 40.25049704971728 47.813533486282594
44.534553391563655 40.28160275540647 47.84055340618565
44.54001493552248 40.285238459849616 47.84749267859142
44.54951168556781 40.29716522322268 47.83769534764478
44.54588440229697 40.29769471769573 47.85242917610438
44.54358863184794 40.29515786359542 47.85233820419755
44.54605284833542 40.297781916148686 47.85383714429354
44.54839359636621 40.30118220155353 47.842404569531084
44.56987986068859 40.328377530704586 47.78909112077686
44.53200052561199 40.33373197087333 47.86323425658534
44.45065217995989 40.320198236855155 47.932212652811934
44.56669696439542 40.324730615544205 47.7878009481889
44.41520891635419 40.43615780813281 47.90922351947168
44.415523126293685 40.428411584439665 47.91759081206928
44.37157952440139 40.451608544510535 47.91098209385125
44.48733416159982 40.42897232393616 47.85468065737656
44.60176580588615 40.3734822809434 47.75396253547092
42.96369073435094 40.47361655332503 47.94005223602838
42.96522467150126 40.47300215559051 47.93998256344688
43.03524894402378 40.442849674222195 47.938303866886145
44.41504993312381 40.55662295185343 47.863397716900266
44.393127401841895 40.531647978440574 47.876468084446586
44.41633731495378 40.55816810542507 47.86692516095863
43.0352548511793 40.44285306132711 47.93830301629366
43.03521048453733 40.44289454295481 47.93828371797712
43.03522523510415 40.44288889377932 47.938287008794134
44.41303011561116 40.555268722660195 47.85673578044235
44.39342751753081 40.53218262116159 47.87495287237226
44.389560763799444 40.54036128339666 47.87449365512141
44.412988601368305 40.555611269883094 47.85620853760526
44.41587677833887 40.55872822882695 47.864490511210406
43.03531053810996 40.44280385013442 47.938326142931516
43.03524639213505 40.44287087171469 47.93829553629743
43.035338976066974 40.44278101832553 47.93833707064155
43.035332147234485 40.44278946735213 47.938333307942365
43.035354034993155 40.44276720710862 47.93834351782447
44.368988856311674 40.58098340052362 47.86359430726469
44.3713440637611 40.57808658327326 47.85980418404125
44.35688736982709 40.58835904266159 47.87275172230735
44.41476170587803 40.5588939384663 47.859850189635154
44.41544829621236 40.56037836153829 47.861035556015096
43.06998793309299 40.500905242640016 47.962598214710326
43.074790723692786 40.508011297436234 47.96591434729697
43.07340489567072 40.50594937669156 47.96495475826491
43.08000944347649 40.51574053340935 47.96951951194464
44.34665511460451 40.59518952267852 47.88131094566646
44.34985612536629 40.59275010620415 47.87821754723744
44.29190098564372 40.58488974859478 47.91480096865973
44.36419432361922 40.58638038232488 47.870622767899555
44.380952388332915 40.579583551863934 47.862636443000426
43.088071180125084 40.69631431074401 48.01773091532449
43.10098702654928 40.598551497438294 48.001499450943044
43.155314197581745 40.701367865530536 48.0386339327832
43.12028196088792 40.6350349820154 48.04074027289542
43.28406936071694 40.722043293403416 48.008645621787956
44.23665160236413 40.58346412576388 47.97811090176352
44.23657693762466 40.58333977179657 47.97821642644997
44.234519533975835 40.581561247312415 47.98053924946267
44.30277750831626 40.598444331059525 47.93533994583386
44.29111445340297 40.584517589655086 47.91580142615203
44.34924277392004 40.594582520261525 47.88068576660168
44.36215603240618 40.588655033055495 47.873583616809825
44.37486008364642 40.58343725924661 47.86743972255693
43.38219030638388 40.797092608111036 47.977328423113725
43.287248195358345 40.724530999364475 48.00848980139489
43.382620830667854 40.79735388785963 47.97644925731212
43.38213496402472 40.79703128426888 47.97748252341844
43.383313950308846 40.79777248132832 47.97503689002666
43.38311091710685 40.79763797672059 47.975468218646675
43.38359201526298 40.79793967250561 47.97447137378546
44.2313389270539 40.57892198673814 47.98409105833481
44.230950020736 40.57852742227083 47.984550854310555
44.22791943378295 40.57599177124543 47.987942544226485
44.2850123609276 40.64974512653283 47.96423289404732
44.34088246484638 40.66598489802287 47.930766411186084
44.344488227884284 40.665174911187016 47.92989148647547
43.38453818574714 40.798584682872225 47.97243435423348
43.38584285746457 40.79939975305527 47.96973562157724
43.38462978586755 40.79859395566676 47.97231590950617
43.3864078796868 40.79974103942319 47.9685841974086
43.385723946261734 40.79928518677733 47.97004125513887
43.409655462775305 40.78919222010414 47.98026076753848
43.40979990073939 40.788899572112044 47.98088665865386
43.41029647194067 40.788233411509765 47.982241509265265
43.90045794640925 40.872042982192504 47.876385626549684
43.900216837253005 40.871788352700875 47.87666254881071
43.89981335525411 40.871335039393315 47.877131787648125
43.926057215528 40.90356483574701 47.84452803780556
43.90111180932313 40.87280438839734 47.87561946487722
43.926631560985946 40.90433906292909 47.843799299830636
44.128590620580354 40.67945711831374 47.9463623588565
44.20049735886033 40.76839594331062 47.911637481271484
44.28315238791943 40.75054851756858 47.98264461859851
44.34531783977093 40.67366101699421 47.93349225659073
43.38672657768911 40.79997263133161 47.96787683750205
43.3862596690327 40.799656915983824 47.968878229100326
43.41004685559482 40.7884617563606 47.981810166431636
43.410782781615886 40.78748218729036 47.983800045705685
43.51354298084258 40.752337284805904 47.98265409582444
43.51837006432621 40.749969204530615 47.9841716577087
43.758422613946635 40.69906944638804 47.97811179964017
43.75748711022563 40.698160669474724 47.978401798748536
43.76017092560118 40.70072923393421 47.97756550350472
43.759546764450484 40.7000594348919 47.97775186007715
43.810675481617075 40.7550999583422 47.95309177880727
43.809064861907466 40.75255981109279 47.95403662491762
43.85158181618199 40.81502667664641 47.92460877324788
43.84914247465525 40.81209078625558 47.92671893049426
43.85604385100217 40.82051581769457 47.9208675709272
43.85289172797869 40.81678658758428 47.92365878461891
43.86202226609714 40.827497662388495 47.91548263850106
43.85802022811333 40.8229239284369 47.91918729466205
43.89724662746622 40.86829043300833 47.88015127373576
43.861073051906864 40.82623444107827 47.91618310488326
43.92399603591849 40.90079305639077 47.84713947529056
43.898251449138115 40.86959348923737 47.87894540429409
43.92615366058677 40.90365759901068 47.844426810769086
43.927090912784635 40.90491860846052 47.84323898630678
43.950801520690625 40.93445921510025 47.82032597000432
43.951024812416044 40.93472415315125 47.820193469891066
43.509157879503555 40.754475325855495 47.981313459608096
43.687158773755286 40.798577042181854 47.93856405463646
43.852309905196435 40.81569476089 47.923770954474975
43.85382523166061 40.817553007626145 47.92249454288485
43.856763764291486 40.82110305742973 47.919965898336955
43.895121542870356 40.86952968457406 47.88060514583247
43.89778635430198 40.87223419332724 47.87752840123188
43.92378185087412 40.90056406270613 47.84737732830766
43.927686322173884 40.9056471826876 47.842525557203594
44.592401445939004 39.69144516224367 47.83965936731924
44.53480358346748 39.68787463701836 47.87388553407349
44.54437932268145 39.69830470349562 47.87041034207044
44.53811796476931 39.69130122898174 47.87258018830327
44.54269698847203 39.69651211207013 47.87104314255979
44.59821106931546 39.750517308185565 47.84964526953428
44.596688757568394 39.74892253580367 47.850148939051024
44.59309423390606 39.74479079966653 47.85128160189161
44.62809609328156 39.77960076545535 47.837888733637655
44.581701287901495 39.803981559213966 47.849488317416885
44.5216845888981 39.8257440927369 47.843846901911974
44.634305406600326 39.78277920808903 47.834808008673896
44.56939981386958 39.81222528194802 47.851723185530275
44.507842253753026 39.83547701716568 47.84630942952446
44.65882721554212 39.81958670069967 47.81202083501648
44.52480548869767 39.869159268961766 47.82132277415562
44.46601485981569 39.89705368824583 47.875827363949476
44.46563988097172 39.97158934635353 47.90466459665877
44.46567087377298 39.898989588547146 47.87717874021375
44.4649667044507 39.972796213480336 47.90641754933576
44.4887194109987 39.98414718767315 47.85747402601542
44.48052079807418 40.02655412021211 47.884535699037556
44.47543129386538 40.02432163794959 47.89503202737893
44.540034934817086 40.04424019926116 47.84247114500919
44.50829775261931 40.05762025142667 47.87538830256658
44.47255736970693 40.047396131494544 47.900105512284455
44.56779941233052 40.06766761594303 47.849444364212744
44.472204825879274 40.10576277524897 47.88844661521987
44.47205620086477 40.05016318489869 47.90046616409869
44.471812240762176 40.105130370488666 47.88869734214559
44.5052264139231 40.09475075042149 47.89646850562201
44.472972864128124 40.133667677900654 47.89062695258636
44.45174167942927 40.14415239130293 47.897718046191116
44.49720505004895 40.123664996371105 47.89543137945855
44.43379655028628 40.158033035299574 47.90835277545665
44.43859513183174 40.154334334276584 47.905506707273794
44.428811546193906 40.161903822919584 47.911304377235
44.47803585441508 40.161965521164454 47.87510316845196
44.48383487207882 40.17578328755198 47.86828840531762
44.39520287762387 40.2042387902102 47.92850979152688
44.38615731916455 40.212530359577656 47.933666591632395
44.46458039064449 40.211169143132835 47.87594982739024
44.36329112752767 40.267950314968715 47.951660968090735
44.363490497557045 40.26313880111476 47.95062128481001
44.362930170690746 40.268281013888426 47.95162846276767
44.41399442740584 40.24363133898372 47.90745555376921
44.5400461001413 40.28159604489871 47.88937401310053
44.3632942990799 40.28141235571692 47.954737829615276
44.348604112884665 40.292768438306744 47.96736617650783
44.40903823001619 40.29057309640752 47.916709606331295
43.03537145216367 40.44271816827296 47.938363666155496
44.35223331226394 40.34719768037337 47.9736523220651
44.35371199879549 40.33795688058712 47.97038224603863
44.34821050443276 40.404926611340855 47.98908098431499
44.35250997663473 40.34456630447285 47.97278259737458
44.44602196004877 40.32237580918648 47.93607653930118
43.0352877141103 40.44280273134119 47.938324835567244
43.03532724069986 40.44276006338205 47.938344220937445
43.0352382808135 40.44284610513357 47.93830442541738
44.34067012031336 40.45611730656872 48.00139252134142
44.34664127498202 40.41261029210142 47.99156234238522
44.34065231063715 40.456046117184144 48.00141019926409
44.346406648009875 40.45972075420609 47.99854024916877
44.37027465580327 40.446571875453834 47.91928082249958
43.03515906967808 40.44293964904413 47.93826249211834
43.035151395894275 40.442931338812315 47.93826509796159
43.03491219431191 40.443198503159294 47.93814434802687
43.034821044875656 40.44328208343224 47.93810533070116
43.03487782167272 40.44324480420352 47.93812396033225
44.2967438811907 40.50162607970945 48.00292293311742
44.297044025625 40.48118788114874 48.005459640915376
44.26682835908666 40.50047851697362 48.019334391026334
44.34198680796988 40.47651945638019 47.998547935783975
44.36477913821339 40.49082980528652 47.9268549971455
44.39273435049573 40.53095006031085 47.8783507816965
43.03522123525502 40.44289677777904 47.938283678246094
43.035298801932214 40.44283417486855 47.9383136100797
43.03528536001695 40.442864724964686 47.93830086092677
43.03541991487854 40.44271346620212 47.93836915877451
44.22346457826747 40.569282481859105 47.993986566098535
44.21456867841744 40.52014186103824 48.031699564073
44.22062574416344 40.56720995493151 47.997056225955475
44.276339212376364 40.5572572367315 47.97620579623664
44.335342334223725 40.55463521433794 47.90611179268201
44.37192629035901 40.57743285688621 47.85895295859061
43.07138011709284 40.502936006376004 47.96355255546895
43.03542958288377 40.44270150648293 47.938374485058496
43.07925867530941 40.51460556442602 47.96899539761445
43.07782584909377 40.51246763991929 47.96800182181284
43.10389401816619 40.55284142464618 48.01115391583855
44.222874304339406 40.57042013223598 47.994068114188934
44.22010223707737 40.56755650763286 47.99736365392701
44.219807824616495 40.56836933458787 47.997317231489475
44.229266723128646 40.57551106086059 47.98700541992973
44.27720919593962 40.569236878738444 47.96742441113993
44.352232663685655 40.59114060262564 47.876197902467446
43.080624492755284 40.516651833539434 47.96994448577813
43.12116648261736 40.63213051342217 48.040325047806846
43.104913494719575 40.55443817386366 48.01198785324213
43.198833477667726 40.648231015785164 48.02910468163068
43.187407509550845 40.54835601719844 48.04189883664567
43.285748400081175 40.72332242404878 48.00856452191621
44.175900759401685 40.56845460627238 48.05099436882125
44.176022658956576 40.56826044181117 48.05081368864107
44.17554028992738 40.56889747916603 48.051438402300874
44.2228894685934 40.571422410421256 47.993699918877326
44.21982676447442 40.56859414671365 47.99722186915754
44.227323869797004 40.5749207459744 47.98881234215424
44.234775191418485 40.5813481641998 47.98040467583867
44.29077952655164 40.58426076184475 47.91623074427205
43.28619237988736 40.72370290930681 48.00854161846996
43.38169225384728 40.796736429326714 47.97842535334526
43.28842808348259 40.72541697660334 48.0084332561488
43.38196470342592 40.79687891527012 47.97790285149483
43.38141926386571 40.79651905529155 47.97905940324145
43.382327259106155 40.79707677782184 47.97719532004461
43.3819892896049 40.796855836896825 47.97790893231624
43.41011156937137 40.78545319811886 47.98883608962823
43.80917429321622 40.75214337332474 47.95360279668194
43.80911834060404 40.75204985510801 47.95363231084388
43.80911310761765 40.75204681792198 47.95363865383335
43.853636041605455 40.81722000079698 47.92255301272625
44.04044186496825 40.64070663267016 48.036276769634824
44.19794818761072 40.59949597764968 48.02244680533029
44.22580552485972 40.57410186235787 47.99035135812456
44.23025844457367 40.57784138941516 47.98536295215209
43.38409854359315 40.79824253380598 47.97344373295465
43.384488068852235 40.79846745499079 47.97266529084156
43.41053715134677 40.785361081562556 47.98887479093375
43.411000233399434 40.786518116362984 47.98596952540911
43.41191518422883 40.784861587602606 47.98947182185096
43.44149903244632 40.76287599198004 48.015046480996496
43.442603524273906 40.76124999273794 48.01781461101498
43.64382966605086 40.69856366752861 48.00258693628552
43.644229443198384 40.6984296820695 48.00252371410538
43.654085928432835 40.69546666233486 48.000630420501295
43.80837431223609 40.75171755981521 47.95459662025256
43.80651903260694 40.74855065386256 47.955533820138406
43.80349965751226 40.74410845204193 47.95750573107177
43.851155031802364 40.81442081909164 47.924885868037116
43.808616995731875 40.75149929035314 47.954077099410725
43.8545716305472 40.81841369700304 47.92181126515756
43.85623717794897 40.820312945509706 47.92026526088159
43.900311776019045 40.87195405139942 47.876539496168135
44.129307192461056 40.6787898615479 47.946646785302306
43.41097543098902 40.78719594499057 47.98439084123126
43.522253538802005 40.748069152834084 47.98537787212434
43.756090477283074 40.6968486391942 47.978839765159364
43.75266718979216 40.693796534655306 47.979931663659464
43.7578146454973 40.69825411491901 47.97827502421766
43.75379802574521 40.694316017564105 47.97951607686372
43.76154158520005 40.701527223678404 47.97708068747849
43.758013232308095 40.69683507614633 47.978032415601064
43.807766427086854 40.751121717828475 47.95518093870114
43.76466235729956 40.70225981356083 47.97585505422832
43.81275076366725 40.759252314011455 47.95242618377961
43.802921465520186 40.743209971921054 47.957853328017144
43.85263661437903 40.816472106589586 47.923872042510936
43.85743389609832 40.82199797375487 47.91947447547788
43.89758765463581 40.86891547876129 47.87970286886021
44.51622237732675 39.63626283231656 47.87484686920626
44.47601510301533 39.631430302069376 47.893219536867534
44.501009769014104 39.663636491744995 47.86871018613758
44.48358033823307 39.67069281982457 47.87697548394783
44.53358603864437 39.686617185163875 47.874365789453684
44.53286044088301 39.68693542529208 47.87524839680286
44.479771928012106 39.67782427959955 47.87155783955792
44.47499382840934 39.80277134728361 47.924203058342144
44.48172646978309 39.71950849750575 47.92754595121056
44.458348699668804 39.79331667659545 47.93519501157378
44.53794828719147 39.76650244317318 47.8634361423537
44.42982530540188 39.86092401600564 47.961824807913814
44.425964933443 39.86019197432825 47.97059712771728
44.513718426424184 39.831178209690634 47.84480513814337
44.43388992028427 39.86168630928064 47.952658420133574
44.424781199996204 39.860027560673636 47.972790843910616
44.46252060234858 39.85723160112343 47.88864387179078
44.41738431557603 39.90178120915006 47.9931946866604
44.38196564041398 39.87113160754744 47.989427292080364
44.41710471422364 39.9012437363872 47.99343528345247
44.452310097808784 39.90565013622132 47.93601669446761
44.465972725751364 39.897274722898885 47.876072923318695
44.427726047012925 39.98405070424907 47.932225326964826
44.38196966540476 39.97270069332281 47.943860659332415
44.462126637829755 39.976895934677984 47.91359978758729
44.43488480654624 40.007638495651136 47.9368993448285
44.376563514268405 39.98020196883563 47.94481912646506
44.47008648390521 40.01921362016146 47.90562038905103
44.37577862117919 40.022467787918394 47.92066425267404
44.376605770541744 40.01933964897037 47.92524834745402
44.37036592419526 40.02207704147432 47.922114006641536
44.46555593065665 40.042791549902255 47.912372936808566
44.47203420211858 40.047377437867 47.90096779837664
44.36903435942194 40.12201662626059 47.87900687989741
44.345500584294086 40.05861675743127 47.88693092968702
44.471526821981506 40.10362488703781 47.88897228945372
44.31568448324006 40.19490717934148 47.97064455400179
44.3246291718984 40.1546486220529 47.92842879252683
44.311997664889546 40.1936146397628 47.97195760842541
44.395309347737964 40.15952589767032 47.901002239479894
44.44568866860165 40.14837276363973 47.90138707180333
44.35329061018177 40.23002072679769 47.958350604743174
44.31179765681092 40.199983451190874 47.97529349091674
44.385332604230676 40.204839146744646 47.93552165115747
44.340580077580256 40.23898157195397 47.96856647253765
44.34060291356685 40.23820242685554 47.96875338538852
44.30742446751395 40.22484211598846 47.97950600587273
44.350655713711035 40.23976601758294 47.958346485946656
44.35736524254291 40.23289625515783 47.95352938978148
44.340940259615664 40.27639160823329 47.971264826674116
44.339002330257465 40.27569471708664 47.973462184849595
44.34659117167921 40.27795318609998 47.96469192465478
43.035439878683626 40.442647554225964 47.93839597744409
44.24209691511855 40.37345530243517 48.012115739100665
44.28620986290366 40.29163062844568 47.99143846406524
44.21897803037679 40.35070616544567 48.02325224444582
44.344950093771516 40.28664243131052 47.96981672862777
44.348226757363726 40.29228267475633 47.96767091271673
43.035378391305144 40.442707152962974 47.93836842228564
43.03543954432179 40.44264612114625 47.938396502071086
43.03544873007172 40.44262755478697 47.938404327536844
43.035458289889725 40.442618337035576 47.938408593117
43.035463550359225 40.442611657325145 47.938411557340444
44.19438620606298 40.39388148881933 48.04349181569202
44.1942781139882 40.393612930820396 48.04316563977538
44.194074837218416 40.39363767760919 48.04300244397627
44.23908134252822 40.374368200740605 48.01329826208543
44.347655457238474 40.40744025107213 47.98993876063805
43.03520094046039 40.44287763549269 47.93828948144303
43.03532233381935 40.44272488125428 47.938357351782386
43.03567048809426 40.44237918567861 47.93851653577255
43.03653285395016 40.44144445681528 47.93894094218386
44.148913069100615 40.390338800673995 48.035730897913794
44.15128253512876 40.39008258788072 48.035439975415
44.13979839234582 40.39081229546523 48.03650296937687
44.19515197596799 40.42958715132656 48.027067839559706
44.23649725211166 40.40414937367876 48.0237752379421
43.03537837753821 40.44281414546433 47.938327353456295
43.03627643510261 40.44179406787003 47.938787235921026
43.0356125656612 40.44252211405228 47.93845726681335
43.03568971595596 40.44243659466379 47.93849596317602
43.03560214226745 40.44251995098674 47.93845730390849
44.141005202568905 40.49185293579989 48.033206818093795
44.13457132465193 40.39109153458061 48.036950953703325
44.12214503758932 40.442126341910466 48.04162900070499
44.19225056841514 40.49601900434295 48.03015634119086
44.19789011479859 40.444347982822116 48.025198137285344
43.03543715466745 40.44269496484489 47.9383775721647
43.07693652567049 40.50223313371834 47.96655973336606
43.03557317081872 40.44254666784698 47.938444844372114
43.10263026653247 40.5470909616455 48.01224623005937
43.1010228374258 40.544545671596396 48.01179723770694
43.19822731108665 40.5377565253474 48.04400795316598
44.1340897905373 40.485950716334294 48.034354475545456
44.130684997578115 40.482544002850716 48.034719288610304
44.076199120402904 40.50648745275038 48.07770313691462
44.14123184889491 40.49287784916379 48.03350167557654
44.12205611467196 40.44235139947315 48.04163631563902
44.15054064791554 40.50146525771768 48.03221371352848
44.19935065988554 40.524033349038454 48.03826438452299
43.10469284159666 40.55411966494406 48.01196814081412
43.19078001463555 40.54523952639794 48.0424210221629
43.20048283939603 40.536130882030676 48.04402613800615
43.307090428313586 40.517594900348556 48.032882678573735
43.31351940388776 40.51169804890657 48.03396802430215
43.415323307925185 40.46928922910716 48.03797029359232
43.41489989317287 40.46909672426695 48.03803994784685
43.41858737243958 40.47155383392358 48.0374418017399
43.760102440403564 40.69727135371805 47.97720582995004
43.860091345581424 40.61352268727259 47.991981181785036
43.759831597771864 40.69679029881237 47.97726530981754
43.9404590445992 40.55740158950155 48.057756874392744
43.95009273809458 40.54648729482468 48.05931745561439
44.11860515444651 40.520776853794196 48.06092565091447
44.176606120284255 40.56736900930642 48.0499749460982
44.21918320077555 40.5679957571161 47.997963385055655
43.287719538829386 40.72486170820426 48.008468014321096
43.3936658487647 40.69051638512488 48.014844773552035
43.4221469749203 40.671832809838726 48.02670305427166
43.420296168507136 40.47266289682014 48.03716429713459
43.44895295884722 40.57162632935997 48.03488823228789
43.45462237180919 40.543783599753695 48.04810336725134
43.4490750626221 40.5718097123438 48.0348771585916
43.45575996441322 40.550834726289466 48.050176525845714
43.457012250584626 40.55917287356697 48.0526000888438
43.45690409756784 40.558224276128286 48.05233470799425
43.53959485771239 40.62672886419116 48.04103931334534
43.75868562473777 40.69196291862666 47.977203394257245
43.758109702733236 40.69190741041297 47.97743852857594
43.75654063856777 40.68860974235111 47.97772574174503
43.76089514097646 40.696554211003715 47.97679306262727
43.75944892860949 40.695449561998444 47.97727510002399
43.76189564950426 40.69902091286629 47.97665080010269
43.8063578448013 40.74733080149791 47.95502240867969
44.17489154169932 40.56972357969765 48.05225751255969
43.41069119136709 40.78508439964991 47.98945925420719
43.4433277375919 40.760186084672746 48.01963062646553
43.53981753447115 40.7146186363256 48.043924253491696
43.64869810644021 40.69698417211252 48.001765753220894
43.65594515689547 40.68271892038353 48.018085184307985
43.74867320466201 40.690402360315886 47.98122432146259
43.71699484363977 40.6492697450485 48.02145312180778
43.74635387492059 40.687987634318226 47.98192513939606
43.73618820020696 40.67045596400245 48.008857154028604
43.74978255096261 40.68654821650125 47.98032651219577
43.74799369467819 40.68544502613941 47.98095231541231
43.758464616861644 40.68721183416303 47.97676239524149
43.75514442676398 40.68671145126566 47.97809768511833
43.76246883608877 40.69553533258719 47.97601909088125
43.764199898846705 40.70059889502448 47.97586232254045
43.806471072215906 40.74781437215209 47.955147380981295
43.75221459061498 40.69340605102442 47.980077490269395
43.75247598385742 40.69309521960028 47.97993302903957
43.75643451937141 40.69475181373001 47.978460069897125
43.763600700263744 40.70010595885357 47.97605808185754
43.80256526964645 40.742563411188804 47.958009073034
44.39604887511283 39.61795933683687 47.95134437044809
44.39638473382058 39.56659708179414 47.91031522443564
44.392478282236084 39.61843423204674 47.95449669848528
44.469705877474766 39.6253643838867 47.894339322477485
44.43737980043743 39.66623180435135 47.89970749315397
44.35574740132785 39.67186518738351 47.968311046116725
44.48109086144799 39.672190603575444 47.87586778530765
44.43112719547932 39.778900735720555 47.973226355302344
44.33354030988558 39.74279382192265 48.00974748135727
44.47862158897716 39.67824963540792 47.8712511730941
44.38186604918253 39.85923088992829 47.999568246682664
44.38192384986972 39.85922497982935 47.99954887124734
44.38171296777082 39.859247783298564 47.99949857708388
44.38550096663088 39.85883143558354 48.0010588803596
44.3801487567409 39.859410911630306 47.99971205300287
44.35931518347458 39.866461681912554 48.002510093092866
44.38794155220937 39.85856000787835 48.00237396419668
44.36130529519309 39.86529836096027 48.00263726798187
44.345515497406666 39.86615006819943 47.98628668645536
44.38759757532245 39.858597806061 48.00223316618308
44.323578039005376 39.89051523315182 48.00137191888192
44.327438842999626 39.885682534183424 48.00060612088331
44.317981917104824 39.896136090426936 48.00089575422389
44.350046205416206 39.87520395000485 47.970680404181174
44.31778146388481 39.93773834547849 47.964328413049074
44.31347916937882 39.927659702861355 47.98021733062812
44.36566109107406 39.96753150472103 47.94280417802637
44.27952347087728 39.97626808631123 47.98545571670735
44.278649382369956 39.969687988431836 47.9891254549538
44.27432353540634 39.9750047066193 47.989330650488
44.31647266329123 39.966657545621864 47.956277837109454
44.36870536057951 39.98006305758284 47.94464407333339
44.26211248295033 40.04260068248185 47.980005415803916
44.24905824225835 40.0454571305634 47.98882801170961
44.35539370527434 40.0200509313607 47.927549171909824
44.20581984366504 40.08866880936499 48.00110278703589
44.20032899095792 40.07836142895242 48.00417064324516
44.20404795746867 40.08658980944961 48.00166355031272
44.283047477292655 40.099798474752845 47.99903293863176
44.307999719037255 40.109185974567254 47.95799222621311
44.23788611685187 40.143290930368714 47.986691051490276
44.21420999146914 40.14281113657192 48.00445518121818
44.28723779650966 40.18025649301864 47.97840410395703
44.244011679265455 40.2010598557097 48.01696395470152
44.20697108757578 40.15329119736619 48.01602856825832
44.204892014697876 40.15862333589737 48.0206620616688
44.25051833699547 40.1930528025155 48.00778167716981
44.302244870492146 40.1958989694944 47.97832282586354
44.24487421564437 40.2145641302558 48.024546409233366
44.16330757009345 40.25907293152151 48.09733496693267
44.25716105217535 40.21356140222295 48.01573589537398
43.03548344110043 40.44260555896386 47.93841541171522
44.15777274354903 40.30357755302075 48.06765933818471
44.16064492610653 40.259414891751796 48.097381949120674
44.14981906051729 40.30011087775063 48.0706503417944
44.191277568554455 40.342181202916784 48.04946960329619
44.288990454776005 40.28847281196845 47.99075930966579
43.03545411214941 40.44263206659033 47.93840300528645
43.0354845797332 40.442604238700525 47.93841600512701
43.03551868369461 40.442564206224404 47.9384339662622
43.03552254290178 40.44256221821406 47.93843502300363
43.03555703810246 40.442525267103896 47.938451831165125
44.134164833575596 40.39086897646348 48.03682025401005
44.04275434927741 40.296766219665756 48.05459475217754
44.05085797121879 40.33912551330662 48.08052252641397
44.151644929327375 40.389769769697615 48.035210047318046
44.19012335653574 40.35627500712018 48.04402331697307
43.03565645492937 40.44241141001231 47.938503098992385
43.03560628176671 40.44247361684088 47.9384754037083
43.035753013771085 40.44232455739598 47.93854378399808
43.035716651500316 40.44236357883259 47.93852603909143
43.035735503522574 40.44234828175131 47.93853334524232
44.07352835896512 40.37634823265621 48.057227542566835
44.04965491356782 40.34500212814339 48.077416197461396
44.03167690146506 40.34332125783372 48.05629710039746
44.13252463569836 40.391043999799535 48.0370200561559
44.15256144619684 40.38988687023151 48.03524403374913
43.03618304022903 40.44187278806074 47.93874991321203
43.03576447715181 40.44233821955191 47.93853941225387
43.035720733763924 40.44237273347078 47.93852283583507
43.035646172397385 40.4424602345204 47.938483575841005
43.03564720027728 40.442456812266165 47.938484967648904
43.1330448166215 40.417490498089336 47.974495017070204
44.02987966331837 40.33521323683254 48.05794744200584
44.02977778052877 40.33478982981296 48.05798167201586
44.02896616409748 40.331264561206325 48.058503830511604
44.0723949491105 40.37856248535364 48.06103191932122
44.03162150765978 40.34305686350189 48.05637170008517
44.11504234904739 40.39198284925858 48.03852170129992
44.13394171332442 40.39109891225336 48.036987120488625
43.03559098094496 40.44252711184026 47.93845370597679
43.19692710217214 40.53613167144161 48.04584663658853
43.30476320450635 40.36777118650422 48.06244511142292
43.28444770392579 40.45832746396316 48.03928237773166
43.31145396223085 40.37571465458245 48.05942239559076
43.36097330145071 40.428781383147125 48.04482421948518
43.35909824320462 40.4270207088718 48.04509056710708
43.36297117909204 40.43194529673153 48.04473650155708
43.86256179939677 40.568418853612904 48.03858370688114
43.950827746633024 40.463708474933405 48.0427216403474
43.85406651969666 40.57655454275983 48.038479615126555
43.96216353196755 40.45269492976921 48.04550271039537
44.02840212904154 40.32885727784105 48.05879692069808
44.03488228542291 40.43144973461489 48.095577596064985
44.11513285184752 40.43807298208104 48.041867852986854
44.12154678990399 40.441786327170966 48.04164946840123
43.26626051469423 40.47906888033955 48.036140072575755
43.368684766767686 40.435914102688095 48.043712332329875
43.411827759662444 40.46730814329587 48.0385410823368
43.36639531004176 40.43543746907071 48.0442922714831
43.42124802799645 40.473834155526625 48.03701572014266
43.41903545008354 40.4715923777755 48.03736629885292
43.430182448556096 40.47998481635946 48.03556860755321
43.43389287775877 40.480665324954714 48.03494730426057
43.43212154878109 40.477973190126605 48.03521823460956
43.43506085016184 40.47735319812625 48.034713483951435
43.49251400875184 40.50434553532546 48.05194556018971
43.490596342878284 40.502902371298305 48.0509073075518
43.51294936301219 40.51292408286524 48.061204020458355
43.512112119655555 40.51239687879727 48.060778038410035
43.61622092658638 40.57399598376585 48.05684422774381
43.615125944686156 40.57300961921904 48.05718399859465
43.71100351430427 40.63793410799065 48.03857975315465
43.710662173134104 40.63741313369276 48.039400126363255
43.71392031331551 40.64075982437204 48.033593263825
43.71313970282356 40.639705076940885 48.035299285513894
43.71702725224012 40.643472908904634 48.02865113546029
43.715228119794716 40.641371733468205 48.03217271039462
43.74354458290623 40.669481306994506 48.02003260933422
43.74330748154225 40.6694166305237 48.0223431881042
43.743918303646716 40.66943852156747 48.0204133098447
43.94026053459518 40.5534791835846 48.05501541954327
44.07418790424454 40.507280752988734 48.079302144485354
43.42045021640162 40.47284054595576 48.0371401224666
43.425085872015124 40.475752690495156 48.0363862554249
43.4541053003822 40.53743827716638 48.04639036946688
43.45526198589624 40.54287637566635 48.048073424329516
43.53400934910381 40.54708880052051 48.020397614115154
43.712597517878784 40.64162453941331 48.033183665200895
43.71524362231232 40.644749251869946 48.02796147086577
43.71930775358959 40.64808173285531 48.02176614786924
43.74303991584657 40.669734326255586 48.01409187456059
43.74426463135228 40.6695995549783 48.015188253519476
43.75881077438858 40.695127272951325 47.97750635206307
43.64383864714686 40.621123902777995 48.0003277546267
43.71608698916191 40.64774518628972 48.023807957629344
43.73695392097065 40.67033393487902 48.01059234525411
43.73967451842027 40.67027369111558 48.00638114174549
43.754771778225106 40.68709585959463 47.978297037290915
44.30436195111689 39.638378895769165 48.017339040603154
44.26002666218991 39.68007102400367 48.06122918176743
44.26224685651813 39.68063236293275 48.06263301732249
44.26031978326895 39.68014141384555 48.061417227630415
44.263876743744206 39.68098822958588 48.06370446529825
44.27479481415501 39.68672693139687 48.02292786378942
44.26114197221915 39.680459982816835 48.06185664413387
44.26228974979775 39.680797938203995 48.062547673951244
44.31406383826408 39.741249726047855 48.00846063045269
44.271803288563774 39.825387408946476 48.05093427810194
44.277075155218064 39.731989914393395 48.06317657040392
44.27051214838822 39.82506377623615 48.050640436496906
44.31707919723144 39.839233242413094 48.04298227973962
44.2812130613012 39.8276221524404 48.05314490229571
44.26982743977202 39.824853858800495 48.050505973402664
44.319736700792966 39.840357404983614 48.04139366266717
44.23390726316071 39.82486228487231 48.04457884217601
44.231124259398925 39.82166242215709 48.0455000903283
44.23149406959517 39.82456317797131 48.04429103593377
44.29871369633983 39.85160477698132 48.041028919559366
44.33857237599134 39.872611250267404 47.992398855779136
44.23843408453051 39.90559068746292 48.02550082827388
44.20324386393291 39.87847351216591 48.03873287012531
44.30988427359041 39.88363558069187 48.00612159918255
44.17012368059878 40.009969551953596 48.0324696790498
44.17809809422422 39.96231065283836 48.040035963600346
44.168913187449405 40.01093118928497 48.03250773016132
44.25373723456781 39.968398457290846 48.00543192520409
44.31353443256322 39.927346334116386 47.98020725398268
44.17712039127291 40.00395630690259 48.032562567010395
44.1594775405142 40.01873994940653 48.03258916526565
44.21279156440086 40.011689537782374 48.0063150107589
44.143507015278004 40.03414242395004 48.0312241361771
44.142251608966006 40.03134162124332 48.033875295495434
44.13967121339747 40.0335135965963 48.033872474537695
44.1567418618731 40.03125584266519 48.025563275883556
44.19331286892354 40.059423107586596 48.01007572470844
44.15775831309301 40.06832926458265 48.01589305782686
44.144871099597985 40.0349779011832 48.02986160797994
44.171776305021055 40.08087192002529 48.00925930037363
44.09494486993608 40.10081643811843 48.02333968184026
44.10132048637412 40.09105583896549 48.024628420624225
44.091491070924725 40.104648744863034 48.02346651527087
44.169740937966466 40.07947264653508 48.011769488464836
44.205019475167646 40.14135577134887 48.01082482888107
44.02527321748789 40.241211229441035 48.04274688262047
43.98852880501728 40.21843458395001 48.01993720571434
44.19914121826932 40.15995403041768 48.025911698921135
44.02055229619867 40.23843606658278 48.03761457976006
43.988675433488865 40.21853373864553 48.01987814416448
43.99067559368729 40.22014137615257 48.019051541833896
44.02769364697957 40.242634952820126 48.045379252481325
44.16106965038221 40.25935037049935 48.0974310669859
43.03548525411102 40.44260367783093 47.938416271727036
43.0355224535894 40.44256581314592 47.938433636336114
42.98764447794153 40.17898738913237 48.10598415822027
43.02902668413108 40.21037882857583 48.022087126493226
43.98673322539253 40.217454074298196 48.020641270153575
43.98670654151442 40.217436100635325 48.02065201253398
43.98666541697451 40.2174054490893 48.020668810728374
44.01815873763903 40.23726642495767 48.03528566283735
43.99034208670645 40.21997884697295 48.01918070481723
44.024504029047435 40.2408385114833 48.042002098744604
44.02871333944209 40.24326674015616 48.0465250527342
43.03559020923246 40.44249280445865 47.93846681572791
43.039024994543595 40.328315307205784 47.9803786047034
43.03562170381746 40.44246577353887 47.938479587811116
43.03559671727873 40.44249276075848 47.93846732773356
43.10858784729573 40.388610757846294 47.99529880454409
43.98596173177693 40.216852005364885 48.02095862402841
43.937780651658855 40.21095834396391 48.05090784852962
43.93416945273017 40.21066625019032 48.053302201555255
44.025440984767485 40.317490919932546 48.05825294000851
44.02710681422176 40.32419062974783 48.05805877549759
44.05047738862124 40.34022646944943 48.080222335157046
43.03568750129478 40.44240492849154 47.93850794932912
43.11134353117307 40.38658205398805 47.99749191985353
43.146798412310766 40.39270432887305 48.069010756702006
43.23526799384372 40.366596486928124 48.10343343581108
43.29506707692157 40.35659210431533 48.066927055054784
43.29312420096376 40.35448853852152 48.067866784040206
43.29695259180965 40.35831138495307 48.06591672821035
43.94547593849487 40.26244662214178 48.06415690220204
43.943462799901425 40.260371290799306 48.06480431495268
43.73835819804693 40.277510522054556 48.1716715763136
43.97747164844648 40.309608949775495 48.088242339619406
43.93163688102023 40.210477905644204 48.05498696913288
44.02705687055253 40.3234467885434 48.058953829394966
44.02886252999015 40.330931982101326 48.05837798027716
44.03153218856374 40.342666363583064 48.05643332554307
43.30388939519958 40.36669035108929 48.06282662207548
43.31040760778324 40.37384059814673 48.05970226360425
43.30430932898829 40.36566733019068 48.06217245969921
43.32034009044422 40.38633181058712 48.055428402693934
43.318205985006486 40.379411526311216 48.05505356846569
43.34996913003334 40.420184146512604 48.047368486794994
43.34829737941581 40.411530795584305 48.04659035337635
43.3711068368796 40.42333601646013 48.04335465414049
43.3665847273738 40.41957863412608 48.043811435441384
43.42611486708792 40.468265222147494 48.036130698195365
43.42038592266305 40.46641569905062 48.03708133375133
43.43225505701197 40.47040158680912 48.03511349346143
43.42792997157075 40.4694550247742 48.035836056697754
43.48182482687032 40.442017990845656 48.057949816736624
43.48679353497381 40.435504231212995 48.062238811839535
43.4920682349463 40.42880505917633 48.067118859328986
43.49693930447459 40.42234432100141 48.07120994922723
43.56928875118757 40.44539872473902 48.10284018944911
43.56940547810046 40.437013276430754 48.10487454526417
43.57812655310998 40.450190640070005 48.10714092444954
43.57705497116731 40.4413502229739 48.108552696238554
43.65243731587877 40.513392954363006 48.098014507043345
43.661184867841456 40.407096330884876 48.17991978586997
43.701100086808836 40.376230161675764 48.128392150194095
43.70698688440808 40.35718986304124 48.127618041642386
43.85719634901515 40.393928569854566 48.0937790417004
43.98465292471646 40.316739807654066 48.085988308934496
44.02826043488994 40.32826829314257 48.05884473697281
43.3650772756018 40.43436864557626 48.04450519490679
43.41637062815179 40.4691529015653 48.0377913602329
43.4372134030368 40.47582207781862 48.03433215569416
43.44006990835747 40.47364021265921 48.03382449402389
43.431669863766345 40.473394390937955 48.03524510612471
43.50881067603271 40.51014171323689 48.05905148970935
43.5281072617162 40.51900918104043 48.067997653104314
43.620084465311606 40.57511631185919 48.06091811786547
43.71063693625817 40.63631170958847 48.04078360029099
43.71321112394069 40.63896331158586 48.03618644615896
43.7292557915096 40.63890096622503 48.06755546555539
44.258711644555106 39.67971989258908 48.06041124870867
44.26005739839344 39.680076416429415 48.06125034531185
44.2537396361565 39.67870505507989 48.05709135372911
44.253286118179105 39.67849890776516 48.05687108676402
44.26716418855485 39.68171139865197 48.065861630276906
44.255429901630414 39.679402126591654 48.057964071993325
44.23628993525239 39.70495573462551 48.083345124010386
44.2618877520047 39.68078099308526 48.06223193070771
44.201722265395546 39.77280732456267 48.07011372707974
44.18704441231576 39.74453496429629 48.072209899494815
44.1844591069308 39.74490086467983 48.067936151964126
44.21608746800719 39.79822148460221 48.07153353166967
44.19887303491113 39.80670664273627 48.03808364011002
44.194117240905925 39.800205302031074 48.03671116248164
44.22959766420361 39.82052127192534 48.04469004913903
44.1959315631685 39.8029353532488 48.03731682543014
44.19440800893875 39.800678221415005 48.036819855280946
44.19466747092625 39.801060772143344 48.03690388509676
44.224798363027844 39.82178067878885 48.04445559472842
44.16937552958005 39.952039197016305 48.042844424504
44.16986336744314 39.95069622470258 48.04283282903721
44.16921535358282 39.95226455526215 48.04286458876591
44.20308441307402 39.88040097632076 48.03862925665102
44.2031190713493 39.87966582101312 48.038701619590135
44.14950631824678 40.025422748287184 48.033754244974915
44.0863826554248 39.98476352138564 48.075552002475376
44.15693541294052 40.02016385856528 48.03307862874696
44.07950152346389 40.00903691007865 48.06524108828707
44.083788924856606 39.98603309527458 48.0761078741653
44.01578101910139 40.00770719520549 48.11388278397212
44.14041437799733 40.0288052661466 48.036680732510305
44.149531302191384 40.02443080548264 48.034421900162904
44.082241636545 40.04908286495214 48.06782782142711
44.004037058636605 40.014497784882444 48.12275105636229
44.134605278150644 40.03190359321904 48.03790614445079
43.96780644481389 40.151193448660464 48.12730745102879
44.01640160593395 40.09106316512897 48.13323182249931
43.965372823245836 40.14580785027826 48.13042675196776
44.09904382992312 40.08576806590208 48.06988993142689
44.14397088698172 40.033827001346936 48.03117305164439
43.99001770211318 40.201373526521735 48.110507228821874
43.96639014301738 40.1512910250552 48.12397805666746
43.917651053531785 40.16188293067646 48.09948910032905
43.983812009253995 40.21523402190268 48.02183801479348
43.98620280805452 40.216864326678945 48.02087389308394
43.91986192359809 40.208185414188826 48.06234088694967
43.92349922809082 40.20574594582314 48.09404242673479
43.903522252081615 40.20799865142448 48.07355855821784
43.97979900028105 40.21249818005671 48.02345626025809
43.98498310123241 40.21605971975014 48.021363529374526
43.98848384246429 40.21840422059305 48.01995531308388
43.02778693876404 40.127182969264 48.11787639520155
43.0768122030413 40.1299744577948 48.08815282510146
43.89012782145328 40.21235342321595 48.107701327971235
43.872527868578736 40.20945673557816 48.10688801298957
43.88944088358573 40.212909531786835 48.10967088125256
43.92671766913473 40.20893685431487 48.05786189179163
43.98331666921317 40.21504854937375 48.02202526185982
43.990029252154244 40.219736625054324 48.01930923228699
43.02904253825723 40.20971227429326 48.0223318809433
43.15581799993944 40.19896123270481 48.10129912655549
43.08166604654477 40.132863944053796 48.09050735208305
43.21502879907838 40.22981056060583 48.13095671107551
43.21388530596529 40.2270079883735 48.13233555952934
43.21604575982501 40.23325558925505 48.12910348274645
43.75052142322724 40.269747500218585 48.16415516732796
43.75332094188617 40.268190562869215 48.16281528723954
43.7384054627573 40.2751268092763 48.167647251659794
43.904802011963504 40.21601299362361 48.11210115464216
43.8958921047302 40.214359422575626 48.11112975013887
43.92041083972497 40.209453836905844 48.062390979214875
43.934757702314954 40.210330476218786 48.05278249602814
43.11387808862854 40.38471714711454 47.99950899339325
43.19971131783621 40.31200705799313 48.12740611140163
43.21723369981541 40.23659902820462 48.12738675414249
43.24624315374844 40.29221312370935 48.094189182069115
43.22458373132289 40.25852918825435 48.11594649119719
43.27594656318531 40.33600225214629 48.07620945972665
43.24579132458269 40.295796311835744 48.09321407638064
43.2956470726021 40.35528682125468 48.0660564181632
43.29483356056949 40.3545270153895 48.066486827973264
43.29861534127777 40.35821027640681 48.064532113421926
43.56366284436805 40.26163596575837 48.16982510861769
43.56394759628928 40.26217828765547 48.16952382656237
43.56314633093154 40.260653034083774 48.17037100834519
43.56182521890095 40.25813344221879 48.171771446005195
43.562663733341296 40.25973036521253 48.17088430242279
43.67303308940314 40.31762225189072 48.21392230695728
43.67115666864625 40.31732831614841 48.21245701914022
43.718922846171345 40.28312604816624 48.17215791396277
43.722350812623006 40.281270908800025 48.17060434300745
43.7393960635964 40.27598698892919 48.1695684593429
43.911732483850194 40.21738354050238 48.113108973797544
43.92990610953941 40.21029607550595 48.056120380504744
43.30176638758273 40.3627391181213 48.06334902586525
43.31489907872677 40.37343831115013 48.05592267108301
43.320768847096325 40.379913577445855 48.05312022200458
43.308480309540364 40.368420767349576 48.05961705274613
43.36299626132717 40.41424568676149 48.0438673831073
43.363180792461655 40.41262494465207 48.04361747045978
43.37956508492639 40.4237885372795 48.04164309544613
43.37361543001408 40.41961198615613 48.04234405824237
43.48959085661647 40.43185400006143 48.06467912775968
43.472538967964596 40.37571833498248 48.08054204414289
43.500341924544095 40.417724998815174 48.07390669632325
43.539930782215144 40.32065656465636 48.13030492143595
43.51037499698121 40.40456367443892 48.08255452161472
43.57086466461806 40.41924108631193 48.109929661857244
43.65336571123636 40.393406284243554 48.17734149149693
43.66044584790453 40.39947484165578 48.18165581752015
43.73253165801789 40.27978949276233 48.1728282087358
44.23669882632459 39.69917711837819 48.07650588917322
44.18428233108585 39.743588482909814 48.067881279397355
44.085356281684824 39.695937139193205 48.1359370102348
44.21221974643781 39.72238638877468 48.07877969849886
44.10939764655733 39.74505298800038 48.09624276452519
44.08340898417884 39.699347049365755 48.137994717523
44.04378151766679 39.751082324409595 48.16533785764888
44.18326711286847 39.74440164367099 48.06608421560195
43.98672770295542 39.79584171167547 48.19583330963419
43.98801822077877 39.79275421086882 48.19697108767291
43.98679466270261 39.795583805063245 48.19593435550297
44.129528799263916 39.77850481533294 48.093837504931344
44.1936109594065 39.79950468943652 48.03656225945581
43.979492663995885 39.8155271677693 48.18843299249862
43.97705259585729 39.822418380694735 48.18582876635827
44.193703384968494 39.799643732500726 48.03659310282899
43.96124339737993 39.91420696869335 48.16593990717714
43.97047414681453 39.843943345818616 48.17754099425311
43.94140344974251 39.89178119408352 48.151656827412324
44.058153657085725 39.97021108658387 48.13514002664957
43.983078847899506 39.98194746034581 48.13323397157368
43.925238394495324 39.948715569624575 48.147804040862496
44.073462774759285 39.97857264645205 48.08242811769147
43.91614707870954 39.978177692825696 48.15191465208319
43.92217913318207 39.95435744071681 48.14816699073535
43.914371960174904 39.98091512457992 48.15199719029869
43.992258480166555 40.002225085515086 48.12936269137543
43.91544942551507 40.00732001111496 48.158649851275484
43.914017534857734 39.99954135788265 48.15633141078499
43.9137050879956 40.004408028193126 48.15739311556966
43.9545933159119 40.055945273984456 48.16908944614812
43.997531686352325 40.014825314197864 48.127252707133295
43.90583718530076 40.11841658963911 48.181103728673804
43.90842736918784 40.11378801606628 48.18426200640836
43.90488218587224 40.120250566235526 48.18139075244345
43.917473630028724 40.13532449434586 48.12547997793195
43.962528167959796 40.1391215798001 48.13469541327542
43.83170512605486 40.13582689922046 48.138166014633335
43.82975025240502 40.12704573553614 48.1422236060242
43.81973291001746 40.128776791628475 48.14057702877614
43.900210542738016 40.166153109685624 48.10948151788362
43.910173678330985 40.16173968678013 48.105694349866816
43.708338325622805 40.18381850759368 48.13627516888212
43.745960176665626 40.120060704248075 48.17689339141885
43.703101096603206 40.18349434558587 48.137294272772344
43.770658437643675 40.139164620456995 48.16322663604
43.7585854945558 40.12961083735838 48.1711766164363
43.89014421032468 40.213386480134766 48.11078360647176
43.87564279512838 40.21004350848549 48.10725357860459
43.08124140487017 40.132599640213094 48.0902829666349
43.21144639799533 40.22115804695133 48.13519249989236
43.20929785203244 40.21801657233437 48.13638506614565
43.2018510742881 40.19372897999948 48.16395405164467
43.210926365362695 40.21738332734415 48.137465109832945
43.20924175827693 40.21267966876051 48.1398748122684
43.214416554215745 40.21960687953762 48.13742311699364
43.554089929857675 40.24339820255844 48.17995809245551
43.551627385627825 40.23870602171981 48.182565227163344
43.55256485215914 40.240502665166645 48.18156486125608
43.55317059016478 40.24164280008069 48.18093419363827
43.592732961358216 40.19184996605987 48.16914343617731
43.73199119553598 40.27705982996416 48.16794308761421
43.80711144072815 40.26791354491275 48.19201534535913
43.89294855158401 40.21382979371243 48.110858651138756
43.216692263931265 40.23519023583568 48.1280934636873
43.22231860198823 40.25148870428555 48.11965778795507
43.22552276312948 40.25992433260244 48.11541069716195
43.21691214590724 40.22587174415636 48.13431617259764
43.257112241595564 40.28804674854527 48.09974823611853
43.218413787235626 40.231014329318754 48.131543063422626
43.26466474664953 40.29291576333154 48.09643311823241
43.25943820790461 40.28287673713734 48.10280047916445
43.30193530924259 40.36342865885886 48.063421971237176
43.43392849076396 40.226739457260166 48.12682453395407
43.54724744961047 40.23038823956785 48.18718126235426
43.50278417059896 40.17083017843121 48.182730960858564
43.55000354442141 40.23564008360821 48.184263094125335
43.54568372881981 40.22742655902835 48.18882327428263
43.55698599336926 40.24893148461283 48.17688057906527
43.54863185165401 40.233038281472545 48.185706357064426
43.56712540197934 40.268231411993916 48.16616089424177
43.5525382951496 40.24045613482808 48.18158989493488
43.56285382894245 40.26009209359253 48.17068341127319
43.61233289525522 40.2857762146582 48.194076435269565
43.72379188842904 40.280627489267104 48.170182877493055
43.30629107922884 40.36643464270546 48.06079320256849
43.30910406525817 40.370763880605985 48.059824424768124
43.37267054312629 40.418898847470885 48.042448882803896
43.47578617922264 40.37231211407817 48.083121698668506
43.54203377204038 40.317540077877055 48.1324886157103
44.083219244216544 39.696548885907035 48.13875684437636
44.00108195476928 39.75268106885939 48.228897815379916
43.98077129070711 39.79608061114843 48.1966063157533
43.98554849888131 39.79455137631094 48.19656147579556
43.88096678848625 39.91692274761273 48.20479868732845
43.88078029096302 39.91691794651105 48.204951062240525
43.88061645706614 39.91691401548942 48.205085106796965
43.97166439780898 39.83572113264997 48.18090125264963
43.97555855419889 39.826461188943554 48.18431016348381
43.89182640083321 39.9206317026035 48.195602959813584
43.838820033182685 39.919330278586315 48.238253975581195
43.92800622425808 39.91932162091069 48.15287780625213
43.83884833951626 39.91960190114012 48.23818528726344
43.83883602822705 39.919506799283226 48.23820670355748
43.83885067611441 39.919687510689535 48.23815641499835
43.88811313254449 39.9207422212757 48.16158532861304
43.925342208757314 39.94815709220212 48.14770407268155
43.83884234515527 39.91955996574029 48.23819411033642
43.83884433623886 39.91960258455214 48.23818064502166
43.838838912288054 39.919536497779845 48.23819896203852
43.86741566578435 39.97422088232557 48.175617170789124
43.91133260881671 39.981272320267976 48.15110447419917
43.73066274857713 40.03336494180003 48.22536138166057
43.735982261884246 40.02866588854172 48.22673131125505
43.66941820083403 40.060617101018366 48.22054421641848
43.869456154915916 39.97727917374937 48.17499561453724
43.880683204574545 39.99375957610875 48.174759220890195
43.667953678531 40.06074033086591 48.213964034286846
43.667711348990835 40.06031959496003 48.21546717526329
43.663350939509044 40.059007313761406 48.20574202819282
43.73541871634226 40.11112051115388 48.18736019898611
43.82779312407339 40.11587951186981 48.14742631610177
43.55956843165417 40.162291758916986 48.19582286623215
43.561280737481795 40.16060099464965 48.19518186237992
43.55335988280913 40.16842128996734 48.19815304477174
43.57907841745269 40.1430291864223 48.18850631600326
43.61307774223769 40.085157874869736 48.19233049832361
43.6653148313711 40.059361009544084 48.211516727211595
43.66309573716441 40.05885756014324 48.205601475192275
43.73081772459709 40.108501742498596 48.18436740138051
43.751856795406376 40.12426680495982 48.175721470612515
43.20908415078181 40.192010117473224 48.16546607563664
43.21457556538468 40.19133532159765 48.17347068434043
43.21194073767417 40.19258977461863 48.17975626857835
43.21197976631012 40.19277723924951 48.181905049522044
43.29485148944753 40.169071393679076 48.17473348528037
43.2974285337254 40.16832917128981 48.174543842618796
43.49564037753352 40.1643563667873 48.17564978121213
43.49427618081927 40.16311903723451 48.17429770889023
43.49940971743359 40.16777405697484 48.17938579397086
43.49714666599181 40.165718663716426 48.17714329242912
43.50966573820331 40.1770786964248 48.189550288450164
43.50739267917115 40.17498848082863 48.18730188465328
43.51733301838179 40.1840249923404 48.197150664571055
43.51444098865808 40.181324100536806 48.19429647729366
43.54068713661232 40.21786430804757 48.194144772974596
43.545895965983235 40.22777896759217 48.18863793629954
43.59562041399377 40.18169334674663 48.16979265931522
43.216247287325345 40.221813497064204 48.13671640725422
43.217442628381754 40.225873560063015 48.13453103221561
43.226076796888144 40.22718350499928 48.161895607824825
43.49879935846475 40.16721792668558 48.178781254814986
43.50235693934939 40.17044523329867 48.18230712812941
43.542559212920835 40.22148863500175 48.19211944586765
43.54506492538597 40.2262558725222 48.18947205671033
43.55148838860686 40.23845674693152 48.18270059603225
43.83881255139384 39.9193088816222 48.23825362546012
43.783352401229465 39.90880124458569 48.24709015821698
43.838843021413844 39.919663298511075 48.23815690893669
43.656177641954415 40.00779878056462 48.210969574337355
43.66732073839614 39.99822552718025 48.21040248534499
43.8014234493159 39.91684412397126 48.241133278792574
43.64201284277651 40.04239491156363 48.21802846028681
43.6585558349833 40.054674121022074 48.212028762115914
43.6673951288202 40.05971734465844 48.21774138374366
43.49076887399132 40.08984341576008 48.24806722017503
43.51504164971954 40.112865102724115 48.26995566657585
43.60518170676197 40.08716103737183 48.19920123569008
43.65775138116483 40.05451678633668 48.20973648751314
43.66297538035698 40.058792417136345 48.205502973150104
43.29958445124058 40.167709772957544 48.17440234673097
43.4612090808002 40.155897412033845 48.212068803308625
43.49589576993866 40.16458070151093 48.17590404368626
43.50504255024773 40.17284795785465 48.18497403899949
43.512676424492604 40.17972487385968 48.19254740282535
